<?xml version="1.0" standalone="no"?>
<!DOCTYPE svg PUBLIC "-//W3C//DTD SVG 20010904//EN"
 "http://www.w3.org/TR/2001/REC-SVG-20010904/DTD/svg10.dtd">
<svg version="1.0" xmlns="http://www.w3.org/2000/svg"
 width="500.000000pt" height="350.000000pt" viewBox="0 0 500.000000 350.000000"
 preserveAspectRatio="xMidYMid meet">

<g transform="translate(0.000000,350.000000) scale(0.100000,-0.100000)"
fill="#000000" stroke="none">
<path d="M1472 3108 c-5 -20 -3 -58 4 -98 7 -36 15 -126 18 -200 4 -109 8
-137 21 -147 35 -25 56 9 56 88 0 19 1 77 3 129 4 103 -18 215 -47 244 -25 25
-46 19 -55 -16z"/>
<path d="M1946 3088 c-13 -40 -30 -224 -27 -289 1 -27 28 -47 42 -32 19 21 31
251 16 306 -8 28 -25 36 -31 15z"/>
<path d="M2269 3076 c-29 -14 -38 -54 -29 -131 4 -33 7 -123 5 -200 -2 -147 3
-165 43 -165 15 0 23 9 28 33 4 17 7 38 5 45 -1 6 2 12 8 12 5 0 11 19 15 43
3 23 8 62 12 87 11 70 8 207 -5 237 -15 37 -52 54 -82 39z"/>
<path d="M3088 3029 c-29 -16 -37 -75 -40 -295 -2 -224 2 -247 42 -237 11 3
21 12 21 19 1 8 2 17 3 22 11 42 17 71 21 92 3 14 8 39 11 55 10 44 13 78 19
201 l6 112 -27 21 c-30 24 -32 24 -56 10z"/>
<path d="M3857 3000 c-14 -16 -26 -37 -25 -47 0 -30 -15 -148 -26 -199 -16
-78 -39 -162 -48 -180 -12 -25 4 -64 27 -64 7 0 24 14 37 32 30 44 78 145 71
152 -4 3 -1 6 5 6 6 0 14 20 18 45 3 25 11 45 16 45 6 0 8 7 5 15 -4 8 -2 17
2 19 5 3 7 20 5 37 -2 18 1 38 7 45 24 29 0 88 -47 112 -18 10 -25 7 -47 -18z"/>
<path d="M628 2933 c-28 -31 -42 -63 -28 -63 5 0 12 -11 16 -25 3 -14 12 -25
20 -25 7 0 17 -6 21 -14 8 -14 12 -16 33 -16 6 0 10 -7 10 -15 0 -8 6 -15 13
-15 7 0 19 -9 27 -20 8 -11 19 -20 26 -20 6 0 19 -9 29 -20 10 -11 22 -17 28
-13 5 3 7 2 4 -4 -4 -6 5 -21 18 -33 14 -13 25 -18 25 -12 0 6 19 -7 42 -29
44 -41 72 -45 92 -10 14 23 7 84 -10 94 -8 4 -14 15 -14 23 0 8 -21 35 -47 60
-83 78 -103 99 -103 107 0 4 -9 7 -21 7 -11 0 -17 5 -14 10 3 6 -1 10 -9 10
-9 0 -16 5 -16 10 0 6 -8 10 -19 10 -10 0 -24 7 -31 15 -20 24 -63 18 -92 -12z"/>
<path d="M3536 2837 c-10 -60 -16 -196 -10 -212 12 -31 31 -14 48 43 25 80 14
183 -19 196 -10 3 -16 -5 -19 -27z"/>
<path d="M1264 2805 c9 -103 107 -239 129 -180 6 14 -25 120 -45 159 -17 32
-61 76 -75 76 -11 0 -13 -12 -9 -55z"/>
<path d="M2735 2828 c-21 -67 -42 -166 -41 -200 1 -43 22 -63 32 -31 3 10 9
27 14 38 27 68 36 137 24 183 -7 24 -22 29 -29 10z"/>
<path d="M4674 2658 c-33 -11 -68 -42 -252 -219 -61 -59 -114 -108 -119 -110
-5 -2 -18 -17 -31 -33 -21 -27 -21 -30 -6 -47 11 -12 26 -17 42 -14 24 4 129
71 163 104 10 9 40 32 68 51 27 19 50 39 51 43 0 5 5 5 10 2 6 -3 10 -1 10 6
0 7 25 35 55 63 61 57 113 145 92 158 -15 10 -44 9 -83 -4z"/>
<path d="M4130 2541 c-35 -32 -41 -44 -38 -71 2 -19 8 -35 13 -37 12 -4 105
118 105 136 0 23 -40 9 -80 -28z"/>
<path d="M636 2461 c-66 -13 -37 -35 108 -83 63 -21 83 -15 71 20 -13 44 -106
76 -179 63z"/>
<path d="M3408 2402 c-6 -22 -3 -132 7 -284 6 -100 6 -107 -12 -106 -18 1 -91
-8 -151 -18 -18 -4 -35 -10 -38 -15 -3 -5 -10 -7 -15 -3 -12 7 -38 -24 -39
-44 0 -27 80 -49 169 -46 100 3 116 -7 113 -70 -2 -22 5 -68 13 -100 9 -32 14
-61 11 -63 -2 -2 0 -20 5 -38 6 -19 12 -53 14 -75 2 -22 7 -44 9 -49 7 -11 8
-220 2 -250 -3 -14 -10 -29 -16 -35 -14 -14 -12 -48 4 -69 10 -12 16 -15 21
-7 5 8 11 5 20 -7 7 -10 17 -15 21 -11 4 4 13 3 19 -2 8 -7 21 -7 38 -1 14 5
28 8 31 5 3 -2 4 -1 1 2 -5 8 26 64 36 64 4 0 5 9 2 20 -3 11 0 20 5 20 13 0
5 227 -8 260 -1 3 -2 9 -1 13 1 5 -8 38 -19 74 -11 36 -23 79 -26 96 -2 17 -7
34 -10 39 -3 5 -16 47 -29 93 l-23 85 26 1 c15 1 32 0 37 -1 6 -2 44 -4 85 -5
55 -1 80 3 94 14 10 9 21 15 25 15 11 -3 51 15 52 23 0 5 2 17 4 28 2 12 -7
31 -22 47 -25 26 -26 26 -168 26 -78 0 -147 2 -152 5 -6 4 -16 41 -23 84 -8
43 -15 85 -16 93 -3 17 -20 85 -35 144 -16 59 -51 87 -61 48z"/>
<path d="M1188 2392 c-20 -4 -80 -91 -99 -144 -7 -21 -16 -38 -19 -38 -4 0
-13 -23 -20 -51 -8 -27 -18 -53 -22 -55 -5 -3 -6 -10 -3 -15 4 -5 1 -9 -5 -9
-6 0 -9 -4 -5 -9 3 -5 1 -12 -5 -16 -5 -3 -10 -17 -10 -30 0 -13 -4 -26 -9
-29 -8 -5 -12 -20 -28 -106 -2 -13 -13 -52 -23 -85 -11 -33 -26 -98 -35 -145
-9 -47 -29 -139 -45 -205 -16 -66 -32 -140 -36 -165 -10 -57 -11 -161 -3 -157
4 1 16 -6 27 -16 19 -17 20 -17 43 7 16 17 33 62 55 152 35 138 46 173 75 244
11 25 21 55 22 68 4 31 15 39 83 63 103 37 181 45 188 20 8 -28 15 -74 21
-131 3 -30 12 -93 20 -140 9 -47 17 -102 19 -124 2 -21 7 -59 12 -85 4 -25 6
-54 5 -63 -1 -10 2 -18 8 -18 6 0 8 -6 5 -14 -3 -8 4 -37 16 -65 20 -44 25
-49 41 -40 11 5 23 7 28 4 5 -3 18 6 29 20 16 21 20 37 17 83 -2 31 -7 68 -10
82 -6 23 -8 40 -20 130 -2 19 -7 49 -10 65 -3 17 -8 53 -11 80 -7 56 -11 88
-14 95 -1 3 -2 8 -1 12 0 4 -4 31 -9 60 -14 80 -19 118 -25 173 -5 44 -9 69
-29 175 -3 14 -7 35 -10 48 -4 12 -8 30 -10 40 -19 80 -31 121 -43 145 -7 15
-10 27 -7 27 4 0 0 8 -8 18 -8 9 -18 28 -21 42 -4 14 -15 35 -27 47 -11 12
-20 26 -20 30 0 12 -51 30 -72 25z m7 -172 c-3 -6 3 -29 14 -53 27 -56 76
-260 87 -361 3 -28 7 -53 10 -58 3 -4 -16 -8 -43 -8 -50 0 -122 -21 -157 -45
-32 -23 -37 -18 -21 22 8 20 13 38 10 41 -2 2 0 12 5 22 5 9 12 32 15 51 3 19
8 41 11 50 2 9 7 32 9 50 3 19 7 45 10 59 8 34 13 72 19 134 5 53 21 106 31
106 4 0 3 -5 0 -10z"/>
<path d="M281 2254 c-32 -17 -39 -31 -32 -64 7 -32 47 -68 82 -74 13 -3 24 -5
24 -6 0 -1 11 -4 24 -6 14 -2 32 -11 40 -18 9 -8 42 -17 75 -20 32 -4 67 -11
77 -17 12 -6 19 -6 19 0 0 6 19 8 49 4 41 -5 50 -3 59 13 15 29 -2 60 -43 80
-20 9 -38 14 -41 11 -3 -3 -26 3 -51 14 -24 10 -53 19 -64 19 -11 0 -27 4 -37
10 -20 11 -103 47 -134 59 -14 5 -32 3 -47 -5z"/>
<path d="M1655 2256 c-21 -15 -23 -58 -9 -206 4 -47 7 -97 7 -112 0 -16 2 -28
6 -28 3 0 6 -21 7 -47 1 -81 7 -178 13 -188 3 -5 5 -30 6 -55 4 -112 8 -176
13 -185 3 -5 5 -26 3 -47 -1 -21 1 -43 5 -49 4 -7 8 -36 9 -65 5 -105 16 -154
33 -155 10 0 30 -2 47 -4 16 -2 32 1 36 6 4 7 11 5 21 -4 7 -8 24 -18 36 -21
12 -4 22 -12 22 -18 0 -7 4 -7 13 0 6 6 29 9 50 8 20 -2 37 1 37 6 0 4 5 8 11
8 16 0 61 51 86 97 13 24 24 65 27 97 3 56 -13 160 -30 187 -4 8 -10 22 -11
31 -6 35 -99 156 -111 143 -2 -2 -14 1 -25 7 -29 15 -81 14 -111 -2 -14 -7
-28 -11 -30 -9 -2 2 -7 36 -11 74 -6 70 -10 97 -21 145 -3 14 -8 45 -10 69 -1
24 -6 51 -10 60 -4 9 -8 23 -9 31 -1 8 -6 31 -10 50 -4 19 -8 44 -9 55 -6 44
-19 91 -28 103 -6 6 -7 12 -2 12 9 0 -17 20 -27 20 -3 0 -14 -6 -24 -14z m326
-808 c5 -20 14 -40 20 -44 6 -3 8 -12 5 -19 -2 -7 -1 -30 4 -51 7 -29 5 -47
-7 -72 -18 -38 -35 -49 -83 -54 l-35 -3 -2 55 c-7 166 -4 217 11 254 l16 38
30 -34 c17 -18 35 -50 41 -70z"/>
<path d="M4445 1956 c-72 -35 -115 -76 -105 -101 5 -11 9 -16 9 -11 1 5 8 3
16 -4 12 -10 21 -8 50 10 19 12 35 19 35 15 0 -3 6 -1 13 5 6 6 38 29 70 51
31 22 55 45 52 50 -11 17 -90 9 -140 -15z"/>
<path d="M525 1839 c-22 -4 -43 -5 -47 -3 -4 2 -9 0 -13 -6 -3 -5 -14 -10 -23
-10 -9 0 -28 -9 -42 -20 l-25 -19 30 -11 c36 -14 262 -5 282 11 21 18 15 29
-21 44 -43 18 -90 23 -141 14z"/>
<path d="M3100 1771 c0 -5 -10 -11 -22 -13 -37 -5 -52 -66 -39 -158 23 -156
27 -226 22 -319 -2 -39 -85 115 -104 194 -25 102 -56 153 -98 160 -40 7 -53
-31 -39 -120 6 -39 13 -83 15 -99 8 -54 46 -154 60 -160 8 -3 12 -11 10 -18
-7 -16 62 -91 75 -83 6 3 10 2 10 -3 0 -15 61 -36 99 -33 33 2 52 17 107 84
15 18 37 124 29 137 -3 5 -2 10 4 10 10 0 9 94 -3 225 -11 110 -35 175 -66
175 -11 0 -23 7 -26 15 -7 16 -34 21 -34 6z"/>
<path d="M4638 1705 c-2 -3 -22 -7 -44 -9 -52 -6 -97 -17 -109 -26 -5 -5 -34
-15 -64 -24 -72 -21 -84 -38 -53 -73 19 -22 47 -35 56 -25 4 3 23 7 44 8 20 2
67 7 105 12 41 5 67 5 67 -1 0 -5 5 -5 13 1 6 6 32 9 57 8 51 -3 120 25 120
50 0 8 -11 30 -25 48 -24 32 -29 34 -94 34 -38 1 -71 -1 -73 -3z"/>
<path d="M2423 1693 c-33 -4 -53 -25 -83 -88 -8 -16 -18 -32 -21 -35 -7 -6
-40 -89 -45 -115 -12 -56 -20 -147 -12 -151 5 -3 5 -10 2 -16 -4 -5 -2 -20 4
-31 5 -12 18 -41 28 -65 9 -24 27 -48 38 -54 12 -6 25 -17 29 -25 5 -7 12 -11
18 -8 5 4 9 2 9 -3 0 -11 83 -27 115 -23 35 5 105 43 105 57 0 8 5 14 10 14 6
0 18 17 27 38 8 20 20 47 26 59 6 13 7 26 4 30 -4 3 -3 11 2 17 12 15 17 68 8
84 -5 6 -4 12 2 12 22 0 -23 171 -52 195 -7 6 -20 22 -30 37 -16 26 -97 77
-97 61 0 -4 -5 -2 -12 5 -7 7 -19 11 -27 10 -9 0 -31 -3 -48 -5z m65 -177 c14
-23 30 -44 35 -48 18 -11 19 -182 1 -216 -20 -42 -39 -55 -66 -46 -80 25 -110
196 -56 325 17 40 55 34 86 -15z"/>
<path d="M276 1513 c-2 -3 -31 -7 -63 -10 -79 -7 -125 -30 -135 -68 -4 -16 -4
-33 0 -36 16 -16 90 -14 151 3 35 10 67 15 72 13 4 -3 9 -1 11 4 1 5 30 12 64
15 153 16 179 29 129 66 -14 11 -49 15 -122 16 -56 1 -104 -1 -107 -3z"/>
<path d="M4300 1314 c-22 -10 -30 -20 -30 -37 0 -26 21 -42 36 -27 11 10 64 1
64 -11 0 -5 10 -14 23 -19 12 -6 36 -19 52 -29 42 -27 58 -26 50 2 -16 52 -40
90 -64 100 -14 6 -28 14 -31 18 -11 13 -71 15 -100 3z"/>
<path d="M488 1171 c-67 -37 -141 -102 -131 -112 14 -14 77 9 139 52 33 22 67
46 77 52 9 7 17 17 17 24 0 21 -52 13 -102 -16z"/>
<path d="M4130 1041 c-18 -21 -25 -51 -10 -51 5 0 10 -8 10 -19 0 -10 23 -42
51 -72 28 -30 60 -66 71 -81 10 -15 24 -27 30 -25 7 1 14 -7 16 -17 2 -11 15
-28 28 -39 13 -10 24 -24 24 -31 0 -17 41 -54 65 -58 11 -1 23 -7 26 -11 9
-12 69 49 69 70 0 23 -40 103 -51 103 -6 0 -8 4 -5 9 8 13 -126 146 -163 162
-17 8 -31 20 -31 26 0 7 -7 13 -15 13 -8 0 -15 4 -15 9 0 8 -34 21 -70 26 -8
2 -22 -5 -30 -14z"/>
<path d="M3876 943 c-24 -25 38 -159 86 -186 44 -25 54 -9 28 44 -53 109 -95
161 -114 142z"/>
<path d="M636 748 c-25 -29 -55 -64 -66 -78 -38 -45 -124 -143 -157 -178 -24
-25 -33 -44 -33 -68 0 -33 1 -34 39 -34 30 0 45 7 70 32 17 17 31 38 31 47 0
8 3 11 7 8 6 -6 14 4 68 78 11 15 25 32 30 39 6 6 23 29 39 51 17 22 33 42 36
45 12 10 37 56 42 77 4 16 0 23 -16 27 -37 10 -44 7 -90 -46z"/>
<path d="M952 753 c-44 -63 -80 -241 -52 -258 13 -8 70 73 70 101 0 13 5 26
11 29 6 4 8 13 5 21 -3 8 0 14 6 14 6 0 9 3 5 6 -3 3 0 25 8 49 19 66 -16 91
-53 38z"/>
<path d="M1664 769 c-35 -12 -44 -109 -21 -219 24 -112 64 -41 72 127 3 80 2
92 -14 96 -9 2 -26 1 -37 -4z"/>
<path d="M2271 771 c-18 -12 -10 -141 13 -195 23 -55 34 -37 42 64 8 116 -10
159 -55 131z"/>
<path d="M3095 751 c-3 -12 -4 -29 -1 -38 3 -10 8 -38 11 -62 10 -71 37 -133
63 -142 20 -8 22 -5 23 24 2 69 1 84 -12 127 -7 25 -13 47 -14 50 -6 26 -18
50 -25 50 -5 0 -15 3 -23 6 -10 3 -18 -2 -22 -15z"/>
<path d="M3419 734 c-5 -15 -6 -36 -3 -48 4 -11 8 -30 10 -41 6 -43 65 -242
80 -270 32 -59 82 -92 99 -65 9 15 8 107 -1 122 -5 7 -9 18 -10 23 -5 25 -43
156 -49 165 -3 5 -8 18 -10 27 -2 10 -12 39 -24 66 -18 41 -24 47 -51 47 -24
0 -33 -6 -41 -26z"/>
<path d="M1321 726 c-18 -22 -95 -244 -111 -320 -9 -43 4 -66 37 -66 29 0 40
12 52 57 6 23 15 44 19 47 4 2 9 19 10 37 1 18 7 38 13 45 5 6 9 16 8 20 -1 5
0 11 1 14 1 3 3 12 5 20 2 8 10 40 18 70 17 60 9 90 -22 90 -10 0 -24 -6 -30
-14z"/>
<path d="M1902 708 c-16 -20 -23 -74 -25 -204 -2 -108 0 -124 17 -143 43 -48
82 -2 74 87 -3 31 -2 66 2 77 4 11 5 24 3 28 -3 5 -6 39 -8 77 -2 38 -6 74
-10 80 -9 14 -40 13 -53 -2z"/>
<path d="M2667 673 c-13 -15 -15 -44 -15 -165 1 -173 12 -256 36 -274 23 -18
36 -17 62 4 24 20 29 70 15 177 -7 62 -16 149 -19 195 -3 44 -15 66 -42 74
-13 4 -26 0 -37 -11z"/>
</g>
</svg>
