<?xml version="1.0" standalone="no"?>
<!DOCTYPE svg PUBLIC "-//W3C//DTD SVG 20010904//EN"
 "http://www.w3.org/TR/2001/REC-SVG-20010904/DTD/svg10.dtd">
<svg version="1.0" xmlns="http://www.w3.org/2000/svg"
 width="860.000000pt" height="532.000000pt" viewBox="0 0 860.000000 532.000000"
 preserveAspectRatio="xMidYMid meet">

<g transform="translate(0.000000,532.000000) scale(0.100000,-0.100000)"
fill="#000000" stroke="none">
<path d="M4281 5116 c-7 -9 -23 -14 -35 -12 -20 3 -48 -19 -72 -60 -7 -11 -19
-18 -28 -18 -11 1 -16 -6 -16 -22 0 -14 -7 -27 -15 -30 -8 -4 -12 -10 -9 -15
3 -5 0 -9 -6 -9 -6 0 -9 -4 -5 -9 6 -11 -15 -62 -30 -73 -5 -4 -6 -8 -2 -8 4
0 2 -10 -5 -22 -7 -13 -13 -32 -14 -43 -3 -42 -4 -46 -13 -40 -12 7 -29 -24
-26 -47 2 -9 -3 -22 -11 -29 -8 -6 -12 -15 -9 -19 3 -5 1 -11 -4 -14 -5 -3 -7
-15 -4 -25 3 -11 -2 -34 -11 -53 -9 -18 -17 -45 -18 -60 -1 -16 -6 -28 -11
-28 -5 0 -5 -9 -2 -20 4 -11 2 -20 -4 -20 -6 0 -11 -8 -11 -17 0 -10 -11 -41
-24 -70 -14 -28 -27 -67 -29 -85 -6 -45 -18 -78 -27 -78 -4 0 -5 -12 -2 -27 3
-16 -1 -30 -10 -37 -14 -11 -25 -42 -35 -101 -3 -16 -9 -33 -15 -36 -5 -3 -9
-12 -8 -20 5 -31 -1 -60 -10 -54 -11 7 -25 -48 -29 -113 -1 -7 -5 -11 -10 -8
-5 4 -12 -7 -16 -24 -4 -16 -11 -32 -16 -35 -5 -4 -9 -19 -9 -35 0 -16 -4 -31
-9 -34 -4 -3 -6 -17 -3 -31 3 -18 0 -25 -11 -25 -17 0 -27 -21 -27 -56 0 -14
-6 -27 -13 -30 -8 -3 -13 -19 -12 -39 0 -19 -4 -37 -11 -39 -6 -2 -10 -16 -9
-30 2 -14 0 -26 -4 -26 -9 0 -31 -67 -32 -101 -1 -17 -3 -19 -6 -6 -2 9 -8 17
-13 17 -4 0 -7 8 -6 18 2 9 -5 32 -15 51 -10 18 -15 39 -13 46 3 7 -1 27 -10
43 -8 16 -13 39 -11 51 3 14 0 19 -7 15 -7 -5 -9 -2 -5 8 3 9 3 19 -1 23 -4 4
-7 10 -8 13 -3 23 -32 71 -39 65 -4 -5 -3 1 2 11 11 20 6 56 -8 56 -5 0 -6 7
-3 15 4 8 -1 17 -10 21 -11 4 -14 13 -11 24 4 12 -2 24 -16 34 -14 10 -20 21
-16 35 3 12 -1 22 -10 25 -7 3 -13 11 -12 18 5 43 -4 88 -22 109 -12 15 -19
35 -18 54 2 16 -4 44 -13 60 -14 27 -55 145 -60 170 -1 6 -8 16 -15 23 -7 7
-13 22 -13 32 0 10 -5 22 -10 25 -6 4 -8 11 -5 16 4 5 -1 9 -10 9 -12 0 -15 6
-10 20 4 11 2 20 -4 20 -6 0 -11 7 -11 15 0 9 -7 26 -16 39 -8 14 -16 36 -18
50 -1 15 -11 36 -22 49 -11 12 -18 29 -16 37 1 9 -11 31 -27 49 -16 18 -27 39
-24 47 3 8 0 14 -6 14 -6 0 -11 6 -11 13 0 8 -9 24 -20 37 -11 13 -20 29 -20
35 0 7 -7 16 -16 19 -8 3 -13 10 -10 15 3 5 -1 14 -9 21 -8 7 -15 18 -15 25 0
7 -7 15 -15 19 -8 3 -15 12 -15 20 0 20 -73 56 -91 45 -8 -5 -28 -9 -45 -9
-47 0 -68 -46 -61 -131 5 -56 12 -104 17 -104 1 0 3 -16 6 -35 2 -19 9 -39 14
-44 6 -6 10 -23 10 -38 0 -16 7 -42 15 -58 9 -17 13 -30 10 -30 -3 0 2 -16 10
-36 8 -20 13 -40 10 -44 -3 -4 2 -10 10 -13 10 -4 12 -16 8 -41 -3 -20 -2 -36
3 -36 5 0 10 -15 10 -32 2 -34 20 -117 35 -153 4 -11 10 -33 14 -50 3 -16 7
-41 10 -54 2 -14 9 -29 15 -35 5 -5 10 -20 10 -33 0 -14 6 -23 15 -23 11 0 15
-10 15 -32 -2 -62 16 -135 36 -146 8 -5 16 -26 19 -48 2 -21 4 -39 5 -39 1 0
3 -9 5 -21 3 -11 11 -34 20 -50 8 -16 15 -34 15 -41 0 -19 34 -87 48 -96 6 -4
12 -23 12 -42 0 -19 5 -37 10 -40 6 -4 8 -10 5 -15 -3 -5 0 -12 6 -15 5 -4 8
-13 5 -21 -3 -8 -2 -14 2 -14 5 0 14 -29 21 -64 7 -36 19 -73 27 -83 7 -10 14
-28 14 -40 0 -13 5 -23 10 -23 6 0 10 -7 10 -15 0 -8 4 -15 10 -15 5 0 7 -7 4
-15 -4 -8 4 -52 16 -97 12 -45 24 -93 26 -107 3 -14 9 -38 15 -53 6 -15 9 -34
5 -43 -3 -8 -2 -15 3 -15 4 0 8 -14 8 -32 0 -18 4 -33 10 -35 5 -2 8 -15 5
-28 -2 -14 0 -25 6 -25 5 0 12 -17 15 -37 14 -100 19 -120 33 -141 8 -13 14
-31 13 -40 -6 -37 12 -90 31 -95 11 -3 20 -14 20 -25 0 -32 25 -45 67 -36 21
4 41 7 46 6 4 -1 7 4 7 10 0 8 7 5 15 -6 14 -19 15 -19 40 8 14 15 25 32 25
37 0 6 4 8 9 4 11 -6 35 60 27 73 -3 5 1 20 9 35 7 14 10 28 7 32 -4 3 4 15
18 27 14 11 19 17 13 13 -15 -7 -12 34 6 78 6 15 7 27 3 27 -4 0 1 5 11 11 9
6 15 14 13 18 -3 4 3 17 13 27 17 19 18 50 1 39 -4 -3 -6 4 -3 15 3 11 9 18
13 15 4 -3 7 3 6 13 -1 11 5 16 18 14 11 -2 15 1 11 7 -3 6 -8 20 -10 32 -3
16 -1 18 9 10 9 -8 13 -7 13 4 0 8 -5 15 -11 15 -6 0 -4 5 4 10 10 6 11 10 3
10 -9 0 -10 7 -3 24 5 13 6 27 3 30 -4 3 -1 6 5 6 14 0 42 28 42 43 0 7 -4 6
-10 -3 -7 -11 -10 -11 -10 -2 0 7 8 16 18 20 17 7 26 62 9 62 -4 0 -5 5 -2 10
4 6 10 8 15 5 4 -3 6 4 3 15 -3 12 1 22 10 26 8 3 18 16 21 30 4 13 10 24 15
24 4 0 6 11 3 25 -3 18 0 25 11 25 13 0 15 9 11 46 -4 39 -2 45 11 40 9 -3 13
-2 10 4 -3 6 -1 10 5 10 6 0 10 8 8 18 -1 9 1 23 6 30 4 7 3 19 -4 27 -9 11
-7 13 7 11 25 -4 44 24 32 46 -9 17 -5 22 14 19 5 -1 6 3 3 8 -4 5 -2 12 3 15
5 3 5 21 1 41 -8 34 3 59 13 33 4 -10 6 -10 6 0 1 7 5 11 11 7 5 -3 7 7 5 25
-3 28 -2 30 13 18 12 -10 14 -10 8 0 -4 7 -10 24 -12 39 -4 23 -3 25 11 13 13
-11 14 -10 9 5 -5 11 -4 16 3 12 6 -4 8 4 6 21 -4 21 -2 24 6 12 8 -12 10 -11
8 7 0 12 -5 19 -11 16 -5 -4 -7 4 -3 18 4 13 7 29 7 35 0 7 11 15 24 18 18 4
23 11 19 25 -3 10 1 30 9 42 7 13 13 33 13 44 0 13 6 19 18 19 13 -2 15 1 7
11 -8 9 -6 17 5 29 9 9 13 21 9 28 -5 9 -2 8 9 -1 15 -12 17 -12 11 4 -5 11
-4 16 3 12 5 -3 10 1 10 9 0 8 -6 13 -13 10 -15 -6 -8 50 11 77 11 16 13 15
19 -15 3 -18 7 -37 9 -43 11 -31 22 -51 34 -63 7 -7 13 -22 13 -33 0 -11 11
-39 24 -62 14 -23 27 -60 30 -82 14 -90 30 -147 46 -155 13 -7 15 -18 10 -52
-3 -24 -3 -50 1 -58 11 -23 23 -54 24 -65 4 -23 18 -71 25 -80 4 -5 15 -46 25
-90 10 -44 20 -84 24 -90 3 -5 4 -20 2 -32 -1 -14 3 -23 11 -23 9 0 21 -29 33
-85 11 -47 23 -85 27 -85 4 0 7 -10 7 -22 -1 -34 9 -72 21 -76 5 -2 10 -13 10
-25 0 -26 41 -150 52 -158 5 -3 8 -19 7 -35 -3 -44 0 -54 14 -54 9 0 12 -10 9
-30 -3 -22 0 -30 11 -30 9 0 17 -13 21 -34 4 -19 13 -39 21 -46 15 -13 45
-105 45 -139 0 -12 6 -21 13 -21 8 0 19 -10 26 -23 17 -33 70 -60 87 -46 8 6
12 15 9 18 -2 4 2 8 10 8 8 0 15 -4 15 -9 0 -4 9 -8 20 -8 12 0 20 7 20 18 0
14 2 15 10 2 8 -13 10 -13 10 -1 0 11 4 9 14 -5 17 -22 32 -12 38 26 2 14 9
24 16 23 6 -2 15 9 18 23 4 15 12 23 20 20 8 -3 11 0 7 10 -3 7 -9 14 -14 14
-5 0 -9 7 -9 16 0 8 4 13 8 10 4 -2 9 4 9 15 1 10 -3 19 -8 19 -6 0 -7 5 -2
13 4 6 8 28 9 47 2 63 4 71 15 64 8 -5 8 -1 0 14 -12 23 9 77 25 65 5 -4 3 -1
-3 7 -14 16 -18 54 -4 46 4 -3 6 6 3 20 -3 17 0 24 9 22 10 -2 14 8 14 34 0
20 3 34 7 32 5 -3 8 0 8 6 0 6 4 9 9 6 4 -3 7 15 5 39 -2 43 2 50 31 46 6 -1
2 5 -8 13 -16 12 -16 14 -2 20 9 3 13 11 10 16 -4 6 -4 23 0 38 7 25 8 25 15
7 7 -15 9 -10 9 23 1 43 8 51 29 30 8 -8 10 -5 6 16 -3 19 -1 25 7 21 7 -5 10
2 7 21 -2 17 2 29 11 32 9 3 11 0 6 -8 -5 -8 -4 -11 2 -7 5 3 8 20 5 37 -2 16
0 30 6 30 5 0 10 6 9 13 0 6 1 21 1 31 2 20 2 20 18 0 15 -18 15 -18 4 3 -18
38 -9 81 17 88 13 3 21 10 18 16 -4 5 -1 16 5 24 7 8 10 24 7 35 -3 11 -1 23
4 26 5 3 9 -3 9 -13 1 -15 3 -14 13 5 7 12 16 19 21 15 4 -4 2 5 -3 21 -13 33
-5 52 15 35 12 -10 13 -9 8 5 -3 9 -1 23 6 31 10 12 10 15 -1 15 -9 1 -8 4 4
11 14 8 15 14 7 24 -8 10 -6 17 12 29 21 15 15 21 -17 17 -5 -1 6 12 25 29 19
16 31 30 26 30 -5 0 -1 9 9 20 10 11 22 17 26 14 11 -7 11 -1 -1 30 -10 26 3
46 16 25 5 -8 3 -9 -6 -4 -9 5 -11 4 -6 -4 4 -6 12 -9 17 -5 5 3 7 10 3 15 -3
5 0 16 6 24 7 8 10 21 7 28 -3 8 5 25 17 38 13 14 22 32 20 42 -1 9 4 17 12
17 8 0 14 10 14 26 0 14 3 23 8 20 4 -2 7 13 7 34 0 21 1 37 3 35 7 -6 42 29
42 43 0 7 4 11 9 7 6 -3 8 4 5 17 -7 37 5 71 36 107 21 23 28 40 24 53 -4 14
0 21 15 25 12 3 21 13 21 22 0 9 5 22 12 29 9 9 9 12 -1 12 -10 0 -11 3 -2 13
6 8 8 17 4 21 -4 3 2 12 12 20 10 7 19 26 21 41 2 16 7 31 12 34 5 3 12 21 15
39 5 24 3 31 -6 27 -6 -4 -3 1 7 9 11 9 16 16 11 16 -4 0 0 9 10 20 10 11 15
20 10 20 -4 0 -2 7 5 15 7 8 10 21 7 30 -4 8 1 22 10 30 8 9 13 19 9 22 -3 3
-1 12 5 20 9 10 8 13 0 13 -7 0 -10 4 -7 9 12 18 17 81 7 81 -16 0 -23 37 -11
59 8 16 7 22 -6 29 -11 6 -15 17 -11 31 3 11 1 19 -4 15 -5 -3 -19 2 -31 10
-12 9 -30 16 -40 16 -10 0 -18 6 -18 13 -1 6 -9 22 -20 35 -14 17 -24 21 -37
15 -21 -10 -44 -10 -59 -1 -6 4 -27 3 -48 -3 -20 -5 -40 -8 -45 -5 -5 3 -12
-1 -15 -10 -3 -8 -11 -14 -18 -12 -18 4 -50 -30 -71 -75 -10 -21 -22 -35 -28
-32 -5 4 -9 0 -9 -9 0 -8 -14 -26 -31 -40 -17 -14 -29 -32 -27 -38 3 -7 -6
-21 -18 -33 -24 -22 -79 -115 -68 -115 4 0 -1 -9 -11 -20 -10 -11 -15 -23 -12
-27 4 -3 1 -14 -7 -22 -8 -9 -17 -34 -19 -55 -2 -21 -10 -41 -17 -46 -7 -4
-13 -22 -14 -39 0 -17 -4 -31 -8 -31 -5 0 -8 -8 -8 -18 0 -10 -7 -27 -15 -38
-8 -12 -12 -24 -9 -27 3 -3 -2 -16 -11 -30 -8 -14 -15 -29 -14 -33 3 -19 -2
-31 -22 -53 -17 -18 -18 -25 -9 -36 11 -14 7 -19 -12 -16 -5 0 -8 -8 -8 -18 0
-11 -5 -23 -11 -26 -11 -7 -32 -52 -34 -71 0 -6 -5 -18 -12 -25 -6 -8 -17 -34
-24 -59 -7 -25 -16 -50 -21 -56 -8 -11 -14 -41 -22 -112 -2 -18 -10 -39 -16
-47 -7 -8 -9 -15 -4 -15 5 0 3 -4 -5 -9 -8 -5 -14 -24 -13 -42 0 -18 -4 -39
-10 -46 -6 -8 -12 -23 -13 -36 -4 -37 -5 -38 -15 -32 -6 3 -7 17 -4 31 5 18 2
24 -9 24 -11 0 -15 8 -12 30 2 17 1 30 -4 30 -4 0 -6 14 -3 30 2 17 0 30 -5
30 -6 0 -10 12 -9 28 0 19 -4 26 -14 24 -12 -3 -13 -1 -2 9 16 17 15 39 -2 39
-19 0 -29 30 -15 46 8 10 8 14 1 14 -6 0 -9 7 -5 15 3 9 -2 22 -12 29 -13 9
-18 25 -17 50 1 24 -5 43 -18 56 -11 11 -20 21 -19 23 0 1 -4 13 -9 27 -5 14
-13 44 -17 68 -4 23 -11 42 -16 42 -5 0 -9 11 -9 25 0 14 -7 28 -15 31 -10 4
-13 14 -8 32 4 18 3 23 -6 18 -12 -8 -41 48 -47 89 -10 66 -14 79 -25 85 -6 4
-9 12 -5 18 8 13 -19 64 -28 54 -5 -4 -7 2 -5 13 3 25 -21 76 -32 69 -5 -3 -9
2 -9 10 0 9 -5 16 -11 16 -7 0 -9 9 -6 23 3 12 0 30 -8 40 -7 11 -11 25 -8 33
3 9 0 14 -8 12 -8 -2 -13 3 -11 10 1 7 -3 23 -10 35 -7 12 -13 27 -13 32 -1 6
-7 20 -14 33 -7 13 -11 28 -8 35 2 6 -9 25 -25 42 -15 16 -28 36 -28 44 0 7
-6 11 -15 7 -8 -3 -20 1 -28 8 -8 8 -26 11 -46 8 -24 -3 -36 0 -43 12 -5 9
-15 16 -23 16 -8 0 -18 7 -23 16 -8 14 -10 14 -21 0z m-256 -1626 c3 -5 1 -10
-4 -10 -6 0 -11 5 -11 10 0 6 2 10 4 10 3 0 8 -4 11 -10z"/>
<path d="M7065 5059 c-22 -5 -47 -12 -55 -16 -15 -6 -28 -8 -84 -14 -15 -2
-31 -9 -33 -16 -3 -7 -11 -13 -19 -13 -8 0 -14 -5 -14 -11 0 -8 -5 -8 -15 1
-11 9 -15 9 -15 1 0 -7 -4 -10 -9 -6 -6 3 -14 -3 -20 -12 -6 -10 -11 -13 -11
-8 0 6 -4 4 -9 -4 -5 -8 -15 -15 -23 -17 -7 -1 -34 -16 -60 -33 -25 -17 -50
-31 -56 -31 -5 0 -12 -7 -16 -15 -3 -8 -23 -22 -46 -31 -22 -9 -40 -22 -40
-28 0 -7 -11 -18 -25 -24 -14 -6 -25 -18 -25 -27 0 -9 -9 -15 -26 -15 -14 0
-23 -4 -20 -9 3 -5 0 -11 -7 -14 -7 -2 -22 -24 -34 -48 -13 -24 -34 -55 -48
-68 -14 -12 -22 -27 -19 -32 3 -5 0 -9 -6 -9 -7 0 -10 -7 -6 -15 3 -9 0 -15
-8 -15 -15 0 -53 -66 -43 -76 3 -4 -5 -20 -18 -36 -14 -16 -25 -40 -25 -53 0
-13 -5 -27 -11 -30 -5 -4 -8 -12 -6 -18 2 -7 1 -19 -4 -28 -5 -9 -11 -34 -14
-55 -2 -22 -7 -53 -9 -70 -2 -18 -11 -45 -19 -61 -11 -20 -12 -34 -6 -46 6
-10 6 -24 1 -34 -14 -27 -12 -123 2 -123 8 0 11 -12 8 -34 -3 -29 -1 -34 22
-40 17 -4 26 -13 26 -27 0 -11 8 -22 18 -26 33 -12 44 -25 30 -35 -10 -7 -10
-8 2 -6 19 3 60 -11 60 -21 0 -4 -6 -13 -12 -20 -11 -11 -9 -11 10 -2 15 8 22
8 22 1 0 -6 5 -8 11 -4 8 4 8 0 0 -15 -10 -18 -9 -23 11 -31 13 -5 19 -9 13
-10 -14 -1 74 -40 91 -40 8 0 14 -4 14 -10 0 -5 -7 -6 -17 -3 -11 4 -14 3 -9
-6 4 -6 2 -19 -6 -28 -9 -12 -9 -15 0 -9 6 4 12 2 12 -3 0 -6 5 -11 11 -11 5
0 8 4 4 9 -3 6 3 10 12 9 10 0 28 3 41 6 13 3 20 1 17 -5 -4 -5 -12 -6 -18 -2
-7 4 -6 0 2 -10 7 -9 21 -17 30 -18 12 0 11 -2 -4 -9 -19 -8 -19 -9 3 -9 13
-1 20 -5 17 -11 -4 -6 5 -10 19 -10 14 0 26 6 26 13 1 7 6 5 14 -6 12 -16 14
-16 20 -1 8 21 31 3 40 -30 4 -18 12 -23 30 -21 14 2 30 6 35 10 10 6 15 -7
12 -28 -2 -10 42 13 51 27 4 6 11 -2 18 -18 8 -21 15 -26 28 -21 9 4 26 8 37
9 11 1 27 5 35 10 12 7 13 6 3 -5 -21 -22 -15 -34 7 -14 18 16 20 16 20 2 0
-10 5 -17 11 -17 6 0 9 6 6 13 -3 7 5 13 19 13 15 1 21 -3 17 -12 -7 -19 5
-18 24 2 13 13 17 13 24 2 6 -8 9 -9 9 -2 0 7 7 14 14 17 10 4 13 1 10 -8 -6
-14 12 -15 34 -2 7 5 12 3 12 -5 0 -10 2 -10 9 1 11 16 58 24 66 10 3 -5 -1
-6 -9 -3 -9 3 -16 2 -16 -3 0 -5 9 -9 20 -10 11 -1 20 4 20 13 0 9 11 14 33
13 17 0 26 -3 20 -6 -20 -8 -15 -23 7 -23 12 0 20 7 20 18 0 10 3 13 8 6 4 -6
18 -11 32 -11 14 1 43 -8 65 -19 32 -15 39 -24 37 -41 -3 -19 1 -23 22 -23 27
0 59 -39 34 -41 -7 0 -3 -4 10 -10 13 -5 21 -13 17 -19 -3 -6 1 -7 10 -4 11 5
14 2 9 -10 -4 -10 0 -18 10 -22 9 -3 13 -11 9 -17 -4 -7 0 -8 12 -4 14 6 16 3
12 -12 -3 -11 -1 -21 4 -23 5 -2 10 -20 11 -41 1 -21 4 -39 7 -41 3 -2 6 -22
6 -43 0 -31 -8 -49 -39 -86 -22 -26 -46 -47 -54 -47 -9 0 -13 -7 -9 -19 3 -14
-5 -22 -32 -34 -20 -9 -45 -30 -56 -47 -18 -26 -46 -45 -30 -20 11 18 -3 10
-36 -20 -24 -21 -35 -26 -41 -17 -6 9 -8 9 -8 -1 0 -7 -6 -12 -12 -11 -7 1
-33 -7 -58 -18 -41 -19 -47 -19 -62 -5 -10 8 -18 11 -18 5 0 -5 -32 -9 -72 -8
-40 0 -79 -3 -86 -9 -21 -15 -92 -14 -108 1 -8 8 -18 11 -24 8 -5 -3 -10 -2
-10 3 0 5 -17 9 -37 8 -24 -1 -45 6 -56 17 -14 14 -21 16 -32 7 -11 -9 -18 -8
-31 4 -8 9 -20 14 -25 11 -20 -13 -50 -13 -55 -1 -3 8 -17 12 -35 11 -16 -1
-29 1 -29 6 0 4 -12 7 -27 6 -18 -1 -27 3 -25 11 1 8 -7 11 -27 7 -26 -4 -29
-2 -26 15 2 11 0 21 -6 21 -5 1 -13 3 -19 4 -5 1 -15 3 -21 4 -5 0 -7 6 -4 11
6 10 -8 14 -34 10 -8 -1 -20 5 -27 14 -6 10 -27 17 -48 18 -20 1 -39 5 -42 10
-3 4 -16 1 -29 -8 -14 -9 -32 -13 -41 -10 -11 4 -28 -5 -51 -29 -19 -19 -40
-35 -47 -35 -17 0 -48 -35 -39 -43 3 -4 1 -7 -6 -7 -7 0 -9 -5 -6 -10 4 -6 1
-17 -5 -25 -10 -12 -9 -20 5 -41 9 -15 13 -24 7 -20 -5 3 -13 -1 -16 -10 -11
-28 -6 -44 12 -44 14 0 19 -9 20 -37 3 -42 19 -66 39 -59 12 5 18 -6 14 -27
-1 -4 5 -10 13 -13 8 -3 13 -11 10 -19 -3 -7 2 -15 10 -18 9 -4 16 -14 16 -23
0 -13 6 -15 30 -11 24 5 35 1 60 -24 16 -17 28 -34 25 -39 -5 -8 23 -25 37
-22 4 1 12 -7 18 -19 9 -15 15 -18 25 -9 8 7 16 7 19 2 3 -6 -1 -12 -9 -16 -8
-3 -15 -10 -15 -16 0 -7 6 -8 18 -2 21 11 45 4 36 -10 -4 -6 2 -6 14 1 31 17
40 13 35 -13 -5 -25 6 -28 57 -15 10 3 14 -2 12 -15 -3 -16 -1 -18 10 -9 7 6
34 13 60 16 49 6 58 -1 58 -46 0 -18 2 -19 11 -7 8 11 12 12 16 3 3 -9 11 -8
31 5 14 9 23 12 19 5 -5 -7 1 -13 15 -16 l23 -4 -22 -2 c-13 0 -23 -6 -23 -11
0 -6 11 -8 25 -4 14 3 31 1 38 -4 9 -8 17 -8 27 0 13 8 13 9 -1 5 -9 -3 -16 1
-16 8 0 20 36 5 43 -18 6 -20 7 -20 20 -2 8 10 14 13 14 7 0 -17 29 -15 36 2
9 22 144 9 144 -14 0 -17 30 2 31 19 0 10 2 11 6 4 6 -16 30 -17 35 -1 2 6 12
12 21 14 9 1 15 -2 11 -7 -8 -13 10 -11 25 3 11 11 13 10 8 -4 -5 -14 -2 -16
16 -8 12 4 21 13 19 20 -1 6 2 9 7 6 5 -3 14 1 21 9 7 8 17 12 22 9 7 -4 6 -9
0 -13 -7 -4 -8 -12 -2 -21 7 -12 10 -11 17 5 10 25 35 32 26 8 -6 -15 -5 -16
9 -3 9 8 14 17 13 21 -5 7 51 3 64 -6 6 -3 11 1 11 10 0 10 -5 13 -12 9 -7 -4
-8 -3 -4 4 4 6 13 9 22 5 9 -3 14 0 12 8 -3 16 31 14 47 -3 7 -8 6 -8 -4 -3
-9 5 -12 4 -7 -3 9 -14 34 -5 46 18 5 10 23 21 39 25 16 3 32 13 35 21 8 20
26 18 26 -3 1 -16 2 -16 13 -3 7 8 22 20 34 27 19 11 21 10 18 -7 -3 -13 1
-17 11 -13 8 3 14 11 14 18 0 7 7 18 15 25 13 11 14 10 9 -4 -12 -32 6 -15 26
23 23 45 35 55 53 44 6 -4 17 -8 24 -9 15 -3 24 34 9 40 -6 2 -1 5 11 5 12 1
24 5 27 10 3 5 16 7 28 3 17 -4 20 -2 15 12 -4 10 -3 15 3 11 6 -3 10 -2 10 4
0 5 9 12 19 16 13 4 18 13 16 25 -2 10 3 24 11 31 9 7 11 16 5 23 -15 18 6 59
26 52 10 -4 14 -4 11 0 -8 7 7 23 41 42 13 8 20 9 16 3 -3 -6 -2 -11 3 -11 5
0 12 13 15 30 4 20 11 28 20 24 18 -7 46 36 49 75 2 23 7 31 21 31 10 0 15 4
12 10 -3 5 1 20 9 32 10 14 12 27 6 38 -5 10 -6 20 -3 24 3 3 1 6 -6 6 -7 0
-3 9 10 20 14 11 18 19 11 20 -7 0 -11 4 -7 9 3 5 0 13 -5 16 -8 5 -7 12 2 23
16 20 15 37 -2 77 -7 17 -12 38 -12 48 0 9 -6 17 -15 17 -8 0 -13 6 -10 13 19
47 20 50 9 43 -8 -4 -16 3 -22 18 -5 14 -13 26 -18 26 -5 0 -9 12 -9 28 -1 50
-7 91 -13 90 -19 -2 -30 3 -25 12 3 6 0 10 -8 10 -19 0 -40 26 -42 52 -1 12
-12 29 -24 39 -12 10 -17 20 -11 24 18 11 11 28 -10 22 -13 -3 -20 0 -20 9 0
8 -7 14 -15 14 -14 0 -19 12 -16 33 0 4 -8 7 -19 7 -11 0 -19 6 -17 13 1 7 -7
11 -20 9 -13 -2 -23 2 -23 8 0 6 -4 9 -9 5 -5 -3 -16 3 -23 14 -7 10 -25 21
-38 23 -14 1 -29 13 -35 26 -5 12 -17 22 -25 22 -28 1 -79 59 -72 83 1 4 -11
7 -27 7 -39 0 -61 9 -61 25 0 7 -7 16 -16 19 -8 3 -12 11 -8 18 5 8 0 9 -15 5
-12 -3 -27 0 -34 7 -6 6 -23 12 -37 13 -32 1 -58 7 -66 15 -3 4 -17 2 -31 -3
-15 -5 -30 -6 -37 -1 -14 11 -68 8 -92 -6 -12 -7 -25 -7 -37 -1 -10 6 -28 7
-40 3 -12 -5 -49 -9 -82 -11 -138 -7 -222 1 -247 23 -12 11 -18 14 -15 8 11
-19 -24 -26 -43 -9 -9 8 -20 12 -23 9 -4 -4 -12 -3 -19 2 -7 5 -26 9 -42 8
-20 -1 -30 4 -33 17 -3 9 -14 20 -25 22 -14 4 -19 11 -15 21 5 11 0 16 -14 16
-12 0 -17 4 -13 11 4 7 0 9 -13 5 -17 -5 -19 -1 -20 34 0 22 3 40 7 40 8 0 5
43 -4 59 -4 5 -2 12 2 15 5 3 9 22 10 42 1 21 5 40 9 43 5 3 10 17 11 31 2 14
10 32 18 41 8 9 11 19 7 22 -3 4 3 7 15 7 15 0 22 6 22 20 0 11 7 23 15 26 8
4 15 12 15 20 0 16 41 60 52 57 4 -2 4 5 1 14 -4 10 -2 14 4 10 6 -4 13 -1 16
7 3 7 15 16 26 19 12 3 19 1 16 -3 -3 -5 -1 -11 4 -14 5 -3 12 1 15 10 3 8 10
12 16 9 5 -3 15 5 21 19 7 15 18 23 30 21 10 -2 23 3 30 11 8 10 15 11 24 4 9
-8 14 -6 18 4 4 9 14 12 25 9 11 -2 23 0 26 6 5 7 1 8 -11 4 -15 -5 -16 -4 -5
8 10 11 16 11 33 1 12 -8 18 -9 15 -4 -3 5 3 12 14 15 11 3 18 1 14 -4 -5 -8
3 -11 24 -8 4 1 6 5 5 9 -4 13 28 5 39 -11 8 -11 9 -11 4 3 -4 14 0 17 19 16
14 -1 25 -8 25 -15 0 -6 5 -15 12 -19 8 -5 9 -1 5 12 -6 17 -6 17 6 3 10 -13
14 -14 24 -3 10 10 30 12 73 5 3 -1 -2 -6 -10 -11 -10 -6 0 -8 32 -6 42 2 46
0 35 -13 -6 -9 -1 -7 12 4 17 14 25 16 28 7 3 -6 8 -10 13 -7 5 3 15 -1 23 -9
8 -8 19 -11 27 -6 17 11 42 1 33 -13 -4 -7 0 -8 11 -4 10 4 27 2 38 -4 15 -8
19 -8 14 0 -4 6 0 11 8 11 9 0 16 -4 16 -8 0 -4 28 -7 63 -6 95 2 97 3 97 19
0 8 7 15 16 15 16 0 46 24 39 32 -3 2 0 21 6 42 9 34 8 43 -11 68 -11 15 -18
33 -15 38 3 6 1 10 -4 10 -6 0 -11 7 -11 15 0 9 -14 24 -30 33 -17 9 -28 23
-25 30 3 7 1 11 -4 8 -5 -3 -14 1 -21 9 -7 8 -18 15 -26 15 -21 0 -64 22 -59
31 3 4 -11 13 -30 20 -19 7 -35 17 -35 21 0 4 -9 8 -19 8 -27 0 -52 11 -46 20
3 4 -7 11 -23 15 -15 3 -35 14 -45 23 -11 10 -39 16 -77 18 -36 1 -70 8 -86
19 -14 9 -32 14 -39 11 -8 -3 -28 -1 -44 4 -18 5 -33 5 -36 -1 -4 -5 -14 -5
-25 1 -10 5 -20 10 -22 9 -2 -1 -21 -5 -43 -10z m783 -2674 c-3 -3 -9 2 -12
12 -6 14 -5 15 5 6 7 -7 10 -15 7 -18z"/>
<path d="M1290 4888 c0 -6 -15 -8 -35 -6 -23 3 -36 -1 -40 -10 -4 -10 -9 -11
-18 -4 -8 7 -24 6 -52 -4 -22 -7 -46 -12 -54 -9 -7 3 -30 1 -50 -5 -20 -5 -40
-9 -45 -9 -5 0 -12 -3 -15 -9 -3 -5 -35 -14 -70 -21 -73 -14 -170 -55 -177
-76 -3 -8 -11 -12 -18 -9 -6 2 -21 -5 -31 -16 -11 -11 -28 -29 -38 -39 -18
-18 -37 -72 -37 -102 0 -26 60 -57 93 -48 20 6 27 4 27 -8 0 -12 2 -12 16 1 8
9 27 16 42 16 15 0 34 4 42 10 9 5 19 5 26 -1 8 -6 14 -4 18 7 5 13 9 14 21 4
12 -10 15 -10 15 0 0 6 6 10 13 7 6 -2 18 3 25 12 11 14 11 14 6 -4 -5 -19 -5
-19 9 -2 11 14 16 15 20 5 4 -11 6 -11 6 0 1 7 6 10 12 6 6 -3 15 -1 19 5 8
13 33 16 68 7 15 -3 20 -1 16 6 -5 7 -2 9 9 5 9 -3 22 -1 29 6 12 11 27 13 53
7 27 -6 42 -5 60 5 43 24 58 26 51 8 -5 -16 -4 -16 6 -3 18 21 57 23 65 5 5
-13 7 -13 19 2 7 10 14 13 14 7 0 -6 10 -11 23 -11 39 1 90 -15 111 -34 11
-11 26 -17 34 -14 7 3 33 -9 57 -25 24 -17 47 -30 51 -30 13 0 94 -94 94 -109
0 -8 3 -12 6 -8 5 5 23 -11 64 -61 6 -7 8 -16 5 -21 -3 -5 -1 -13 5 -16 6 -4
10 -14 9 -23 -1 -10 1 -24 4 -32 4 -8 8 -24 10 -35 2 -11 7 -27 10 -35 3 -8 8
-26 10 -40 3 -14 15 -61 27 -105 15 -53 23 -117 25 -188 4 -102 3 -107 -13
-88 -15 18 -37 26 -97 35 -11 1 -30 8 -42 14 -12 7 -29 9 -37 6 -9 -3 -16 -2
-16 4 0 6 -14 7 -37 2 -21 -5 -60 -8 -88 -7 -27 0 -65 -3 -83 -7 -22 -5 -38
-4 -49 5 -15 13 -85 17 -313 19 -170 1 -234 -1 -244 -8 -6 -3 -26 -7 -46 -8
-19 -1 -35 -3 -35 -4 0 -1 -13 -4 -30 -6 -16 -3 -34 -9 -40 -14 -5 -4 -19 -10
-30 -12 -11 -1 -23 -7 -26 -12 -4 -5 -18 -8 -32 -8 -14 0 -28 -7 -31 -15 -4
-9 -13 -13 -21 -9 -9 3 -18 -1 -21 -9 -4 -8 -10 -12 -15 -9 -5 3 -9 0 -9 -5 0
-6 -6 -11 -14 -11 -8 0 -37 -22 -66 -50 -29 -27 -55 -50 -60 -50 -4 0 -11 -11
-14 -24 -3 -14 -15 -28 -26 -31 -11 -3 -20 -12 -20 -19 0 -7 -11 -23 -25 -36
-14 -13 -25 -28 -25 -34 0 -6 -7 -23 -14 -38 -9 -18 -11 -30 -5 -34 7 -4 5
-12 -4 -22 -18 -22 -55 -103 -60 -133 -2 -13 -9 -37 -16 -53 -6 -16 -10 -35
-7 -43 3 -7 0 -30 -7 -50 -7 -21 -12 -47 -10 -58 19 -150 31 -205 44 -205 5 0
8 -3 7 -7 -1 -5 4 -28 12 -53 7 -25 13 -52 14 -60 2 -8 8 -28 14 -43 7 -16 12
-32 12 -37 0 -4 7 -10 15 -14 8 -3 12 -12 9 -21 -3 -8 -1 -15 5 -15 6 0 11
-11 11 -25 0 -13 6 -28 13 -32 6 -4 19 -21 27 -38 9 -17 25 -31 38 -33 16 -3
22 -10 22 -28 0 -20 4 -24 19 -19 15 5 22 -1 31 -30 9 -27 17 -35 35 -35 12 0
25 -7 29 -15 7 -19 20 -19 39 0 13 13 16 13 21 -1 4 -9 13 -14 21 -10 9 3 25
-4 36 -15 11 -11 27 -18 34 -15 7 2 19 -2 25 -9 7 -8 16 -12 22 -9 5 3 6 -6 3
-23 -3 -15 -2 -22 1 -15 8 17 34 15 34 -3 0 -20 12 -19 43 5 31 25 48 26 40 2
-5 -14 -3 -13 10 3 13 16 19 18 34 9 10 -7 17 -19 15 -28 -3 -16 -2 -16 22 0
14 9 26 21 26 26 0 5 5 6 10 3 5 -3 10 -1 10 4 0 15 60 7 71 -10 7 -11 9 -10
9 6 0 17 2 17 10 5 8 -13 10 -12 10 3 0 9 7 17 15 17 8 0 15 -5 15 -11 0 -5
-4 -7 -10 -4 -6 3 -7 -1 -4 -10 5 -13 10 -11 30 10 13 14 24 23 24 19 0 -3 9
4 21 17 11 13 18 18 14 12 -3 -7 -1 -13 4 -13 6 0 11 5 11 11 0 5 4 8 10 4 5
-3 7 -13 4 -23 -4 -9 3 -4 14 11 13 20 21 25 24 15 7 -17 19 -6 21 20 0 11 4
19 8 16 4 -2 10 0 14 6 4 7 12 7 25 0 14 -7 19 -6 23 9 3 14 11 17 32 13 23
-4 27 -2 22 11 -3 9 1 18 9 21 9 3 12 1 9 -4 -3 -6 -1 -10 4 -10 10 0 16 28
11 59 -1 9 4 11 14 7 21 -8 43 -14 33 -8 -4 2 -1 9 7 16 9 6 17 22 19 36 4 28
37 41 37 15 0 -9 5 -13 10 -10 5 3 10 17 10 30 0 27 30 44 31 17 0 -10 4 -7 8
8 13 41 34 68 48 63 7 -3 10 -10 7 -17 -3 -6 1 -2 10 8 8 10 13 22 11 26 -7
12 23 33 35 25 6 -3 7 -12 3 -18 -4 -7 1 -6 11 2 13 11 14 16 4 22 -10 7 -9
12 5 26 14 14 17 15 18 3 1 -8 4 -4 8 10 4 15 14 24 24 24 9 -1 17 5 17 13 0
8 5 11 10 8 9 -6 14 8 11 28 0 4 11 7 25 7 14 0 23 4 20 8 -6 10 39 52 55 52
5 0 7 5 3 12 -4 7 -3 8 4 4 6 -4 8 -14 5 -23 -4 -11 -3 -14 6 -9 6 4 10 4 9
-1 -3 -9 22 -75 31 -83 20 -18 51 -72 51 -90 0 -11 4 -20 9 -20 5 0 14 -14 21
-31 9 -20 18 -28 28 -24 9 3 26 -5 42 -20 27 -26 48 -28 85 -9 11 6 41 10 67
9 26 0 46 2 46 5 -2 20 5 30 23 35 16 6 20 13 17 36 -3 21 -1 26 7 19 13 -11
12 19 -1 78 -3 15 -6 35 -7 45 -1 9 -5 17 -10 17 -5 0 -7 6 -4 14 3 8 -8 29
-25 46 -22 24 -28 38 -24 56 4 16 0 30 -11 41 -20 20 -48 73 -45 86 1 4 -3 7
-9 7 -5 0 -7 5 -4 10 4 6 -1 22 -10 36 -9 13 -13 29 -9 35 3 6 -2 19 -11 29
-10 11 -12 20 -6 24 6 4 7 15 2 29 -5 12 -5 31 -1 42 12 34 6 288 -8 312 -9
17 -9 22 2 26 16 6 27 87 11 87 -5 0 -3 6 6 13 15 11 15 15 3 31 -9 13 -10 24
-4 37 11 20 3 49 -12 49 -6 0 -5 7 2 15 19 23 21 211 3 226 -9 8 -10 16 -4 23
6 7 6 18 1 25 -4 8 -6 20 -3 27 2 6 0 15 -6 19 -6 3 -11 31 -11 61 0 30 -4 54
-10 54 -5 0 -7 14 -5 30 2 17 -1 30 -6 30 -5 0 -9 7 -9 16 0 8 -4 12 -10 9 -6
-4 -6 4 1 22 7 20 7 29 -1 31 -8 3 -8 8 0 17 12 14 3 45 -12 45 -6 0 -7 7 -4
16 4 10 -1 25 -10 35 -9 10 -13 23 -9 28 3 6 -5 16 -19 23 -15 6 -25 16 -24
22 2 6 0 11 -4 11 -4 0 -15 10 -23 23 -9 12 -21 20 -26 17 -5 -3 -6 1 -3 9 4
10 -3 20 -20 27 -14 7 -26 18 -26 26 0 7 -11 18 -25 25 -13 6 -22 15 -19 20 3
5 -8 13 -25 19 -17 6 -31 17 -31 25 0 10 -7 13 -24 8 -17 -4 -25 -1 -28 14 -4
13 -13 18 -29 17 -13 -1 -27 3 -31 9 -4 5 -28 12 -54 13 -27 2 -51 8 -55 14
-4 6 -16 8 -28 4 -11 -3 -26 -3 -33 2 -7 4 -22 9 -33 10 -10 2 -22 8 -26 15
-4 6 -21 9 -38 6 -17 -2 -31 -2 -31 1 0 6 -112 6 -135 1 -11 -3 -13 -3 -49 4
-14 3 -26 0 -26 -6z m602 -1357 c-2 -9 3 -9 19 0 16 8 20 8 14 0 -4 -7 -2 -17
3 -24 5 -7 8 -21 6 -32 -3 -11 -6 -51 -8 -90 -4 -84 -11 -102 -39 -111 -12 -4
-32 -17 -44 -30 -12 -13 -25 -24 -29 -24 -4 0 -23 -10 -42 -22 -20 -12 -44
-23 -54 -23 -10 -1 -26 -9 -36 -18 -10 -9 -24 -17 -30 -17 -7 0 -12 -4 -12
-10 0 -5 -8 -10 -18 -10 -9 0 -22 -10 -27 -22 -6 -13 -20 -24 -32 -26 -13 -2
-32 -15 -42 -29 -11 -13 -24 -22 -30 -19 -5 3 -12 -6 -16 -21 -5 -21 -8 -24
-15 -13 -7 12 -10 12 -16 -3 -3 -9 -10 -15 -14 -12 -4 3 -10 -5 -13 -16 -4
-13 -11 -19 -19 -16 -8 2 -26 -8 -42 -24 -16 -16 -32 -26 -37 -24 -4 3 -10 1
-14 -5 -9 -15 -27 -12 -20 3 4 6 -7 -3 -23 -22 -17 -18 -35 -30 -41 -27 -5 4
-14 -1 -18 -9 -5 -8 -19 -17 -32 -20 -13 -2 -30 -10 -39 -17 -12 -10 -14 -10
-8 0 4 6 3 12 -3 12 -5 0 -12 -4 -15 -9 -4 -5 -14 -8 -24 -6 -9 1 -33 -6 -53
-16 -20 -10 -39 -15 -43 -12 -3 3 -15 -2 -25 -11 -11 -10 -30 -17 -43 -16 -13
1 -25 1 -28 0 -3 -1 -38 -3 -79 -4 -52 -1 -75 2 -78 11 -3 7 -9 13 -15 13 -15
0 -34 23 -41 51 -4 14 -16 36 -27 49 -11 13 -20 29 -20 37 0 8 -10 35 -22 61
-12 26 -21 51 -19 56 1 5 -2 21 -7 35 -5 14 -6 35 -2 46 4 11 3 28 -2 38 -6
12 -5 19 6 23 8 3 13 13 11 22 -1 9 3 24 10 32 16 20 26 60 14 60 -10 0 -8 22
2 30 4 3 9 16 10 30 2 14 10 31 17 38 7 8 9 18 6 24 -5 7 0 9 14 6 16 -5 22
-2 22 11 0 27 33 54 48 39 9 -9 12 -9 12 1 0 7 5 9 10 6 9 -6 15 8 11 29 -1 4
14 6 33 4 20 -2 32 0 29 6 -4 5 3 7 15 4 12 -4 20 -2 16 3 -3 5 0 9 5 9 6 0
11 -4 11 -10 0 -5 7 -10 15 -10 14 0 20 13 15 35 -1 5 9 1 21 -10 13 -12 19
-14 14 -5 -8 13 -7 13 9 1 15 -12 21 -13 39 -2 17 11 22 11 31 0 14 -18 46
-21 46 -4 0 19 23 24 38 8 8 -8 23 -11 39 -7 20 5 24 4 18 -6 -5 -8 -4 -11 3
-6 5 3 12 3 15 -1 2 -5 2 -2 1 5 -2 6 1 12 6 12 5 0 13 -6 17 -12 9 -15 43
-20 43 -7 0 12 42 1 52 -13 5 -9 8 -9 8 -2 0 16 50 24 56 10 5 -13 84 -9 84 5
0 5 9 9 21 9 11 0 17 -4 14 -10 -8 -13 28 0 37 14 5 8 8 8 8 0 0 -8 13 -9 40
-4 26 5 40 4 40 -3 0 -7 4 -7 12 1 18 18 38 15 38 -5 1 -17 1 -17 11 0 6 9 14
15 19 12 5 -3 23 1 39 10 39 20 51 19 51 -2 1 -16 2 -16 18 2 9 11 26 19 36
17 15 -3 16 -6 5 -14 -12 -8 -11 -9 1 -5 8 2 15 11 14 19 -1 9 7 14 20 13 12
-2 20 -8 18 -14z m303 -961 c3 -5 2 -10 -4 -10 -5 0 -13 5 -16 10 -3 6 -2 10
4 10 5 0 13 -4 16 -10z"/>
<path d="M5540 3601 c0 -5 5 -13 10 -16 6 -3 10 -2 10 4 0 5 -4 13 -10 16 -5
3 -10 2 -10 -4z"/>
<path d="M7390 3391 c0 -5 7 -15 17 -22 15 -13 15 -12 4 9 -12 23 -21 28 -21
13z"/>
<path d="M1956 2813 c-6 -14 -5 -15 5 -6 7 7 10 15 7 18 -3 3 -9 -2 -12 -12z"/>
<path d="M1403 2345 c0 -8 4 -12 9 -9 5 3 6 10 3 15 -9 13 -12 11 -12 -6z"/>
<path d="M6330 2310 c-8 -5 -12 -11 -9 -14 2 -3 11 -1 19 4 8 5 12 11 9 14 -2
3 -11 1 -19 -4z"/>
<path d="M1081 2224 c0 -11 3 -14 6 -6 3 7 2 16 -1 19 -3 4 -6 -2 -5 -13z"/>
<path d="M1055 2219 c-4 -6 -5 -12 -2 -15 2 -3 7 2 10 11 7 17 1 20 -8 4z"/>
<path d="M6595 2200 c-3 -6 1 -7 9 -4 18 7 21 14 7 14 -6 0 -13 -4 -16 -10z"/>
<path d="M6981 2134 c0 -11 3 -14 6 -6 3 7 2 16 -1 19 -3 4 -6 -2 -5 -13z"/>
<path d="M7590 1956 c-5 -5 -10 -6 -10 -2 0 5 -7 3 -15 -4 -8 -7 -22 -10 -30
-6 -8 3 -15 1 -15 -5 0 -6 -6 -9 -14 -6 -8 3 -16 1 -18 -4 -2 -6 -10 -11 -18
-13 -8 -2 -23 -6 -33 -11 -10 -4 -21 -5 -24 -2 -3 4 -15 1 -27 -5 -11 -7 -34
-13 -50 -14 -16 -2 -32 -6 -35 -11 -3 -4 -19 -9 -36 -11 -16 -2 -35 -8 -41
-13 -7 -5 -16 -9 -20 -8 -5 1 -22 -4 -39 -11 -16 -7 -32 -14 -35 -15 -3 0 -15
-6 -26 -13 -12 -6 -24 -9 -27 -5 -4 3 -9 -1 -13 -10 -3 -9 -11 -14 -19 -11 -7
3 -19 -2 -28 -10 -9 -9 -23 -16 -31 -16 -16 0 -63 -40 -48 -40 4 -1 -8 -7 -25
-15 -18 -8 -33 -21 -33 -30 0 -8 -5 -15 -11 -15 -6 0 -9 -6 -6 -12 2 -7 0 -24
-5 -37 -5 -15 -4 -28 2 -36 6 -8 10 -22 8 -32 -2 -12 3 -18 14 -17 10 1 16 -2
13 -6 -3 -4 7 -11 22 -15 19 -4 23 -9 14 -14 -21 -13 13 -39 43 -34 17 4 26 1
26 -7 0 -10 3 -10 15 0 8 7 15 9 15 5 0 -4 10 0 23 8 17 11 28 12 41 5 14 -8
17 -7 11 2 -5 8 -1 11 11 9 11 -2 28 2 39 8 31 17 85 23 85 10 0 -7 5 -4 11 6
5 9 17 17 25 17 9 0 12 -5 8 -12 -4 -7 3 -4 15 7 17 15 24 16 30 6 11 -18 24
-14 38 12 7 12 12 18 13 14 0 -4 9 -3 19 2 14 8 22 7 31 -4 10 -12 15 -12 36
2 13 8 24 12 24 8 0 -3 8 1 17 11 16 15 17 15 23 -1 6 -17 7 -17 21 1 18 24
39 29 39 8 0 -8 5 -12 10 -9 6 4 8 10 6 14 -3 4 1 8 9 8 8 0 11 -5 8 -11 -4
-6 3 -3 14 7 23 20 54 22 71 5 8 -8 15 -8 26 1 19 16 57 11 73 -9 9 -11 12
-12 13 -2 0 7 5 10 10 7 6 -3 13 1 16 9 5 12 10 13 25 5 10 -5 19 -6 19 -2 0
4 6 -1 13 -12 11 -14 16 -15 22 -5 5 9 4 11 -3 6 -7 -4 -12 -2 -12 3 0 14 17
14 25 1 4 -6 11 -7 17 -4 6 4 8 2 4 -4 -11 -18 16 -26 29 -9 12 17 46 24 44
10 -3 -20 2 -23 17 -8 21 20 31 11 13 -11 -11 -14 -11 -18 -1 -21 9 -4 7 -11
-7 -29 -11 -14 -17 -33 -14 -44 3 -12 -2 -29 -11 -39 -9 -10 -13 -21 -9 -25
14 -14 11 -39 -8 -59 -12 -14 -15 -24 -9 -32 6 -7 5 -16 -2 -23 -6 -6 -12 -24
-13 -39 -2 -32 -49 -138 -66 -148 -6 -4 -8 -13 -5 -21 3 -8 2 -14 -2 -14 -4 0
-12 -16 -18 -35 -8 -25 -8 -35 0 -35 6 0 5 -4 -3 -9 -8 -5 -15 -20 -17 -33 -1
-12 -8 -36 -15 -53 -7 -16 -13 -33 -14 -37 -2 -5 -3 -9 -5 -10 -2 -4 -11 -41
-12 -55 -1 -7 -5 -13 -10 -13 -5 0 -8 -6 -7 -12 3 -20 -12 -68 -21 -68 -5 0
-12 -15 -15 -33 -4 -17 -10 -36 -14 -42 -3 -5 -6 -12 -6 -15 -1 -3 -12 -25
-25 -50 -13 -25 -24 -49 -25 -55 -2 -23 -18 -71 -27 -82 -6 -7 -6 -25 0 -45 5
-18 7 -39 5 -45 -3 -8 4 -13 16 -13 12 0 21 -4 21 -9 0 -6 12 -6 30 -1 18 5
30 5 30 -1 0 -13 72 29 91 53 9 12 21 18 28 14 6 -4 11 -4 10 1 -4 26 3 50 16
51 8 1 22 3 30 4 8 1 15 6 14 12 -4 30 2 38 22 33 21 -6 23 -3 33 45 4 16 10
27 14 27 4 -1 14 -1 22 0 12 1 12 3 2 10 -11 7 -11 11 1 22 7 8 12 20 9 27 -2
6 1 12 7 12 6 0 11 8 11 18 0 15 2 15 11 2 9 -12 10 -11 6 8 -3 14 -1 20 6 15
6 -4 8 2 4 16 -4 18 -3 20 9 10 11 -9 14 -8 14 9 0 12 5 24 12 28 7 5 9 2 4
-7 -4 -8 0 -5 8 5 15 18 20 38 17 59 0 4 3 7 7 7 5 0 9 7 10 15 1 8 3 22 4 30
1 8 9 15 18 15 13 0 16 7 12 31 -3 18 -1 29 5 26 5 -3 10 4 10 16 1 12 7 23
13 25 5 2 10 11 10 20 0 15 2 15 10 2 8 -13 10 -12 10 3 0 10 4 16 9 13 4 -3
8 9 7 27 -1 25 3 31 17 29 20 -3 22 8 5 27 -10 11 -10 13 0 7 12 -7 13 -4 16
45 0 11 8 26 17 32 9 7 14 18 12 25 -3 6 1 12 8 12 9 0 10 3 2 11 -7 7 -5 21
8 47 11 20 19 49 19 64 0 17 7 31 16 35 9 3 14 13 11 24 -3 11 -1 19 5 19 5 0
6 9 3 21 -5 14 -1 25 12 34 10 8 14 15 8 15 -5 0 -4 4 4 9 10 6 10 13 2 28 -8
16 -6 24 9 38 15 14 17 21 9 31 -8 10 -8 15 2 19 16 6 16 48 1 85 -6 14 -11
21 -11 15 -2 -16 -41 48 -41 65 0 11 -11 16 -35 17 -32 1 -62 18 -123 73 -12
12 -27 18 -33 14 -6 -3 -13 3 -16 14 -3 14 -11 18 -24 15 -10 -3 -26 1 -35 8
-9 7 -33 12 -54 11 -21 -2 -41 1 -44 6 -3 5 -17 8 -31 7 -14 -2 -25 1 -25 5 0
5 -17 12 -37 16 -21 4 -43 10 -48 15 -17 13 -104 19 -110 8 -5 -7 -12 -6 -21
2 -10 8 -25 9 -53 2 -22 -6 -45 -7 -53 -2 -18 12 -95 8 -108 -5z"/>
<path d="M67 1685 c-22 -16 -8 -65 33 -116 16 -21 30 -43 30 -49 0 -6 5 -8 10
-5 6 3 10 -3 10 -15 0 -11 7 -23 15 -26 8 -3 17 -14 20 -23 3 -10 17 -24 30
-31 14 -7 25 -22 25 -32 0 -10 7 -18 15 -18 8 0 15 -7 15 -15 0 -8 7 -15 15
-15 8 0 14 -5 12 -11 -1 -6 15 -20 36 -31 20 -11 37 -24 37 -29 0 -5 7 -9 15
-9 8 0 15 -6 15 -14 0 -7 9 -16 20 -19 11 -3 20 -11 20 -19 0 -8 16 -20 35
-28 19 -8 35 -20 35 -27 0 -7 7 -13 15 -13 8 0 15 -4 15 -10 0 -5 6 -10 14
-10 8 0 21 -6 28 -13 23 -23 78 -59 78 -51 0 4 11 -5 25 -20 13 -14 31 -26 40
-26 8 0 15 -7 15 -16 0 -8 4 -13 9 -9 5 3 15 0 23 -7 7 -7 25 -19 41 -27 15
-8 27 -18 27 -23 0 -4 7 -8 15 -8 8 0 15 -5 15 -11 0 -6 7 -9 15 -5 9 3 15 0
15 -9 0 -8 3 -15 8 -16 29 -3 48 -11 81 -33 20 -14 42 -26 48 -26 6 0 14 -7
17 -16 3 -8 10 -13 15 -10 5 3 14 0 20 -8 6 -7 25 -16 42 -20 17 -3 28 -10 24
-16 -3 -6 0 -7 9 -4 11 4 16 0 16 -10 0 -9 4 -16 9 -16 5 0 22 -5 38 -12 15
-6 32 -10 37 -9 5 1 17 -6 28 -16 11 -10 23 -17 27 -15 3 1 14 -5 24 -13 10
-9 23 -13 29 -9 7 4 8 3 4 -4 -5 -8 0 -12 13 -12 12 0 21 -4 21 -10 0 -5 7 -6
17 -3 11 4 14 3 9 -5 -5 -8 -2 -10 9 -6 9 4 25 -2 35 -11 11 -10 20 -14 20
-10 0 4 9 0 20 -10 11 -10 20 -14 20 -9 0 5 6 2 13 -7 15 -19 95 -51 108 -43
6 3 13 -3 16 -15 3 -12 10 -18 17 -14 18 12 36 12 36 2 0 -6 5 -7 11 -4 6 4
17 -3 26 -14 10 -15 18 -19 26 -12 13 10 57 -19 57 -38 0 -11 9 -13 65 -15 42
-2 75 -15 72 -29 -1 -6 9 -12 23 -13 14 -1 43 -9 65 -19 22 -11 43 -18 48 -17
4 1 7 -6 7 -15 0 -13 3 -14 12 -5 17 17 28 15 28 -4 0 -14 3 -14 16 -3 13 10
17 10 24 -2 5 -7 17 -14 27 -14 10 0 17 -6 15 -13 -1 -8 2 -11 8 -7 5 3 10 14
10 23 0 14 2 15 9 2 6 -8 8 -17 5 -21 -5 -9 23 -6 32 3 8 9 33 -15 27 -24 -2
-5 -1 -8 4 -9 4 0 18 -2 30 -3 12 -1 20 1 17 6 -3 4 5 8 16 8 16 0 20 -4 16
-16 -3 -9 -2 -12 5 -9 5 4 16 1 24 -5 11 -10 15 -10 15 -1 0 7 4 10 8 7 5 -3
24 -8 43 -11 53 -9 70 -16 64 -26 -3 -5 2 -6 11 -2 12 5 15 3 9 -6 -4 -7 5 -5
21 5 28 18 29 18 14 0 -14 -18 -14 -19 7 -8 14 8 24 9 28 2 4 -6 11 -7 17 -4
8 5 9 1 5 -10 -5 -13 -3 -15 12 -7 20 11 61 4 61 -11 0 -5 9 -4 20 2 15 8 20
8 20 -2 0 -9 3 -9 10 2 9 13 10 13 10 0 0 -13 1 -13 10 0 9 13 10 13 11 0 1
-8 1 -18 0 -22 0 -4 11 -3 25 2 33 13 34 13 28 -5 -7 -17 4 -19 26 -5 9 6 17
5 22 -3 6 -9 8 -9 8 1 0 7 5 10 10 7 6 -4 8 -11 5 -16 -9 -14 3 -11 32 8 25
17 27 17 21 1 -5 -12 -3 -15 7 -11 8 3 12 10 8 17 -4 7 -1 7 9 -1 8 -7 18 -10
22 -6 4 4 4 0 0 -10 -3 -9 -1 -17 4 -17 6 0 13 8 16 18 8 23 44 23 52 0 4 -14
12 -17 35 -13 23 4 29 2 23 -7 -6 -10 -4 -11 7 -1 17 17 29 16 29 -1 0 -13 4
-13 26 -1 28 14 104 9 117 -9 6 -8 10 -7 14 2 6 16 27 16 20 -1 -3 -8 1 -14 9
-14 8 0 14 6 14 14 0 11 4 11 21 3 15 -9 24 -8 35 1 11 9 14 8 15 -7 0 -11 3
-14 6 -6 2 6 9 10 14 6 5 -3 9 -1 9 5 0 6 7 8 15 5 8 -4 13 -10 10 -14 -10
-17 14 -20 29 -4 11 11 16 12 16 3 0 -10 3 -10 12 -1 14 14 32 16 23 2 -3 -5
7 -8 25 -5 16 2 30 -1 30 -6 0 -10 35 -7 46 4 10 9 26 9 21 0 -3 -5 8 -8 24
-9 16 -1 29 4 29 10 0 6 5 4 10 -4 7 -12 12 -12 22 -2 6 6 17 12 23 12 5 0 3
-5 -5 -11 -12 -8 -10 -10 10 -6 14 2 34 8 44 12 12 5 17 5 13 -2 -4 -6 15 -9
48 -8 30 0 55 -3 55 -7 0 -5 10 -4 22 3 18 10 20 9 15 -5 -4 -9 -2 -16 4 -16
5 0 12 7 15 15 8 21 34 19 35 -2 0 -14 3 -12 10 5 5 13 14 20 20 17 6 -4 8
-14 5 -22 -4 -9 -2 -11 7 -6 16 11 67 11 67 1 0 -4 5 -8 11 -8 5 0 7 5 3 11
-5 9 1 10 20 5 18 -4 25 -3 21 4 -8 13 1 13 25 0 13 -7 21 -7 25 0 4 6 11 8
16 4 5 -3 7 -10 3 -15 -3 -6 11 -3 31 5 48 21 61 20 44 -1 -13 -16 -13 -16 11
0 30 21 44 22 36 2 -6 -15 5 -20 18 -8 3 4 13 8 20 9 7 1 23 5 35 9 13 4 21 2
21 -5 0 -7 7 -10 15 -6 8 3 15 1 15 -4 0 -16 50 -11 56 5 8 19 28 19 47 0 13
-13 16 -13 27 0 15 18 44 20 37 2 -3 -7 3 -13 13 -13 10 0 18 4 17 9 -1 5 15
11 36 13 25 3 36 1 32 -6 -9 -15 1 -12 19 6 15 14 17 14 22 0 5 -12 10 -13 25
-5 11 5 17 14 14 19 -3 6 5 9 19 8 14 -1 28 -8 30 -15 3 -8 -1 -10 -12 -6 -13
5 -14 3 -6 -6 14 -15 70 -11 67 5 -1 6 5 11 13 11 8 0 14 -5 14 -10 0 -6 9 -2
20 8 19 17 21 17 41 -1 11 -10 20 -14 19 -9 -5 22 1 29 10 15 9 -13 11 -13 20
0 8 12 10 12 10 1 0 -11 4 -11 18 2 20 18 62 23 62 8 0 -5 8 -8 18 -6 9 2 19
4 22 4 3 1 -1 5 -8 10 -9 5 4 8 32 8 25 0 46 -4 46 -9 0 -5 12 4 26 19 14 15
23 23 20 17 -7 -14 42 -16 68 -2 16 9 18 8 12 -8 -7 -17 -6 -17 14 1 11 10 20
15 20 11 0 -4 16 2 35 14 22 14 35 17 35 10 0 -9 5 -9 17 1 11 10 14 10 9 2
-9 -17 6 -17 22 -1 10 10 17 10 31 1 16 -10 24 -8 45 12 14 13 26 21 26 17 0
-4 5 0 10 8 8 12 10 11 10 -8 0 -22 1 -22 25 -6 23 15 25 15 19 0 -3 -9 -3
-16 0 -16 4 0 11 11 16 25 11 28 47 34 57 9 3 -9 9 -12 12 -7 10 14 71 32 71
21 0 -5 7 -2 17 7 10 11 27 15 45 13 15 -3 28 0 28 5 0 5 6 7 14 4 8 -3 17 1
20 9 4 10 2 12 -6 8 -7 -5 -8 -3 -4 5 5 7 10 10 13 7 3 -3 15 0 27 6 19 10 20
10 7 -6 -8 -9 -11 -19 -8 -22 3 -4 14 8 25 25 17 28 20 29 38 16 10 -8 25 -15
33 -15 11 0 9 4 -5 15 -18 14 -18 14 4 10 14 -2 22 1 22 11 0 16 18 18 55 4
16 -6 24 -6 20 0 -3 5 4 14 16 21 19 10 21 9 16 -5 -12 -30 10 -16 23 14 12
28 38 37 33 11 -4 -15 14 -14 20 2 3 6 6 3 6 -8 1 -16 3 -17 10 -5 6 8 7 18 5
22 -3 4 0 8 6 8 6 0 8 5 5 10 -3 6 1 10 10 10 8 0 20 -10 25 -22 9 -23 9 -23
9 -2 1 25 41 40 53 21 7 -11 12 -2 9 16 -1 5 4 5 11 1 22 -14 35 -12 34 4 0 9
7 18 16 20 13 3 16 -1 12 -15 -5 -17 -5 -17 10 1 8 10 17 24 20 30 3 7 8 6 16
-4 9 -12 10 -10 4 10 l-7 25 22 -19 c19 -17 21 -17 15 -3 -4 13 -2 16 9 12 8
-4 17 1 21 10 4 10 12 15 21 11 9 -3 18 1 21 8 3 8 14 14 24 13 10 -1 16 -7
13 -14 -3 -7 0 -13 5 -13 6 0 14 9 17 21 4 12 13 18 20 15 9 -3 12 0 8 10 -3
8 -2 14 3 12 5 -2 23 2 39 9 17 6 43 14 59 18 24 5 27 8 15 16 -10 7 -4 8 21
4 34 -6 34 -5 15 11 -12 10 -14 14 -5 11 8 -2 24 0 35 6 11 6 30 10 42 8 13
-1 30 7 40 18 9 12 23 21 29 21 7 0 26 14 43 31 17 17 38 29 45 26 8 -3 22 5
32 19 11 13 27 24 37 24 10 0 15 5 12 10 -4 6 7 13 24 16 17 4 31 10 31 14 0
4 11 11 25 14 14 4 24 10 21 15 -4 6 35 48 41 43 7 -5 40 14 51 30 7 10 19 15
25 12 7 -4 9 -4 5 1 -4 4 -1 13 8 20 9 6 17 23 17 38 1 15 5 27 9 27 3 0 4 8
1 19 -3 10 0 22 6 25 6 4 11 12 11 17 0 6 -4 7 -10 4 -5 -3 -10 0 -10 8 0 7
-10 22 -23 34 -16 14 -23 29 -21 51 2 26 -3 33 -32 47 -19 9 -39 13 -44 10 -6
-3 -10 -2 -10 3 0 10 -30 10 -46 -1 -6 -3 -29 -9 -51 -11 -21 -3 -57 -13 -78
-22 -22 -10 -47 -18 -55 -20 -8 -1 -33 -9 -55 -18 -22 -8 -47 -15 -56 -16 -9
0 -28 -10 -43 -21 -15 -12 -30 -19 -33 -16 -3 3 -12 -1 -20 -9 -8 -8 -18 -12
-23 -9 -5 3 -11 1 -15 -5 -4 -6 -11 -8 -16 -4 -5 3 -17 0 -25 -7 -15 -13 -29
-17 -66 -21 -10 -1 -18 -6 -18 -10 0 -4 -7 -8 -15 -8 -9 0 -28 -8 -42 -17 -15
-10 -31 -18 -37 -18 -6 -1 -19 -4 -28 -8 -36 -14 -53 -20 -67 -23 -8 -1 -17
-7 -20 -13 -4 -5 -18 -12 -32 -14 -14 -3 -42 -14 -63 -25 -21 -11 -46 -19 -56
-17 -10 2 -21 -3 -24 -12 -4 -9 -14 -13 -26 -10 -11 3 -20 2 -20 -2 0 -4 -11
-13 -25 -19 -19 -9 -25 -9 -25 0 0 6 -8 2 -17 -9 -10 -11 -27 -19 -38 -17 -11
2 -24 -2 -30 -9 -18 -22 -60 -36 -78 -25 -12 6 -17 5 -17 -3 0 -7 -3 -9 -7 -6
-3 4 -12 2 -20 -4 -7 -6 -13 -9 -13 -6 0 7 -51 -9 -100 -31 -19 -8 -45 -16
-56 -16 -12 -1 -28 -7 -36 -14 -8 -6 -18 -9 -21 -5 -4 3 -12 1 -19 -4 -7 -6
-23 -9 -35 -7 -12 2 -25 -1 -28 -6 -3 -5 -12 -7 -20 -3 -8 3 -15 0 -15 -6 0
-6 -11 -11 -24 -11 -13 0 -27 -6 -29 -12 -4 -10 -6 -10 -6 0 -1 10 -7 10 -28
-1 -16 -8 -34 -12 -40 -10 -7 3 -13 1 -13 -4 0 -6 -6 -10 -12 -11 -20 -1 -73
-10 -75 -13 -2 -1 -6 -2 -10 -3 -5 -1 -13 -4 -18 -8 -6 -4 -23 -5 -38 -4 -15
2 -27 0 -27 -5 0 -5 -7 -6 -16 -2 -9 3 -19 1 -23 -6 -4 -6 -25 -12 -47 -14
-21 -1 -41 -5 -44 -9 -3 -4 -33 -9 -66 -11 -33 -2 -65 -7 -72 -11 -7 -4 -27
-9 -45 -11 -45 -6 -60 -9 -74 -18 -6 -4 -18 -4 -27 -1 -9 3 -22 1 -29 -4 -7
-6 -22 -9 -32 -8 -11 2 -26 -1 -33 -7 -7 -6 -28 -12 -45 -13 -47 -4 -152 -21
-152 -24 0 -1 -8 -3 -17 -5 -10 -2 -18 2 -18 7 0 6 -8 4 -17 -4 -10 -9 -27
-14 -37 -12 -11 1 -25 0 -30 -4 -6 -4 -20 -8 -31 -8 -97 -8 -149 -15 -164 -23
-12 -7 -22 -6 -29 1 -9 9 -12 9 -12 -1 0 -7 -6 -11 -12 -8 -7 2 -22 1 -33 -3
-11 -4 -32 -4 -47 1 -14 4 -29 5 -32 2 -7 -7 -70 -13 -191 -18 -55 -2 -111 -6
-124 -9 -14 -3 -30 -1 -38 5 -7 7 -13 8 -13 3 0 -5 -18 -9 -40 -9 -22 0 -40 4
-40 8 0 4 -8 3 -19 -2 -10 -6 -21 -8 -24 -5 -3 3 -50 8 -104 10 -154 6 -298
17 -298 24 0 1 -45 6 -155 15 -41 4 -79 10 -85 13 -5 3 -36 7 -69 8 -33 2 -62
8 -66 15 -5 7 -30 11 -64 11 -31 0 -56 3 -56 8 0 4 -22 6 -50 5 -27 -2 -50 1
-50 5 0 8 -52 19 -107 23 -13 1 -23 4 -23 8 0 4 -10 7 -22 8 -45 2 -68 5 -68
11 0 3 -8 6 -17 7 -10 0 -34 4 -53 7 -19 4 -47 7 -62 8 -16 1 -28 5 -28 8 0 9
-131 31 -142 24 -4 -3 -8 0 -8 6 0 6 -4 9 -9 5 -5 -3 -12 -1 -15 4 -3 5 -15 7
-26 4 -12 -3 -20 0 -20 7 0 7 -6 10 -14 7 -8 -3 -17 -3 -20 1 -7 7 -41 13 -73
12 -12 0 -25 5 -28 10 -3 5 -12 7 -20 3 -9 -3 -21 -1 -28 4 -6 5 -23 10 -37
11 -44 4 -58 8 -74 21 -9 8 -31 14 -49 13 -17 0 -37 4 -44 10 -7 6 -13 7 -13
3 0 -4 -7 -2 -15 5 -8 6 -19 9 -25 5 -6 -4 -22 0 -35 9 -13 9 -33 16 -43 16
-11 0 -25 7 -32 15 -7 8 -25 15 -41 15 -16 0 -29 3 -29 8 0 4 -14 8 -31 9 -18
1 -42 9 -55 18 -13 8 -30 15 -37 15 -8 0 -20 6 -27 14 -6 8 -17 13 -25 10 -7
-3 -16 -1 -20 5 -3 6 -14 11 -24 11 -10 0 -24 7 -31 15 -7 9 -20 15 -29 13 -9
-1 -27 5 -41 15 -13 9 -30 17 -36 17 -6 0 -17 7 -24 15 -7 8 -16 12 -21 9 -5
-3 -9 -1 -9 4 0 9 -37 25 -53 23 -4 -1 -10 6 -13 14 -4 8 -18 15 -34 15 -15 0
-39 11 -54 25 -15 14 -32 23 -37 20 -5 -4 -9 -2 -9 3 0 5 -12 14 -27 21 -16 7
-39 20 -53 29 -14 9 -29 17 -33 17 -4 0 -12 7 -17 15 -5 8 -10 11 -10 7 0 -5
-12 1 -26 12 -15 12 -33 21 -40 21 -7 0 -20 10 -28 22 -9 12 -16 19 -16 15 0
-8 -45 18 -70 40 -42 38 -64 53 -77 53 -7 0 -13 6 -13 14 0 8 -11 17 -25 20
-14 4 -25 13 -25 21 0 8 -6 15 -14 15 -14 0 -60 35 -101 78 -12 12 -29 22 -38
22 -8 0 -17 4 -19 8 -4 10 -124 102 -133 102 -3 0 -17 11 -31 25 -14 14 -28
25 -33 25 -4 0 -16 8 -27 19 -22 20 -62 44 -80 47 -5 1 -18 -4 -27 -11z m5888
-1465 c3 -5 -1 -10 -10 -10 -9 0 -13 5 -10 10 3 6 8 10 10 10 2 0 7 -4 10 -10z"/>
<path d="M7670 1576 c0 -2 7 -6 15 -10 8 -3 15 -1 15 4 0 6 -7 10 -15 10 -8 0
-15 -2 -15 -4z"/>
</g>
</svg>
