<?xml version="1.0" standalone="no"?>
<!DOCTYPE svg PUBLIC "-//W3C//DTD SVG 20010904//EN"
 "http://www.w3.org/TR/2001/REC-SVG-20010904/DTD/svg10.dtd">
<svg version="1.0" xmlns="http://www.w3.org/2000/svg"
 width="500.000000pt" height="350.000000pt" viewBox="0 0 500.000000 350.000000"
 preserveAspectRatio="xMidYMid meet">

<g transform="translate(0.000000,350.000000) scale(0.100000,-0.100000)"
fill="#000000" stroke="none">
<path d="M919 2209 c-37 -4 -81 -15 -99 -24 -28 -15 -36 -15 -68 -2 -36 14
-38 14 -56 -10 -17 -23 -19 -48 -22 -242 -1 -119 -5 -238 -8 -266 -3 -27 -8
-103 -11 -168 -4 -64 -8 -125 -9 -135 -6 -29 12 -136 24 -140 5 -2 8 -8 5 -13
-4 -5 1 -6 9 -3 10 4 16 1 16 -9 0 -25 34 -29 115 -12 42 8 98 16 123 17 26 1
52 5 58 10 6 4 24 4 40 -1 16 -4 37 -7 47 -5 31 4 67 34 67 54 0 61 -124 66
-330 15 l-26 -6 1 140 0 140 61 10 c33 6 70 11 82 11 11 0 28 7 37 16 15 16
15 18 -4 37 -19 19 -25 20 -78 10 -32 -6 -66 -14 -75 -18 -16 -6 -18 1 -18 76
-1 149 -9 333 -15 365 -6 29 -5 31 36 43 23 7 96 15 161 17 101 3 121 7 138
24 25 25 25 32 0 55 -23 21 -91 25 -201 14z"/>
<path d="M2817 1788 c-25 -13 -21 -43 8 -58 22 -12 27 -11 40 6 8 10 14 25 12
33 -3 19 -40 31 -60 19z"/>
<path d="M3870 1684 c-42 -18 -59 -36 -95 -100 -30 -52 -38 -131 -23 -220 9
-54 38 -114 55 -114 8 0 11 -4 8 -10 -3 -5 1 -10 9 -10 9 0 16 -4 16 -8 0 -5
7 -9 15 -10 82 -10 137 12 152 61 15 49 -17 70 -80 52 -47 -13 -73 9 -83 69
-12 76 -12 78 2 114 7 18 12 35 11 38 -4 10 45 54 54 48 5 -3 9 0 9 5 0 6 3
10 8 10 4 -1 26 -1 48 0 32 1 43 5 47 20 12 47 -88 83 -153 55z"/>
<path d="M2454 1643 c-32 -30 -52 -66 -54 -98 -3 -50 2 -114 11 -155 6 -25 13
-56 15 -70 7 -35 35 -90 46 -90 5 0 6 -4 3 -10 -8 -13 1 -13 41 2 32 11 33 14
29 52 -3 23 -9 61 -15 86 -19 92 -27 164 -21 188 l7 25 17 -26 c9 -15 17 -30
17 -34 1 -13 45 -59 64 -66 28 -11 66 3 66 24 0 22 -21 71 -35 81 -5 4 -10 11
-10 15 0 4 -10 25 -22 46 -37 62 -109 76 -159 30z"/>
<path d="M4199 1627 c-72 -41 -88 -54 -121 -98 -50 -67 -54 -173 -10 -217 32
-32 77 -59 110 -67 18 -3 30 -10 28 -14 -2 -3 41 -6 97 -5 74 1 110 6 132 17
17 9 36 17 43 17 6 0 12 4 12 9 0 5 14 22 30 38 17 15 30 31 30 34 0 3 -16 24
-36 48 -33 38 -40 41 -68 35 -17 -4 -41 -14 -55 -22 -13 -9 -31 -17 -40 -19
-188 -34 -217 -28 -208 38 7 55 24 72 61 64 68 -15 96 -16 136 -5 67 18 94 56
84 117 -7 47 -36 63 -113 63 -45 0 -67 -7 -112 -33z"/>
<path d="M3525 1643 c-11 -3 -24 -9 -29 -14 -6 -5 -18 -9 -27 -9 -29 0 -34
-19 -40 -145 -4 -66 -9 -130 -12 -143 -8 -32 39 -75 73 -67 30 8 40 21 40 57
0 15 4 29 8 32 4 3 9 38 10 80 3 75 8 115 16 123 5 5 21 -78 17 -92 -2 -5 -3
-47 -3 -93 0 -80 13 -119 34 -106 5 3 17 -4 27 -15 17 -19 20 -20 32 -5 7 9
23 20 36 25 22 8 22 9 8 56 -8 26 -14 57 -13 68 1 47 -12 139 -21 148 -6 6
-11 18 -11 28 0 24 -40 71 -56 65 -7 -3 -16 -1 -19 4 -6 10 -35 11 -70 3z"/>
<path d="M1429 1617 c-18 -7 -34 -28 -52 -68 -15 -33 -30 -59 -34 -59 -5 0
-33 23 -63 50 -30 28 -63 50 -72 50 -41 0 -8 -80 65 -157 22 -23 28 -38 24
-55 -3 -13 -9 -36 -13 -53 -4 -16 -13 -37 -21 -47 -22 -25 -43 -105 -34 -129
4 -12 22 -27 39 -35 29 -12 33 -11 42 7 6 10 17 19 26 19 13 0 32 52 26 73 -1
4 2 7 8 7 5 0 7 8 4 18 -3 9 4 1 15 -18 28 -49 41 -79 41 -94 0 -7 13 -25 30
-39 30 -27 60 -36 60 -17 0 6 9 10 20 10 15 0 18 5 15 28 -8 50 -11 60 -21 73
-6 8 -14 21 -18 29 -4 8 -20 38 -36 65 -60 103 -60 72 -5 258 13 43 13 51 -1
73 -9 13 -17 24 -18 23 0 -1 -13 -6 -27 -12z"/>
<path d="M3077 1583 c-80 -68 -114 -186 -67 -233 11 -11 20 -27 20 -35 0 -8 5
-15 12 -15 6 0 19 -6 27 -14 22 -20 137 -37 187 -27 50 10 102 40 110 64 4 12
-3 27 -21 43 l-28 25 -75 -15 c-61 -12 -80 -13 -100 -3 -51 25 -54 62 -7 70
32 5 88 37 107 61 25 30 22 53 -11 87 -44 43 -96 41 -154 -8z"/>
<path d="M1683 1590 c-41 -24 -64 -60 -58 -89 15 -77 26 -180 22 -206 -2 -16
0 -35 5 -42 5 -7 5 -14 -1 -17 -7 -4 -7 -15 -1 -30 5 -13 6 -27 2 -30 -3 -4
-8 -91 -9 -193 -3 -198 -2 -203 45 -203 16 0 21 -4 16 -12 -5 -7 7 -1 26 13
19 14 38 39 42 55 9 32 2 370 -9 387 -4 6 -1 7 7 2 20 -12 76 -15 59 -3 -11 7
-10 8 6 6 17 -3 65 33 65 49 0 4 10 17 22 30 32 34 37 126 10 179 -56 110
-165 156 -249 104z m124 -61 c53 -20 81 -123 49 -183 -15 -30 -54 -63 -80 -68
-24 -4 -31 20 -40 128 -3 43 -9 90 -12 103 -11 40 14 46 83 20z"/>
<path d="M2847 1581 c-9 -35 -2 -280 8 -290 6 -6 27 -8 48 -4 l37 6 -4 112
c-3 81 -9 123 -23 151 -21 44 -57 58 -66 25z"/>
<path d="M2112 1580 c-38 -16 -80 -71 -98 -127 -25 -78 -7 -154 47 -204 46
-42 87 -56 152 -49 33 3 58 14 82 34 19 16 35 33 35 37 0 5 -11 19 -25 32 -19
17 -34 22 -55 19 -17 -2 -30 -8 -30 -12 0 -11 -39 -20 -45 -9 -3 4 -12 6 -19
3 -18 -7 -48 42 -44 74 2 22 9 28 40 33 24 4 48 18 71 41 66 68 46 131 -43
135 -25 1 -55 -2 -68 -7z"/>
</g>
</svg>
