<?xml version="1.0" standalone="no"?>
<!DOCTYPE svg PUBLIC "-//W3C//DTD SVG 20010904//EN"
 "http://www.w3.org/TR/2001/REC-SVG-20010904/DTD/svg10.dtd">
<svg version="1.0" xmlns="http://www.w3.org/2000/svg"
 width="1668.000000pt" height="2388.000000pt" viewBox="0 0 1668.000000 2388.000000"
 preserveAspectRatio="xMidYMid meet">

<g transform="translate(0.000000,2388.000000) scale(0.100000,-0.100000)"
fill="#000000" stroke="none">
<path d="M7625 19760 c11 -18 -51 -20 -155 -6 -44 6 -100 -8 -100 -24 0 -5
-16 -7 -35 -5 -21 2 -33 -1 -29 -7 4 -6 -3 -5 -15 1 -14 8 -21 8 -21 1 0 -5
-3 -9 -7 -8 -5 0 -15 -1 -23 -4 -85 -29 -121 -39 -129 -34 -5 3 -11 2 -13 -4
-1 -5 -16 -12 -33 -14 -16 -3 -41 -8 -55 -11 -14 -4 -38 -8 -55 -10 -51 -4
-129 -17 -140 -23 -5 -3 -23 -7 -40 -8 -16 -1 -31 -2 -32 -4 -2 -1 -6 -3 -10
-4 -5 -1 -37 -7 -73 -14 -36 -8 -83 -18 -105 -23 -38 -9 -54 -12 -115 -24 -14
-2 -59 -14 -100 -25 -41 -11 -88 -23 -105 -25 -16 -3 -41 -8 -55 -12 -14 -4
-32 -8 -40 -9 -24 -5 -55 -12 -55 -14 0 -1 -7 -3 -15 -5 -50 -10 -176 -47
-192 -56 -10 -5 -18 -8 -18 -5 0 3 -24 -2 -52 -11 -29 -8 -64 -17 -78 -20 -13
-2 -38 -10 -55 -18 -49 -21 -93 -34 -99 -28 -3 4 -6 2 -6 -4 0 -6 -28 -18 -62
-28 -35 -9 -72 -22 -83 -28 -21 -12 -27 -14 -49 -16 -8 0 -22 -8 -31 -17 -9
-9 -19 -14 -22 -10 -3 3 -12 1 -20 -5 -7 -6 -13 -8 -13 -3 0 5 -5 2 -10 -6 -6
-10 -10 -11 -10 -3 0 9 -7 7 -20 -5 -12 -9 -24 -17 -28 -17 -4 0 -29 -11 -57
-24 -27 -12 -59 -27 -70 -31 -11 -5 -65 -30 -120 -56 -55 -27 -103 -48 -106
-49 -9 0 -83 -39 -89 -46 -3 -4 -16 -10 -30 -14 -14 -4 -37 -16 -52 -26 -14
-11 -33 -19 -40 -19 -8 0 -23 -9 -33 -20 -10 -11 -23 -20 -28 -20 -13 0 -100
-41 -107 -50 -7 -10 -53 -34 -70 -36 -8 -2 -16 -8 -18 -13 -2 -6 -10 -11 -18
-11 -8 0 -14 -5 -14 -11 0 -5 -4 -8 -9 -4 -5 3 -15 -1 -23 -8 -17 -17 -91 -62
-101 -62 -5 0 -15 -9 -23 -19 -8 -11 -14 -16 -14 -10 0 5 -3 5 -8 -1 -4 -6
-20 -17 -37 -25 -16 -8 -35 -19 -42 -25 -23 -19 -39 -30 -61 -42 -12 -7 -32
-19 -44 -25 -12 -7 -33 -23 -47 -35 -14 -13 -29 -23 -33 -23 -3 0 -13 -6 -20
-13 -7 -7 -27 -22 -44 -32 -104 -65 -172 -113 -226 -157 -12 -10 -24 -18 -28
-18 -4 0 -16 -8 -28 -17 -12 -10 -33 -27 -47 -38 -15 -11 -36 -29 -48 -40 -12
-11 -26 -20 -30 -20 -4 0 -11 -5 -15 -10 -4 -6 -36 -33 -71 -60 -64 -50 -140
-115 -218 -185 -24 -21 -43 -37 -43 -34 0 2 -8 -4 -18 -13 -10 -10 -39 -37
-64 -59 -25 -23 -48 -49 -52 -59 -4 -11 -12 -15 -23 -11 -10 4 -14 4 -11 0 8
-7 -120 -134 -134 -134 -4 0 -8 -4 -8 -9 0 -6 -22 -32 -50 -59 -28 -27 -50
-47 -50 -43 0 3 -9 -8 -20 -26 -10 -18 -30 -39 -43 -48 -13 -8 -29 -26 -35
-40 -6 -14 -18 -25 -27 -25 -8 0 -15 -4 -15 -9 0 -6 -20 -30 -45 -55 -25 -26
-45 -48 -45 -51 0 -2 -10 -15 -22 -29 -13 -13 -35 -38 -50 -55 -16 -16 -28
-34 -28 -39 0 -5 -12 -20 -28 -34 -15 -14 -43 -47 -62 -72 -19 -26 -46 -60
-60 -76 -43 -49 -50 -59 -50 -66 0 -4 -8 -14 -17 -23 -26 -24 -83 -98 -83
-108 0 -5 -16 -24 -35 -43 -19 -19 -35 -40 -35 -47 0 -7 -4 -13 -8 -13 -5 0
-17 -18 -28 -40 -10 -22 -22 -40 -26 -40 -5 0 -8 -5 -8 -10 0 -6 -4 -16 -10
-23 -43 -53 -58 -75 -64 -94 -4 -12 -20 -38 -36 -58 -17 -21 -30 -44 -30 -51
0 -8 -7 -14 -15 -14 -8 0 -15 -9 -15 -20 0 -11 -4 -20 -10 -20 -5 0 -10 -7
-10 -15 0 -7 -7 -18 -16 -23 -8 -5 -16 -16 -18 -26 -1 -10 -9 -22 -17 -27 -8
-5 -10 -9 -6 -9 5 0 1 -7 -7 -16 -9 -8 -14 -20 -10 -25 3 -5 -2 -12 -10 -15
-9 -3 -16 -14 -16 -25 0 -10 -6 -22 -13 -26 -14 -8 -47 -73 -47 -92 0 -5 -6
-14 -13 -18 -19 -12 -58 -83 -52 -94 4 -5 1 -9 -4 -9 -6 0 -11 -7 -11 -15 0
-8 -3 -15 -8 -15 -7 0 -42 -73 -42 -89 0 -5 -6 -16 -14 -23 -14 -15 -56 -96
-56 -109 0 -4 -17 -45 -39 -91 -21 -46 -42 -94 -46 -108 -4 -14 -18 -48 -31
-77 -13 -28 -24 -54 -24 -57 0 -3 -11 -30 -25 -60 -14 -30 -25 -60 -25 -66 0
-7 -7 -24 -14 -38 -24 -43 -56 -123 -56 -138 0 -8 -4 -22 -9 -32 -13 -25 -34
-76 -35 -84 -1 -3 -4 -10 -8 -14 -5 -4 -8 -14 -8 -22 0 -8 -6 -28 -14 -45 -12
-29 -69 -185 -71 -197 -5 -24 -39 -127 -45 -135 -4 -5 -17 -50 -30 -100 -13
-49 -27 -94 -31 -100 -4 -5 -10 -26 -13 -45 -3 -19 -13 -60 -21 -90 -9 -30
-19 -68 -22 -85 -3 -16 -9 -32 -12 -35 -4 -3 -14 -41 -24 -85 -24 -111 -57
-261 -68 -314 -5 -23 -13 -60 -19 -80 -14 -51 -23 -110 -23 -148 0 -18 -3 -33
-7 -33 -4 0 -7 -6 -8 -12 -1 -14 -8 -63 -18 -121 -3 -20 -7 -47 -9 -60 -6 -54
-23 -152 -25 -152 -1 0 -3 -30 -5 -67 -1 -36 -6 -79 -9 -95 -3 -15 -8 -53 -11
-83 -2 -30 -7 -75 -10 -100 -3 -24 -8 -95 -10 -157 -2 -62 -6 -116 -8 -121 -4
-9 1 -441 8 -542 2 -41 4 -101 5 -132 0 -31 5 -60 11 -63 7 -5 6 -11 -2 -21
-9 -11 -9 -14 1 -14 7 0 10 -8 8 -18 -5 -17 5 -170 16 -262 7 -54 16 -126 21
-160 2 -14 7 -56 11 -95 3 -38 9 -74 12 -80 4 -5 8 -21 9 -35 2 -26 20 -153
26 -182 2 -10 6 -20 9 -24 4 -3 4 -12 2 -19 -3 -7 0 -33 7 -56 7 -24 13 -53
15 -64 1 -11 8 -49 14 -85 7 -36 13 -75 13 -87 1 -12 5 -25 10 -29 4 -4 7 -20
7 -35 0 -15 5 -31 10 -34 6 -3 10 -16 10 -28 0 -30 40 -207 52 -231 5 -10 12
-34 14 -53 3 -20 9 -44 15 -54 5 -10 12 -38 15 -61 4 -24 10 -50 15 -59 14
-27 56 -160 65 -206 1 -7 14 -44 29 -82 14 -38 28 -82 31 -97 3 -16 12 -42 20
-58 8 -16 14 -35 14 -43 0 -7 4 -13 9 -13 5 0 12 -16 16 -36 3 -20 17 -59 30
-88 12 -28 33 -78 46 -111 13 -33 31 -73 41 -90 10 -16 18 -37 18 -45 0 -8 11
-35 25 -60 14 -25 32 -61 40 -80 9 -19 32 -67 51 -106 18 -38 34 -76 34 -82 0
-7 5 -12 10 -12 6 0 10 -6 10 -13 0 -8 11 -34 24 -58 14 -24 37 -69 53 -99 15
-30 47 -85 70 -122 24 -36 43 -74 43 -82 0 -9 5 -16 10 -16 6 0 10 -6 10 -13
0 -7 16 -36 35 -64 19 -29 35 -57 35 -63 0 -5 4 -10 9 -10 5 0 11 -8 15 -17 6
-21 25 -51 44 -71 6 -7 12 -18 12 -24 0 -5 13 -27 28 -47 15 -20 33 -48 40
-63 6 -16 16 -28 22 -28 5 0 16 -15 24 -33 7 -17 23 -43 35 -57 11 -14 25 -30
31 -37 5 -7 10 -14 10 -17 0 -3 15 -26 33 -52 17 -25 37 -53 42 -62 6 -9 20
-27 32 -39 13 -12 23 -27 23 -33 0 -5 5 -10 10 -10 6 0 10 -7 10 -15 0 -8 4
-15 9 -15 5 0 11 -9 14 -21 3 -12 10 -18 15 -15 5 3 16 -7 24 -22 32 -62 54
-92 70 -98 10 -3 18 -14 18 -25 0 -11 7 -22 16 -26 8 -3 20 -17 25 -30 5 -13
13 -21 19 -18 5 3 10 1 10 -5 0 -12 33 -59 73 -104 15 -17 27 -34 27 -39 0 -4
4 -5 10 -2 6 3 10 1 10 -5 0 -6 29 -40 65 -76 36 -36 65 -69 65 -73 0 -4 63
-72 140 -150 77 -78 140 -140 140 -137 0 3 15 -11 34 -29 18 -19 38 -35 45
-35 6 0 16 -11 23 -25 6 -13 15 -22 19 -19 5 3 9 -2 9 -10 0 -9 4 -16 8 -16 4
0 53 -43 107 -95 55 -52 108 -98 117 -101 10 -3 18 -13 18 -21 0 -9 3 -14 6
-10 3 3 16 -4 28 -16 19 -20 100 -91 136 -120 8 -7 15 -10 15 -8 0 3 19 -15
43 -39 23 -24 42 -40 42 -36 0 4 10 -4 23 -17 12 -13 28 -22 35 -20 6 3 12 -2
12 -10 0 -9 9 -19 20 -22 11 -4 28 -17 37 -31 8 -13 21 -23 28 -22 7 2 24 -9
38 -24 14 -15 28 -24 31 -21 3 4 6 1 6 -6 0 -7 4 -9 10 -6 6 3 10 2 10 -3 0
-5 29 -29 65 -53 36 -23 65 -46 65 -50 0 -4 10 -11 22 -15 12 -3 42 -22 67
-41 61 -46 174 -117 183 -115 3 1 12 -5 18 -13 7 -8 19 -15 26 -15 8 0 14 -4
14 -8 0 -5 15 -16 33 -25 17 -9 41 -23 52 -29 58 -38 121 -75 125 -75 3 0 25
-12 48 -27 24 -15 46 -25 49 -23 2 3 16 -6 29 -18 14 -13 39 -27 55 -30 16 -4
29 -11 29 -16 0 -5 3 -8 7 -7 5 1 36 -14 71 -35 35 -20 65 -37 68 -37 3 0 35
-14 72 -32 37 -18 69 -33 72 -33 3 -1 28 -12 55 -25 28 -13 52 -24 55 -25 3 0
28 -11 55 -24 28 -12 57 -24 65 -26 8 -2 26 -8 40 -13 14 -5 28 -9 31 -8 3 0
13 -5 23 -13 9 -8 19 -11 22 -8 3 3 27 -6 52 -20 26 -15 47 -25 47 -23 0 6
112 -30 141 -45 16 -8 37 -15 47 -15 10 0 26 -4 35 -9 9 -5 31 -12 47 -15 17
-3 64 -15 105 -26 41 -12 101 -21 133 -20 123 2 207 -3 207 -13 0 -5 7 -1 16
7 8 9 26 16 39 16 13 0 27 5 30 10 4 6 11 8 16 4 6 -3 16 2 23 12 9 11 19 15
32 10 10 -4 15 -4 12 0 -7 6 16 35 27 34 3 0 13 6 21 15 9 8 20 13 25 10 5 -4
9 -1 9 5 0 6 5 8 10 5 6 -3 10 -1 10 6 0 6 11 22 25 35 14 13 25 18 25 13 0
-6 7 -4 15 5 8 8 15 20 15 26 0 7 7 10 14 7 9 -4 17 2 21 14 4 10 11 17 16 14
5 -4 9 -1 9 4 0 6 7 11 16 11 8 0 13 3 11 8 -3 4 -1 18 4 31 6 16 14 21 25 17
11 -4 15 -2 11 7 -3 7 4 24 15 38 11 13 16 18 12 10 -5 -9 -3 -12 4 -7 7 4 12
14 12 22 0 8 6 14 14 14 9 0 12 7 9 19 -2 10 3 25 12 34 9 9 13 21 10 27 -3 5
-2 10 4 10 6 0 8 7 5 15 -4 8 0 22 7 31 13 16 18 46 22 137 2 32 -1 61 -6 64
-4 2 -3 10 2 17 13 16 7 258 -13 549 -2 26 -7 51 -10 54 -3 4 -6 25 -6 47 -1
23 -12 100 -26 171 -30 158 -41 249 -33 272 3 10 2 33 -3 53 -9 33 -15 64 -17
83 -2 17 -86 45 -104 35 -11 -5 -38 -9 -60 -8 -100 3 -144 7 -156 14 -18 12
-106 13 -166 3 -46 -7 -107 -11 -311 -21 -39 -2 -76 -6 -83 -10 -7 -5 -31 -9
-54 -11 -23 -2 -42 -4 -42 -5 0 -5 -81 -10 -205 -14 -124 -4 -220 6 -220 23 0
4 -8 7 -17 8 -52 5 -111 15 -133 23 -14 6 -34 10 -45 10 -83 0 -99 2 -109 14
-12 13 -67 31 -128 41 -21 3 -38 10 -38 16 0 5 -8 12 -17 16 -18 6 -39 23 -71
56 -9 9 -25 17 -36 17 -11 0 -16 3 -13 6 4 4 -13 21 -37 38 -24 17 -44 35 -44
39 0 5 -7 14 -16 20 -8 7 -16 19 -18 27 -2 8 -16 30 -33 47 -48 52 -56 63 -48
63 4 0 2 4 -5 8 -7 5 -15 21 -18 36 -7 40 -35 106 -44 106 -5 0 -12 10 -16 22
-3 12 -13 28 -20 36 -8 7 -14 22 -14 32 0 10 -6 25 -13 32 -18 21 -37 56 -37
71 0 8 -11 26 -25 41 -14 15 -25 34 -25 42 0 7 -5 14 -10 14 -14 0 -70 89 -70
111 0 9 -7 19 -15 23 -8 3 -15 13 -15 22 0 10 -13 41 -30 71 -17 29 -30 60
-30 68 0 8 -4 15 -10 15 -5 0 -10 6 -10 14 0 7 -9 16 -21 19 -12 3 -18 10 -15
16 4 6 -4 20 -18 32 -13 12 -27 33 -31 47 -3 14 -17 34 -31 44 -13 11 -24 26
-24 34 0 8 -13 28 -30 46 -17 17 -30 34 -30 38 0 4 -11 11 -25 14 -18 5 -25
13 -25 31 0 16 -6 25 -15 25 -8 0 -15 6 -15 13 -1 13 -66 87 -78 87 -4 0 -29
25 -56 55 -27 30 -55 55 -61 55 -7 0 -21 11 -31 25 -12 16 -32 26 -61 31 -24
3 -43 10 -43 15 0 5 -12 14 -27 20 -31 11 -90 37 -113 50 -8 5 -24 13 -35 18
-11 5 -31 23 -45 41 -14 17 -33 40 -42 51 -10 10 -18 23 -18 28 0 5 -6 16 -13
23 -20 20 -60 88 -52 88 4 0 3 6 -2 13 -12 16 -11 24 12 69 11 22 23 34 31 31
8 -3 14 1 14 8 0 11 3 11 10 -1 7 -11 10 -11 10 -2 0 7 5 10 10 7 6 -3 10 -1
10 4 0 6 11 11 25 11 14 0 25 -5 25 -12 0 -6 3 -8 7 -5 3 4 15 -1 25 -10 11
-9 24 -18 31 -19 47 -10 62 -15 82 -28 13 -9 36 -18 52 -20 15 -3 29 -10 31
-16 2 -5 8 -8 13 -4 5 3 9 0 9 -5 0 -6 7 -11 15 -11 9 0 18 -6 21 -14 3 -8 12
-12 19 -10 7 3 19 -4 27 -15 8 -11 26 -25 41 -30 15 -6 27 -15 27 -21 0 -6 4
-8 10 -5 5 3 10 1 10 -4 0 -6 6 -11 14 -11 7 0 19 -7 26 -15 7 -9 18 -14 24
-12 15 5 118 -43 133 -62 7 -9 13 -12 13 -7 0 6 6 3 13 -6 6 -9 21 -18 32 -20
12 -2 19 -10 17 -20 -2 -15 31 -35 51 -30 4 1 7 -5 7 -13 0 -8 7 -15 15 -15 8
0 15 -5 15 -11 0 -5 13 -15 29 -20 17 -6 32 -20 35 -32 3 -13 25 -35 50 -51
25 -15 47 -35 50 -43 3 -8 10 -11 16 -8 5 3 10 0 10 -8 0 -16 27 -31 49 -28 7
1 10 -2 6 -8 -6 -11 52 -71 70 -71 5 0 20 -18 33 -40 12 -22 29 -40 38 -40 8
0 12 -5 9 -10 -4 -6 10 -26 29 -45 20 -19 36 -39 36 -45 0 -5 4 -10 10 -10 5
0 23 -19 40 -42 16 -22 30 -37 31 -32 0 5 4 -1 9 -14 5 -12 16 -22 25 -22 8 0
15 -7 15 -16 0 -8 5 -12 11 -9 6 4 13 -2 16 -14 3 -12 9 -21 13 -21 4 0 12
-12 18 -26 7 -14 17 -22 22 -19 6 3 10 0 10 -8 0 -28 160 -194 196 -203 13 -4
24 -9 24 -13 0 -12 60 -42 70 -36 6 4 9 3 8 -2 -4 -13 71 -76 117 -98 22 -11
42 -23 43 -27 2 -5 16 -8 31 -8 15 0 31 -4 37 -10 5 -5 26 -11 46 -12 20 -2
34 -6 32 -9 -5 -9 25 -21 36 -14 4 3 11 -2 14 -11 3 -8 11 -12 16 -9 6 4 16 2
23 -4 7 -5 25 -8 40 -7 15 2 30 0 32 -4 3 -5 20 -7 37 -5 19 1 41 -4 51 -13
10 -9 17 -11 17 -4 0 6 6 9 13 6 19 -7 86 -14 129 -14 20 1 39 -4 43 -10 3 -5
22 -10 41 -10 19 0 34 -5 34 -11 0 -8 4 -8 13 0 10 8 17 7 27 -2 10 -10 12 -9
6 3 -6 12 -5 12 6 -1 7 -9 18 -14 24 -12 7 2 19 -3 27 -11 8 -9 17 -12 19 -8
2 5 22 6 45 4 24 -2 40 -8 37 -13 -8 -13 10 -11 24 3 9 9 12 9 12 1 0 -7 8
-11 18 -11 9 1 30 -2 45 -6 19 -4 26 -3 22 4 -3 5 -1 10 4 10 6 0 11 -6 11
-12 0 -9 3 -9 8 -2 10 15 40 25 46 15 9 -14 41 -6 63 16 13 13 31 20 47 19 14
-2 26 1 26 5 0 5 7 9 15 9 8 0 15 5 15 11 0 5 4 8 9 4 6 -3 13 1 18 8 4 8 25
20 46 26 20 7 37 17 37 23 0 6 6 5 16 -2 12 -11 15 -11 12 1 -2 8 3 13 10 11
6 -1 12 3 12 9 0 6 7 9 15 5 10 -3 15 1 15 12 0 15 2 15 10 2 8 -13 10 -12 10
3 0 10 4 16 9 13 5 -3 32 17 60 45 28 27 51 46 51 42 0 -4 5 0 11 10 5 9 17
17 24 17 8 0 15 6 15 14 0 8 5 18 12 22 7 5 8 3 3 -6 -5 -8 -4 -11 3 -7 5 4 8
17 5 28 -5 18 -3 20 15 14 17 -5 21 -3 16 9 -3 9 5 28 19 46 16 19 23 37 20
50 -4 14 2 29 17 45 12 13 20 30 18 37 -3 7 -1 24 5 38 5 14 11 50 13 80 4 60
11 124 14 128 3 2 4 6 14 57 4 22 12 45 17 52 7 7 6 14 -1 18 -12 8 -5 45 21
102 10 24 19 49 19 57 0 8 5 18 11 21 6 4 8 13 5 21 -3 8 1 17 8 20 8 3 25 25
37 50 13 24 27 44 31 44 5 0 8 5 8 10 0 6 9 19 20 30 11 11 20 27 20 36 0 9 7
22 16 29 15 11 13 16 -21 53 -31 35 -40 40 -56 31 -16 -8 -26 -5 -51 16 -17
14 -37 24 -44 21 -8 -3 -14 -2 -14 2 0 4 -12 8 -27 8 -37 2 -75 12 -82 22 -10
14 -86 32 -133 32 -25 0 -63 6 -84 14 -22 7 -45 11 -51 9 -7 -3 -13 1 -13 8 0
7 -3 9 -7 6 -3 -4 -11 -3 -17 2 -6 6 -23 11 -38 13 -14 2 -32 9 -40 16 -8 6
-18 9 -21 5 -4 -3 -7 -1 -7 4 0 6 -12 10 -26 8 -29 -3 -113 20 -128 35 -6 6
-17 10 -26 10 -8 0 -27 7 -42 14 -15 8 -53 17 -85 20 -35 4 -81 18 -117 36
-32 16 -62 27 -67 24 -5 -3 -9 0 -9 5 0 6 -8 11 -18 11 -20 0 -154 44 -174 57
-7 4 -15 8 -18 9 -3 0 -16 5 -30 11 -43 19 -65 26 -74 24 -4 -1 -13 2 -20 7
-10 9 -29 14 -91 26 -11 2 -40 11 -65 20 -25 9 -52 16 -61 16 -9 0 -22 7 -29
15 -7 9 -15 13 -17 11 -3 -3 -10 -1 -17 4 -56 46 -75 60 -79 60 -3 0 -18 11
-33 25 -15 14 -31 25 -35 25 -11 0 -94 56 -109 75 -7 8 -16 15 -21 15 -4 0
-28 13 -52 30 -25 17 -50 30 -56 30 -6 0 -11 6 -12 13 -1 22 -173 153 -261
198 -20 10 -45 30 -56 44 -11 14 -25 25 -31 25 -6 0 -11 7 -11 15 0 8 -5 15
-11 15 -5 0 -7 5 -4 10 3 6 -1 13 -9 16 -9 3 -16 11 -16 18 0 12 -11 23 -73
69 -20 16 -46 46 -57 68 -11 21 -24 39 -29 39 -7 0 -19 27 -19 46 -1 3 -8 11
-18 18 -9 7 -14 18 -11 23 4 6 -8 27 -27 46 -19 20 -31 39 -28 42 3 3 -4 14
-16 25 -12 12 -22 27 -22 35 0 8 -4 15 -8 15 -5 0 -20 21 -35 48 -14 26 -35
57 -47 69 -11 13 -23 36 -26 53 -4 16 -10 30 -15 30 -5 0 -9 6 -9 14 0 7 -7
19 -15 26 -9 7 -13 15 -10 18 2 3 -5 13 -16 23 -12 10 -18 23 -14 28 3 6 1 11
-4 11 -6 0 -11 7 -11 15 0 8 -4 15 -9 15 -5 0 -14 14 -20 30 -5 17 -17 38 -26
47 -9 8 -14 22 -11 29 3 8 2 14 -2 14 -4 0 -15 28 -25 63 -10 34 -23 70 -28
80 -5 10 -7 22 -4 27 4 6 1 10 -5 10 -6 0 -8 5 -5 10 4 6 1 17 -5 25 -7 8 -9
15 -5 15 4 0 3 6 -2 13 -10 12 -26 58 -37 110 -4 15 -10 26 -14 23 -4 -2 -8
17 -10 42 -6 115 -7 132 -12 132 -5 0 -8 23 -13 90 -1 14 -6 31 -10 38 -5 6
-4 12 0 12 5 0 7 17 5 38 -4 50 -12 186 -14 245 -1 26 -4 47 -8 47 -3 0 -6 28
-7 63 -1 52 -8 122 -13 122 -1 0 -3 29 -6 65 -2 36 -7 97 -10 135 -5 60 -7
196 -5 405 1 30 0 78 -1 105 -2 55 14 220 21 220 2 0 4 8 6 18 2 9 -1 17 -6
17 -5 0 -9 5 -9 11 0 5 5 7 10 4 5 -3 10 -4 10 -2 0 25 25 130 37 157 9 19 17
43 18 53 1 11 8 23 16 28 12 7 12 9 -1 9 -9 0 -11 3 -5 8 6 4 10 14 10 22 -1
8 12 34 28 58 16 24 26 50 23 58 -3 8 3 32 13 53 11 20 22 54 26 74 4 20 11
37 17 37 5 0 8 6 6 13 -1 6 4 22 11 35 7 13 10 30 7 38 -3 8 1 17 9 20 8 4 12
10 9 15 -3 5 -1 9 5 9 5 0 8 8 6 18 -1 9 1 22 5 27 4 6 22 45 40 88 17 42 36
77 41 77 5 0 9 6 9 14 0 8 7 17 16 20 9 4 14 9 11 12 -10 10 17 32 32 26 9 -3
12 -1 7 6 -3 6 2 16 13 21 11 6 23 20 26 32 4 11 9 18 12 15 3 -3 15 11 26 32
11 20 23 39 26 42 15 11 51 78 51 94 0 9 7 19 15 22 8 3 17 14 20 25 4 10 13
26 21 34 8 8 16 24 17 35 1 15 7 20 19 17 10 -3 21 0 25 6 9 14 12 77 3 77 -3
0 -6 8 -6 18 -1 9 -4 35 -8 57 -4 22 -10 62 -12 90 -2 27 -8 52 -12 55 -4 3
-7 19 -6 35 0 17 -4 36 -9 43 -6 8 -6 12 1 12 11 0 10 75 -2 87 -3 3 -1 13 6
20 19 23 29 254 11 260 -7 3 -8 17 -4 36 4 18 6 61 5 97 -7 223 -7 300 1 340
4 25 9 54 11 65 1 11 3 20 4 20 1 0 4 14 5 30 10 87 16 120 23 123 5 1 6 16 4
32 -3 19 0 30 7 30 7 0 10 4 6 9 -3 5 -1 12 3 15 5 3 7 17 4 31 -2 15 0 36 6
48 16 34 21 67 10 67 -6 0 -6 6 2 15 6 7 13 46 15 85 2 39 8 77 14 84 6 7 9
15 6 18 -3 3 2 22 12 44 9 21 16 45 14 52 -1 6 3 12 9 12 5 0 10 7 10 15 0 20
62 16 72 -5 6 -13 7 -13 7 0 1 12 10 15 41 12 22 -2 40 -9 40 -15 0 -5 9 -2
20 8 19 17 19 17 15 -4 -3 -17 -1 -19 13 -12 9 4 26 7 37 5 11 -2 40 -6 65
-10 25 -3 56 -11 70 -18 28 -13 49 -14 68 -3 8 6 12 2 12 -10 0 -10 4 -14 8
-8 10 14 46 19 37 6 -7 -12 22 -4 42 12 9 6 15 4 19 -7 4 -10 11 -13 18 -8 17
13 48 23 42 13 -3 -4 6 -6 19 -3 16 3 25 0 25 -8 0 -10 3 -10 14 -1 10 8 16 9
21 1 3 -6 11 -8 16 -5 5 4 9 1 9 -6 0 -9 3 -9 14 0 10 9 15 8 19 -4 4 -8 13
-12 22 -9 8 3 15 2 15 -2 0 -5 12 -10 28 -11 44 -2 64 -9 76 -24 6 -8 18 -14
26 -14 8 0 21 -5 28 -12 7 -7 19 -10 27 -7 8 4 15 2 15 -4 0 -10 15 -15 79
-27 13 -2 32 -12 42 -21 11 -10 19 -14 19 -9 0 4 6 2 13 -4 8 -6 17 -8 20 -4
4 3 7 1 7 -7 0 -10 4 -10 17 1 13 11 15 11 9 1 -6 -9 -3 -12 10 -10 11 2 19
-3 19 -12 0 -8 8 -14 17 -14 10 1 19 -8 22 -22 4 -14 11 -21 20 -18 7 3 16 -2
19 -10 4 -9 11 -16 16 -16 6 0 21 -10 34 -22 20 -19 40 -36 96 -78 4 -3 17
-22 30 -42 12 -21 29 -38 37 -38 8 0 14 -7 14 -15 0 -9 7 -18 15 -21 8 -4 15
-12 15 -18 0 -7 10 -22 23 -33 30 -28 77 -82 77 -89 0 -12 62 -64 70 -59 6 3
7 -1 4 -9 -4 -10 -1 -16 9 -16 9 0 24 -16 33 -35 9 -19 20 -35 25 -35 5 0 9
-5 9 -10 0 -11 34 -63 59 -89 8 -9 23 -17 34 -18 12 -2 28 -10 36 -17 9 -7 22
-11 29 -9 6 3 12 -2 12 -11 0 -10 13 -2 35 22 24 28 43 39 64 40 16 0 39 6 50
12 12 6 21 8 21 5 0 -3 8 -1 18 4 13 7 23 6 30 -1 9 -9 12 -9 12 1 0 7 6 11
15 7 8 -3 21 2 30 10 8 8 24 17 36 19 12 3 24 6 26 9 3 3 16 1 29 -4 16 -6 24
-6 24 1 0 6 4 8 9 4 5 -3 12 -1 16 5 3 5 21 8 40 5 19 -2 37 1 41 6 3 6 16 9
27 8 12 -1 42 1 67 5 98 17 102 17 95 5 -4 -6 7 -3 25 6 18 9 29 11 25 5 -4
-7 4 -6 22 3 18 10 35 12 43 7 8 -5 18 -6 23 -3 17 10 112 10 119 -1 5 -7 8
-6 8 4 0 10 12 16 35 17 21 2 35 -2 35 -8 0 -8 6 -7 17 2 10 8 14 9 10 2 -9
-14 21 -10 52 7 16 8 21 8 21 -1 0 -8 5 -7 17 2 11 10 14 10 9 2 -4 -7 -2 -13
3 -13 6 0 11 4 11 10 0 5 13 7 30 5 16 -2 32 1 36 6 3 5 9 7 14 4 5 -3 11 -1
15 5 4 6 13 7 23 2 26 -13 72 -8 82 8 7 11 10 12 10 2 0 -8 5 -10 13 -5 6 4
37 9 67 10 139 7 158 9 153 17 -3 5 6 7 20 4 15 -3 25 -2 22 1 -2 4 14 7 35 7
21 0 36 -4 33 -9 -3 -5 4 -4 16 2 16 9 21 9 21 0 0 -8 5 -8 16 2 13 10 17 10
25 -2 6 -10 9 -10 9 -1 0 6 7 12 16 12 8 0 13 -4 10 -8 -3 -5 10 -9 29 -9 19
0 32 4 29 8 -2 4 16 7 41 5 25 -1 45 0 45 3 0 3 27 7 60 8 42 1 59 -1 54 -9
-5 -7 -2 -8 6 -3 8 5 33 9 56 10 23 1 46 5 52 9 6 3 13 2 16 -3 3 -5 16 -7 28
-3 12 3 19 1 15 -4 -3 -6 5 -10 19 -10 13 0 24 4 24 8 0 5 9 4 20 -2 11 -6 20
-8 20 -4 0 3 6 1 14 -5 11 -9 15 -9 19 1 4 10 6 10 6 -1 1 -11 4 -11 18 0 12
10 17 11 20 2 2 -7 11 -9 20 -6 11 4 14 2 9 -5 -4 -6 5 -5 21 3 18 9 29 11 31
4 3 -6 10 -5 20 3 13 11 14 11 8 0 -6 -11 -1 -12 24 -8 36 5 63 -2 54 -15 -3
-5 0 -9 5 -9 6 0 11 4 11 9 0 5 9 11 20 14 11 3 20 2 20 -2 0 -4 24 -6 53 -5
29 1 55 -4 59 -10 5 -7 8 -6 8 4 0 20 51 21 66 1 8 -10 13 -11 18 -3 4 7 12
12 17 12 6 0 7 -4 4 -10 -4 -6 4 -6 22 1 18 7 29 7 31 0 2 -5 10 -7 19 -4 10
4 14 2 10 -4 -8 -12 11 -12 30 0 6 4 13 1 16 -5 3 -10 12 -9 37 5 17 9 37 14
43 10 18 -11 36 -12 43 -2 3 5 10 6 16 3 10 -7 62 -13 130 -17 21 -1 38 -6 38
-11 0 -5 8 -2 17 5 15 12 16 12 11 -3 -7 -16 13 -20 28 -5 3 3 17 -1 29 -9 15
-10 25 -11 29 -5 4 6 13 8 21 5 8 -4 12 -11 9 -16 -4 -6 2 -5 14 1 17 9 23 8
31 -6 7 -11 11 -13 11 -5 0 10 4 9 17 -3 10 -10 27 -15 44 -13 17 3 26 0 22
-6 -4 -5 1 -7 11 -3 10 4 19 1 23 -9 5 -13 8 -13 15 -2 8 10 11 11 15 0 4 -10
8 -10 19 -1 11 9 15 8 20 -6 5 -12 14 -15 31 -10 16 4 22 2 18 -4 -3 -6 0 -8
9 -5 8 3 25 -2 38 -10 14 -9 28 -13 32 -9 6 7 32 12 74 16 14 1 25 10 28 24 3
12 12 24 20 27 11 4 11 10 -1 33 -22 42 -18 68 12 89 15 9 33 17 40 17 7 0 13
4 13 9 0 4 7 8 15 8 8 0 15 4 15 10 0 5 11 12 25 16 14 3 30 14 35 24 5 10 23
21 40 25 16 4 30 11 30 16 0 5 6 9 14 9 7 0 19 6 25 14 7 8 19 13 29 12 9 -2
43 10 74 26 32 16 63 26 67 23 5 -3 11 -1 13 4 1 5 31 22 65 38 34 16 59 25
56 20 -3 -5 5 -2 18 6 13 8 31 13 41 12 9 -2 18 5 21 17 4 15 11 18 26 13 13
-4 21 -2 21 5 0 6 5 8 10 5 6 -3 10 -1 10 5 0 7 6 10 12 8 7 -3 20 4 28 15 9
11 30 20 48 20 18 1 32 7 32 14 0 7 7 13 15 13 8 0 15 4 15 8 0 14 109 65 125
58 9 -3 14 -2 11 3 -3 5 8 14 24 20 17 5 30 7 30 3 0 -3 7 3 15 15 10 14 25
21 43 21 15 -1 46 9 70 21 27 14 51 19 64 15 12 -4 18 -2 14 4 -5 8 11 14 69
28 34 7 55 18 55 26 0 6 7 8 15 4 8 -3 22 2 30 11 9 8 19 13 22 10 3 -4 17 0
32 7 14 7 34 12 44 11 9 -2 15 0 12 5 -5 8 31 24 79 35 23 5 27 3 23 -9 -3 -8
1 -20 9 -26 8 -7 14 -19 14 -26 0 -18 21 -55 39 -70 8 -6 12 -18 8 -27 -3 -8
3 -23 14 -33 11 -10 18 -26 16 -36 -3 -10 -1 -18 4 -18 5 0 9 -11 9 -25 0 -14
4 -25 8 -25 10 0 31 -56 38 -102 8 -47 13 -261 6 -273 -3 -5 -7 -61 -8 -125
-1 -64 -4 -125 -8 -135 -3 -11 -8 -54 -11 -95 -3 -41 -7 -90 -10 -107 -2 -19
0 -33 6 -33 6 0 7 -5 4 -11 -15 -23 -26 -259 -13 -259 5 0 6 -5 3 -11 -4 -5
-9 -25 -12 -42 -7 -41 -11 -62 -13 -62 -1 0 -4 -13 -6 -30 -3 -16 -9 -32 -14
-35 -10 -6 -40 -77 -46 -110 -3 -13 -9 -27 -13 -30 -4 -3 -8 -14 -9 -25 0 -11
-5 -38 -10 -60 -6 -30 -4 -46 7 -63 9 -16 11 -26 4 -30 -15 -10 -14 -72 1 -78
7 -3 13 -15 12 -27 -1 -12 1 -33 4 -47 4 -14 1 -34 -5 -45 -29 -47 -27 -71 10
-104 20 -17 36 -34 37 -38 1 -5 8 -7 15 -5 7 2 13 -1 13 -7 0 -5 9 -7 20 -4
11 3 20 10 20 16 0 6 11 0 25 -13 13 -12 22 -26 20 -30 -6 -10 17 -70 27 -70
4 0 8 -6 8 -14 0 -8 7 -17 16 -20 8 -3 12 -10 9 -16 -3 -5 -1 -10 4 -10 6 0
11 -6 11 -14 0 -8 9 -22 21 -30 12 -8 18 -19 14 -26 -4 -6 -1 -18 6 -26 6 -8
9 -17 5 -21 -3 -3 1 -17 9 -30 9 -13 12 -23 8 -23 -5 0 -1 -5 7 -10 8 -5 15
-13 15 -17 3 -42 18 -84 29 -80 10 4 13 -4 12 -26 -1 -18 9 -53 22 -80 13 -26
25 -57 27 -69 3 -12 9 -26 15 -32 5 -5 10 -18 10 -28 0 -10 11 -28 24 -39 13
-12 27 -32 30 -45 4 -13 13 -24 21 -24 8 0 16 -6 16 -12 5 -49 21 -87 39 -93
12 -4 16 -12 13 -25 -3 -12 1 -22 11 -26 9 -3 16 -11 16 -18 0 -6 12 -24 26
-39 14 -15 23 -35 20 -43 -3 -7 -1 -14 5 -14 6 0 8 -4 4 -9 -3 -5 1 -16 9 -23
9 -10 11 -20 4 -31 -6 -11 -5 -17 2 -17 6 0 8 -4 5 -10 -3 -5 -1 -10 4 -10 6
0 11 -11 11 -24 0 -13 6 -26 14 -29 9 -4 12 -14 9 -26 -3 -12 -1 -21 3 -21 5
0 10 -10 10 -22 2 -24 12 -83 14 -83 1 0 3 -25 5 -55 2 -30 6 -68 10 -85 4
-16 8 -84 9 -150 1 -66 5 -125 9 -131 3 -6 4 -14 0 -17 -3 -4 -6 -48 -5 -99 0
-50 -4 -103 -9 -116 -7 -17 -6 -29 3 -40 10 -12 10 -14 1 -8 -7 4 -13 4 -14
-1 0 -4 -2 -17 -5 -28 -4 -19 -5 -39 -18 -200 -4 -38 -11 -90 -16 -115 -5 -25
-12 -76 -14 -115 -2 -38 -9 -83 -15 -99 -7 -16 -13 -39 -14 -50 -1 -12 -8 -27
-14 -34 -7 -7 -13 -19 -14 -25 -1 -11 -5 -40 -12 -77 -1 -8 -8 -25 -14 -36 -7
-12 -10 -24 -6 -27 3 -4 -2 -26 -11 -51 -9 -24 -16 -48 -15 -52 1 -5 1 -11 -1
-14 -1 -3 -3 -15 -6 -27 -8 -43 -9 -48 -15 -53 -13 -12 -60 -164 -54 -178 3
-8 1 -18 -5 -22 -10 -6 -18 -35 -24 -85 -2 -11 -8 -36 -14 -55 -6 -19 -13 -53
-16 -75 -2 -22 -8 -64 -12 -93 -4 -30 -8 -61 -9 -70 -1 -10 -4 -24 -7 -32 -3
-8 -11 -33 -17 -55 -13 -43 -27 -78 -43 -109 -32 -61 -62 -113 -74 -127 -8 -8
-14 -19 -14 -23 0 -15 -73 -102 -113 -136 -42 -35 -159 -154 -209 -213 -65
-75 -86 -95 -133 -127 -27 -19 -51 -37 -53 -42 -2 -4 -9 -8 -16 -8 -7 0 -25
-11 -39 -24 -14 -13 -28 -21 -31 -18 -3 3 -6 0 -6 -6 0 -7 -6 -12 -13 -12 -8
0 -22 -9 -32 -20 -10 -11 -23 -20 -29 -20 -7 0 -18 -9 -26 -20 -8 -11 -20 -20
-27 -20 -7 0 -13 -4 -13 -8 0 -5 -16 -14 -35 -22 -19 -8 -35 -18 -35 -22 0 -5
-4 -7 -9 -3 -6 3 -13 -1 -18 -9 -7 -13 -104 -72 -111 -68 -4 4 -66 -30 -80
-44 -7 -8 -20 -14 -28 -14 -8 0 -33 -9 -55 -20 -22 -12 -44 -18 -49 -15 -6 3
-10 2 -10 -4 0 -5 -26 -19 -57 -31 -31 -12 -61 -24 -67 -28 -6 -3 -15 -8 -21
-9 -16 -4 -89 -23 -105 -28 -8 -3 -49 -14 -90 -25 -41 -11 -82 -23 -90 -27
-18 -7 -17 -7 -55 -16 -16 -4 -57 -10 -90 -12 -33 -3 -82 -13 -110 -22 -27
-10 -53 -18 -57 -19 -5 -1 -10 -3 -13 -4 -5 -3 -6 -3 -50 -15 -16 -4 -34 -11
-40 -15 -11 -9 -64 -16 -165 -25 -98 -8 -127 -14 -139 -29 -6 -7 -22 -11 -36
-8 -16 3 -25 0 -25 -8 0 -7 -7 -10 -15 -6 -8 3 -28 1 -43 -5 -15 -6 -72 -12
-127 -14 -104 -3 -124 -6 -184 -27 -20 -6 -40 -12 -46 -13 -5 -1 -23 -7 -40
-14 -16 -7 -52 -13 -80 -14 -44 -2 -52 -6 -72 -36 -23 -34 -23 -71 0 -80 5 -2
18 -12 28 -22 11 -11 19 -17 19 -14 0 3 12 -1 28 -8 15 -8 45 -13 67 -12 32 1
45 -5 72 -32 18 -18 33 -38 33 -46 0 -7 8 -22 18 -33 10 -10 19 -21 19 -24 10
-42 17 -60 24 -60 5 0 9 -9 9 -20 0 -10 9 -24 20 -30 11 -6 20 -21 20 -34 0
-13 7 -40 15 -60 8 -20 13 -36 10 -36 -4 0 1 -10 9 -22 9 -12 16 -29 16 -38 0
-8 14 -44 32 -80 17 -36 30 -69 29 -74 -1 -6 2 -19 7 -30 18 -39 42 -133 42
-163 0 -16 3 -33 7 -37 4 -3 8 -13 9 -20 7 -51 26 -122 35 -133 6 -7 9 -19 6
-28 -4 -8 -3 -17 2 -19 4 -3 8 -24 9 -48 1 -24 7 -45 12 -46 6 -2 7 -9 3 -15
-3 -6 -5 -51 -4 -101 4 -122 5 -136 12 -136 4 0 9 -19 12 -42 4 -24 11 -68 17
-98 5 -30 12 -80 15 -111 3 -31 8 -70 10 -87 22 -149 26 -184 31 -292 3 -58 7
-130 10 -160 3 -30 6 -72 7 -92 1 -21 5 -38 8 -38 8 0 8 -4 9 -180 0 -140 -7
-385 -15 -525 -3 -44 -5 -114 -4 -155 0 -41 1 -159 1 -262 1 -104 4 -188 8
-188 3 0 6 -12 6 -27 1 -32 11 -83 18 -90 2 -3 -1 -21 -9 -42 -11 -31 -10 -40
1 -56 8 -10 14 -28 14 -40 0 -11 7 -30 15 -43 13 -17 24 -21 59 -19 34 2 42
-1 38 -11 -4 -11 -1 -12 14 -4 14 7 25 7 38 0 16 -9 18 -8 13 6 -5 12 -3 15 5
10 21 -13 58 -13 58 0 0 20 33 45 55 42 11 -2 27 3 36 10 8 7 24 15 36 17 12
1 28 9 37 16 9 7 25 11 35 8 12 -3 22 1 25 10 3 8 10 12 15 8 5 -3 12 -1 16 5
4 6 11 8 16 5 5 -4 9 2 9 12 0 14 2 15 9 4 7 -10 13 -11 30 -2 11 7 21 17 21
24 0 7 4 6 10 -3 7 -12 10 -12 10 -1 0 7 6 11 14 8 7 -3 23 1 35 9 12 8 25 13
30 10 5 -3 14 1 21 9 14 17 69 45 96 49 10 2 20 8 22 14 2 7 14 12 27 12 13 0
31 7 39 16 9 8 20 13 25 10 5 -4 24 7 41 23 25 22 39 28 62 24 19 -3 34 1 41
10 17 22 88 59 102 53 7 -2 18 7 24 22 10 21 14 23 22 11 6 -10 9 -11 9 -1 0
7 14 18 30 23 17 6 30 15 30 21 0 5 4 6 10 3 5 -3 21 2 35 11 14 9 25 13 25 9
0 -5 8 1 18 13 12 14 22 18 29 11 6 -6 14 -1 23 16 8 15 21 24 31 23 10 -2 25
6 33 17 14 17 17 18 26 5 7 -11 10 -11 10 -2 0 7 5 10 10 7 6 -3 10 0 10 7 0
15 68 64 77 55 3 -4 17 2 31 13 13 11 28 18 32 15 4 -3 15 7 24 20 9 14 20 24
24 21 5 -3 14 -1 22 5 13 7 13 9 0 9 -8 0 -2 7 14 15 15 8 32 13 37 10 4 -3
16 6 25 20 14 21 22 25 43 20 14 -4 23 -3 19 1 -10 9 11 36 23 29 7 -5 36 16
75 53 7 6 17 12 23 12 6 0 11 4 11 9 0 6 9 8 20 6 12 -2 21 3 25 16 4 11 11
17 16 14 5 -4 20 5 34 19 14 14 25 20 25 14 0 -6 9 -1 20 12 11 13 20 26 20
30 0 4 8 11 18 14 21 8 55 28 74 44 8 6 18 9 21 5 4 -3 7 1 7 10 0 9 11 19 25
23 14 3 25 12 25 20 0 8 7 14 15 14 8 0 15 5 15 11 0 6 7 9 15 5 8 -3 15 -1
15 4 0 6 7 10 16 10 8 0 13 4 9 9 -7 12 48 52 75 54 12 1 18 7 16 14 -3 6 0
10 7 7 7 -2 23 12 36 31 19 28 27 33 37 24 11 -9 14 -8 14 1 0 7 11 21 25 32
14 11 23 24 20 29 -4 5 4 9 17 9 15 0 32 13 48 35 14 19 29 35 34 35 5 0 29
21 53 46 24 26 46 44 50 41 9 -10 32 25 33 48 0 15 3 16 12 7 18 -18 38 -14
38 8 0 11 5 20 11 20 5 0 8 4 5 9 -3 5 1 12 10 15 10 4 13 2 8 -6 -4 -7 -3 -8
4 -4 7 4 12 14 12 22 0 8 4 12 10 9 5 -3 15 5 21 18 6 14 22 31 35 38 13 7 22
15 19 17 -2 3 5 13 17 23 25 22 32 24 22 7 -5 -9 -2 -9 9 1 9 7 17 23 17 34 0
11 3 18 6 14 4 -3 13 1 21 9 8 8 19 12 24 9 5 -4 9 -1 9 4 0 6 -6 11 -12 12
-7 0 -2 5 12 11 14 6 28 10 33 10 4 -1 7 8 7 21 0 18 2 19 10 7 8 -12 10 -11
10 8 0 12 8 25 18 29 9 3 31 21 47 38 17 18 38 35 48 38 15 6 22 24 18 49 0 4
8 10 19 13 11 4 20 12 20 19 0 6 14 20 30 29 17 10 30 24 30 32 0 8 9 19 20
25 11 6 18 15 15 20 -3 5 4 12 15 15 12 4 28 22 37 41 9 19 22 34 29 34 7 0
22 16 34 35 12 19 28 35 36 35 8 0 14 9 14 20 0 13 10 24 25 30 14 5 25 13 25
17 0 5 14 23 30 42 17 18 30 39 30 46 0 7 7 15 15 19 8 3 15 12 15 20 0 7 7
16 15 20 8 3 14 9 13 13 -2 4 10 20 25 36 16 15 26 31 23 36 -3 5 1 12 10 15
8 3 12 10 9 16 -3 5 3 10 13 10 13 0 24 10 31 30 5 16 15 30 20 30 6 0 11 6
11 13 0 7 9 18 20 25 12 7 19 16 16 21 -3 4 13 27 34 51 22 24 43 52 46 62 3
10 9 18 14 18 5 0 7 9 5 20 -2 12 3 21 15 25 10 3 21 17 24 30 3 13 15 29 26
35 11 6 18 15 15 21 -4 5 1 12 9 15 9 3 16 12 16 20 0 8 4 14 10 14 5 0 7 6 4
14 -3 7 2 16 10 19 9 4 16 13 16 22 0 8 7 15 15 15 9 0 12 6 9 15 -4 9 0 15
10 15 9 0 16 7 16 15 0 8 5 15 11 15 5 0 7 5 4 10 -3 6 -2 10 4 10 6 0 8 6 5
14 -3 8 5 25 18 39 37 40 48 55 48 67 0 5 4 10 9 10 10 0 23 36 24 67 1 12 5
19 11 16 5 -4 7 0 3 9 -3 10 3 19 19 27 22 9 29 22 25 44 0 4 3 7 9 7 5 0 10
9 10 20 0 11 7 20 15 20 9 0 15 9 15 24 0 13 7 27 16 30 10 4 14 14 11 26 -3
11 0 20 6 20 13 0 47 75 47 103 0 9 7 17 15 17 9 0 15 9 15 23 0 12 13 37 30
55 16 18 29 35 30 37 0 22 16 62 27 70 8 6 16 19 18 30 2 11 4 21 5 23 2 1 3
5 4 10 1 4 7 17 14 30 7 12 10 22 7 22 -4 0 1 7 10 16 9 9 19 29 22 45 3 16
10 29 15 29 6 0 8 9 5 20 -3 13 0 20 9 20 9 0 14 11 14 30 0 17 5 30 11 30 5
0 7 4 4 10 -3 5 -1 10 4 10 6 0 11 9 11 20 0 11 5 20 10 20 6 0 10 9 10 19 0
11 5 23 10 26 6 4 8 11 5 16 -4 5 -1 9 5 9 7 0 10 6 7 14 -3 7 1 23 9 35 8 12
12 26 9 31 -3 6 0 10 8 10 10 0 13 7 10 20 -3 12 0 20 6 20 7 0 9 5 6 10 -3 6
-1 10 6 10 7 0 9 3 6 7 -4 3 -2 12 4 20 9 10 8 13 -1 13 -9 0 -8 5 3 18 10 10
17 26 17 35 0 9 4 18 9 21 5 3 7 15 4 26 -3 12 0 20 7 20 7 0 10 6 7 14 -3 8
1 20 9 26 8 7 14 28 14 47 0 19 4 32 9 29 5 -3 11 3 14 14 3 11 1 20 -3 20
-12 0 -5 33 8 38 6 2 8 10 5 19 -4 9 0 21 8 27 8 6 15 22 17 36 1 13 6 27 10
30 4 3 8 14 9 25 5 42 9 60 16 73 5 6 6 12 2 12 -3 0 0 10 6 22 7 12 13 36 14
53 3 43 15 89 25 95 7 5 16 45 24 110 1 14 5 32 8 40 14 41 28 112 23 121 -4
5 -1 9 5 9 7 0 10 6 7 14 -3 7 -1 18 5 24 6 6 11 30 10 53 -1 22 1 46 5 52 7
12 12 42 17 102 1 22 6 51 11 65 10 32 25 132 29 200 2 30 5 57 6 60 1 3 2 9
1 14 -1 5 1 16 5 25 8 20 15 91 16 154 0 26 4 47 9 47 5 0 3 13 -6 29 -11 22
-12 30 -2 34 7 2 13 28 15 68 8 209 12 277 17 306 2 18 0 35 -5 38 -6 4 -7 12
-3 18 10 17 12 177 2 183 -5 3 -6 11 -2 17 4 6 6 45 5 87 -2 41 -4 127 -5 190
-2 63 -6 120 -10 127 -4 6 -3 14 3 18 6 4 8 10 5 14 -2 5 -7 69 -10 142 -5
123 -12 227 -19 289 -2 14 -7 63 -10 110 -4 47 -9 99 -12 115 -9 60 -16 141
-15 169 0 16 -3 34 -8 40 -4 6 -9 31 -10 56 -2 25 -5 49 -8 53 -3 4 -7 34 -9
65 -3 51 -10 97 -14 97 -1 0 -3 18 -6 40 -8 70 -12 93 -19 104 -3 6 -8 28 -9
48 -2 21 -8 50 -14 64 -6 15 -9 38 -8 53 2 14 0 26 -5 26 -4 0 -7 21 -7 47 0
26 -5 49 -11 51 -6 2 -9 8 -6 12 3 5 1 28 -5 52 -6 24 -13 56 -15 71 -3 16 -8
34 -12 40 -3 6 -8 27 -9 46 -1 20 -8 50 -15 66 -15 37 -18 50 -22 98 -1 21 -8
42 -15 46 -8 5 -11 22 -9 45 2 20 0 39 -5 42 -4 3 -6 9 -3 14 3 5 -3 18 -14
29 -11 11 -16 23 -11 26 6 3 6 15 0 30 -5 14 -7 25 -4 25 4 0 1 7 -6 15 -7 9
-10 18 -7 22 4 3 0 15 -8 27 -8 11 -15 33 -15 47 0 15 -4 29 -9 31 -5 2 -12
22 -16 46 -3 24 -15 52 -27 64 -14 14 -17 23 -10 30 11 11 -2 45 -22 59 -5 4
-5 12 -1 18 3 7 -3 28 -14 47 -12 19 -21 44 -21 55 0 10 -5 19 -11 19 -6 0 -9
6 -6 14 3 7 -3 28 -14 45 -11 18 -17 36 -14 42 4 5 1 9 -5 9 -7 0 -9 7 -6 17
4 10 4 14 0 10 -9 -9 -37 30 -29 42 3 5 -2 16 -11 25 -8 9 -13 20 -10 25 3 5
-1 12 -9 15 -8 3 -14 9 -13 13 3 13 -13 57 -27 73 -8 8 -13 19 -13 23 0 16
-25 67 -33 67 -5 0 -9 11 -9 24 0 14 -7 31 -15 40 -8 8 -15 22 -15 30 0 9 -5
16 -11 16 -5 0 -7 5 -4 10 3 6 1 10 -4 10 -6 0 -11 7 -11 15 0 9 -7 18 -15 21
-9 4 -14 11 -13 18 3 16 -36 99 -55 114 -9 8 -14 19 -11 26 3 7 -4 20 -15 30
-11 10 -18 23 -15 27 3 5 0 9 -5 9 -6 0 -11 11 -11 25 0 22 -9 29 -31 27 -4
-1 -9 17 -13 39 -3 22 -13 42 -21 45 -8 4 -15 15 -15 25 0 10 -5 19 -11 19 -5
0 -7 5 -4 10 3 6 1 10 -5 10 -7 0 -10 7 -6 15 3 8 1 15 -4 15 -6 0 -10 7 -10
15 0 8 -4 15 -10 15 -5 0 -10 7 -10 15 0 8 -9 23 -19 32 -11 9 -18 20 -15 25
3 4 1 8 -4 8 -6 0 -15 14 -21 30 -5 17 -17 33 -26 36 -8 3 -15 15 -15 25 0 10
-4 19 -9 19 -5 0 -13 9 -16 21 -9 27 -41 59 -51 51 -4 -4 -2 2 3 12 9 17 4 26
-34 62 -31 28 -45 50 -45 67 0 14 -7 28 -15 31 -8 3 -12 10 -8 15 3 6 -8 20
-25 32 -16 13 -30 29 -30 37 0 19 -36 63 -44 54 -4 -3 -4 1 -1 10 4 11 -8 31
-39 62 -25 25 -43 51 -41 59 3 7 -13 32 -35 55 -22 24 -40 47 -40 53 0 5 -16
24 -35 42 -19 17 -35 37 -35 43 0 5 -7 19 -16 30 -8 10 -12 12 -8 4 4 -8 -5
-2 -19 13 -15 15 -27 32 -27 36 0 5 -7 12 -16 15 -8 3 -13 10 -9 15 6 10 -32
51 -47 51 -4 0 -8 7 -8 15 0 8 -5 15 -11 15 -5 0 -8 4 -5 9 3 5 -3 11 -14 14
-11 3 -20 12 -20 21 0 8 -12 22 -28 30 -15 8 -37 34 -49 58 -13 23 -23 39 -23
35 0 -5 -16 8 -35 29 -19 20 -35 40 -35 45 0 4 -9 11 -20 14 -11 3 -20 11 -20
17 0 5 -20 29 -44 51 -25 23 -60 57 -79 75 -20 17 -40 32 -46 32 -6 0 -11 7
-11 16 0 14 -67 84 -81 84 -12 0 -79 66 -79 78 0 7 -4 12 -10 12 -12 0 -41 25
-121 102 -32 32 -69 60 -82 63 -14 4 -39 26 -58 51 -18 24 -39 44 -46 44 -8 0
-11 5 -8 10 3 6 -1 10 -9 10 -8 0 -21 8 -28 18 -7 9 -20 18 -28 20 -8 2 -31
21 -51 43 -20 21 -41 39 -47 39 -6 0 -17 8 -24 18 -7 9 -20 18 -28 20 -8 2
-28 17 -44 33 -15 16 -33 29 -38 29 -5 0 -6 5 -3 10 3 6 -1 10 -10 10 -21 0
-67 35 -58 44 3 3 -3 6 -14 6 -11 0 -28 11 -37 25 -9 14 -35 33 -57 41 -22 9
-38 19 -35 21 8 9 -20 32 -48 39 -14 3 -26 10 -26 15 0 5 -15 16 -32 25 -18
10 -49 30 -68 45 -19 15 -48 31 -63 35 -16 3 -35 17 -44 30 -8 13 -24 24 -34
24 -10 0 -21 4 -24 10 -8 12 -73 43 -91 43 -8 0 -14 6 -14 14 0 7 -6 13 -13
13 -7 0 -27 12 -44 28 -17 15 -42 28 -56 28 -31 2 -90 42 -82 55 6 8 -11 13
-42 12 -7 -1 -13 3 -13 8 0 5 -8 9 -19 9 -10 0 -24 7 -31 15 -7 8 -19 15 -26
15 -8 0 -14 4 -14 9 0 9 -87 54 -127 66 -13 3 -23 10 -23 15 0 5 -6 7 -14 4
-7 -3 -21 2 -30 11 -9 9 -20 14 -25 11 -4 -3 -19 3 -31 14 -13 11 -31 20 -42
20 -10 0 -18 7 -18 17 0 9 -3 13 -6 10 -4 -3 -16 -1 -28 5 -11 7 -29 11 -40 9
-10 -1 -15 2 -12 7 6 11 -49 34 -58 25 -3 -3 -8 2 -12 11 -3 9 -12 16 -19 16
-8 0 -26 5 -42 12 -15 6 -31 11 -35 10 -5 -1 -8 3 -8 9 0 6 -9 9 -19 6 -12 -3
-27 3 -37 14 -9 10 -20 17 -24 14 -3 -2 -19 3 -34 11 -16 7 -36 14 -46 14 -10
0 -23 6 -30 14 -6 8 -17 13 -25 10 -7 -3 -16 -1 -19 5 -4 6 -13 8 -21 4 -9 -3
-15 1 -15 9 0 9 -9 14 -22 13 -13 -1 -33 6 -45 15 -14 11 -35 16 -54 14 -21
-3 -39 2 -51 13 -18 16 -107 53 -138 57 -8 1 -24 7 -36 14 -11 6 -34 14 -50
17 -33 7 -57 13 -64 15 -3 1 -9 2 -14 1 -4 -1 -19 5 -32 14 -13 8 -34 15 -47
15 -12 0 -28 5 -35 12 -7 7 -12 9 -12 5 0 -3 -18 0 -39 8 -22 7 -42 11 -45 8
-3 -4 -6 -2 -6 4 0 5 -6 10 -12 11 -35 3 -65 9 -76 16 -7 4 -16 5 -21 1 -5 -3
-12 -1 -16 5 -3 5 -23 10 -44 10 -20 0 -41 4 -47 8 -5 5 -34 14 -64 20 -141
30 -266 54 -360 68 -19 2 -49 9 -66 13 -17 5 -38 5 -46 0 -10 -6 -20 -4 -28 5
-7 10 -22 13 -46 9 -19 -3 -34 -1 -34 4 0 5 -15 10 -32 10 -18 0 -55 3 -83 7
-92 14 -129 18 -215 22 -47 2 -105 7 -130 11 -25 5 -84 8 -132 8 -49 0 -88 3
-88 6 0 3 -154 4 -342 3 -189 -1 -347 0 -353 4 -5 3 -21 7 -35 8 -14 2 -37 5
-52 7 -15 2 -25 1 -23 -3z"/>
</g>
</svg>
