<?xml version="1.0" standalone="no"?>
<!DOCTYPE svg PUBLIC "-//W3C//DTD SVG 20010904//EN"
 "http://www.w3.org/TR/2001/REC-SVG-20010904/DTD/svg10.dtd">
<svg version="1.0" xmlns="http://www.w3.org/2000/svg"
 width="1668.000000pt" height="2388.000000pt" viewBox="0 0 1668.000000 2388.000000"
 preserveAspectRatio="xMidYMid meet">

<g transform="translate(0.000000,2388.000000) scale(0.100000,-0.100000)"
fill="#000000" stroke="none">
<path d="M9017 19884 c-2 -2 -77 -6 -168 -9 -156 -5 -206 -8 -309 -20 -25 -3
-83 -8 -130 -11 -47 -3 -128 -9 -180 -13 -52 -5 -196 -9 -320 -10 -124 -2
-317 -5 -430 -7 -246 -5 -653 -4 -695 1 -57 7 -450 18 -665 17 -199 0 -353 -6
-475 -17 -27 -3 -120 -7 -206 -10 -181 -6 -313 -14 -349 -20 -14 -3 -74 -7
-135 -10 -297 -14 -403 -21 -645 -46 -135 -13 -168 -18 -230 -31 -30 -7 -59
-13 -65 -14 -5 0 -23 -6 -40 -13 -60 -23 -81 -30 -140 -45 -33 -8 -89 -28
-125 -44 -51 -23 -70 -27 -87 -19 -17 7 -51 2 -140 -22 -105 -28 -142 -40
-218 -72 -11 -4 -51 -18 -90 -30 -38 -12 -86 -28 -105 -37 -19 -8 -35 -15 -35
-14 0 5 -155 -42 -200 -60 -94 -38 -197 -88 -239 -117 -22 -15 -48 -31 -56
-34 -8 -4 -43 -24 -77 -44 -34 -21 -88 -54 -120 -73 -32 -19 -69 -44 -83 -57
-14 -13 -28 -23 -31 -23 -3 0 -22 -13 -40 -30 -19 -16 -39 -30 -46 -30 -6 0
-15 -9 -18 -20 -3 -11 -11 -20 -17 -20 -6 0 -20 -10 -32 -22 -12 -13 -42 -39
-66 -58 -54 -42 -228 -207 -319 -304 -86 -89 -126 -130 -193 -192 -29 -28 -75
-82 -100 -120 -26 -38 -81 -116 -123 -173 -42 -58 -81 -114 -86 -125 -5 -12
-21 -41 -35 -66 -14 -25 -52 -94 -83 -154 -31 -60 -60 -117 -66 -127 -5 -11
-13 -19 -17 -19 -5 0 -8 -7 -8 -15 0 -8 -4 -15 -10 -15 -5 0 -10 -9 -10 -20 0
-11 -5 -20 -10 -20 -6 0 -18 -17 -26 -37 -9 -21 -20 -45 -25 -53 -40 -71 -119
-246 -119 -263 0 -8 -6 -20 -14 -27 -8 -6 -12 -18 -9 -26 3 -8 0 -14 -7 -14
-6 0 -9 -4 -6 -8 3 -5 -1 -19 -8 -33 -12 -24 -74 -191 -82 -219 -2 -8 -15 -46
-29 -83 -14 -37 -25 -74 -25 -82 0 -7 -5 -26 -12 -42 -6 -15 -13 -39 -15 -53
-2 -14 -8 -36 -13 -50 -12 -33 -22 -101 -27 -175 -4 -61 -10 -116 -13 -125 -2
-3 -3 -14 -4 -25 -1 -11 -5 -36 -9 -55 -7 -34 -16 -125 -22 -225 -2 -27 -7
-75 -11 -105 -3 -30 -8 -71 -10 -90 -2 -19 -6 -55 -9 -80 -4 -25 -7 -58 -9
-75 -1 -16 -5 -37 -8 -45 -4 -8 -7 -22 -7 -30 0 -8 -2 -44 -5 -80 -13 -218
-17 -319 -21 -620 -5 -333 -9 -402 -22 -423 -3 -6 -8 -207 -9 -446 -1 -240 -4
-586 -6 -768 -2 -183 -1 -333 2 -333 3 0 6 -73 6 -163 2 -179 11 -464 19 -572
6 -76 10 -114 25 -220 6 -38 11 -81 13 -95 1 -14 6 -31 10 -37 5 -7 5 -17 2
-23 -3 -5 -3 -15 1 -21 3 -6 8 -37 10 -68 1 -31 6 -81 9 -111 3 -30 1 -79 -5
-109 -5 -30 -12 -79 -15 -110 -9 -93 -16 -144 -24 -183 -5 -20 -6 -39 -4 -42
3 -3 0 -20 -6 -38 -11 -30 -41 -219 -55 -343 -6 -50 -8 -61 -20 -145 -13 -88
-16 -117 -22 -245 -3 -71 -8 -133 -10 -137 -11 -18 -2 -1537 9 -1555 4 -6 9
-39 12 -74 3 -35 8 -82 10 -104 2 -22 6 -83 9 -135 3 -52 12 -142 20 -200 8
-58 18 -129 21 -159 4 -30 9 -63 12 -75 3 -12 6 -28 7 -36 1 -9 5 -20 8 -25 3
-6 9 -26 12 -45 9 -47 27 -121 33 -140 3 -8 7 -22 8 -30 8 -59 31 -154 48
-205 10 -33 20 -67 21 -75 2 -8 5 -22 9 -30 11 -26 48 -134 51 -147 1 -7 5
-16 9 -19 4 -4 7 -18 7 -30 0 -13 5 -26 10 -29 6 -4 8 -11 5 -16 -4 -5 -2 -9
3 -9 5 0 12 -10 15 -22 12 -48 40 -118 47 -118 5 0 12 -15 15 -32 4 -18 14
-42 21 -53 8 -11 14 -25 14 -33 0 -7 7 -29 16 -50 10 -20 18 -41 18 -47 3 -20
49 -161 64 -195 9 -19 15 -39 14 -43 -1 -5 4 -23 12 -40 8 -18 26 -61 40 -97
49 -127 172 -362 236 -450 26 -36 44 -64 56 -90 9 -17 34 -46 89 -104 22 -23
54 -58 71 -77 30 -33 113 -111 221 -208 55 -49 104 -86 115 -86 4 0 16 -9 26
-20 28 -29 61 -55 70 -55 4 0 21 -15 38 -32 135 -140 355 -302 504 -369 41
-18 100 -49 130 -68 60 -38 79 -49 185 -106 107 -56 133 -71 150 -85 8 -7 15
-9 15 -6 0 4 9 -2 20 -12 11 -11 49 -27 83 -38 34 -10 82 -27 107 -38 25 -11
47 -21 50 -21 18 -3 92 -30 129 -47 25 -11 52 -21 62 -23 9 -2 31 -11 48 -19
16 -9 39 -16 50 -16 11 0 22 -4 25 -9 5 -8 40 -18 96 -28 13 -2 29 -8 35 -12
5 -4 39 -14 75 -21 36 -7 72 -17 81 -21 8 -4 34 -10 57 -13 23 -3 46 -7 50
-10 9 -6 47 -14 107 -22 22 -4 47 -10 56 -15 9 -4 19 -6 22 -3 3 3 38 -1 79
-10 67 -14 109 -19 243 -30 48 -5 429 -16 627 -19 54 -1 98 -5 98 -8 0 -12
347 -19 478 -10 45 3 82 4 82 1 0 -7 415 -5 426 2 12 8 912 1 944 -7 14 -3
264 -5 555 -4 292 1 539 2 550 1 11 0 47 -1 80 -1 79 -2 432 7 515 13 36 3 97
7 135 10 208 17 995 25 1085 12 25 -4 122 -9 215 -11 254 -5 312 -12 331 -40
15 -23 63 -36 149 -39 22 0 42 -4 45 -8 11 -14 145 -37 260 -44 142 -9 585
-10 700 -1 47 4 123 9 170 11 47 3 117 8 155 11 39 3 106 7 150 8 44 2 85 5
90 8 6 3 21 4 35 3 14 -1 30 2 36 7 6 5 27 9 45 9 43 -1 197 7 309 15 47 4
105 8 130 9 25 1 54 5 65 9 12 4 52 9 90 12 39 2 85 8 103 14 17 5 32 7 32 4
0 -3 6 -1 12 5 7 5 29 12 48 15 53 7 164 41 355 107 33 12 97 39 143 61 45 21
87 39 93 39 6 0 40 13 75 30 36 16 89 37 119 46 65 18 186 77 233 111 18 14
39 26 47 27 8 1 23 10 35 21 11 10 20 15 20 12 0 -6 132 75 165 100 6 5 23 17
39 27 17 11 41 30 53 43 13 12 27 23 31 23 28 0 347 311 482 470 40 47 77 87
81 88 5 2 9 8 9 12 0 5 23 33 50 62 28 29 50 56 50 60 0 3 19 30 43 60 23 29
55 71 70 93 14 22 46 61 69 87 24 26 50 57 58 69 8 12 43 60 78 106 34 45 62
87 62 91 0 5 12 19 26 33 14 13 39 53 56 89 17 36 34 67 37 70 7 6 14 16 113
185 10 17 25 46 34 65 9 19 25 52 36 73 10 20 21 49 24 63 3 14 11 36 19 47 8
12 14 24 14 27 0 11 26 84 71 195 17 44 36 96 41 115 6 19 14 44 19 55 12 29
59 205 64 240 2 17 6 37 9 45 3 8 8 49 10 90 2 41 7 82 10 90 8 18 13 47 28
155 6 44 14 87 17 95 3 8 7 29 9 45 4 33 14 91 20 115 11 43 38 406 35 475 -1
11 3 35 8 53 5 20 5 32 -1 32 -6 0 -7 5 -4 10 6 10 14 166 16 350 1 58 4 109
7 115 3 5 5 23 5 40 -1 16 -2 50 -3 75 -5 166 7 469 31 773 5 71 12 186 15
255 3 70 7 152 9 182 3 30 6 91 8 135 2 44 7 121 11 170 9 114 9 363 2 670 -8
307 -14 500 -17 500 -1 0 -2 14 -4 31 -1 17 -6 44 -10 60 -12 43 -14 105 -4
139 5 17 11 176 14 355 2 179 7 336 10 350 13 62 19 238 16 505 -3 288 -3 408
-2 1120 0 204 -1 406 -4 450 -4 80 -21 300 -29 385 -3 25 -7 88 -10 140 -3 52
-8 120 -11 150 -3 30 -8 73 -10 95 -2 22 -7 83 -11 135 -3 52 -10 105 -15 116
-4 12 -6 24 -3 27 3 2 0 33 -6 68 -6 35 -12 80 -14 99 -4 31 -14 99 -32 210
-3 19 -12 67 -21 105 -8 39 -17 84 -20 100 -2 17 -7 37 -10 45 -4 8 -8 26 -9
40 -2 20 -13 75 -19 100 -6 24 -18 90 -21 109 -1 13 -7 35 -12 50 -17 43 -23
80 -26 151 -2 37 -10 86 -18 111 -9 24 -22 64 -28 89 -15 55 -59 174 -95 255
-36 84 -39 92 -65 170 -31 92 -175 401 -201 430 -5 5 -9 15 -9 22 0 12 -12 32
-70 119 -8 12 -30 45 -49 73 -19 28 -38 51 -43 51 -4 0 -8 5 -8 10 0 9 -30 52
-125 182 -154 210 -274 342 -450 498 -33 29 -92 81 -131 116 -104 94 -195 159
-277 199 -63 31 -155 84 -187 108 -14 9 -30 17 -37 17 -6 0 -18 6 -25 13 -22
22 -174 97 -197 97 -6 0 -11 4 -11 8 0 5 -19 15 -42 22 -24 8 -47 16 -53 20
-5 4 -30 13 -55 20 -25 8 -47 17 -50 20 -3 3 -43 20 -90 39 -47 18 -136 55
-198 82 -143 62 -405 140 -517 154 -48 6 -198 25 -240 30 -16 3 -50 6 -75 9
-25 3 -65 7 -90 10 -40 5 -109 10 -310 22 -52 3 -393 5 -470 2 -88 -2 -430 15
-510 26 -19 3 -71 8 -115 11 -78 6 -118 11 -180 20 -16 2 -95 7 -175 10 -340
14 -539 23 -630 30 -25 2 -85 6 -135 9 -49 4 -121 9 -160 12 -77 5 -863 12
-868 8z m-3277 -1431 c199 -3 250 -6 250 -12 0 -3 78 -6 172 -5 95 1 182 -2
192 -6 11 -4 36 -4 57 0 25 5 40 3 44 -4 3 -8 7 -7 11 2 3 6 9 10 14 7 4 -3
32 -7 61 -10 30 -3 74 -8 99 -12 25 -3 73 -6 107 -7 35 0 63 -4 63 -7 0 -11
46 -16 68 -8 14 5 22 4 22 -2 0 -6 4 -7 10 -4 16 10 150 13 150 3 0 -5 4 -7 8
-4 25 15 372 32 372 18 0 -10 142 -15 248 -9 34 3 62 2 62 -2 0 -3 55 -7 123
-9 67 -2 149 -5 182 -7 75 -5 66 -5 155 -1 41 2 83 -1 94 -6 13 -7 16 -7 12 1
-5 7 7 9 36 5 24 -4 45 -8 47 -10 2 -2 12 1 22 7 14 7 19 6 19 -3 0 -10 2 -10
9 1 5 7 13 11 18 8 21 -13 202 -5 227 10 5 3 7 2 4 -3 -5 -7 47 -11 192 -14
37 0 176 -1 185 -1 96 5 195 5 195 1 0 -3 33 -6 73 -7 39 0 115 -2 167 -4 52
-2 102 1 109 5 10 7 12 5 6 -4 -6 -9 -4 -11 4 -5 10 6 202 10 229 5 19 -4 69
-1 85 5 11 5 17 3 17 -5 0 -9 4 -9 13 -3 6 6 35 8 62 5 40 -3 273 -4 335 0 8
0 42 -3 75 -6 33 -4 78 -7 100 -7 181 3 215 2 225 -4 6 -4 109 -9 228 -12 224
-5 253 -6 387 -18 44 -4 91 -6 105 -5 29 2 27 2 275 -5 218 -5 323 -11 380
-20 22 -3 58 -7 80 -9 22 -2 90 -11 150 -21 61 -9 122 -18 136 -19 14 -2 30
-5 35 -8 5 -3 27 -9 49 -12 22 -4 56 -11 75 -16 19 -5 49 -12 65 -15 33 -7 43
-9 65 -18 8 -3 38 -11 65 -18 28 -7 63 -21 79 -30 16 -10 34 -15 39 -12 5 3
13 0 17 -7 6 -10 74 -34 128 -44 7 -1 18 -8 24 -14 7 -7 18 -12 25 -12 8 0 37
-12 66 -27 29 -15 57 -28 63 -29 12 -2 68 -30 138 -67 27 -15 55 -27 62 -27 7
0 29 -9 47 -19 19 -11 45 -25 58 -33 28 -15 181 -131 201 -152 143 -148 248
-268 268 -306 7 -13 19 -30 26 -37 7 -7 27 -35 45 -63 18 -27 36 -50 41 -50 4
0 8 -7 8 -15 0 -8 4 -15 9 -15 5 0 12 -8 15 -17 3 -10 17 -31 31 -47 13 -16
22 -33 19 -37 -3 -5 -1 -9 4 -9 8 0 36 -50 33 -58 -1 -1 4 -9 11 -16 21 -22
41 -53 40 -62 0 -5 5 -16 12 -24 6 -8 21 -32 31 -52 11 -21 23 -38 27 -38 5 0
8 -5 8 -11 0 -6 14 -31 30 -56 17 -25 29 -48 26 -50 -3 -3 1 -12 9 -20 8 -8
15 -25 15 -39 0 -13 4 -24 8 -24 5 0 9 -7 9 -15 0 -14 18 -81 31 -115 3 -8 7
-19 8 -25 1 -5 3 -12 4 -15 1 -3 3 -12 5 -20 2 -8 11 -42 21 -75 9 -33 18 -69
19 -80 2 -11 4 -20 5 -20 2 0 4 -17 5 -37 1 -21 7 -44 13 -51 9 -11 20 -63 38
-182 3 -16 8 -37 11 -45 9 -22 20 -73 27 -122 1 -10 5 -21 9 -24 4 -4 7 -23 7
-43 0 -20 5 -52 10 -71 11 -36 17 -82 25 -180 3 -30 7 -66 10 -80 2 -14 7 -59
10 -101 5 -58 3 -78 -8 -87 -21 -18 -15 -254 12 -447 5 -33 10 -82 11 -110 0
-27 3 -72 4 -100 4 -59 8 -346 5 -360 -1 -5 0 -14 1 -20 1 -5 4 -136 6 -290 2
-154 5 -315 7 -357 1 -43 0 -78 -3 -78 -3 0 -5 -45 -5 -100 0 -55 -2 -100 -6
-100 -4 0 -5 -29 -4 -65 1 -36 -1 -65 -5 -65 -3 0 -7 -17 -8 -37 -1 -21 -2
-46 -2 -55 -1 -10 -6 -18 -12 -18 -7 0 -6 -5 2 -15 7 -8 9 -22 5 -32 -4 -10
-9 -35 -11 -57 -1 -21 -5 -40 -8 -43 -3 -3 -1 -14 5 -24 6 -13 6 -19 0 -19 -6
0 -8 -7 -5 -15 4 -8 2 -15 -2 -15 -5 0 -9 -36 -9 -81 0 -44 -3 -82 -6 -84 -3
-2 -4 -37 -2 -77 1 -40 3 -82 3 -93 -1 -25 0 -212 1 -325 0 -47 0 -85 -1 -85
-1 0 -3 -21 -4 -47 0 -27 2 -48 6 -48 4 0 3 -11 -2 -24 -6 -16 -5 -27 3 -35 8
-8 8 -17 1 -29 -12 -19 -12 -131 -1 -149 4 -6 3 -14 -2 -17 -9 -6 -6 -100 4
-116 3 -5 1 -11 -5 -15 -7 -4 -7 -13 0 -26 6 -11 7 -25 3 -32 -4 -6 -8 -70 -8
-142 -1 -120 -9 -208 -22 -245 -7 -21 -6 -226 1 -239 4 -6 1 -21 -6 -33 -9
-15 -13 -59 -13 -130 0 -60 -3 -108 -7 -108 -4 0 -5 -39 -2 -87 2 -49 5 -95 5
-103 0 -8 0 -51 0 -95 -1 -44 -1 -87 0 -95 0 -22 -10 -102 -16 -120 -10 -32
-15 -119 -6 -124 4 -3 5 -23 2 -43 -4 -21 -5 -65 -3 -98 9 -166 9 -312 0 -335
-15 -36 -18 -50 -8 -50 5 0 7 -12 4 -26 -3 -14 0 -31 5 -38 11 -13 9 -305 -2
-323 -4 -6 -3 -14 2 -17 5 -3 8 -26 6 -51 -1 -25 2 -48 7 -51 5 -3 4 -12 -2
-19 -7 -8 -9 -23 -5 -34 3 -10 1 -22 -5 -26 -6 -4 -10 -19 -9 -33 2 -25 -8
-122 -18 -167 -2 -11 -5 -50 -7 -86 -2 -36 -6 -71 -10 -78 -5 -7 -10 -63 -11
-124 -2 -62 -7 -131 -10 -155 -4 -24 -8 -49 -9 -55 -1 -7 -5 -18 -9 -24 -4 -7
-3 -22 3 -33 7 -13 7 -20 0 -20 -6 0 -9 -21 -6 -55 2 -30 0 -57 -4 -60 -5 -3
-7 -14 -5 -25 2 -11 1 -20 -3 -20 -4 0 -8 -8 -9 -17 -3 -48 -8 -78 -14 -83 -4
-3 -10 -39 -13 -80 -7 -83 -13 -135 -16 -135 -2 0 -4 -10 -5 -21 -1 -12 -6
-34 -10 -50 -5 -16 -7 -33 -6 -38 1 -5 -2 -12 -8 -15 -5 -4 -12 -24 -15 -46
-3 -22 -10 -58 -16 -80 -5 -22 -12 -53 -15 -70 -4 -16 -9 -37 -12 -45 -4 -8
-5 -18 -5 -22 1 -5 -3 -8 -8 -8 -6 0 -10 -5 -10 -10 0 -6 -8 -29 -18 -53 -11
-23 -25 -60 -32 -82 -6 -22 -19 -51 -28 -65 -9 -14 -17 -27 -17 -30 -2 -15
-59 -120 -66 -120 -4 0 -13 -16 -20 -35 -7 -19 -16 -35 -20 -35 -4 0 -12 -13
-19 -30 -7 -16 -16 -30 -20 -30 -4 0 -10 -8 -14 -17 -10 -27 -56 -99 -56 -88
0 6 -7 -2 -15 -17 -8 -16 -21 -39 -29 -53 -7 -14 -39 -52 -70 -86 -31 -34 -56
-64 -56 -68 0 -3 -14 -19 -30 -35 -17 -16 -30 -36 -30 -44 0 -9 -3 -13 -6 -9
-8 7 -34 -17 -34 -32 0 -6 -3 -11 -7 -11 -5 0 -19 -17 -33 -37 -32 -47 -171
-183 -187 -183 -7 0 -13 -7 -13 -15 0 -8 -7 -15 -15 -15 -8 0 -28 -14 -45 -30
-17 -17 -36 -30 -43 -30 -7 -1 -28 -14 -47 -30 -19 -17 -42 -30 -52 -30 -10 0
-18 -4 -18 -9 0 -5 -10 -12 -22 -16 -13 -4 -26 -8 -30 -10 -5 -1 -13 -3 -19
-4 -5 0 -8 -5 -5 -10 4 -5 -15 -17 -41 -27 -27 -9 -54 -24 -61 -33 -6 -8 -12
-12 -12 -8 0 4 -11 0 -25 -9 -14 -9 -28 -14 -32 -10 -3 3 -12 1 -18 -4 -7 -6
-31 -11 -54 -13 -22 -1 -41 -6 -41 -10 0 -5 -4 -6 -9 -3 -5 3 -14 0 -20 -8 -7
-8 -21 -12 -33 -8 -14 3 -19 1 -14 -6 4 -7 1 -12 -6 -13 -7 0 -22 -3 -33 -5
-11 -3 -29 -6 -40 -7 -11 -1 -23 -6 -27 -12 -4 -5 -17 -10 -30 -10 -13 -1 -33
-7 -46 -14 -13 -7 -30 -10 -37 -7 -7 2 -16 -3 -20 -12 -4 -11 -8 -13 -13 -5
-5 7 -20 5 -51 -10 -35 -16 -46 -18 -49 -8 -3 10 -6 11 -12 1 -4 -7 -25 -14
-46 -17 -21 -2 -44 -9 -51 -15 -7 -5 -23 -8 -36 -4 -14 3 -39 -2 -62 -14 -29
-15 -42 -17 -52 -9 -10 9 -13 7 -13 -6 0 -11 -5 -15 -14 -12 -8 3 -16 2 -18
-4 -2 -5 -18 -10 -36 -12 -17 -1 -32 -5 -32 -9 0 -4 -8 -5 -18 -3 -10 1 -35
-6 -57 -16 -27 -13 -41 -16 -46 -8 -4 8 -10 5 -18 -7 -6 -11 -11 -13 -11 -7 0
13 -21 14 -30 1 -3 -4 -15 -9 -25 -11 -11 -2 -31 -9 -45 -14 -14 -6 -28 -9
-32 -6 -4 2 -16 -1 -26 -6 -11 -6 -52 -13 -92 -17 -80 -6 -106 -10 -118 -18
-14 -9 -136 -18 -274 -21 -75 -1 -141 -5 -146 -9 -16 -10 -176 5 -191 17 -12
9 -13 9 -8 0 6 -9 2 -9 -16 0 -26 13 -176 15 -196 3 -6 -4 -11 -4 -11 1 0 4
-39 9 -88 10 -72 1 -267 11 -267 13 0 3 -136 13 -197 14 -43 0 -78 3 -78 7 0
3 -17 6 -39 7 -21 2 -49 5 -62 8 -36 8 -75 12 -174 19 -49 3 -108 8 -130 11
-156 19 -669 32 -745 19 -19 -3 -78 -7 -130 -10 -52 -2 -95 -5 -95 -6 0 -1
-43 -3 -95 -5 -52 -1 -95 -4 -95 -4 0 -2 -76 -8 -165 -14 -30 -2 -55 -5 -55
-6 0 -7 -332 -6 -345 1 -8 4 -21 4 -30 -1 -24 -12 -114 -18 -159 -10 -22 4
-43 5 -45 2 -5 -4 -33 -5 -156 0 -25 0 -55 -2 -67 -6 -12 -4 -31 -2 -42 3 -13
8 -22 8 -26 1 -4 -6 -12 -7 -22 -1 -9 5 -28 6 -42 2 -14 -3 -39 -5 -56 -4 -60
5 -126 4 -145 -2 -11 -4 -20 -2 -20 3 0 9 -29 10 -45 0 -6 -3 -23 -4 -40 -3
-75 7 -150 16 -153 20 -2 2 -17 -1 -33 -5 -16 -5 -29 -5 -29 -2 0 4 -30 6 -67
5 -38 -2 -130 -4 -205 -5 -76 -2 -138 -7 -138 -11 0 -5 -4 -5 -10 -2 -19 12
-362 21 -457 12 -18 -2 -33 0 -33 4 0 4 -13 4 -28 -1 -16 -4 -42 -6 -58 -3
-16 2 -146 6 -289 8 -268 4 -384 9 -458 20 -61 10 -121 15 -219 19 -48 2 -91
7 -97 10 -5 4 -29 4 -53 0 -59 -8 -119 -9 -145 0 -11 4 -53 9 -92 11 -39 2
-78 8 -88 13 -10 6 -37 12 -61 16 -23 3 -51 10 -62 16 -11 6 -20 8 -20 5 0 -3
-8 -1 -19 4 -10 6 -38 13 -62 16 -24 3 -61 10 -83 16 -22 6 -51 12 -65 14 -14
2 -27 4 -28 6 -2 1 -11 2 -20 4 -10 1 -25 5 -33 8 -8 3 -35 8 -60 11 -25 2
-56 7 -70 10 -14 3 -40 8 -59 10 -19 3 -37 8 -40 13 -3 4 -17 9 -31 10 -62 5
-78 9 -73 15 2 5 -6 7 -19 7 -23 -2 -110 27 -183 61 -22 10 -57 26 -77 35 -21
9 -38 20 -38 25 0 5 -10 12 -22 15 -42 12 -88 36 -88 45 0 6 -11 10 -24 10
-13 0 -29 7 -36 15 -7 8 -17 15 -22 15 -5 0 -14 5 -21 11 -17 15 -80 52 -92
55 -5 1 -52 30 -104 65 -51 35 -109 74 -127 87 -19 12 -34 27 -34 34 0 6 -3 8
-7 4 -4 -3 -26 13 -50 36 -24 23 -43 38 -43 33 0 -6 -6 1 -13 15 -7 14 -18 26
-25 26 -7 1 -17 2 -22 3 -6 0 -9 6 -8 13 2 7 -7 17 -19 23 -13 5 -23 15 -23
22 0 7 -7 13 -15 13 -8 0 -15 4 -15 9 0 4 -38 39 -84 77 -47 38 -85 75 -85 82
-1 7 -6 10 -11 7 -5 -3 -10 -1 -10 5 0 7 -13 26 -29 43 -81 87 -106 117 -109
129 -2 7 -10 17 -18 21 -8 4 -14 12 -14 17 0 5 -11 21 -25 36 -14 15 -25 31
-25 37 0 5 -14 27 -31 48 -17 21 -28 39 -24 39 4 0 2 7 -5 15 -7 8 -9 15 -5
15 5 0 0 9 -9 19 -10 11 -15 25 -11 30 3 6 1 11 -4 11 -6 0 -11 7 -11 15 0 8
-4 15 -10 15 -5 0 -14 17 -19 38 -6 21 -22 60 -35 87 -14 27 -23 52 -20 57 4
5 -2 16 -12 23 -11 8 -15 15 -10 15 5 0 3 7 -4 15 -13 15 -21 49 -23 95 -1 14
-6 28 -12 32 -5 4 -10 20 -11 35 0 15 -5 37 -11 48 -6 11 -23 54 -38 95 -23
65 -31 90 -39 135 -1 6 -5 16 -10 23 -4 7 -5 20 -2 28 3 8 2 12 -4 9 -5 -3 -9
3 -9 12 0 25 -6 51 -14 59 -4 4 -7 17 -7 29 0 12 -3 25 -7 28 -3 4 -8 22 -9
39 -4 44 -8 61 -17 76 -5 7 -3 12 4 12 8 0 8 4 -1 15 -7 8 -10 22 -6 30 3 8 2
15 -2 15 -4 0 -8 28 -9 63 -3 66 -10 124 -18 145 -2 6 -1 12 4 12 5 0 3 28 -5
63 -7 34 -9 63 -5 65 4 1 5 46 4 100 -2 53 -4 104 -3 112 0 8 0 36 1 63 0 26
5 47 10 47 5 0 4 11 -1 26 -13 32 -13 37 1 28 8 -5 8 -1 0 14 -13 24 -14 35
-3 28 10 -6 9 45 -1 61 -4 6 -2 15 4 19 8 4 7 9 -2 15 -10 6 -11 11 -3 19 7 7
9 24 4 45 -4 19 -5 37 -2 40 4 3 7 18 8 33 1 15 3 28 4 30 7 6 5 29 -2 45 -5
9 -5 17 0 17 5 0 7 26 6 58 -2 31 -4 57 -5 57 -4 0 -9 121 -12 262 -1 84 -4
153 -7 153 -8 0 -5 94 4 108 4 7 3 12 -3 12 -10 0 -10 18 2 37 4 6 3 15 -3 18
-8 5 -7 11 1 21 7 8 7 14 1 14 -5 0 -12 9 -15 20 -3 11 0 20 6 20 7 0 5 5 -3
10 -8 5 -10 10 -4 10 13 0 12 52 -1 63 -6 4 -6 10 2 15 11 7 12 16 3 57 -1 6
-2 12 -1 15 7 20 4 130 -3 130 -5 0 -3 6 3 14 6 7 8 21 5 31 -9 24 -11 103 -3
148 3 20 2 37 -3 37 -5 0 -5 7 0 18 10 20 5 269 -7 321 -4 20 -5 45 -1 56 4
11 4 30 -1 41 -4 13 -3 26 3 32 8 8 8 18 1 34 -5 13 -10 38 -9 56 1 17 -3 32
-8 32 -5 0 -3 6 3 14 9 10 9 20 2 33 -5 11 -6 25 -2 32 5 7 7 30 5 50 -2 20
-4 45 -4 56 0 11 0 37 0 58 0 20 4 54 9 75 19 74 24 107 36 272 4 52 9 113 11
135 3 32 16 876 14 935 -2 65 0 170 5 250 3 52 8 147 11 210 10 187 12 225 14
225 2 0 4 27 6 60 8 127 12 163 18 173 3 6 2 13 -4 17 -6 4 -8 10 -5 15 5 8
15 97 18 153 0 15 3 27 6 27 3 0 6 12 5 27 0 16 3 62 8 103 5 41 10 102 12
135 2 33 4 60 6 60 1 0 3 14 5 30 2 17 7 53 10 80 4 28 8 61 9 75 2 14 4 27 5
30 2 3 5 59 6 125 2 66 4 120 5 120 1 0 3 140 6 310 2 171 6 337 8 370 3 33 6
141 8 240 2 99 6 182 10 185 3 3 9 28 12 55 3 28 12 68 21 88 8 20 15 38 14
39 0 2 2 10 5 18 2 8 7 33 10 55 3 22 9 58 12 80 3 22 9 42 13 45 3 3 6 12 6
20 -1 8 2 20 6 25 4 6 10 27 13 48 3 21 11 47 17 58 5 11 7 24 4 29 -3 6 -1
10 6 10 7 0 10 3 7 6 -3 3 1 29 9 57 8 29 15 59 17 67 3 20 36 94 45 100 3 3
13 19 21 35 8 17 27 50 42 74 16 25 28 53 28 63 0 10 5 18 10 18 6 0 10 9 10
20 0 11 5 20 10 20 6 0 10 8 10 19 0 10 6 24 13 30 8 6 20 29 27 51 7 22 17
40 22 40 4 0 8 6 8 14 0 7 7 19 15 26 8 7 12 16 10 21 -3 4 3 12 12 18 10 6
15 11 11 11 -9 0 9 33 57 103 22 32 45 67 51 78 6 11 22 32 36 47 13 15 33 42
43 60 11 18 23 32 27 32 4 0 14 12 22 28 8 15 37 51 65 80 28 29 51 55 51 59
0 3 16 21 35 40 19 19 35 38 35 43 0 6 7 10 15 10 9 0 20 12 25 26 6 14 14 23
19 20 4 -3 13 6 20 20 6 14 15 23 20 19 5 -3 12 4 16 15 4 11 11 18 16 15 5
-4 13 4 18 17 6 13 10 19 10 13 1 -5 11 1 24 15 43 49 206 168 237 174 3 1 32
17 65 36 33 19 63 33 68 32 4 -1 7 2 7 7 0 8 45 30 71 35 8 1 24 7 35 14 12 6
24 9 27 5 4 -3 12 -1 19 4 7 6 20 11 28 11 39 2 60 7 60 14 0 4 7 8 15 8 18 0
137 35 175 52 14 6 39 12 55 13 17 1 31 3 33 5 1 1 7 4 12 5 6 1 13 4 18 5 4
1 10 2 15 1 4 0 7 4 7 9 0 6 6 10 13 9 6 -1 26 3 42 10 17 7 38 13 48 14 9 1
17 4 17 7 0 5 20 8 80 13 19 1 38 6 42 11 3 6 21 10 40 11 18 1 40 5 48 8 8 3
29 8 45 10 17 3 41 8 55 12 14 4 35 8 48 9 12 0 22 3 22 6 0 3 10 6 22 7 12 1
34 7 49 13 15 6 42 12 60 13 19 2 40 6 48 11 10 6 12 5 7 -2 -10 -16 7 -15 23
1 10 8 12 8 7 0 -5 -9 11 -11 59 -10 36 1 65 6 65 11 0 5 2 7 6 4 3 -3 21 -2
40 2 20 5 34 4 34 -2 0 -5 5 -6 12 -2 10 7 67 12 203 18 28 1 61 5 75 9 14 3
50 8 80 11 30 3 84 8 120 12 36 3 97 7 137 8 40 1 75 5 79 9 4 4 10 4 13 0 3
-5 44 -9 91 -10z m4760 -13118 c0 -11 -29 -11 -33 -1 -4 10 1 12 14 9 10 -3
19 -7 19 -8z m75 -5 c-3 -5 -12 -7 -20 -3 -21 7 -19 13 6 13 11 0 18 -4 14
-10z"/>
<path d="M12518 17193 c-21 -2 -38 -7 -38 -11 0 -7 -16 -11 -57 -14 -7 -1 -13
-5 -13 -9 0 -7 -49 -24 -62 -21 -5 1 -8 -3 -8 -10 0 -6 -3 -9 -6 -5 -4 3 -13
-1 -21 -9 -8 -8 -19 -12 -24 -9 -5 4 -9 1 -9 -4 0 -6 -11 -11 -24 -11 -13 0
-37 -6 -53 -14 -15 -8 -54 -22 -85 -31 -32 -9 -58 -21 -58 -26 0 -5 -9 -9 -20
-9 -11 0 -31 -10 -45 -22 -14 -12 -31 -23 -39 -24 -7 -1 -29 -9 -47 -17 -19
-9 -44 -18 -57 -22 -12 -4 -20 -11 -17 -16 4 -5 -1 -9 -9 -9 -8 0 -23 -14 -33
-30 -9 -17 -24 -32 -33 -35 -9 -3 -16 -15 -17 -27 -1 -11 -6 -24 -12 -27 -5
-3 -12 -26 -16 -51 -4 -25 -11 -48 -17 -51 -5 -3 -9 -15 -7 -25 1 -11 -3 -30
-8 -44 -6 -14 -9 -29 -6 -33 3 -4 -1 -14 -7 -22 -7 -8 -9 -15 -5 -15 4 0 1 -7
-6 -16 -7 -9 -14 -24 -14 -33 -1 -9 -2 -31 -3 -49 -1 -22 -6 -31 -14 -26 -6 4
-8 3 -5 -3 4 -6 2 -25 -4 -44 -6 -19 -13 -47 -16 -64 -3 -16 -9 -35 -14 -41
-5 -6 -6 -13 -3 -17 3 -3 0 -15 -6 -27 -6 -12 -13 -38 -13 -58 -1 -21 -6 -43
-10 -49 -5 -8 -4 -13 3 -13 6 0 8 -4 5 -10 -3 -5 0 -20 7 -32 15 -28 19 -44
22 -81 2 -15 8 -33 14 -39 7 -7 12 -22 12 -34 0 -13 5 -26 10 -29 6 -3 10 -19
10 -35 0 -16 5 -32 11 -35 6 -4 8 -13 5 -21 -3 -8 -1 -14 4 -14 5 0 12 -10 16
-22 3 -13 19 -42 35 -66 16 -24 29 -46 29 -49 0 -4 8 -15 18 -26 12 -15 13
-18 2 -12 -8 4 -6 -1 5 -12 11 -11 31 -35 45 -53 22 -30 56 -65 140 -144 42
-39 103 -76 127 -76 13 0 23 -4 23 -9 0 -5 15 -12 33 -16 17 -4 52 -14 77 -22
25 -8 79 -17 120 -20 41 -3 77 -8 80 -12 3 -3 12 -8 20 -10 8 -2 38 -10 65
-18 70 -20 186 -10 323 26 61 16 117 33 124 37 7 4 23 8 36 9 13 0 26 5 30 10
8 12 32 27 92 57 25 13 48 27 52 33 4 5 8 7 8 3 0 -5 10 1 23 11 12 11 42 35
67 55 49 39 57 46 81 73 71 81 119 144 134 173 10 19 26 46 37 60 38 48 81
154 81 200 1 45 -9 143 -20 210 -3 19 -7 78 -8 130 -6 232 -53 369 -134 395
-13 4 -80 64 -150 134 -69 70 -144 140 -166 156 -22 17 -51 40 -65 53 -14 12
-35 25 -47 28 -13 4 -23 9 -23 14 0 14 -135 87 -175 94 -22 5 -41 7 -43 7 -1
-1 -17 5 -36 13 -32 13 -117 17 -198 9z"/>
<path d="M7945 16153 c-49 -7 -106 -15 -125 -17 -34 -4 -140 -22 -190 -34 -14
-3 -28 -5 -32 -4 -20 4 -158 -21 -158 -29 0 -5 -10 -9 -22 -9 -13 0 -61 -11
-107 -25 -46 -14 -87 -22 -92 -20 -4 3 -10 1 -14 -5 -4 -6 -11 -8 -16 -5 -5 4
-9 1 -9 -4 0 -6 -11 -11 -24 -11 -13 0 -59 -16 -102 -36 -43 -19 -87 -36 -96
-37 -10 -1 -18 -5 -18 -9 0 -4 -3 -7 -7 -6 -5 2 -33 -7 -63 -18 -30 -12 -86
-32 -125 -44 -81 -27 -195 -79 -195 -90 0 -4 -31 -27 -70 -51 -38 -24 -70 -47
-70 -51 0 -5 -7 -8 -15 -8 -8 0 -15 -5 -15 -12 0 -6 -3 -9 -6 -5 -6 6 -78 -43
-114 -76 -8 -8 -30 -22 -47 -31 -18 -9 -33 -21 -33 -26 0 -6 -3 -9 -7 -9 -19
3 -33 -3 -65 -28 -20 -16 -46 -35 -58 -43 -12 -8 -28 -21 -36 -27 -7 -7 -17
-13 -22 -13 -6 0 -12 -4 -14 -8 -1 -4 -21 -21 -43 -37 -52 -39 -56 -43 -154
-136 -46 -44 -100 -94 -120 -112 -20 -18 -37 -36 -38 -41 -1 -4 -14 -20 -30
-34 -16 -15 -42 -47 -58 -72 -17 -24 -38 -52 -47 -62 -10 -10 -18 -24 -18 -31
0 -6 -16 -25 -35 -41 -19 -16 -35 -35 -35 -43 0 -7 -4 -13 -9 -13 -5 0 -41
-44 -80 -97 -38 -54 -80 -110 -93 -125 -48 -56 -58 -68 -58 -76 0 -4 -18 -25
-40 -47 -21 -22 -39 -45 -40 -51 0 -6 -9 -19 -21 -30 -12 -10 -42 -50 -67 -89
-25 -38 -54 -82 -64 -98 -25 -36 -59 -117 -50 -117 4 0 3 -4 -3 -8 -16 -12
-46 -73 -39 -83 3 -5 -1 -9 -9 -9 -9 0 -17 -14 -21 -36 -4 -19 -14 -38 -22
-41 -7 -3 -14 -10 -14 -17 0 -6 -9 -28 -20 -49 -11 -20 -20 -44 -20 -52 0 -8
-4 -15 -9 -15 -10 0 -27 -39 -23 -52 1 -5 -3 -8 -9 -8 -6 0 -9 -7 -5 -15 3 -8
-1 -18 -10 -23 -8 -4 -16 -17 -18 -29 -3 -11 -18 -47 -34 -79 -16 -33 -27 -65
-25 -71 3 -7 -5 -29 -17 -48 -12 -19 -19 -35 -16 -35 4 0 -1 -11 -10 -25 -9
-14 -14 -25 -11 -25 3 0 -5 -20 -19 -46 -13 -25 -24 -52 -24 -60 0 -7 -4 -14
-8 -14 -10 0 -37 -71 -33 -88 1 -8 -5 -25 -14 -39 -9 -13 -14 -32 -10 -41 3
-8 1 -18 -5 -22 -6 -4 -12 -20 -14 -36 -1 -16 -5 -35 -10 -42 -4 -7 -6 -16 -3
-19 3 -3 1 -17 -5 -32 -6 -14 -11 -45 -13 -67 -1 -23 -5 -46 -7 -50 -3 -5 -6
-29 -7 -54 -2 -53 -7 -98 -19 -160 -11 -61 -5 -242 9 -251 8 -5 8 -8 0 -10
-16 -6 -20 -38 -10 -66 5 -12 5 -25 0 -27 -15 -10 -43 -135 -39 -176 2 -22 0
-40 -5 -40 -5 0 -6 -8 -2 -17 4 -10 9 -40 11 -68 3 -27 7 -66 10 -85 2 -19 5
-47 6 -62 1 -16 4 -28 8 -28 3 0 6 -8 7 -17 7 -78 16 -128 31 -169 10 -27 17
-59 16 -71 -1 -13 2 -23 7 -23 4 0 5 -16 2 -35 -3 -19 -1 -35 4 -35 5 0 9 -33
10 -72 1 -109 9 -204 18 -218 4 -7 10 -29 12 -48 2 -19 8 -43 14 -54 5 -10 7
-23 4 -28 -3 -5 1 -23 10 -39 8 -17 20 -65 26 -108 6 -43 11 -85 13 -93 1 -8
8 -26 16 -40 7 -14 13 -27 12 -30 -5 -13 35 -90 46 -90 7 0 10 -4 7 -10 -3 -5
-2 -10 2 -10 5 0 17 -17 28 -37 11 -21 28 -45 37 -55 22 -22 50 -87 42 -99 -3
-5 -1 -9 5 -9 5 0 12 -14 16 -30 4 -17 13 -44 22 -61 8 -16 16 -36 17 -43 1
-8 6 -20 12 -27 25 -36 43 -77 36 -84 -4 -5 -1 -5 5 -1 9 5 16 -7 24 -38 6
-24 18 -53 27 -63 26 -29 62 -81 62 -90 0 -4 11 -18 25 -31 13 -13 24 -27 23
-30 -1 -4 3 -17 10 -28 6 -12 8 -25 4 -29 -4 -5 -2 -5 4 -2 7 4 17 -6 24 -23
7 -17 17 -30 23 -30 6 0 8 -3 5 -6 -3 -3 5 -17 18 -31 13 -14 24 -30 24 -35 0
-5 11 -20 25 -34 14 -14 25 -32 25 -40 0 -8 15 -30 33 -48 39 -41 57 -63 57
-71 0 -4 7 -13 15 -21 8 -9 15 -13 15 -9 0 10 26 -18 41 -45 7 -14 12 -28 11
-32 -1 -5 4 -8 10 -8 7 0 22 -13 33 -29 10 -16 23 -27 29 -24 5 3 6 1 2 -6 -5
-7 8 -26 31 -48 21 -20 30 -30 20 -23 -15 11 -17 10 -11 -4 3 -9 10 -16 16
-16 14 0 34 -23 42 -48 4 -12 12 -20 17 -17 5 4 9 -1 9 -9 0 -9 7 -16 15 -16
8 0 17 -11 21 -25 3 -14 11 -25 16 -25 6 0 28 -19 50 -42 22 -23 46 -43 54
-44 8 -1 23 -13 34 -26 11 -12 19 -20 20 -15 0 4 8 -1 18 -10 30 -29 76 -63
85 -63 4 0 5 -4 2 -10 -3 -5 1 -10 10 -10 9 0 13 -4 10 -10 -4 -6 6 -10 22
-10 17 0 23 -3 16 -8 -12 -8 100 -72 126 -72 6 0 11 -5 11 -11 0 -5 5 -7 11
-4 5 4 19 -1 30 -11 10 -9 19 -13 19 -8 0 5 4 4 8 -1 4 -6 33 -24 64 -39 32
-16 55 -32 53 -36 -6 -10 25 -24 44 -21 7 1 10 -2 7 -8 -3 -5 8 -19 24 -31 17
-12 45 -35 63 -51 17 -16 38 -29 45 -29 9 0 12 -6 8 -17 -4 -10 -4 -14 0 -10
4 4 16 0 26 -10 10 -9 18 -13 18 -9 0 3 14 -7 31 -24 18 -16 38 -30 46 -30 8
0 11 -5 7 -12 -5 -8 -2 -9 9 -5 11 4 22 -1 29 -13 7 -11 20 -20 29 -20 9 0 20
-7 23 -16 3 -8 10 -13 14 -10 10 6 72 -48 72 -63 0 -6 6 -11 14 -11 7 0 24
-11 37 -24 13 -13 43 -34 67 -46 23 -12 45 -26 48 -31 3 -5 10 -7 15 -3 5 3 8
0 7 -7 -2 -6 10 -14 27 -16 16 -2 33 -10 37 -18 4 -7 20 -16 35 -20 15 -3 39
-15 55 -26 15 -11 28 -17 28 -13 0 3 15 -5 34 -20 19 -14 46 -27 60 -28 13 -1
23 -5 20 -9 -2 -4 10 -11 28 -14 18 -4 38 -11 43 -15 12 -9 67 -24 79 -21 4 1
14 -3 22 -10 7 -6 18 -8 24 -4 5 3 10 2 10 -4 0 -5 11 -8 25 -6 14 1 27 -1 30
-5 2 -4 17 -8 32 -9 15 0 42 -3 58 -5 39 -6 110 -15 158 -21 25 -3 36 -1 31 6
-4 8 -1 8 12 1 27 -14 99 -25 169 -26 33 -1 66 -5 74 -10 12 -8 178 -19 251
-17 14 0 32 -3 40 -6 17 -7 45 -10 145 -17 120 -9 161 -13 183 -20 40 -13 67
-17 136 -21 37 -2 70 -6 73 -9 2 -2 19 0 36 5 18 4 46 11 62 13 49 9 76 15 93
20 9 3 33 8 52 10 20 3 47 7 60 10 14 3 36 8 50 10 14 3 50 12 80 21 30 8 87
18 125 21 97 7 111 10 185 32 36 11 76 22 90 24 31 4 132 56 142 73 4 7 20 16
34 19 15 4 46 23 69 42 23 19 47 34 54 34 6 0 11 5 11 10 0 6 6 10 13 10 8 0
33 14 55 30 23 17 42 27 42 24 0 -4 12 2 28 12 15 10 55 32 89 49 33 18 95 55
136 83 41 28 77 49 80 46 3 -3 24 4 47 16 24 12 55 24 69 27 14 2 30 8 36 14
5 5 17 9 27 9 10 0 18 5 18 12 0 6 3 9 6 5 3 -3 23 3 42 14 20 10 42 19 50 19
26 0 92 25 92 35 0 6 23 19 50 30 28 11 50 23 50 27 0 4 7 8 16 8 21 0 211
193 334 340 11 14 33 39 48 56 15 17 38 46 52 64 14 18 37 47 51 64 41 49 94
128 110 164 7 17 17 32 21 32 5 0 8 6 8 14 0 8 3 16 8 18 11 5 56 76 102 163
23 44 60 101 81 126 21 26 39 50 39 54 0 9 31 49 76 97 19 20 34 40 34 43 0 3
4 11 10 18 46 56 60 76 60 84 0 6 15 25 33 44 54 57 86 112 113 195 14 43 30
87 35 96 5 10 9 22 9 27 0 5 5 22 12 38 6 15 12 30 12 33 1 3 10 19 21 35 38
55 93 186 87 208 -1 4 2 7 6 7 5 0 14 33 21 73 7 39 16 79 21 87 4 9 13 43 20
75 6 33 18 83 26 110 7 28 17 70 20 95 4 25 15 61 25 81 38 76 77 268 84 409
3 74 11 155 17 180 6 25 11 131 13 235 2 130 7 210 18 255 20 83 14 232 -13
350 -15 61 -28 135 -34 195 -7 63 -21 128 -29 142 -4 7 -9 24 -11 40 -3 24
-25 98 -43 143 -3 8 -7 20 -8 25 -13 52 -37 140 -44 158 -15 37 -50 170 -57
212 -3 22 -12 54 -19 72 -7 17 -11 34 -7 37 3 3 0 6 -6 6 -7 0 -12 8 -12 18
-1 9 -11 37 -24 62 -13 25 -38 72 -55 105 -17 33 -40 76 -52 95 -19 31 -26 48
-28 73 -1 4 -9 7 -18 7 -9 0 -14 3 -10 6 6 6 -48 109 -68 130 -6 6 -28 37 -50
70 -22 32 -45 64 -51 69 -7 6 -33 35 -59 65 -26 30 -57 66 -69 80 -131 151
-382 420 -393 420 -2 0 -19 15 -37 33 -17 17 -60 57 -95 87 -35 30 -87 78
-116 105 -64 61 -107 98 -155 132 -20 15 -47 41 -60 60 -14 18 -41 43 -60 55
-38 25 -79 67 -80 83 0 10 -69 79 -140 140 -41 36 -126 85 -147 85 -8 0 -11 5
-8 10 3 6 0 10 -9 10 -8 0 -16 4 -18 9 -8 23 -288 181 -320 181 -10 0 -18 5
-18 10 0 6 -5 10 -11 10 -6 0 -23 9 -39 20 -15 11 -30 16 -34 12 -4 -4 -14 2
-22 12 -8 11 -14 16 -14 12 0 -4 -12 2 -26 13 -15 12 -35 21 -44 21 -10 0 -23
7 -30 15 -7 8 -16 12 -21 9 -5 -3 -9 -1 -9 4 0 5 -10 13 -22 17 -13 4 -25 8
-28 9 -40 18 -64 26 -75 26 -8 0 -17 5 -20 10 -4 6 -10 8 -15 5 -5 -3 -12 0
-15 6 -4 5 -13 8 -21 5 -8 -3 -14 -2 -14 3 0 11 -48 31 -81 35 -13 1 -34 8
-46 14 -12 7 -30 12 -40 12 -11 0 -24 5 -29 10 -6 6 -44 17 -85 25 -78 16 -85
18 -109 28 -8 4 -27 8 -42 11 -15 3 -33 8 -38 11 -12 8 -44 13 -110 20 -25 3
-67 7 -95 10 -27 3 -88 8 -135 10 -47 3 -114 8 -150 11 -36 4 -81 8 -100 10
-46 4 -384 16 -433 15 -21 0 -55 3 -75 7 -22 5 -75 2 -127 -5z m610 -1659 c35
-16 55 -21 134 -30 31 -3 60 -9 65 -12 5 -3 21 -6 35 -8 64 -5 125 -15 135
-21 6 -4 22 -6 35 -4 15 2 21 -1 17 -8 -4 -7 1 -11 13 -11 24 0 83 -26 125
-54 19 -12 26 -15 21 -6 -5 8 4 5 19 -8 16 -12 32 -19 37 -17 4 3 28 -7 51
-22 24 -15 46 -28 51 -29 4 -1 10 -3 15 -4 4 -1 10 -2 15 -1 4 0 7 -3 7 -8 0
-5 16 -12 35 -15 19 -4 47 -18 61 -31 14 -13 40 -27 57 -31 18 -3 34 -10 37
-13 14 -19 71 -51 89 -51 12 0 21 -6 21 -14 0 -8 14 -17 30 -21 17 -4 28 -11
24 -16 -3 -5 4 -9 16 -9 24 0 59 -18 77 -40 7 -8 13 -11 13 -7 0 5 7 1 16 -7
8 -9 22 -16 30 -16 8 0 14 -4 14 -10 0 -5 4 -9 8 -7 11 3 102 -55 102 -65 0
-4 4 -8 10 -8 5 0 18 -7 27 -15 10 -8 21 -15 25 -15 4 -1 22 -14 40 -30 18
-17 38 -30 46 -30 7 0 10 -4 7 -10 -3 -5 -2 -10 4 -10 5 0 13 -9 16 -20 3 -11
13 -20 21 -20 8 0 13 -4 10 -8 -3 -5 8 -16 25 -26 16 -9 29 -24 29 -32 0 -8 7
-14 15 -14 9 0 19 -8 22 -17 7 -18 28 -43 36 -43 11 0 87 -77 87 -88 0 -7 4
-11 9 -8 9 6 73 -79 65 -87 -3 -3 4 -8 15 -12 12 -3 19 -10 16 -15 -3 -5 8
-24 24 -41 17 -17 36 -44 43 -60 7 -16 17 -29 22 -29 4 0 6 -7 2 -15 -3 -9 0
-15 9 -15 8 0 15 -9 15 -19 0 -11 5 -23 10 -26 6 -3 10 -15 10 -26 0 -10 4
-19 8 -19 5 0 15 -12 22 -27 8 -16 22 -37 32 -48 10 -12 19 -30 21 -42 1 -12
9 -28 16 -37 7 -9 10 -16 5 -16 -5 0 -4 -4 3 -8 6 -4 14 -19 16 -32 8 -41 18
-60 38 -71 11 -5 17 -15 13 -20 -3 -6 4 -25 16 -41 13 -17 18 -28 11 -24 -6 4
-11 2 -11 -3 0 -6 7 -11 16 -11 10 0 14 -6 10 -15 -3 -8 -1 -15 4 -15 6 0 9
-3 8 -7 -2 -11 14 -47 24 -53 4 -3 9 -15 11 -25 2 -11 9 -31 15 -45 17 -40 25
-64 28 -80 2 -8 6 -26 10 -39 5 -19 4 -22 -6 -16 -9 5 -11 4 -6 -4 11 -17 19
-61 20 -104 1 -20 3 -37 6 -37 3 0 6 -36 5 -79 0 -44 3 -77 7 -75 4 3 5 -9 3
-26 -2 -16 0 -32 4 -34 7 -5 6 -100 -2 -228 -3 -40 -1 -56 7 -52 6 3 4 0 -4
-8 -12 -10 -15 -42 -15 -161 0 -82 -4 -151 -9 -154 -4 -3 -3 -9 4 -13 9 -6 9
-13 2 -26 -7 -13 -7 -25 0 -37 8 -15 7 -18 -3 -12 -9 6 -11 3 -6 -9 4 -10 4
-23 0 -29 -4 -6 -8 -31 -8 -54 -1 -24 -5 -46 -9 -50 -3 -3 -1 -12 5 -20 8 -9
8 -13 0 -13 -7 0 -8 -8 -1 -26 13 -33 13 -34 -6 -34 -11 0 -14 -6 -9 -20 4
-11 2 -20 -4 -20 -6 0 -11 -18 -11 -41 0 -54 -29 -141 -44 -132 -6 4 -6 0 2
-9 10 -13 10 -17 -4 -22 -12 -5 -14 -10 -5 -19 8 -10 6 -19 -10 -35 -11 -12
-15 -22 -8 -22 8 0 8 -4 -1 -15 -7 -8 -9 -15 -5 -15 5 0 1 -8 -8 -18 -10 -10
-14 -22 -11 -25 4 -4 2 -13 -4 -20 -7 -8 -9 -17 -6 -20 4 -3 -1 -13 -10 -22
-9 -9 -16 -23 -16 -31 0 -8 -4 -14 -10 -14 -5 0 -9 -3 -8 -7 1 -5 -4 -21 -11
-38 -7 -16 -12 -32 -12 -35 0 -3 -7 -12 -15 -21 -8 -9 -11 -19 -7 -22 6 -7
-12 -11 -31 -8 -5 1 -6 -5 -3 -12 3 -8 -10 -31 -29 -52 -19 -21 -34 -40 -34
-44 0 -4 -13 -21 -29 -39 -17 -17 -27 -32 -23 -32 4 -1 -5 -7 -20 -16 -15 -8
-31 -26 -34 -39 -4 -16 -13 -25 -25 -25 -10 0 -19 -4 -19 -9 0 -4 -11 -20 -25
-35 -13 -14 -22 -26 -20 -26 2 0 -32 -36 -75 -81 -43 -44 -82 -89 -85 -100 -4
-10 -17 -22 -31 -25 -13 -3 -24 -10 -24 -15 0 -5 -6 -9 -13 -9 -8 0 -19 -11
-27 -24 -7 -14 -22 -27 -35 -30 -12 -3 -26 -16 -32 -29 -6 -12 -28 -31 -49
-42 -38 -20 -64 -39 -112 -82 -14 -13 -33 -23 -43 -23 -11 0 -19 -4 -19 -10 0
-15 -59 -72 -69 -66 -5 3 -29 -14 -54 -39 -26 -25 -53 -45 -61 -45 -8 0 -16
-4 -18 -8 -1 -4 -28 -18 -58 -31 -30 -13 -69 -34 -87 -47 -17 -13 -43 -24 -57
-24 -14 0 -26 -5 -26 -11 0 -6 -7 -9 -15 -5 -8 3 -15 1 -15 -4 0 -6 -9 -10
-20 -10 -11 0 -20 -5 -20 -11 0 -6 -7 -9 -15 -5 -8 3 -21 -1 -29 -9 -8 -8 -26
-15 -41 -15 -14 0 -42 -7 -63 -17 -20 -9 -41 -15 -46 -14 -4 1 -13 -2 -20 -7
-6 -5 -47 -9 -91 -9 -44 0 -108 -8 -143 -17 -35 -9 -72 -16 -82 -16 -10 0 -31
-5 -47 -12 -15 -6 -46 -12 -68 -13 -22 -2 -51 -5 -65 -8 -68 -17 -129 -28
-170 -30 -25 -2 -90 -12 -145 -22 -72 -14 -135 -18 -225 -17 -119 3 -195 7
-195 12 0 1 -22 3 -50 4 -27 1 -55 4 -60 8 -6 3 -31 9 -55 13 -25 3 -76 14
-115 23 -38 9 -73 15 -77 14 -5 -1 -8 2 -8 6 0 5 -6 9 -12 9 -37 1 -192 64
-266 108 -23 14 -49 25 -57 25 -8 0 -15 4 -15 9 0 8 -37 24 -52 22 -5 -1 -8 4
-8 9 0 6 -5 10 -10 10 -6 0 -37 18 -69 40 -32 22 -61 40 -65 40 -7 0 -67 41
-76 51 -3 3 -20 14 -37 23 -18 9 -33 21 -33 27 0 6 -4 8 -9 5 -5 -4 -11 -2
-13 2 -1 5 -32 28 -68 52 -70 47 -365 337 -420 413 -18 26 -37 47 -42 47 -4 0
-8 7 -8 15 0 8 -4 15 -9 15 -5 0 -19 16 -32 36 -12 20 -37 52 -55 73 -19 20
-34 39 -34 43 0 4 -9 15 -20 26 -21 19 -37 47 -141 250 -38 73 -69 139 -69
147 0 8 -4 15 -8 15 -4 0 -8 8 -8 18 -1 15 -55 190 -71 232 -4 8 -7 18 -8 23
-2 4 -4 10 -5 15 -2 4 -4 12 -5 17 -1 6 -5 21 -8 35 -4 14 -9 37 -11 52 -3 15
-7 31 -9 35 -3 5 -14 54 -26 110 -22 105 -25 151 -37 488 -10 280 -10 296 -1
340 9 45 14 88 22 190 3 39 10 90 15 115 17 76 20 92 32 178 6 45 14 82 19 82
4 0 6 10 4 21 -3 12 5 50 16 85 11 35 22 76 23 91 1 15 14 53 29 84 15 31 27
63 27 72 0 9 4 19 10 22 5 3 17 23 26 43 10 20 22 44 29 52 13 18 46 104 68
180 9 31 26 66 37 78 11 11 20 26 20 33 0 6 8 18 18 26 10 9 11 11 2 7 -11 -6
-10 -2 3 13 9 11 17 23 17 28 0 4 10 16 22 26 11 11 18 19 14 19 -3 0 0 10 9
23 8 13 12 27 8 30 -3 4 -1 7 5 7 5 0 21 17 33 38 29 48 30 49 153 175 58 59
109 107 114 107 4 0 21 13 38 28 16 15 49 37 74 47 25 11 50 26 57 35 6 8 15
15 20 16 13 1 87 38 94 47 3 4 16 9 29 12 12 2 30 11 39 18 16 14 93 45 128
51 10 2 35 11 55 19 20 9 39 13 42 10 3 -3 12 -1 19 5 7 7 24 14 38 16 13 3
26 5 29 6 3 2 9 2 14 1 4 -1 15 4 23 11 8 7 27 14 41 16 15 2 32 8 38 13 7 5
16 9 20 8 5 -1 16 0 24 3 42 16 143 39 195 44 33 4 68 10 77 15 9 5 21 9 25 8
4 -1 10 0 13 1 3 1 12 3 20 5 8 2 42 11 75 20 86 23 121 26 398 29 136 2 250
6 254 10 10 10 124 -5 158 -20z"/>
</g>
</svg>
