<?xml version="1.0" standalone="no"?>
<!DOCTYPE svg PUBLIC "-//W3C//DTD SVG 20010904//EN"
 "http://www.w3.org/TR/2001/REC-SVG-20010904/DTD/svg10.dtd">
<svg version="1.0" xmlns="http://www.w3.org/2000/svg"
 width="500.000000pt" height="242.000000pt" viewBox="0 0 500.000000 242.000000"
 preserveAspectRatio="xMidYMid meet">

<g transform="translate(0.000000,242.000000) scale(0.100000,-0.100000)"
fill="#000000" stroke="none">
<path d="M3226 2368 c-3 -7 -9 -27 -14 -44 -6 -17 -8 -49 -6 -70 2 -21 6 -88
9 -149 7 -155 15 -184 51 -185 12 0 43 86 49 136 9 76 17 160 16 172 -2 21 -1
36 4 75 3 29 -1 41 -17 57 -24 22 -86 27 -92 8z"/>
<path d="M2580 2342 c-12 -14 -15 -50 -14 -202 2 -242 7 -269 50 -270 15 0 36
25 28 33 -3 3 -2 12 2 19 5 7 9 20 11 28 17 115 24 349 10 368 -5 6 -6 12 -2
12 4 0 2 7 -5 15 -17 20 -61 18 -80 -3z"/>
<path d="M1833 2335 c-29 -20 -23 -61 18 -128 16 -27 29 -53 29 -58 0 -5 4 -9
8 -9 12 0 51 -125 58 -185 8 -59 20 -85 39 -85 23 0 35 34 39 110 4 62 -1 94
-25 179 -4 13 -17 38 -69 134 -11 21 -32 42 -46 47 -31 12 -26 13 -51 -5z"/>
<path d="M3880 2277 c-9 -7 -28 -41 -44 -77 -16 -36 -37 -83 -47 -105 -24 -52
-48 -118 -64 -178 -12 -41 -11 -49 3 -63 14 -15 17 -14 31 5 9 12 43 74 76
139 33 64 70 134 83 154 33 51 39 105 15 123 -22 18 -34 18 -53 2z"/>
<path d="M2966 2215 c-18 -114 -2 -232 28 -222 25 8 16 251 -9 261 -9 3 -15
-9 -19 -39z"/>
<path d="M1272 2227 c-22 -29 -22 -51 3 -93 14 -24 30 -44 36 -44 6 0 8 -4 5
-9 -3 -4 3 -19 14 -32 39 -47 57 -78 101 -165 30 -60 71 -95 84 -73 9 14 -13
117 -36 166 -10 24 -19 46 -19 51 0 4 -11 24 -25 45 -14 20 -23 37 -20 37 3 0
-3 10 -15 22 -11 12 -20 27 -20 32 -1 38 -88 88 -108 63z"/>
<path d="M3598 2178 c-50 -101 -72 -217 -43 -219 6 -1 19 23 29 52 11 30 22
56 25 59 3 3 8 12 10 20 2 8 10 38 18 65 24 88 0 102 -39 23z"/>
<path d="M2327 2127 c-9 -39 -20 -102 -24 -139 -5 -58 -3 -68 11 -74 23 -9 36
6 43 47 3 19 9 39 14 45 5 7 12 41 16 77 5 52 2 72 -11 92 -9 14 -20 25 -24
25 -4 0 -15 -33 -25 -73z"/>
<path d="M1676 2141 c-10 -16 5 -61 41 -122 18 -32 33 -62 33 -68 0 -6 5 -11
10 -11 6 0 10 -6 10 -14 0 -12 20 -26 36 -26 14 0 -1 62 -30 123 -34 73 -88
137 -100 118z"/>
<path d="M4291 2054 c-17 -14 -31 -30 -31 -35 0 -8 -40 -68 -78 -114 -4 -5
-29 -44 -54 -85 -55 -88 -58 -115 -13 -118 26 -2 35 4 55 37 14 21 28 37 32
35 4 -3 14 9 23 26 8 16 20 30 26 30 6 0 7 5 4 10 -3 6 -2 10 2 10 5 0 17 15
28 33 10 17 38 56 61 86 45 57 48 76 19 97 -27 20 -39 18 -74 -12z"/>
<path d="M820 1995 c-12 -22 -11 -31 10 -75 13 -28 27 -50 32 -50 5 0 7 -4 4
-8 -2 -4 11 -27 29 -51 19 -24 37 -52 40 -62 4 -11 10 -17 15 -14 5 3 11 1 15
-5 3 -5 13 -10 22 -10 27 0 9 60 -63 217 -23 49 -55 83 -80 83 -6 0 -17 -11
-24 -25z"/>
<path d="M4023 1998 c-37 -40 -83 -121 -83 -146 0 -38 21 -21 66 54 45 74 61
114 46 114 -4 0 -18 -10 -29 -22z"/>
<path d="M1130 1991 c0 -10 25 -65 43 -96 34 -59 91 -105 109 -87 13 13 -23
87 -75 153 -22 29 -77 50 -77 30z"/>
<path d="M636 1848 c3 -12 23 -43 43 -69 20 -26 48 -68 63 -93 31 -52 62 -63
52 -18 -12 57 -38 122 -58 145 -49 55 -114 78 -100 35z"/>
<path d="M265 1780 c3 -5 0 -10 -8 -10 -28 0 -26 -47 3 -77 27 -28 116 -94
167 -122 15 -9 34 -22 42 -29 33 -31 104 -47 120 -28 9 11 8 18 -4 30 -9 9
-14 16 -12 16 3 0 -7 14 -21 30 -15 17 -32 30 -39 30 -6 0 -15 9 -18 20 -3 11
-10 20 -15 20 -4 0 -21 12 -38 28 -74 68 -96 85 -125 93 -41 12 -60 11 -52 -1z"/>
<path d="M4415 1667 c-16 -12 -51 -42 -77 -66 -44 -42 -46 -46 -32 -62 13 -15
20 -16 37 -6 40 23 137 130 137 150 0 14 -36 5 -65 -16z"/>
<path d="M4660 1623 c-44 -13 -85 -31 -125 -56 -11 -6 -50 -31 -87 -54 -37
-23 -81 -49 -98 -58 -29 -15 -30 -18 -18 -37 18 -27 43 -31 85 -13 18 8 33 11
33 8 0 -4 13 5 28 20 16 15 31 25 34 21 4 -3 17 1 30 10 31 20 165 75 171 70
2 -2 21 12 41 31 37 34 43 64 14 66 -7 0 -24 2 -38 3 -14 2 -45 -3 -70 -11z"/>
<path d="M1297 1544 c-8 -8 -109 -14 -322 -18 -145 -4 -228 -10 -262 -21 -7
-3 -13 -13 -13 -24 0 -15 9 -22 34 -27 48 -8 106 -11 106 -3 0 3 14 4 30 1 26
-4 30 -9 30 -34 0 -17 6 -51 14 -77 8 -25 20 -71 25 -101 6 -30 13 -64 16 -75
11 -45 3 -244 -12 -268 -2 -4 -6 -20 -9 -35 -2 -15 -12 -42 -22 -59 -13 -27
-23 -33 -48 -33 -62 0 -129 65 -139 135 -5 38 -10 67 -20 105 -2 8 -4 18 -4
23 -1 4 -7 7 -15 7 -19 0 -25 -31 -21 -97 5 -84 26 -142 60 -169 17 -14 36
-29 44 -36 36 -30 161 -52 161 -28 0 5 3 9 8 9 19 -3 33 2 28 10 -3 5 3 20 14
34 11 14 20 33 20 42 0 9 4 24 9 33 25 48 40 305 22 386 -6 28 -13 60 -15 71
-3 11 -9 40 -15 65 -6 25 -11 55 -11 67 0 21 3 22 38 17 63 -11 147 -8 285 10
10 1 29 14 41 27 19 21 21 28 12 42 -14 18 -58 32 -69 21z"/>
<path d="M2800 1500 c-24 -8 -196 -27 -341 -37 -40 -3 -75 -1 -88 6 -41 23
-84 -32 -51 -65 6 -6 13 -37 16 -70 3 -32 9 -93 15 -134 17 -135 30 -243 34
-287 2 -24 7 -48 10 -53 3 -5 6 -30 7 -54 0 -26 7 -51 14 -57 17 -14 127 -5
132 11 2 5 7 8 11 5 4 -2 25 0 46 6 103 29 168 34 232 18 64 -15 90 -5 85 31
-7 48 -63 79 -147 81 -37 2 -81 -9 -165 -40 -63 -23 -119 -43 -124 -44 -9 -2
-11 8 -20 108 -6 73 -13 121 -21 143 -3 8 9 12 40 12 24 0 47 5 50 10 4 6 21
10 38 9 18 0 43 2 57 6 14 3 37 8 52 10 62 9 85 46 50 78 -28 26 -90 21 -172
-13 -99 -41 -116 -40 -126 8 -11 50 -12 59 -19 117 -3 28 -8 56 -10 63 -2 6 0
12 5 13 43 3 89 1 98 -5 7 -4 12 -4 12 1 0 4 24 9 53 9 28 1 94 4 145 7 138 8
201 48 156 98 -18 20 -34 22 -74 9z"/>
<path d="M280 1437 c0 -25 38 -53 82 -61 15 -2 36 -10 48 -16 37 -20 120 -14
120 9 0 14 -192 91 -227 91 -17 0 -23 -6 -23 -23z"/>
<path d="M1526 1424 c-3 -9 -4 -19 -1 -23 2 -4 7 -48 11 -97 3 -49 8 -92 9
-95 2 -3 5 -73 6 -155 2 -190 5 -213 35 -226 19 -9 28 -8 44 7 11 10 17 22 14
27 -11 18 -13 189 -2 214 l11 24 19 -27 c10 -16 18 -37 18 -49 0 -11 3 -24 7
-28 9 -8 12 -25 19 -106 8 -95 12 -108 36 -116 36 -11 47 17 41 109 -4 82 -32
197 -60 250 -14 28 -70 60 -95 55 -7 -2 -15 16 -20 42 -4 25 -13 70 -20 100
-6 30 -13 62 -14 70 -3 14 -31 40 -45 40 -4 0 -10 -7 -13 -16z"/>
<path d="M3693 1375 c-22 -16 -27 -54 -8 -67 39 -28 74 11 53 58 -13 28 -17
29 -45 9z"/>
<path d="M4644 1236 c-49 -16 -156 -97 -150 -113 3 -8 6 -17 6 -19 0 -9 37 -3
48 8 7 7 12 9 12 5 0 -4 6 -3 13 3 11 11 67 48 129 88 16 9 26 22 25 27 -5 13
-46 14 -83 1z"/>
<path d="M235 1219 c-4 -5 -13 -8 -21 -5 -17 7 -24 -4 -29 -49 -4 -32 -2 -36
28 -49 20 -8 40 -10 55 -5 12 5 32 5 45 1 27 -10 134 -9 165 2 15 5 22 15 22
31 0 38 -63 65 -159 69 -44 2 -84 7 -89 10 -6 3 -14 1 -17 -5z"/>
<path d="M3959 1201 c-16 -16 -29 -25 -29 -20 0 11 -30 12 -48 0 -10 -6 -11
-22 -2 -75 6 -37 12 -89 15 -114 12 -143 16 -168 33 -180 9 -7 22 -10 30 -7 7
2 10 0 7 -5 -7 -12 5 -13 21 -2 27 18 34 56 34 188 l0 137 23 -29 c12 -16 22
-31 22 -34 0 -3 15 -30 33 -61 17 -31 32 -62 32 -68 0 -14 30 -62 45 -74 25
-18 56 -19 69 -2 14 19 10 55 -5 55 -5 0 -9 5 -9 11 0 5 -11 35 -25 65 -14 30
-25 58 -25 63 0 5 -7 14 -15 21 -8 7 -15 19 -15 27 0 7 -6 21 -12 29 -85 105
-130 124 -179 75z"/>
<path d="M2967 1189 c-58 -34 -55 -137 8 -340 8 -26 15 -55 15 -66 0 -12 11
-25 27 -32 23 -11 29 -10 40 6 16 21 11 62 -22 199 -12 50 -22 109 -21 130 1
35 4 39 25 36 13 -1 37 -8 55 -16 53 -24 64 -25 76 -11 19 23 6 41 -52 74 -55
32 -116 40 -151 20z"/>
<path d="M1860 1165 c-12 -13 -27 -22 -32 -19 -5 3 -15 1 -22 -5 -13 -11 -13
-38 -1 -99 3 -15 7 -76 10 -135 4 -114 10 -132 50 -140 29 -5 28 -11 26 155
-1 66 2 119 7 122 8 5 31 -62 34 -99 0 -5 9 -31 19 -57 10 -27 17 -48 14 -48
-8 0 44 -97 58 -108 20 -17 68 7 61 30 -3 10 -7 30 -10 44 -3 15 -14 45 -24
67 -11 23 -20 47 -20 55 0 20 -40 162 -57 199 -15 35 -48 63 -73 63 -9 0 -27
-11 -40 -25z"/>
<path d="M3538 1160 c-15 -17 -17 -36 -12 -137 2 -65 7 -127 9 -138 2 -12 1
-34 -3 -50 l-8 -29 -17 36 c-14 29 -33 91 -48 158 -2 8 -16 23 -31 33 -25 17
-29 17 -43 4 -8 -9 -15 -22 -15 -31 0 -8 -4 -18 -10 -21 -5 -3 -10 -1 -10 5 0
6 -12 42 -27 81 -21 54 -33 71 -51 76 -15 3 -28 1 -33 -8 -10 -15 -3 -77 11
-94 7 -9 23 -68 21 -80 -1 -3 6 -21 14 -41 8 -20 15 -46 15 -57 0 -24 28 -105
43 -124 24 -32 69 -3 83 51 l7 29 22 -25 c31 -36 75 -57 100 -48 25 9 48 36
51 58 1 10 7 46 13 81 9 60 8 158 -2 225 -4 25 -39 65 -57 66 -3 0 -13 -9 -22
-20z"/>
<path d="M3714 1148 c-8 -12 -6 -272 2 -299 6 -21 36 -29 58 -17 15 9 17 20
11 77 -3 36 -8 91 -9 121 -1 30 -8 65 -14 76 -6 12 -9 23 -7 26 2 2 -4 9 -15
16 -14 9 -21 9 -26 0z"/>
<path d="M1262 1137 c-34 -10 -78 -60 -68 -76 3 -5 0 -23 -7 -40 -22 -51 -6
-151 29 -191 36 -41 80 -60 139 -60 37 0 52 6 75 28 46 43 59 78 55 143 -4 60
-44 139 -71 139 -8 0 -14 6 -14 13 0 8 -19 20 -42 27 -24 8 -47 17 -53 20 -5
4 -25 2 -43 -3z m73 -153 c14 -14 25 -29 25 -34 0 -6 3 -10 8 -10 4 0 8 -13 9
-30 4 -59 -72 -66 -106 -9 -17 28 -19 72 -6 107 7 18 39 7 70 -24z"/>
<path d="M4630 1004 c-41 -7 -76 -13 -77 -13 -2 -1 -3 -7 -3 -13 0 -22 16 -38
41 -43 39 -8 128 -10 135 -2 4 3 14 2 23 -2 9 -5 30 -7 46 -5 17 2 45 4 63 6
20 1 37 9 43 20 12 22 4 54 -14 57 -40 9 -193 6 -257 -5z"/>
<path d="M257 975 c-9 -9 -17 -20 -17 -23 0 -18 63 -30 153 -30 86 0 97 2 97
17 0 26 -45 42 -136 48 -67 4 -83 2 -97 -12z"/>
<path d="M4499 784 c-14 -17 -5 -44 16 -44 9 0 45 -16 81 -35 100 -54 122 -46
55 21 -44 45 -61 57 -81 63 -38 9 -60 8 -71 -5z"/>
<path d="M398 765 c-2 -3 -35 -5 -73 -6 -85 -2 -115 -17 -115 -59 l0 -30 83 1
c45 1 87 5 93 10 7 6 16 9 20 7 14 -4 89 29 103 45 9 12 9 17 0 23 -12 7 -105
15 -111 9z"/>
<path d="M588 672 c-9 -4 -30 -19 -46 -34 -17 -15 -45 -34 -64 -43 -49 -25
-78 -56 -78 -82 0 -29 26 -30 81 -3 47 24 159 133 159 155 0 16 -23 19 -52 7z"/>
<path d="M4380 594 c0 -25 33 -74 49 -74 8 0 12 -3 9 -6 -4 -3 12 -22 35 -42
53 -47 97 -94 97 -104 0 -12 57 -38 84 -38 56 0 40 60 -32 124 -77 68 -88 77
-127 104 -22 15 -46 33 -53 40 -20 18 -62 15 -62 -4z"/>
<path d="M993 572 c-18 -11 -53 -109 -53 -147 0 -43 23 -47 39 -7 27 66 47
162 34 162 -4 0 -13 -4 -20 -8z"/>
<path d="M4154 546 c-6 -16 14 -60 46 -96 57 -66 71 -80 79 -80 14 0 -33 113
-60 144 -33 39 -58 51 -65 32z"/>
<path d="M3803 543 c-16 -6 -17 -55 -2 -125 14 -63 47 -134 58 -122 11 12 -6
192 -22 226 -12 29 -14 30 -34 21z"/>
<path d="M765 530 c-26 -10 -55 -44 -90 -105 -16 -27 -38 -63 -50 -80 -44 -60
-38 -90 20 -98 32 -4 49 7 59 41 4 12 13 28 19 34 7 7 25 42 42 78 16 36 34
72 40 80 24 32 -2 64 -40 50z"/>
<path d="M1335 510 c-17 -33 -20 -106 -5 -146 10 -24 23 -26 26 -3 1 5 2 10 4
12 4 5 13 128 11 155 -2 22 -20 13 -36 -18z"/>
<path d="M1848 532 c-35 -7 -62 -165 -38 -222 12 -30 13 -30 30 -12 12 13 20
43 24 93 4 41 9 85 11 99 6 31 -5 47 -27 42z"/>
<path d="M2293 534 c-20 -9 -35 -188 -19 -230 18 -48 44 21 50 136 5 93 1 107
-31 94z"/>
<path d="M2772 532 c-17 -11 -23 -89 -10 -139 11 -46 37 -67 39 -30 8 181 6
191 -29 169z"/>
<path d="M3299 518 c-2 -16 -2 -11 6 -83 7 -75 13 -94 36 -123 l18 -24 7 26
c8 34 -4 141 -21 182 -14 33 -44 47 -46 22z"/>
<path d="M1160 468 c-18 -29 -37 -83 -46 -128 -26 -128 -25 -146 13 -153 28
-5 51 22 58 69 2 16 9 47 14 69 5 22 12 68 15 101 5 51 4 63 -10 68 -23 9 -22
9 -44 -26z"/>
<path d="M1536 459 c-9 -16 -25 -77 -35 -137 -16 -93 -18 -128 -12 -188 0 -7
8 -14 16 -18 44 -16 64 31 81 186 10 101 13 153 9 168 -8 26 -40 20 -59 -11z"/>
<path d="M3619 473 c-34 -9 -43 -124 -25 -303 10 -92 12 -97 60 -113 l44 -15
11 41 c11 42 10 79 -2 107 -4 8 -9 47 -12 85 -3 39 -8 94 -10 123 -5 72 -19
88 -66 75z"/>
<path d="M4013 472 c-31 -5 -29 -24 7 -119 17 -42 30 -83 30 -90 0 -7 5 -13
11 -13 5 0 8 -3 5 -8 -2 -4 8 -30 23 -57 23 -42 33 -51 59 -53 18 -2 32 -1 32
2 0 23 -23 106 -30 106 -6 0 -18 26 -24 52 0 3 -4 10 -8 14 -5 4 -8 15 -8 25
0 19 -56 136 -68 142 -4 2 -17 1 -29 -1z"/>
<path d="M3033 462 c-23 -15 -31 -60 -32 -195 -2 -115 1 -138 14 -143 8 -3 12
-10 9 -15 -3 -5 6 -9 20 -9 41 0 41 -5 32 290 -2 72 -13 91 -43 72z"/>
<path d="M2077 453 c-3 -5 -8 -37 -12 -73 -3 -36 -8 -76 -10 -90 -2 -14 -7
-47 -11 -75 -3 -27 -7 -52 -7 -55 -1 -3 4 -15 11 -26 17 -31 58 -28 71 5 23
58 40 231 27 286 -2 11 -5 23 -5 28 -1 4 -14 7 -30 7 -17 0 -32 -3 -34 -7z"/>
<path d="M2487 427 c-18 -22 -20 -39 -22 -200 -1 -105 2 -113 52 -121 28 -5
31 -3 38 27 10 44 10 97 1 199 -7 74 -11 89 -30 101 -20 13 -24 13 -39 -6z"/>
</g>
</svg>
