<?xml version="1.0" standalone="no"?>
<!DOCTYPE svg PUBLIC "-//W3C//DTD SVG 20010904//EN"
 "http://www.w3.org/TR/2001/REC-SVG-20010904/DTD/svg10.dtd">
<svg version="1.0" xmlns="http://www.w3.org/2000/svg"
 width="500.000000pt" height="242.000000pt" viewBox="0 0 500.000000 242.000000"
 preserveAspectRatio="xMidYMid meet">

<g transform="translate(0.000000,242.000000) scale(0.100000,-0.100000)"
fill="#000000" stroke="none">
<path d="M1297 1544 c-8 -8 -109 -14 -322 -18 -145 -4 -228 -10 -262 -21 -7
-3 -13 -13 -13 -24 0 -15 9 -22 34 -27 48 -8 106 -11 106 -3 0 3 14 4 30 1 26
-4 30 -9 30 -34 0 -17 6 -51 14 -77 8 -25 20 -71 25 -101 6 -30 13 -64 16 -75
11 -45 3 -244 -12 -268 -2 -4 -6 -20 -9 -35 -2 -15 -12 -42 -22 -59 -13 -27
-23 -33 -48 -33 -62 0 -129 65 -139 135 -5 38 -10 67 -20 105 -2 8 -4 18 -4
23 -1 4 -7 7 -15 7 -19 0 -25 -31 -21 -97 5 -84 26 -142 60 -169 17 -14 36
-29 44 -36 36 -30 161 -52 161 -28 0 5 3 9 8 9 19 -3 33 2 28 10 -3 5 3 20 14
34 11 14 20 33 20 42 0 9 4 24 9 33 25 48 40 305 22 386 -6 28 -13 60 -15 71
-3 11 -9 40 -15 65 -6 25 -11 55 -11 67 0 21 3 22 38 17 63 -11 147 -8 285 10
10 1 29 14 41 27 19 21 21 28 12 42 -14 18 -58 32 -69 21z"/>
<path d="M2800 1500 c-24 -8 -196 -27 -341 -37 -40 -3 -75 -1 -88 6 -41 23
-84 -32 -51 -65 6 -6 13 -37 16 -70 3 -32 9 -93 15 -134 17 -135 30 -243 34
-287 2 -24 7 -48 10 -53 3 -5 6 -30 7 -54 0 -26 7 -51 14 -57 17 -14 127 -5
132 11 2 5 7 8 11 5 4 -2 25 0 46 6 103 29 168 34 232 18 64 -15 90 -5 85 31
-7 48 -63 79 -147 81 -37 2 -81 -9 -165 -40 -63 -23 -119 -43 -124 -44 -9 -2
-11 8 -20 108 -6 73 -13 121 -21 143 -3 8 9 12 40 12 24 0 47 5 50 10 4 6 21
10 38 9 18 0 43 2 57 6 14 3 37 8 52 10 62 9 85 46 50 78 -28 26 -90 21 -172
-13 -99 -41 -116 -40 -126 8 -11 50 -12 59 -19 117 -3 28 -8 56 -10 63 -2 6 0
12 5 13 43 3 89 1 98 -5 7 -4 12 -4 12 1 0 4 24 9 53 9 28 1 94 4 145 7 138 8
201 48 156 98 -18 20 -34 22 -74 9z"/>
<path d="M1526 1424 c-3 -9 -4 -19 -1 -23 2 -4 7 -48 11 -97 3 -49 8 -92 9
-95 2 -3 5 -73 6 -155 2 -190 5 -213 35 -226 19 -9 28 -8 44 7 11 10 17 22 14
27 -11 18 -13 189 -2 214 l11 24 19 -27 c10 -16 18 -37 18 -49 0 -11 3 -24 7
-28 9 -8 12 -25 19 -106 8 -95 12 -108 36 -116 36 -11 47 17 41 109 -4 82 -32
197 -60 250 -14 28 -70 60 -95 55 -7 -2 -15 16 -20 42 -4 25 -13 70 -20 100
-6 30 -13 62 -14 70 -3 14 -31 40 -45 40 -4 0 -10 -7 -13 -16z"/>
<path d="M3693 1375 c-22 -16 -27 -54 -8 -67 39 -28 74 11 53 58 -13 28 -17
29 -45 9z"/>
<path d="M3959 1201 c-16 -16 -29 -25 -29 -20 0 11 -30 12 -48 0 -10 -6 -11
-22 -2 -75 6 -37 12 -89 15 -114 12 -143 16 -168 33 -180 9 -7 22 -10 30 -7 7
2 10 0 7 -5 -7 -12 5 -13 21 -2 27 18 34 56 34 188 l0 137 23 -29 c12 -16 22
-31 22 -34 0 -3 15 -30 33 -61 17 -31 32 -62 32 -68 0 -14 30 -62 45 -74 25
-18 56 -19 69 -2 14 19 10 55 -5 55 -5 0 -9 5 -9 11 0 5 -11 35 -25 65 -14 30
-25 58 -25 63 0 5 -7 14 -15 21 -8 7 -15 19 -15 27 0 7 -6 21 -12 29 -85 105
-130 124 -179 75z"/>
<path d="M2967 1189 c-58 -34 -55 -137 8 -340 8 -26 15 -55 15 -66 0 -12 11
-25 27 -32 23 -11 29 -10 40 6 16 21 11 62 -22 199 -12 50 -22 109 -21 130 1
35 4 39 25 36 13 -1 37 -8 55 -16 53 -24 64 -25 76 -11 19 23 6 41 -52 74 -55
32 -116 40 -151 20z"/>
<path d="M1860 1165 c-12 -13 -27 -22 -32 -19 -5 3 -15 1 -22 -5 -13 -11 -13
-38 -1 -99 3 -15 7 -76 10 -135 4 -114 10 -132 50 -140 29 -5 28 -11 26 155
-1 66 2 119 7 122 8 5 31 -62 34 -99 0 -5 9 -31 19 -57 10 -27 17 -48 14 -48
-8 0 44 -97 58 -108 20 -17 68 7 61 30 -3 10 -7 30 -10 44 -3 15 -14 45 -24
67 -11 23 -20 47 -20 55 0 20 -40 162 -57 199 -15 35 -48 63 -73 63 -9 0 -27
-11 -40 -25z"/>
<path d="M3538 1160 c-15 -17 -17 -36 -12 -137 2 -65 7 -127 9 -138 2 -12 1
-34 -3 -50 l-8 -29 -17 36 c-14 29 -33 91 -48 158 -2 8 -16 23 -31 33 -25 17
-29 17 -43 4 -8 -9 -15 -22 -15 -31 0 -8 -4 -18 -10 -21 -5 -3 -10 -1 -10 5 0
6 -12 42 -27 81 -21 54 -33 71 -51 76 -15 3 -28 1 -33 -8 -10 -15 -3 -77 11
-94 7 -9 23 -68 21 -80 -1 -3 6 -21 14 -41 8 -20 15 -46 15 -57 0 -24 28 -105
43 -124 24 -32 69 -3 83 51 l7 29 22 -25 c31 -36 75 -57 100 -48 25 9 48 36
51 58 1 10 7 46 13 81 9 60 8 158 -2 225 -4 25 -39 65 -57 66 -3 0 -13 -9 -22
-20z"/>
<path d="M3714 1148 c-8 -12 -6 -272 2 -299 6 -21 36 -29 58 -17 15 9 17 20
11 77 -3 36 -8 91 -9 121 -1 30 -8 65 -14 76 -6 12 -9 23 -7 26 2 2 -4 9 -15
16 -14 9 -21 9 -26 0z"/>
<path d="M1262 1137 c-34 -10 -78 -60 -68 -76 3 -5 0 -23 -7 -40 -22 -51 -6
-151 29 -191 36 -41 80 -60 139 -60 37 0 52 6 75 28 46 43 59 78 55 143 -4 60
-44 139 -71 139 -8 0 -14 6 -14 13 0 8 -19 20 -42 27 -24 8 -47 17 -53 20 -5
4 -25 2 -43 -3z m73 -153 c14 -14 25 -29 25 -34 0 -6 3 -10 8 -10 4 0 8 -13 9
-30 4 -59 -72 -66 -106 -9 -17 28 -19 72 -6 107 7 18 39 7 70 -24z"/>
</g>
</svg>
