<?xml version="1.0" standalone="no"?>
<!DOCTYPE svg PUBLIC "-//W3C//DTD SVG 20010904//EN"
 "http://www.w3.org/TR/2001/REC-SVG-20010904/DTD/svg10.dtd">
<svg version="1.0" xmlns="http://www.w3.org/2000/svg"
 width="2388.000000pt" height="1668.000000pt" viewBox="0 0 2388.000000 1668.000000"
 preserveAspectRatio="xMidYMid meet">

<g transform="translate(0.000000,1668.000000) scale(0.100000,-0.100000)"
fill="#000000" stroke="none">
<path d="M6987 15103 c-1 -1 -31 -4 -67 -8 -36 -3 -89 -12 -119 -20 -30 -8
-58 -12 -62 -9 -4 2 -9 0 -11 -6 -2 -6 -27 -13 -56 -17 -28 -3 -52 -10 -52
-15 0 -6 -7 -8 -15 -4 -8 3 -15 1 -15 -4 0 -5 -12 -12 -27 -15 -29 -6 -124
-46 -133 -55 -3 -3 -14 -6 -25 -8 -31 -5 -105 -43 -105 -53 0 -6 -5 -7 -11 -4
-5 4 -18 0 -27 -8 -9 -8 -46 -25 -82 -37 -36 -12 -72 -28 -80 -35 -8 -7 -52
-27 -97 -45 -46 -18 -83 -36 -83 -41 0 -5 -3 -8 -7 -7 -31 8 -273 -127 -339
-189 -29 -26 -67 -59 -85 -73 -19 -14 -44 -35 -57 -47 -13 -13 -27 -23 -32
-23 -6 0 -10 -4 -10 -8 0 -11 -66 -78 -185 -187 -53 -49 -103 -96 -109 -103
-6 -7 -26 -27 -45 -45 -58 -55 -61 -58 -61 -68 0 -5 -5 -9 -10 -9 -15 0 -100
-87 -93 -94 4 -3 1 -6 -5 -6 -14 0 -87 -78 -87 -93 0 -6 -15 -26 -32 -44 -18
-18 -33 -37 -33 -43 0 -5 -13 -22 -29 -37 -15 -16 -26 -34 -23 -42 2 -8 0 -11
-6 -7 -5 3 -23 -11 -38 -32 -16 -20 -37 -46 -47 -57 -10 -11 -20 -30 -23 -42
-4 -13 -10 -21 -14 -18 -5 3 -19 -9 -31 -27 -13 -18 -27 -34 -31 -36 -4 -2 -5
-9 -2 -16 3 -7 -7 -18 -21 -24 -21 -10 -31 -24 -23 -34 1 -2 -13 -17 -30 -35
-18 -17 -32 -41 -32 -52 0 -11 -6 -24 -14 -28 -12 -7 -49 -70 -57 -98 -1 -5
-8 -21 -15 -34 -7 -14 -11 -28 -8 -33 3 -4 0 -8 -7 -8 -7 0 -10 -3 -6 -6 3 -3
-6 -26 -19 -50 -14 -25 -22 -49 -18 -55 3 -6 -4 -17 -15 -26 -12 -8 -20 -20
-18 -26 3 -7 -4 -27 -15 -44 -11 -18 -17 -37 -13 -43 3 -5 2 -10 -3 -10 -8 0
-39 -61 -48 -92 -1 -5 -2 -9 -3 -10 -2 -2 -4 -14 -7 -27 -2 -14 -8 -29 -12
-35 -4 -6 -7 -22 -7 -36 0 -14 -6 -29 -13 -35 -7 -5 -14 -20 -17 -32 -3 -13
-7 -32 -9 -43 -3 -11 -8 -26 -13 -33 -4 -6 -8 -23 -9 -37 0 -14 -4 -32 -7 -40
-3 -8 -8 -35 -11 -60 -3 -25 -8 -56 -11 -70 -4 -14 -8 -35 -10 -47 -2 -13 -7
-42 -11 -65 -4 -24 -8 -86 -8 -138 -1 -52 -4 -99 -7 -105 -4 -5 -6 -48 -4 -95
1 -47 -1 -89 -4 -95 -8 -15 -10 -35 -3 -35 4 0 7 -36 7 -80 0 -44 -4 -80 -8
-80 -5 0 -5 -4 -2 -10 6 -10 11 -41 20 -117 3 -28 1 -43 -7 -43 -6 0 -2 -8 10
-18 15 -13 18 -22 11 -35 -8 -13 -6 -17 7 -17 12 0 15 -6 12 -25 -3 -14 -1
-25 3 -25 5 0 8 -3 8 -7 -4 -26 2 -43 14 -37 9 5 9 4 0 -6 -9 -10 -8 -16 3
-27 8 -8 12 -19 9 -24 -4 -5 -1 -9 5 -9 6 0 11 -10 10 -22 -4 -43 0 -58 15
-58 18 0 20 -20 3 -20 -8 -1 -5 -6 6 -15 11 -8 15 -19 10 -27 -4 -7 -4 -10 0
-6 11 10 48 -31 42 -47 -2 -7 2 -16 10 -19 9 -3 13 -10 9 -15 -3 -5 -1 -12 4
-16 6 -3 7 -13 4 -22 -4 -11 -3 -14 5 -9 7 4 12 2 12 -4 0 -6 4 -9 8 -6 11 7
36 -39 29 -51 -3 -5 -1 -15 5 -23 8 -12 9 -11 4 5 l-6 20 15 -20 c8 -11 19
-25 25 -32 5 -7 10 -17 10 -23 0 -5 5 -10 10 -10 6 0 10 -4 10 -10 0 -5 -8 -7
-17 -4 -10 2 -8 -1 5 -7 12 -7 32 -27 43 -46 11 -18 25 -33 30 -33 6 0 8 -4 5
-8 -3 -5 6 -16 19 -26 14 -10 22 -22 19 -27 -3 -5 2 -9 11 -9 9 0 13 -5 10
-11 -4 -6 2 -13 14 -16 12 -3 24 -16 27 -29 4 -16 13 -24 28 -24 16 0 18 -2 7
-9 -11 -7 -9 -10 7 -16 12 -3 29 -19 39 -36 10 -16 22 -28 28 -26 5 2 23 -11
39 -29 16 -18 34 -31 39 -27 6 3 7 2 4 -4 -7 -12 28 -43 49 -43 10 0 14 -5 10
-16 -3 -8 -2 -12 4 -9 6 3 10 -1 10 -10 0 -9 5 -15 12 -13 11 4 64 -42 61 -53
-1 -4 11 -12 28 -19 16 -7 39 -25 50 -41 11 -15 28 -31 39 -34 11 -4 20 -13
20 -20 0 -8 11 -17 25 -21 14 -3 25 -12 25 -20 0 -8 7 -14 15 -14 8 0 15 -4
15 -9 0 -5 14 -12 30 -16 18 -4 27 -11 24 -17 -5 -7 0 -9 13 -6 15 4 24 -1 32
-18 10 -22 26 -29 58 -25 7 1 18 -7 25 -19 8 -12 23 -20 40 -20 18 0 28 -5 28
-15 0 -8 3 -14 8 -13 15 4 52 -14 47 -23 -6 -8 8 -13 28 -10 16 3 77 -29 77
-40 0 -6 8 -9 20 -6 14 4 20 0 20 -11 0 -15 2 -15 10 -2 8 12 10 12 10 -5 0
-17 2 -17 10 -5 8 12 12 13 19 2 4 -8 11 -13 15 -13 3 1 7 1 9 0 19 -6 47 -11
69 -11 23 -1 26 -4 15 -17 -8 -10 -8 -13 0 -8 6 4 14 1 16 -5 4 -10 6 -10 6 0
1 17 41 15 41 -3 0 -11 5 -12 26 -5 16 7 23 7 19 0 -3 -6 2 -10 12 -10 11 0
27 -6 38 -14 10 -7 31 -12 47 -10 15 2 28 0 28 -5 0 -4 21 -9 48 -9 61 -1 82
-5 92 -21 6 -11 8 -11 12 0 3 8 11 10 24 4 19 -8 66 -14 112 -15 13 0 21 -4
18 -8 -5 -8 18 -12 72 -12 17 1 32 -4 32 -9 0 -5 9 -7 20 -4 11 3 20 0 20 -6
0 -6 3 -10 8 -10 29 5 72 -3 67 -11 -4 -7 2 -9 19 -4 13 3 31 2 38 -2 7 -5 22
-10 33 -11 11 -2 27 -6 35 -10 8 -3 21 -5 28 -4 8 1 19 -3 27 -9 9 -7 15 -8
19 -1 4 6 13 8 21 5 8 -4 13 -9 11 -13 -3 -4 4 -7 15 -7 10 0 19 4 19 9 0 4 6
5 13 0 6 -4 20 -6 30 -5 9 2 17 -1 17 -5 0 -5 14 -8 30 -7 17 1 33 -2 36 -7 3
-5 10 -6 16 -2 11 6 44 6 120 2 15 -1 26 -4 24 -8 -3 -4 36 -7 86 -6 49 0 92
-3 94 -7 3 -4 15 -4 27 0 32 10 68 7 100 -8 22 -11 33 -11 46 -3 12 7 31 9 52
4 19 -4 43 -5 54 -1 11 4 33 4 50 0 24 -5 125 -5 230 1 6 0 25 -2 43 -5 17 -3
32 -1 32 4 0 4 12 6 28 3 23 -4 187 -6 232 -3 18 1 111 1 160 0 19 -1 38 -6
42 -13 5 -9 8 -9 8 -1 0 12 90 11 110 -1 6 -3 10 -1 10 5 0 7 12 9 30 6 16 -2
32 -1 35 3 2 5 25 6 50 4 28 -3 51 0 60 7 13 11 105 19 253 23 17 0 32 4 32 8
0 5 6 6 13 3 8 -3 20 2 27 10 7 9 16 14 20 11 16 -10 84 -14 94 -7 6 5 24 9
40 10 16 1 34 6 41 12 7 6 15 6 23 -2 8 -8 13 -8 17 4 4 9 17 14 38 13 18 -2
40 4 50 13 9 8 17 10 17 5 0 -9 83 -11 100 -3 3 2 19 4 35 5 17 2 32 4 35 5 3
1 46 3 95 5 95 3 120 7 131 18 4 4 13 2 20 -4 9 -7 19 -7 32 0 11 6 36 8 56 4
21 -3 36 -1 36 4 0 5 14 9 30 8 17 -1 33 2 36 7 3 5 19 6 35 3 16 -4 34 -3 41
1 12 7 63 12 201 18 32 1 62 6 65 12 4 5 27 10 51 11 24 2 50 8 57 14 8 6 20
9 29 6 8 -4 17 -2 20 2 2 5 28 8 57 6 29 -1 58 1 63 4 6 3 15 6 22 7 34 5 89
29 96 41 6 10 12 11 22 3 9 -8 23 -7 51 4 55 20 89 31 169 57 39 12 76 26 83
32 6 5 12 6 12 2 0 -5 8 -1 18 8 10 9 33 20 50 23 18 4 35 11 38 15 3 5 13 9
23 9 9 0 27 9 39 20 12 11 28 20 35 20 8 0 20 7 27 15 7 8 18 15 26 15 7 0 23
4 36 9 13 5 25 8 28 7 3 0 18 7 33 17 15 10 32 15 36 12 5 -3 15 0 23 7 7 7
22 15 33 16 11 2 25 7 30 12 6 4 42 20 80 35 39 14 79 30 90 35 11 5 30 12 43
15 12 4 22 10 22 15 0 5 13 11 29 15 16 3 35 13 42 21 6 8 18 14 25 14 8 0 22
8 33 19 10 10 36 24 57 31 22 7 44 17 51 22 6 5 17 8 25 6 7 -1 33 7 58 19
164 78 182 84 204 69 43 -31 56 -44 56 -56 0 -9 4 -9 13 -2 8 7 20 3 42 -14
17 -13 24 -24 17 -24 -8 0 -5 -8 8 -22 11 -12 20 -25 20 -29 0 -12 66 -79 77
-79 6 0 18 -9 28 -20 10 -11 26 -19 35 -18 9 2 24 -3 34 -11 14 -12 19 -11 34
3 23 20 29 20 35 -1 4 -17 5 -17 6 0 1 19 17 23 23 7 4 -14 69 12 88 34 7 9
22 16 34 16 12 0 33 11 48 25 15 14 34 25 42 25 9 0 28 14 43 30 14 17 35 30
45 30 10 0 18 5 18 10 0 6 5 10 10 10 6 0 10 -10 10 -22 0 -13 7 -36 15 -52 8
-15 15 -35 15 -43 0 -24 44 -113 56 -113 7 0 15 -12 18 -26 9 -33 41 -68 55
-60 7 4 8 1 5 -8 -4 -11 0 -16 10 -16 9 0 16 -6 16 -12 0 -13 107 -118 120
-118 4 0 18 -9 32 -19 15 -13 33 -18 46 -14 15 3 22 1 22 -9 0 -15 50 -17 83
-3 10 4 23 2 31 -4 14 -12 207 -12 201 -1 -7 12 11 27 38 34 19 4 27 2 27 -6
1 -7 9 -3 19 10 11 12 25 22 33 22 8 0 20 6 26 12 10 10 17 10 32 1 16 -11 19
-9 22 9 2 12 9 23 16 26 10 3 12 -9 6 -57 -6 -58 -5 -61 15 -61 11 0 21 -4 21
-10 0 -5 11 -10 25 -10 14 0 25 -4 25 -9 0 -5 17 -15 38 -22 52 -16 62 -27 62
-65 0 -18 4 -35 9 -38 5 -4 19 -27 32 -54 12 -26 29 -55 38 -66 14 -15 27 -96
31 -188 1 -10 5 -20 11 -23 5 -4 9 -14 9 -23 0 -9 14 -23 30 -30 18 -8 30 -21
30 -32 0 -13 6 -17 18 -13 25 6 68 -40 76 -81 4 -21 19 -43 42 -62 19 -16 47
-39 60 -51 14 -13 32 -23 40 -23 7 0 14 -6 14 -14 0 -28 95 -47 118 -24 9 9
12 8 12 -4 0 -14 7 -16 38 -11 20 3 43 10 50 16 8 6 12 6 12 -2 0 -6 6 -11 14
-11 8 0 16 -6 19 -14 9 -22 55 -25 81 -5 28 22 36 24 36 6 0 -14 -38 -58 -70
-80 -12 -8 -22 -21 -24 -29 -1 -8 -36 -49 -79 -92 -42 -42 -77 -83 -77 -90 0
-8 -7 -16 -15 -20 -8 -3 -15 -13 -15 -22 0 -10 -5 -14 -15 -10 -10 3 -15 -1
-15 -13 0 -10 -7 -24 -15 -31 -8 -7 -15 -21 -15 -31 0 -11 -6 -19 -13 -19 -16
0 -77 -62 -77 -78 0 -7 -6 -12 -14 -12 -7 0 -20 -7 -27 -16 -11 -13 -29 -15
-104 -12 -74 4 -104 1 -156 -16 -35 -12 -75 -29 -89 -39 -13 -9 -32 -17 -42
-17 -20 0 -58 -34 -58 -51 0 -5 -5 -7 -11 -4 -6 4 -21 -3 -34 -15 l-24 -23 0
153 c0 115 -3 155 -12 161 -11 6 -10 9 2 14 12 4 14 23 12 93 -1 48 -3 253 -4
456 -1 270 2 370 10 376 9 5 8 10 -4 20 -8 7 -15 20 -15 29 -1 22 -52 79 -86
97 -26 14 -29 13 -44 -4 -14 -19 -35 -20 -315 -27 -165 -4 -358 -9 -430 -10
-71 -2 -211 -5 -310 -6 -99 -1 -185 -6 -192 -11 -7 -6 -65 -8 -137 -5 -68 3
-127 2 -131 -1 -3 -4 -39 -7 -78 -8 -366 -6 -824 -17 -846 -19 -14 -2 -115 -4
-224 -6 -109 -2 -200 -6 -202 -10 -3 -3 -77 -5 -166 -3 -89 2 -167 0 -173 -4
-13 -8 -44 -10 -273 -12 -94 -1 -176 1 -182 5 -6 3 -11 2 -11 -3 0 -5 -21 -8
-47 -8 -66 0 -756 -16 -818 -19 -27 -2 -111 -4 -185 -5 -74 -1 -141 -7 -147
-13 -9 -6 -13 -6 -13 3 0 10 -3 10 -15 0 -12 -10 -15 -10 -15 0 0 10 -3 10
-15 0 -11 -9 -52 -11 -150 -8 -75 3 -138 1 -141 -4 -3 -4 -11 -5 -17 -1 -18
11 -51 12 -64 1 -7 -6 -19 -5 -32 2 -13 6 -21 7 -21 1 0 -11 -59 -10 -77 2 -6
4 -13 3 -15 -2 -1 -5 -109 -11 -238 -15 -129 -3 -325 -9 -435 -12 -110 -3
-227 -7 -260 -8 -33 -1 -66 -5 -73 -10 -7 -4 -19 -2 -27 4 -8 7 -15 8 -15 3 0
-6 -31 -10 -69 -10 -38 -1 -75 -4 -81 -8 -6 -4 -17 -2 -23 4 -12 12 -50 15
-61 4 -10 -10 -15 -10 -258 -18 -123 -3 -230 -8 -239 -11 -10 -3 -21 9 -33 36
-15 35 -21 40 -51 40 -27 0 -39 -7 -59 -33 -15 -19 -26 -41 -26 -50 0 -11 -8
-17 -24 -17 -52 0 -43 -39 10 -43 24 -2 29 -7 29 -27 0 -14 -2 -29 -5 -35 -8
-17 -6 -55 3 -55 5 0 4 -7 -3 -15 -7 -8 -9 -15 -4 -15 5 0 10 -50 11 -110 2
-66 -1 -110 -7 -110 -11 0 -8 -49 4 -69 4 -6 5 -24 1 -39 -4 -15 -9 -219 -10
-453 -1 -234 -5 -430 -8 -435 -7 -12 -3 -66 6 -81 4 -6 3 -14 -3 -18 -14 -9
-13 -148 2 -163 8 -8 9 -12 1 -12 -15 0 -16 -197 -1 -206 7 -5 7 -9 -1 -13 -7
-5 -11 -140 -11 -448 0 -242 -3 -443 -7 -446 -3 -4 -13 -2 -22 2 -9 5 -195 11
-413 14 -219 3 -401 8 -406 11 -5 3 -230 6 -501 7 -270 1 -493 5 -496 9 -6 9
-216 7 -232 -3 -6 -4 -14 -3 -17 2 -3 4 -238 9 -528 10 -327 1 -527 6 -534 12
-8 7 -14 6 -19 -1 -8 -13 -102 -13 -110 0 -4 7 -12 7 -24 0 -10 -5 -21 -7 -24
-4 -5 6 -130 9 -827 19 -677 10 -883 14 -955 19 -58 4 -440 9 -497 7 -10 -1
-18 -7 -18 -15 0 -8 -6 -16 -12 -18 -8 -3 -3 -10 12 -18 14 -7 29 -19 33 -27
5 -7 13 -11 18 -8 5 4 78 6 162 6 271 -2 772 -8 782 -11 6 -1 12 -2 15 0 17 6
65 8 74 3 17 -11 80 -11 93 0 9 6 17 6 25 -1 7 -5 51 -10 98 -10 418 1 630 -5
630 -15 0 -8 3 -8 9 1 6 10 36 12 127 9 65 -2 127 -8 136 -12 9 -4 23 -3 30 1
19 12 78 16 78 5 0 -11 67 -8 94 4 13 6 21 5 24 -4 3 -9 7 -9 17 -1 10 8 19 8
33 -1 16 -10 23 -10 35 0 12 9 16 9 21 -1 5 -10 7 -10 12 0 3 6 9 10 14 7 19
-12 91 -14 443 -15 255 -1 367 -4 367 -12 0 -7 5 -6 15 2 8 7 22 9 31 6 9 -3
219 -9 467 -11 248 -3 453 -7 455 -10 4 -4 49 -4 815 -8 l469 -2 2 -757 c2
-536 6 -761 14 -770 12 -16 19 -169 7 -188 -4 -7 -8 -54 -9 -105 -1 -63 -6
-98 -16 -110 -12 -14 -12 -18 0 -25 11 -7 11 -12 2 -22 -8 -10 -8 -18 -1 -25
8 -8 8 -13 0 -17 -6 -4 -11 -26 -11 -50 0 -32 6 -48 23 -64 28 -26 35 -27 59
-5 16 14 24 15 66 4 74 -20 131 -24 146 -12 10 9 16 9 21 1 9 -14 324 -11 343
3 8 7 20 6 35 -1 15 -8 101 -11 287 -8 146 3 321 6 390 7 69 1 131 6 138 11 6
6 12 6 12 1 0 -4 27 -9 60 -10 37 -1 60 2 60 9 0 7 4 7 13 1 13 -11 333 -9
366 2 11 3 22 1 26 -4 3 -6 21 -9 40 -6 35 4 733 20 794 17 19 0 43 4 53 9 13
7 18 6 18 -2 0 -8 4 -8 15 1 10 9 15 9 15 1 0 -15 33 -14 48 1 9 9 17 8 37 -2
20 -10 28 -11 37 -2 14 14 107 16 142 2 15 -5 28 -6 31 0 3 5 37 7 75 4 51 -4
70 -2 70 6 0 9 4 9 13 2 12 -10 64 -9 74 2 4 3 12 1 18 -4 13 -11 50 -9 61 3
11 11 49 8 62 -5 8 -8 15 -8 24 -1 8 7 86 12 198 13 102 1 229 3 283 4 66 2
97 0 97 -8 0 -7 3 -7 8 -1 9 13 152 15 152 2 0 -6 4 -6 13 1 7 5 84 10 176 11
91 0 173 4 184 7 11 4 23 1 28 -7 6 -10 15 -10 43 -2 23 7 38 8 42 1 3 -5 13
-6 23 -2 25 11 150 13 157 3 4 -6 10 -6 18 0 7 6 26 10 42 9 76 -3 782 13 806
18 24 5 27 3 22 -13 -4 -12 -3 -14 3 -5 10 13 26 14 863 28 223 4 425 7 449 6
29 -1 53 5 71 18 16 11 33 20 39 20 6 0 19 4 29 9 9 5 36 19 59 30 61 29 85
43 116 69 16 12 35 22 42 22 7 0 15 3 17 8 4 10 65 52 75 52 5 0 23 14 41 30
18 17 39 30 46 30 7 0 21 9 31 20 10 12 25 18 32 16 7 -3 13 1 13 10 0 8 8 18
18 21 9 4 31 17 48 30 17 13 34 23 38 23 4 0 26 16 49 35 22 19 46 34 52 33 6
-2 28 14 49 34 23 22 49 38 63 38 14 0 23 6 23 15 0 8 7 15 15 15 8 0 15 5 15
10 0 6 7 10 15 10 8 0 15 7 15 15 0 8 8 15 19 15 10 0 24 7 31 15 6 8 32 26
56 40 24 14 44 30 44 35 0 6 9 10 20 10 11 0 20 7 20 15 0 8 7 15 15 15 8 0
15 7 15 16 0 13 3 14 14 5 8 -7 16 -8 18 -4 6 15 106 93 119 93 8 0 27 14 43
30 16 17 33 30 38 30 5 0 19 9 31 20 12 12 32 23 44 26 12 3 25 15 28 25 4 10
14 19 23 19 9 0 32 16 51 35 19 19 39 35 46 35 7 0 32 17 56 39 24 21 53 41
65 45 11 3 35 20 52 38 18 17 35 28 38 25 3 -3 14 3 25 14 10 10 26 19 34 19
8 0 15 6 15 14 0 7 15 17 33 22 48 14 87 95 87 184 0 36 6 89 14 116 8 27 15
92 15 145 1 82 -2 101 -19 122 l-20 25 -228 -3 c-291 -4 -514 -15 -528 -26 -6
-5 -27 -9 -45 -8 -19 1 -104 -1 -189 -4 -85 -4 -148 -4 -140 0 28 12 52 42 54
67 0 14 7 26 14 26 6 0 12 8 12 18 0 9 14 30 30 46 19 19 30 39 30 58 0 15 4
28 8 28 5 0 19 20 32 44 12 25 29 47 36 50 8 3 14 14 14 25 0 11 5 23 11 26
15 10 332 11 347 1 7 -4 19 -3 26 4 11 8 15 8 18 -1 3 -8 9 -9 18 -4 22 14 64
15 71 3 6 -9 11 -9 21 0 16 13 78 12 78 -1 0 -5 6 -5 12 -1 19 12 48 12 48 0
0 -6 5 -5 12 2 15 15 254 17 263 2 5 -8 11 -8 20 0 9 7 43 9 97 6 197 -13 727
-9 745 5 7 6 18 7 25 3 13 -9 347 -8 1423 0 396 3 795 6 887 7 91 1 171 -2
176 -5 6 -3 14 -2 17 4 5 8 11 7 22 -1 12 -10 17 -10 25 2 7 11 11 11 15 2 6
-16 45 -17 61 -1 8 8 15 8 27 -2 12 -10 18 -10 30 0 12 10 18 10 30 0 12 -10
18 -10 30 0 12 10 18 10 30 0 10 -8 19 -9 28 -2 14 11 46 10 65 -2 7 -4 18 -3
25 2 13 10 42 9 70 -3 11 -4 29 -2 43 6 21 11 27 11 33 0 6 -9 11 -10 15 -2 9
14 59 14 74 -1 8 -8 15 -8 27 2 11 9 38 11 103 6 103 -8 830 -8 843 0 13 8 11
58 -3 72 -14 14 -94 16 -103 3 -5 -10 -43 -9 -60 0 -6 3 -46 5 -90 3 -187 -5
-2076 -18 -2837 -18 -464 -1 -828 -5 -828 -10 0 -5 -6 -4 -12 2 -15 12 -147
11 -165 -1 -8 -5 -13 -4 -13 2 0 15 -33 14 -48 -1 -9 -9 -12 -9 -12 1 0 7 -4
10 -9 6 -5 -3 -390 -7 -856 -9 -793 -3 -845 -2 -831 13 9 10 17 32 19 50 2 17
9 37 15 43 7 7 12 22 12 34 0 13 5 26 10 29 6 4 8 10 5 15 -3 5 -1 11 3 14 5
3 7 17 4 31 -2 14 1 31 7 39 15 18 22 48 28 111 3 28 9 55 14 60 7 9 24 211
22 255 -1 8 -3 68 -5 132 -3 69 -9 123 -16 131 -7 8 -14 32 -17 53 -3 33 -12
73 -25 119 -1 6 -6 20 -11 33 -5 13 -9 29 -9 36 0 7 -9 21 -20 31 -11 10 -19
23 -17 29 2 6 -9 27 -24 47 -16 20 -29 48 -29 61 0 25 -27 58 -48 58 -7 0 -12
9 -12 19 0 12 -12 24 -29 32 -32 14 -45 43 -31 68 4 9 27 34 49 56 22 22 41
47 41 56 0 8 20 30 45 49 25 19 45 39 45 46 0 7 9 16 21 19 11 4 18 13 15 20
-2 7 11 28 30 47 18 18 34 38 34 43 0 6 16 21 36 35 20 13 43 35 52 48 11 18
17 20 23 10 6 -9 9 -7 9 8 0 12 7 27 15 34 8 7 15 19 15 26 0 8 7 14 15 14 21
0 185 170 185 192 0 21 11 23 28 6 9 -9 12 -8 12 8 0 18 33 58 78 94 10 8 33
28 50 44 l32 30 -6 -45 c-11 -89 -11 -103 -2 -139 5 -20 27 -57 49 -81 43 -48
46 -57 25 -65 -8 -3 -27 -22 -42 -41 -30 -40 -34 -85 -10 -112 9 -10 16 -29
16 -44 0 -20 8 -30 35 -43 19 -9 35 -24 35 -33 0 -9 14 -22 33 -29 17 -7 45
-20 61 -28 20 -10 32 -12 40 -4 16 16 46 12 46 -6 0 -11 6 -15 20 -11 10 3 21
0 24 -7 3 -8 7 -7 14 3 6 8 21 12 41 9 25 -4 31 -1 31 14 0 15 6 19 29 16 16
-1 36 4 45 11 10 9 16 10 16 2 0 -6 14 -10 35 -8 19 1 35 7 35 12 0 6 10 15
23 20 13 6 23 21 25 37 2 18 13 31 35 41 17 9 35 13 40 10 4 -3 14 1 20 9 24
28 106 88 121 88 8 0 17 4 20 8 3 5 31 14 63 21 32 7 63 17 69 22 7 6 24 -4
47 -26 40 -39 121 -66 175 -58 30 5 32 4 32 -26 0 -19 -5 -31 -13 -31 -8 0
-24 -12 -38 -26 -48 -51 -95 -72 -179 -78 -14 -1 -32 -5 -41 -10 -9 -4 -45 -6
-79 -4 -61 3 -64 4 -71 32 -5 17 -3 35 4 47 6 10 8 21 4 26 -12 12 -80 8 -85
-5 -2 -7 -10 -12 -18 -12 -8 0 -14 -7 -14 -15 0 -8 -7 -15 -15 -15 -16 0 -18
-9 -15 -80 1 -34 6 -49 23 -60 12 -8 36 -29 54 -47 17 -17 47 -35 65 -39 44
-10 101 -12 114 -2 15 10 67 13 82 4 7 -4 12 -2 12 4 0 7 6 10 14 7 8 -3 17
-1 19 6 3 9 8 8 20 -2 15 -12 17 -11 17 4 0 11 5 15 15 11 8 -3 22 2 30 11 25
25 85 63 98 63 7 0 20 8 28 18 34 36 79 63 72 41 -1 -3 11 -20 28 -38 16 -18
29 -36 29 -42 0 -5 14 -9 30 -9 21 0 30 -5 30 -16 0 -13 3 -14 14 -5 7 6 34
14 60 17 31 5 50 13 57 26 6 11 15 18 21 16 6 -2 25 9 42 24 17 15 38 28 48
28 11 0 18 7 18 19 0 10 14 33 30 51 17 18 30 38 30 45 0 7 6 18 13 24 15 12
28 1 60 -51 10 -16 22 -28 28 -28 5 0 19 -9 31 -20 28 -25 83 -36 103 -20 12
10 18 10 30 0 12 -10 19 -10 27 -2 7 7 20 12 29 12 9 0 22 7 29 14 9 12 18 13
38 5 15 -6 59 -11 97 -11 117 -2 135 1 135 17 0 8 6 15 13 15 8 0 22 9 32 20
21 24 38 25 54 6 9 -11 9 -15 -1 -19 -8 -4 -7 -6 5 -6 9 -1 17 -7 17 -14 0 -6
15 -18 33 -26 17 -7 45 -20 61 -27 33 -16 66 -18 66 -5 0 5 12 12 27 16 15 3
33 15 41 26 7 11 17 17 22 14 5 -3 10 5 12 17 2 13 13 27 25 33 13 5 24 22 28
42 3 19 12 33 20 33 10 0 15 10 15 28 0 30 16 52 37 52 10 0 12 -9 7 -36 -8
-44 24 -84 69 -84 20 0 30 -6 34 -20 3 -10 18 -25 34 -32 16 -7 29 -16 29 -20
0 -5 6 -8 13 -8 6 0 25 -7 41 -15 16 -9 31 -13 34 -11 2 3 13 1 24 -5 11 -6
41 -12 66 -14 26 -2 55 -6 64 -10 9 -4 23 -3 30 1 7 5 32 10 55 12 83 7 192
59 240 116 30 35 39 33 48 -10 3 -21 13 -47 22 -60 8 -13 12 -28 8 -33 -3 -6
3 -16 15 -23 11 -7 20 -21 20 -31 0 -10 12 -29 26 -42 15 -14 24 -25 21 -25
-4 0 1 -9 10 -20 10 -11 23 -20 30 -20 7 0 13 -7 13 -15 0 -8 6 -15 14 -15 7
0 25 -9 39 -20 14 -11 37 -20 50 -20 14 0 28 -4 31 -9 8 -13 366 -43 366 -30
0 3 12 4 26 1 14 -2 29 0 33 7 4 6 40 12 84 13 53 2 78 7 82 17 4 10 8 11 19
2 9 -8 16 -8 20 -2 4 5 28 13 54 17 26 4 56 13 68 21 11 7 23 11 26 8 3 -3 39
13 81 35 72 38 79 39 142 33 36 -3 68 -10 71 -14 3 -5 16 -1 30 8 20 13 27 14
33 4 7 -10 17 -10 52 0 24 7 47 13 51 13 4 1 13 7 19 14 7 6 19 12 26 12 7 0
22 9 33 20 11 11 27 20 35 20 8 0 15 5 15 10 0 6 22 33 49 61 52 54 110 149
91 149 -7 0 -39 -20 -71 -45 -33 -25 -62 -45 -65 -45 -8 0 -69 -44 -72 -52 -2
-5 -9 -8 -15 -8 -7 -1 -30 -9 -52 -20 -78 -37 -87 -22 -17 30 41 30 44 35 25
38 -12 2 -32 -3 -45 -11 -13 -8 -48 -22 -78 -32 -30 -10 -68 -24 -85 -30 -24
-10 -50 -10 -125 1 -52 7 -113 13 -135 13 -23 1 -45 5 -50 10 -6 6 -29 12 -53
15 -23 3 -52 12 -64 20 -12 9 -28 16 -35 16 -17 0 -112 57 -145 88 -16 14 -28
32 -28 39 0 7 -4 13 -8 13 -12 0 -62 115 -62 142 0 13 -4 28 -9 33 -10 10 -19
75 -26 177 -2 31 -6 62 -9 67 -4 5 -2 12 3 15 4 3 8 32 7 65 -1 46 2 57 12 49
6 -6 12 -26 12 -44 0 -24 5 -34 15 -34 9 0 15 -9 15 -24 0 -13 16 -44 36 -68
19 -23 42 -51 50 -61 8 -9 14 -20 14 -24 0 -12 94 -93 108 -93 7 0 16 -10 21
-23 10 -25 99 -77 132 -77 11 0 34 -8 52 -17 18 -9 36 -17 40 -18 4 0 12 -6
16 -14 5 -7 14 -10 20 -6 7 4 19 1 27 -6 8 -6 17 -9 21 -5 4 3 16 -3 28 -14
23 -22 75 -30 237 -35 59 -2 112 -6 118 -10 6 -4 16 -3 23 2 7 5 37 10 67 11
30 1 57 7 58 12 3 7 9 7 18 -1 10 -8 14 -8 14 0 0 6 8 11 18 11 9 0 34 9 55
20 42 23 82 14 70 -16 -4 -10 2 -17 16 -21 11 -3 21 -10 21 -17 0 -6 16 -24
35 -39 20 -16 33 -32 30 -37 -3 -4 4 -6 15 -3 14 4 20 0 20 -11 0 -9 5 -16 11
-16 5 0 7 -5 3 -12 -5 -7 -2 -9 9 -5 19 7 67 -14 67 -29 0 -7 17 -12 41 -12
22 -1 52 -8 67 -18 16 -10 49 -18 88 -19 35 -1 70 -7 77 -13 8 -7 16 -9 19 -7
3 3 17 1 32 -4 21 -9 26 -8 26 4 0 18 4 19 31 3 18 -11 23 -10 26 0 4 10 8 10
19 2 10 -9 19 -8 36 4 28 20 48 20 48 1 0 -8 7 -15 15 -15 9 0 12 6 9 15 -6
14 10 19 54 18 6 -1 12 5 12 13 0 8 10 14 23 14 13 0 32 7 43 15 10 8 27 15
37 15 9 0 17 7 17 15 0 8 7 15 16 15 9 0 18 9 21 20 3 11 12 20 19 20 8 0 14
5 14 11 0 7 23 34 51 62 48 47 89 102 89 120 0 13 -28 7 -77 -17 -86 -43 -95
-42 -154 14 -29 27 -56 50 -61 50 -4 0 -8 9 -8 19 0 11 -8 22 -19 26 -28 9
-73 63 -109 134 -18 36 -42 77 -53 92 -10 15 -19 34 -19 42 0 8 -7 20 -15 27
-8 7 -15 19 -15 26 0 8 -3 14 -7 14 -9 0 -43 57 -43 71 0 6 9 20 21 32 12 12
26 34 31 50 6 15 14 27 19 27 5 0 9 14 9 30 0 36 -23 49 -48 27 -9 -8 -30 -19
-47 -23 -16 -4 -36 -11 -42 -17 -7 -5 -13 -6 -13 -1 0 14 126 144 139 144 6 0
11 7 11 15 0 8 7 15 15 15 8 0 15 7 15 15 0 8 4 15 8 15 14 0 62 45 62 58 0 7
7 12 15 12 8 0 15 7 15 15 0 8 5 15 10 15 6 0 13 1 18 2 13 5 62 65 62 77 0 6
7 11 15 11 8 0 15 7 15 15 0 8 6 15 13 15 6 0 20 18 30 40 11 22 25 46 31 53
58 57 145 182 134 192 -7 7 -46 -14 -93 -51 -22 -17 -47 -35 -57 -40 -9 -5
-36 -27 -59 -49 -42 -39 -58 -51 -106 -76 -13 -7 -23 -18 -23 -26 0 -7 -7 -13
-15 -13 -8 0 -15 -4 -15 -10 0 -5 -6 -10 -13 -10 -16 0 -57 -41 -57 -57 0 -6
-11 -13 -23 -17 -13 -3 -50 -30 -82 -61 -32 -30 -61 -55 -64 -55 -2 0 -19 -16
-37 -35 -39 -43 -53 -44 -60 -6 -4 17 -13 32 -21 35 -8 4 -13 13 -10 20 3 8 0
17 -8 19 -7 3 -16 29 -20 57 -4 30 -15 60 -26 71 -10 10 -19 26 -19 34 0 8 -5
15 -12 15 -9 0 -9 3 -1 11 9 9 8 15 -3 26 -8 8 -14 23 -14 34 0 11 -7 19 -16
19 -9 0 -14 6 -11 14 3 7 -3 26 -14 42 -10 16 -16 37 -13 47 3 9 1 17 -5 17
-6 0 -11 6 -11 13 0 6 -6 24 -14 39 -14 27 -11 68 5 68 20 0 7 25 -31 57 -21
19 -37 39 -34 46 2 7 -4 29 -15 50 -11 21 -14 37 -8 37 6 0 0 11 -12 24 -13
14 -20 29 -17 35 7 10 4 17 -30 81 -10 19 -18 37 -17 40 1 7 -6 28 -28 84 -10
27 -19 57 -19 66 0 10 -7 23 -15 30 -8 7 -15 22 -15 34 0 13 -11 33 -24 45
-16 15 -25 37 -29 69 -3 25 -10 48 -16 50 -6 2 -11 9 -11 16 0 6 -9 29 -19 50
-11 21 -23 51 -26 67 -4 16 -13 29 -21 29 -8 0 -14 10 -14 24 0 13 -16 56 -36
95 -20 40 -33 78 -31 86 3 7 -1 19 -9 25 -8 7 -14 18 -14 25 0 7 -6 18 -14 24
-8 7 -17 30 -21 52 -4 21 -11 39 -16 39 -5 0 -9 6 -9 13 0 6 -9 23 -20 37 -11
14 -20 35 -20 46 0 12 -6 27 -14 33 -7 6 -16 29 -20 51 -3 22 -11 40 -16 40
-6 0 -10 11 -10 25 0 13 -7 28 -15 33 -9 4 -17 19 -19 33 -1 14 -6 30 -10 37
-4 7 -5 16 -2 21 3 5 -1 14 -9 21 -8 7 -15 27 -15 45 0 18 -6 38 -14 44 -7 6
-13 30 -13 52 0 23 -5 44 -10 48 -16 10 -22 38 -11 49 8 8 6 16 -6 27 -10 10
-14 25 -11 36 4 13 2 19 -9 19 -9 0 -17 9 -18 23 0 12 -2 27 -2 34 -1 7 -7 18
-14 25 -6 6 -12 20 -12 29 0 10 -7 25 -16 34 -12 12 -13 19 -5 29 8 10 9 16 1
21 -5 3 -10 14 -10 23 0 9 -7 30 -15 46 -8 15 -15 37 -15 48 0 10 -8 36 -19
58 -11 22 -15 44 -10 51 4 7 4 18 0 24 -5 5 -12 30 -15 55 -7 44 -19 79 -37
110 -5 8 -15 26 -21 40 -7 14 -18 29 -25 33 -7 4 -13 20 -13 36 0 15 -7 36
-15 47 -8 10 -15 26 -15 35 0 9 -6 22 -14 28 -7 6 -19 31 -26 55 -7 25 -21 54
-31 65 -10 11 -19 25 -19 30 0 5 -11 18 -25 29 -14 11 -25 27 -25 36 0 9 -9
21 -20 28 -11 7 -20 18 -20 23 0 6 -25 35 -55 65 -30 30 -55 60 -55 67 0 7 -8
13 -18 13 -10 0 -32 13 -48 30 -16 16 -35 30 -42 30 -7 0 -17 12 -22 26 -6 14
-19 28 -30 31 -11 3 -20 12 -20 20 0 11 -4 11 -20 3 -15 -8 -20 -8 -20 2 0 18
-52 65 -85 78 -14 5 -24 13 -22 18 3 4 -14 16 -36 27 -23 11 -53 30 -67 42
-14 13 -29 23 -35 23 -5 0 -37 14 -69 30 -32 17 -66 30 -74 30 -9 0 -23 6 -31
14 -9 8 -29 17 -45 20 -16 3 -33 10 -36 17 -4 6 -29 14 -56 16 -27 3 -53 9
-59 13 -5 4 -41 10 -80 14 -38 4 -74 11 -80 16 -6 5 -51 11 -100 14 -50 3 -91
10 -95 17 -6 8 -9 8 -15 0 -5 -9 -10 -9 -21 0 -10 8 -67 13 -166 15 -144 3
-234 19 -262 45 -6 5 -17 9 -26 9 -9 0 -21 5 -28 12 -6 6 -23 12 -38 14 -14 2
-34 9 -43 17 -9 8 -33 17 -53 21 -21 4 -38 11 -38 16 0 6 -10 10 -22 10 -13 0
-36 7 -53 16 -16 9 -43 18 -60 20 -16 2 -47 9 -67 16 -25 7 -82 9 -170 5 -141
-7 -157 -9 -174 -19 -28 -18 -94 -20 -118 -4 -14 9 -31 16 -38 16 -7 0 -26 7
-41 15 -16 8 -50 17 -78 21 -27 4 -49 11 -49 17 0 5 -7 4 -15 -3 -8 -7 -15 -8
-15 -2 0 5 -48 11 -115 14 -89 3 -118 8 -133 21 -10 9 -26 17 -35 17 -9 0 -18
4 -21 9 -3 5 -22 12 -41 15 -19 4 -35 12 -35 18 0 7 -5 6 -15 -2 -9 -8 -15 -8
-15 -2 0 6 -42 13 -100 18 -55 3 -103 11 -106 15 -3 5 -14 4 -25 -1 -10 -6
-19 -7 -19 -3 0 5 -78 7 -173 6 -134 -1 -179 -5 -202 -17 -17 -9 -51 -16 -77
-16 -26 0 -49 -4 -52 -9 -5 -7 -37 -11 -258 -28 -43 -3 -78 -10 -78 -16 0 -5
-6 -5 -14 2 -10 9 -15 9 -18 1 -2 -6 -22 -14 -46 -17 -23 -3 -42 -9 -42 -13 0
-4 -15 -11 -34 -14 -19 -4 -39 -13 -46 -21 -7 -8 -23 -15 -36 -15 -12 0 -29
-7 -38 -15 -8 -8 -26 -15 -40 -15 -14 0 -28 -4 -31 -10 -9 -14 -104 -60 -126
-60 -10 0 -19 -4 -19 -9 0 -5 -14 -12 -31 -16 -17 -4 -46 -16 -64 -27 -19 -10
-44 -20 -57 -22 -13 -1 -36 -8 -51 -14 -16 -7 -33 -12 -38 -12 -5 0 -9 -4 -9
-10 0 -5 -6 -10 -13 -10 -8 0 -22 -9 -32 -20 -10 -11 -24 -20 -32 -20 -7 0
-13 -4 -13 -9 0 -5 -15 -12 -32 -16 -18 -4 -44 -17 -58 -30 -14 -13 -41 -30
-60 -38 -19 -8 -45 -24 -57 -36 -12 -11 -27 -21 -33 -21 -5 0 -10 -7 -10 -15
0 -8 -6 -15 -13 -15 -7 0 -35 -22 -62 -50 -28 -27 -56 -50 -62 -50 -7 0 -13
-6 -13 -13 0 -16 -91 -107 -108 -107 -7 0 -12 -6 -12 -13 0 -8 -17 -30 -37
-49 -21 -19 -48 -46 -60 -59 -12 -13 -39 -41 -60 -62 -21 -20 -45 -44 -53 -53
-8 -9 -33 -32 -55 -52 -22 -20 -45 -46 -51 -57 -6 -11 -20 -24 -32 -30 -12 -5
-22 -15 -22 -22 0 -7 -20 -34 -45 -60 -24 -26 -45 -54 -45 -61 0 -7 -7 -15
-16 -19 -13 -5 -13 -8 -2 -15 11 -8 11 -10 0 -15 -35 -14 -99 -124 -93 -160 1
-6 -3 -14 -9 -18 -5 -3 -10 -17 -10 -29 0 -13 -7 -29 -15 -36 -8 -7 -15 -20
-15 -29 0 -9 -4 -21 -8 -26 -5 -6 -14 -30 -22 -55 -20 -70 -44 -130 -52 -130
-5 0 -8 -13 -8 -28 0 -15 -4 -32 -9 -37 -6 -6 -15 -37 -21 -70 -6 -33 -15 -85
-21 -115 -5 -30 -14 -59 -19 -65 -4 -5 -11 -46 -14 -89 -3 -44 -9 -82 -14 -85
-5 -3 -12 -27 -16 -53 -4 -25 -14 -52 -21 -58 -8 -7 -15 -20 -15 -30 0 -10 -6
-23 -13 -29 -10 -8 -13 -40 -13 -122 1 -82 -2 -113 -11 -116 -7 -3 -13 -19
-13 -37 0 -17 -7 -41 -15 -53 -8 -11 -18 -47 -21 -79 -4 -33 -10 -63 -14 -69
-4 -5 -11 -34 -14 -64 -4 -30 -11 -60 -16 -66 -5 -7 -12 -44 -14 -84 -3 -47
-11 -79 -20 -90 -9 -10 -16 -29 -16 -44 0 -14 -4 -29 -10 -32 -5 -3 -10 -15
-10 -26 0 -14 -4 -18 -12 -12 -7 4 -15 8 -18 9 -3 1 -20 5 -37 9 -18 4 -33 10
-33 14 0 8 26 90 36 115 6 16 4 17 -16 11 -19 -6 -22 -4 -18 11 11 36 41 119
49 136 13 25 11 48 -3 48 -16 0 -178 -168 -178 -184 0 -7 -7 -27 -16 -44 -17
-34 -44 -41 -64 -17 -7 8 -21 15 -31 15 -10 0 -20 4 -23 9 -3 5 -14 7 -24 4
-10 -2 -24 3 -31 11 -8 9 -23 16 -35 16 -12 0 -29 9 -38 20 -10 11 -30 23 -44
26 -15 4 -43 17 -62 30 -18 13 -42 26 -53 29 -10 4 -19 10 -19 16 0 5 -15 16
-32 24 -33 15 -108 65 -163 107 -53 41 -235 221 -235 232 0 10 -13 28 -60 83
-5 7 -10 15 -10 19 0 4 -8 13 -17 20 -10 7 -18 16 -18 21 -1 4 -9 24 -20 43
-11 19 -20 37 -20 40 -10 38 -19 60 -24 60 -4 0 -8 6 -8 13 0 6 -12 48 -27 92
-14 44 -33 105 -42 135 -9 30 -19 62 -22 70 -3 8 -6 21 -8 29 -1 7 -7 18 -13
24 -6 6 -11 21 -11 33 0 12 -9 43 -20 68 -10 25 -21 62 -23 83 -3 21 -15 66
-26 101 -12 35 -21 69 -20 75 3 22 -13 77 -23 77 -6 0 -8 6 -5 14 3 8 -1 17
-9 20 -8 3 -14 11 -14 19 0 19 -24 67 -33 67 -5 0 -5 4 -2 10 3 5 -6 26 -21
45 -14 19 -22 35 -18 35 5 0 4 4 -2 8 -14 10 -49 84 -46 100 2 6 -1 12 -7 12
-5 0 -13 15 -16 33 -9 37 -41 105 -61 125 -8 7 -14 19 -14 26 0 7 -9 21 -20
31 -11 10 -20 24 -20 32 0 7 -5 13 -10 13 -6 0 -15 11 -20 25 -5 14 -17 28
-25 31 -8 4 -15 12 -15 20 0 8 -4 14 -9 14 -5 0 -28 26 -52 58 -57 76 -105
129 -151 169 -33 28 -78 81 -78 91 0 6 -9 17 -20 25 -11 8 -17 17 -14 20 4 4
-1 9 -10 13 -21 8 -96 82 -96 94 0 6 -7 10 -15 10 -8 0 -15 4 -15 9 0 4 -19
21 -42 36 -24 16 -47 34 -51 42 -4 7 -14 13 -22 13 -8 0 -19 8 -24 18 -6 9
-11 13 -11 7 0 -5 -7 1 -16 13 -8 12 -21 22 -29 22 -8 0 -24 10 -37 23 -13 12
-50 45 -83 71 -32 27 -65 54 -71 60 -7 6 -24 20 -38 31 -15 11 -33 26 -41 33
-7 6 -17 12 -22 12 -5 0 -22 12 -39 28 -16 15 -60 42 -96 60 -37 18 -72 40
-78 48 -7 8 -17 14 -23 14 -6 0 -18 6 -26 13 -9 8 -47 27 -86 42 -38 16 -80
38 -92 49 -13 11 -23 17 -23 13 0 -7 -105 47 -126 64 -7 6 -16 9 -20 8 -20 -3
-35 2 -53 20 -10 10 -45 30 -77 45 -32 15 -67 32 -76 37 -10 5 -26 9 -37 9
-11 0 -21 5 -23 10 -2 6 -13 12 -26 13 -12 0 -22 6 -22 11 0 5 -3 6 -6 3 -4
-3 -16 -1 -28 5 -11 7 -24 11 -29 10 -4 -1 -31 10 -60 24 -69 36 -176 74 -205
74 -13 0 -36 7 -52 15 -17 9 -30 13 -30 9 0 -4 -7 -1 -15 6 -8 7 -22 10 -30 6
-8 -3 -15 -1 -15 4 0 6 -7 10 -14 10 -8 0 -49 15 -90 34 -42 19 -92 37 -113
41 -20 3 -41 9 -47 14 -6 5 -29 12 -51 16 -22 4 -44 10 -50 15 -5 5 -57 18
-115 29 -58 11 -138 27 -178 35 -40 8 -98 18 -130 21 -31 3 -70 8 -85 11 -54
11 -77 11 -77 2 0 -5 -6 -6 -12 -1 -20 12 -57 16 -223 29 -78 6 -773 13 -778
7z m753 -188 c8 0 18 -4 22 -10 5 -6 8 -5 8 3 0 7 5 10 12 6 6 -4 54 -9 107
-10 126 -5 141 -6 141 -17 0 -5 6 -4 13 2 8 6 17 8 20 4 7 -6 33 -10 122 -16
28 -2 59 -7 70 -10 25 -8 91 -19 130 -20 17 -1 33 -6 36 -10 3 -4 26 -9 50
-10 24 -1 50 -8 58 -15 8 -8 22 -11 32 -9 10 3 20 0 22 -6 2 -6 12 -12 23 -14
10 -1 36 -6 57 -9 20 -3 37 -10 37 -15 0 -5 11 -9 24 -9 14 0 31 -7 40 -15 8
-8 19 -15 25 -15 6 0 11 -5 11 -11 0 -5 4 -8 9 -5 5 4 22 1 38 -6 15 -6 31
-11 36 -10 4 1 7 -2 7 -8 0 -5 13 -7 29 -4 16 4 32 1 35 -5 4 -6 17 -11 30
-11 12 0 27 -5 32 -10 10 -10 43 -19 84 -24 8 -1 29 -9 45 -18 17 -8 35 -13
42 -11 6 2 17 -4 25 -14 7 -10 20 -19 28 -20 37 -4 64 -13 70 -24 4 -6 10 -10
14 -10 16 3 55 -12 51 -19 -3 -5 4 -6 15 -3 12 3 29 -2 40 -12 11 -10 20 -15
20 -11 0 3 16 -1 36 -9 20 -8 45 -15 55 -15 10 0 21 -5 25 -12 5 -7 2 -9 -7
-4 -8 4 -3 -1 11 -12 13 -11 28 -18 32 -16 5 3 11 -2 14 -11 4 -9 12 -14 19
-11 7 2 20 -3 29 -13 10 -10 27 -17 41 -15 14 1 23 -2 20 -7 -3 -4 6 -11 20
-15 14 -3 22 -11 18 -17 -4 -6 2 -8 15 -5 15 4 19 2 15 -8 -3 -9 2 -14 16 -14
12 0 21 -5 21 -10 0 -6 3 -9 8 -8 16 4 152 -62 152 -74 0 -5 4 -7 8 -4 5 3 15
-4 22 -15 9 -11 26 -19 44 -19 16 0 26 -3 23 -7 -4 -3 10 -14 31 -23 21 -10
50 -29 64 -43 13 -13 34 -28 46 -31 12 -4 22 -11 22 -16 0 -5 16 -14 35 -21
19 -7 35 -19 35 -26 0 -18 37 -53 56 -53 10 0 14 -6 11 -14 -3 -8 1 -17 9 -20
10 -4 12 -2 8 6 -4 7 -3 8 4 4 7 -4 12 -14 12 -22 0 -8 4 -13 9 -9 5 3 16 -2
24 -10 9 -8 18 -15 21 -15 3 0 30 -25 61 -55 34 -33 61 -52 70 -48 9 3 15 -1
15 -11 0 -9 5 -16 10 -16 6 0 23 -12 37 -27 15 -16 23 -21 19 -13 -4 8 1 5 10
-7 9 -13 22 -23 28 -23 6 0 22 -16 36 -34 14 -19 28 -32 33 -29 4 2 8 -1 8 -6
1 -6 2 -15 3 -19 2 -13 33 -42 46 -42 7 0 9 -8 5 -20 -5 -17 5 -26 19 -17 8 5
56 -55 51 -64 -4 -5 1 -9 10 -9 9 0 14 -4 11 -8 -3 -5 4 -14 14 -22 10 -8 17
-17 14 -22 -3 -4 0 -8 5 -8 14 0 51 -37 51 -50 0 -5 9 -14 20 -20 11 -6 18
-15 16 -19 -3 -5 4 -17 16 -27 12 -11 18 -13 14 -6 -4 6 -5 12 -3 12 2 0 18
-28 36 -63 24 -48 40 -66 64 -75 24 -9 29 -14 19 -24 -16 -16 -15 -28 3 -28
15 0 18 -7 18 -42 0 -10 7 -20 16 -23 18 -5 44 -62 35 -76 -3 -5 0 -9 7 -9 6
0 9 -8 6 -20 -3 -11 0 -18 7 -17 6 1 10 -6 8 -15 -2 -10 1 -18 6 -18 8 0 14
-16 28 -79 1 -7 8 -19 15 -25 9 -8 10 -7 4 4 -5 9 -4 12 1 7 5 -5 8 -12 7 -15
-1 -4 8 -17 19 -29 16 -17 18 -23 7 -23 -10 -1 -9 -4 4 -11 9 -6 15 -14 12
-20 -4 -5 -1 -9 5 -9 6 0 9 -4 6 -9 -3 -5 1 -12 10 -15 9 -3 14 -12 11 -19 -2
-6 3 -17 12 -24 10 -8 12 -12 4 -13 -9 0 -8 -10 5 -37 9 -21 20 -40 23 -43 9
-8 7 -44 -4 -57 -6 -9 -6 -13 2 -13 6 0 10 -3 9 -7 0 -5 6 -25 15 -45 20 -45
22 -68 5 -68 -9 0 -8 -3 2 -9 8 -6 17 -8 21 -5 13 7 18 -23 6 -35 -7 -7 -7
-11 -2 -9 6 2 10 -1 10 -7 0 -5 -4 -9 -10 -7 -5 1 -1 -5 10 -14 11 -8 19 -20
17 -26 -1 -5 2 -16 8 -23 8 -10 7 -14 -2 -18 -9 -4 -6 -12 12 -27 14 -12 19
-19 13 -15 -7 3 -13 2 -13 -4 0 -5 5 -11 11 -13 13 -4 30 -78 23 -100 -3 -10
0 -18 6 -18 8 0 10 -8 7 -21 -4 -15 1 -28 16 -40 12 -10 16 -18 10 -19 -7 0
-13 -11 -13 -25 0 -15 5 -24 13 -22 7 1 13 -11 15 -28 2 -16 11 -34 19 -41 10
-6 14 -18 10 -28 -4 -9 -1 -16 4 -16 6 0 9 -9 6 -20 -3 -10 -2 -18 2 -17 3 1
7 -3 9 -8 2 -6 11 -18 20 -28 13 -14 14 -20 3 -26 -10 -6 -9 -10 4 -15 10 -3
15 -12 11 -21 -3 -10 1 -15 11 -15 9 0 13 -3 10 -7 -4 -3 9 -21 29 -39 20 -18
33 -38 30 -43 -4 -5 3 -12 14 -16 11 -3 20 -12 20 -20 0 -7 7 -16 16 -19 9 -3
14 -12 12 -18 -3 -7 6 -21 19 -31 13 -10 21 -23 17 -28 -3 -5 6 -13 20 -19 14
-5 26 -15 26 -21 0 -7 3 -10 6 -7 9 9 46 -31 39 -43 -4 -5 -1 -8 7 -7 7 2 12
-5 12 -14 -1 -11 5 -18 15 -18 10 0 27 -14 40 -30 12 -17 30 -29 39 -28 9 2
16 -3 15 -9 -2 -7 4 -13 13 -13 8 0 13 -4 10 -9 -6 -9 43 -36 62 -32 6 1 12
-3 12 -9 0 -5 7 -10 15 -10 8 0 15 -4 15 -9 0 -5 9 -13 20 -16 11 -4 17 -11
14 -17 -4 -6 -2 -8 4 -4 6 3 25 -7 43 -24 19 -16 39 -30 46 -30 7 0 13 -6 13
-12 0 -10 3 -9 9 1 5 8 11 9 15 3 3 -6 16 -8 29 -4 19 5 20 3 9 -10 -10 -13
-8 -16 19 -22 16 -3 28 -10 25 -15 -8 -12 20 -22 41 -14 10 4 14 2 9 -5 -4 -7
4 -10 22 -10 32 1 75 -19 67 -32 -3 -4 5 -6 16 -3 13 4 27 0 33 -8 6 -8 22
-15 36 -17 13 -1 27 -6 30 -11 3 -5 18 -9 33 -9 39 1 51 -15 52 -66 1 -39 -2
-44 -36 -63 -25 -14 -42 -17 -53 -11 -9 5 -16 5 -16 0 0 -5 -30 -10 -67 -11
-83 -2 -153 -11 -153 -20 0 -3 -21 -7 -46 -8 -25 0 -50 -5 -56 -11 -6 -6 -17
-8 -24 -5 -8 3 -14 0 -14 -6 0 -6 -13 -11 -29 -11 -17 0 -33 -4 -36 -10 -3 -5
-20 -9 -38 -8 -18 0 -53 -6 -78 -14 l-47 -15 -12 26 -12 26 -20 -39 c-11 -21
-28 -41 -39 -43 -10 -3 -19 -9 -19 -14 0 -5 -8 -9 -18 -9 -10 0 -28 -7 -40
-16 -12 -8 -22 -13 -22 -9 0 3 -22 -6 -50 -20 -27 -14 -56 -25 -65 -25 -8 0
-15 -4 -15 -9 0 -5 -12 -12 -27 -16 -15 -3 -39 -15 -55 -26 -15 -11 -28 -17
-28 -13 0 3 -6 1 -13 -5 -8 -6 -17 -8 -20 -4 -4 3 -15 -1 -24 -10 -10 -8 -35
-18 -55 -22 -21 -4 -38 -11 -38 -15 0 -4 -12 -13 -27 -19 -16 -6 -48 -22 -72
-36 -24 -14 -50 -25 -56 -25 -7 0 -18 -7 -25 -15 -7 -8 -20 -15 -29 -15 -9 0
-36 -10 -61 -22 -25 -11 -54 -23 -65 -25 -26 -4 -67 -25 -80 -40 -5 -6 -31
-13 -56 -16 -48 -6 -129 -42 -129 -59 0 -5 -4 -7 -9 -4 -4 3 -40 -10 -79 -29
-39 -19 -77 -35 -86 -35 -9 0 -16 -4 -16 -10 0 -5 -12 -12 -27 -16 -53 -12
-188 -56 -216 -70 -16 -8 -46 -17 -68 -20 -21 -4 -39 -10 -39 -14 0 -4 -17
-10 -37 -13 -104 -15 -131 -20 -168 -29 -22 -5 -49 -9 -60 -9 -11 1 -54 -4
-95 -10 -76 -12 -105 -14 -243 -23 -43 -2 -85 -10 -93 -17 -11 -9 -21 -9 -39
-1 -14 6 -25 7 -27 2 -3 -10 -174 -21 -320 -21 -49 0 -88 -3 -88 -7 0 -4 -26
-6 -57 -5 -32 1 -62 -2 -68 -6 -5 -4 -27 -7 -47 -6 -21 1 -38 -2 -38 -7 0 -5
-4 -6 -10 -3 -5 3 -36 1 -67 -5 -32 -6 -71 -13 -87 -15 -16 -1 -31 -7 -35 -11
-3 -5 -31 -10 -61 -11 -93 -2 -173 -11 -179 -20 -3 -4 -42 -8 -86 -9 -98 -1
-157 -5 -170 -13 -18 -10 -589 -16 -605 -6 -6 3 -10 3 -10 -2 0 -9 -454 -7
-570 2 -41 3 -133 8 -205 10 -137 5 -197 9 -255 20 -19 4 -46 9 -60 12 -14 2
-45 6 -70 9 -49 4 -83 10 -87 14 -4 3 -5 3 -73 18 -67 15 -87 19 -136 26 -22
4 -52 11 -69 16 -16 5 -52 12 -80 15 -27 3 -59 8 -70 11 -21 4 -75 12 -140 20
-22 3 -65 12 -96 20 -31 8 -65 14 -76 14 -10 0 -35 9 -56 20 -21 11 -59 23
-85 27 -26 3 -53 11 -60 16 -8 6 -23 12 -35 14 -11 2 -26 8 -33 14 -7 5 -25
12 -40 15 -15 3 -39 13 -53 22 -14 10 -45 27 -68 37 -24 11 -43 23 -43 27 0 3
-13 9 -30 13 -16 4 -36 14 -42 24 -7 9 -33 27 -58 40 -60 30 -80 42 -104 67
-12 11 -46 40 -76 63 -30 24 -68 56 -85 73 -62 59 -107 98 -115 98 -4 0 -50
41 -101 90 -51 50 -97 90 -101 90 -4 0 -8 6 -8 13 0 8 -11 20 -25 27 -13 7
-22 17 -20 21 3 4 -4 10 -15 14 -11 3 -20 12 -20 18 0 7 -18 32 -40 56 -22 24
-40 45 -40 48 0 4 -8 16 -68 104 -17 25 -42 70 -56 100 -14 30 -34 67 -45 84
-11 16 -26 51 -33 77 -6 26 -16 48 -20 48 -5 0 -8 6 -6 13 1 6 -3 21 -9 32 -6
11 -14 39 -18 63 -4 23 -11 42 -16 42 -6 0 -9 6 -8 13 2 6 -2 28 -8 47 -14 51
-7 494 12 650 2 19 4 35 4 35 1 0 3 40 5 90 3 49 9 91 14 93 6 2 8 11 5 21 -3
10 0 22 6 25 6 4 11 16 11 27 0 10 4 19 8 19 4 0 9 14 10 32 2 17 6 36 10 42
5 6 9 25 11 43 1 17 11 48 22 69 10 21 19 44 19 50 0 7 7 25 15 41 22 41 48
107 47 116 -1 4 3 7 8 7 6 0 10 4 10 9 0 5 17 44 37 88 20 43 37 88 38 101 0
13 7 27 15 32 8 5 11 12 7 16 -4 4 5 22 19 41 14 18 22 38 19 43 -3 6 -2 10 4
10 5 0 18 19 30 43 11 23 46 74 78 113 32 39 72 89 88 110 17 21 40 49 52 61
12 13 20 23 17 23 -3 0 6 12 20 28 49 52 76 90 76 106 0 9 7 16 15 16 8 0 15
4 15 8 0 5 8 17 18 28 10 10 29 35 42 54 13 19 50 61 82 93 32 31 58 61 58 66
0 6 9 13 20 16 11 3 20 13 20 21 0 8 4 14 9 14 10 0 50 37 244 226 64 63 117
119 117 124 0 6 7 10 15 10 8 0 24 14 37 30 12 17 27 30 32 30 6 0 24 16 41
35 16 19 34 35 40 35 6 0 18 8 27 18 26 28 61 53 91 64 15 5 27 14 27 20 0 5
4 7 9 3 5 -3 12 -1 16 5 6 9 70 42 87 44 3 1 10 4 14 9 4 4 15 7 25 7 9 0 19
7 23 15 3 8 12 15 20 15 16 0 40 10 163 67 39 18 78 33 87 33 8 0 19 7 24 16
5 9 15 14 23 12 8 -3 28 5 44 17 17 12 48 28 70 35 22 7 48 19 58 28 9 8 17
12 17 8 0 -4 6 -4 13 1 6 4 17 8 24 9 22 4 93 38 93 45 0 4 8 6 17 5 9 -2 29
3 44 11 15 8 44 16 64 18 21 3 42 8 48 12 6 4 25 8 42 9 16 1 30 2 30 3 0 4
157 22 185 21 8 0 42 1 75 1 176 4 275 4 318 -1 26 -4 50 -4 52 -1 3 3 44 4
90 3 51 -1 85 2 85 8 0 6 10 5 23 -3 12 -8 29 -13 37 -12z m9886 -825 c5 -5
48 -10 97 -11 48 -1 87 -5 87 -10 0 -4 16 -11 35 -15 19 -3 38 -10 41 -15 3
-5 14 -9 25 -9 20 0 26 -15 9 -25 -6 -4 -17 -1 -25 5 -12 10 -15 10 -15 0 0
-10 -3 -10 -15 0 -12 10 -19 10 -27 2 -14 -14 -84 -16 -93 -3 -3 5 -30 13 -60
16 -31 4 -58 11 -61 16 -3 5 -25 9 -49 9 -42 0 -102 16 -94 25 3 2 26 5 52 6
27 2 50 6 53 11 7 11 28 10 40 -2z m-157 -146 c8 -8 -7 -15 -43 -21 -28 -4
-36 -2 -36 10 0 23 57 30 79 11z m751 -108 c0 -3 -4 -8 -10 -11 -5 -3 -10 -1
-10 4 0 6 5 11 10 11 6 0 10 -2 10 -4z m30 -16 c0 -5 -4 -10 -10 -10 -5 0 -10
5 -10 10 0 6 5 10 10 10 6 0 10 -4 10 -10z m-2435 -80 c-21 -24 -41 -26 -49
-5 -4 11 1 15 19 15 13 0 27 5 30 11 4 6 10 8 13 5 3 -3 -3 -15 -13 -26z m-65
-10 c0 -10 -26 -20 -52 -20 -15 0 -18 3 -10 13 11 13 62 19 62 7z m2835 -30
c17 -11 38 -20 47 -20 9 0 20 -5 23 -10 4 -7 -24 -10 -85 -9 -66 2 -93 6 -97
16 -3 7 -14 13 -24 13 -19 0 -25 11 -12 23 15 16 118 7 148 -13z m231 -7 c-7
-7 -26 7 -26 19 0 6 6 6 15 -2 9 -7 13 -15 11 -17z m44 -13 c0 -5 -4 -10 -10
-10 -5 0 -10 5 -10 10 0 6 5 10 10 10 6 0 10 -4 10 -10z m-4020 -43 c0 -7 -10
-17 -22 -22 -12 -6 -26 -18 -32 -29 -13 -22 -46 -63 -98 -121 -21 -23 -38 -47
-38 -54 0 -6 -5 -11 -10 -11 -14 0 -133 -127 -143 -152 -4 -12 -21 -37 -38
-57 -35 -42 -38 -47 -63 -85 -25 -39 -271 -286 -285 -286 -6 0 -11 -7 -11 -15
0 -8 -4 -15 -10 -15 -20 0 -120 -116 -120 -140 0 -5 -4 -10 -9 -10 -5 0 -13
-17 -18 -37 -5 -24 -17 -42 -31 -48 -12 -5 -22 -17 -22 -27 0 -9 -13 -22 -30
-30 -16 -7 -30 -18 -30 -24 0 -7 -16 -24 -35 -40 -19 -15 -35 -31 -35 -35 0
-15 -69 -83 -76 -76 -4 4 -2 13 4 19 7 7 12 19 12 28 0 9 20 32 44 53 47 39
136 148 136 166 0 6 7 11 15 11 8 0 15 5 15 10 0 10 29 50 115 161 22 28 44
60 50 70 5 11 15 19 22 19 7 0 13 7 13 15 0 8 5 15 10 15 6 0 10 6 10 14 0 8
16 32 35 53 19 21 35 43 35 48 0 6 12 24 28 42 61 69 82 96 82 104 0 5 7 12
15 15 8 4 15 12 15 20 0 8 5 14 10 14 12 0 50 37 50 48 0 5 9 17 20 27 11 10
20 24 20 30 0 7 9 15 21 18 11 3 25 19 32 36 6 17 16 31 22 31 7 0 52 39 101
87 49 48 96 87 104 87 8 1 24 15 35 32 11 18 31 36 45 42 35 14 40 14 40 -1z
m2665 2 c7 -10 -59 -79 -76 -79 -5 0 -9 10 -9 23 0 13 -5 28 -11 34 -6 6 -8
16 -5 22 9 14 93 14 101 0z m-907 -51 c9 -9 12 -9 12 0 0 15 46 16 56 1 11
-18 -15 -27 -58 -19 -45 9 -75 30 -42 30 11 0 25 -5 32 -12z m1136 -40 c-44
-75 -59 -92 -99 -109 -24 -11 -57 -30 -72 -42 -15 -12 -49 -33 -74 -46 -69
-36 -85 -49 -72 -62 8 -8 19 -6 41 5 17 9 39 16 50 16 10 0 23 5 30 12 9 9 12
9 12 1 0 -7 -9 -15 -20 -18 -11 -3 -20 -11 -20 -16 0 -10 -39 -70 -52 -79 -9
-7 12 -80 24 -80 4 0 8 11 8 25 0 30 47 77 69 69 8 -2 21 2 30 10 22 19 151
96 161 96 5 0 19 4 32 9 13 5 25 9 28 9 3 1 37 13 75 27 76 29 135 46 135 38
0 -2 6 -1 12 3 14 9 17 9 102 20 l58 7 -18 -21 c-10 -12 -23 -22 -29 -22 -7 0
-22 -11 -35 -25 -16 -17 -34 -25 -55 -25 -18 0 -50 -6 -71 -14 -22 -7 -61 -16
-89 -20 -56 -7 -121 -28 -136 -43 -7 -7 7 -7 43 -1 29 5 71 10 93 12 22 2 52
7 68 11 15 4 27 3 27 -2 0 -5 -12 -16 -27 -23 -16 -8 -36 -20 -45 -28 -9 -8
-30 -21 -46 -30 -59 -33 -111 -77 -112 -94 0 -22 19 -33 33 -19 6 6 19 11 28
11 10 0 24 6 31 14 8 7 32 19 53 27 22 7 48 20 58 28 9 8 17 10 17 6 0 -4 8
-1 18 9 18 15 21 15 48 -9 16 -14 35 -25 42 -25 6 0 12 -3 12 -7 0 -5 9 -23
20 -40 23 -38 45 -35 54 7 4 20 19 38 48 57 24 15 45 31 46 36 2 4 9 7 16 7 7
0 21 9 31 20 10 11 24 20 32 20 7 0 13 4 13 9 0 5 14 16 30 25 17 8 30 11 30
6 0 -5 11 -10 25 -12 22 -3 18 -7 -33 -40 -102 -66 -132 -91 -243 -201 -99
-98 -127 -137 -99 -137 14 0 82 44 99 64 7 9 17 16 22 16 5 0 37 23 71 50 41
33 64 46 67 38 2 -7 14 -20 25 -28 12 -8 39 -30 60 -50 32 -29 38 -31 32 -13
-6 18 -4 21 16 16 13 -3 28 -9 33 -14 6 -4 28 -10 50 -14 22 -4 45 -11 50 -15
6 -4 29 -11 52 -15 31 -5 49 -15 63 -34 22 -32 40 -103 33 -130 -3 -10 0 -22
6 -25 6 -4 11 -18 11 -31 0 -13 5 -27 10 -30 6 -3 7 -17 4 -31 -3 -13 -2 -24
3 -24 6 0 16 -26 23 -57 7 -32 16 -62 20 -68 4 -5 10 -41 12 -79 3 -43 9 -71
17 -74 9 -3 9 -7 0 -19 -10 -11 -10 -19 -2 -33 7 -10 15 -46 19 -81 4 -35 13
-68 20 -74 8 -5 15 -26 16 -45 2 -19 10 -40 18 -47 12 -9 13 -16 3 -31 -9 -16
-9 -24 2 -38 8 -11 15 -30 15 -45 0 -14 6 -31 12 -37 10 -10 10 -15 -2 -22
-13 -8 -13 -10 0 -15 10 -3 16 -22 17 -52 2 -30 8 -50 18 -55 8 -5 15 -22 15
-37 0 -16 7 -34 15 -41 8 -7 15 -18 15 -26 0 -7 7 -17 15 -21 9 -5 17 -31 20
-66 3 -32 10 -67 15 -78 6 -10 15 -28 20 -39 6 -12 8 -25 5 -30 -5 -8 0 -22
26 -70 27 -50 42 -83 43 -98 1 -9 10 -33 21 -52 10 -19 20 -46 21 -58 2 -13
10 -35 19 -48 13 -20 15 -54 14 -187 0 -89 0 -167 1 -172 2 -6 1 -12 0 -15 -3
-6 -5 -28 -15 -157 -4 -57 -12 -103 -16 -103 -14 0 -10 -38 4 -43 9 -3 9 -9 0
-24 -14 -24 -23 -70 -27 -139 -2 -28 -5 -55 -9 -60 -3 -5 -8 -26 -12 -47 -6
-29 -13 -39 -34 -44 -14 -3 -37 -15 -51 -25 -14 -11 -38 -26 -55 -34 -16 -8
-54 -27 -84 -43 -30 -16 -60 -27 -67 -24 -8 3 -14 -1 -14 -10 0 -10 -13 -18
-35 -23 -19 -3 -38 -10 -41 -15 -3 -5 -13 -9 -23 -9 -10 0 -30 -10 -45 -21
-15 -12 -30 -19 -33 -15 -3 3 -12 1 -20 -6 -7 -6 -16 -8 -19 -5 -3 3 -22 -6
-41 -19 -19 -13 -39 -21 -44 -18 -5 3 -19 -2 -31 -10 -12 -9 -34 -16 -49 -16
-15 0 -40 -7 -55 -15 -16 -8 -37 -15 -46 -15 -10 0 -18 -4 -18 -9 0 -4 -21
-11 -46 -15 -26 -3 -54 -11 -62 -18 -8 -7 -22 -13 -31 -13 -45 -2 -137 -19
-142 -27 -3 -4 -23 -9 -45 -10 -21 0 -48 -6 -59 -11 -24 -13 -48 -17 -99 -17
-23 0 -47 -7 -58 -17 -11 -10 -18 -12 -18 -4 0 8 -5 8 -20 -1 -16 -10 -24 -10
-41 0 -15 10 -24 10 -34 2 -15 -12 -54 -17 -243 -26 -78 -4 -145 -11 -148 -16
-6 -10 -48 -11 -58 0 -12 12 -140 11 -155 -2 -11 -8 -15 -8 -18 2 -6 16 -50
16 -56 0 -3 -10 -7 -10 -20 1 -12 10 -32 11 -72 6 -30 -3 -60 -3 -67 2 -7 4
-26 9 -43 10 -16 1 -52 7 -79 11 -27 5 -61 6 -75 3 -26 -7 -89 4 -128 22 -13
6 -49 11 -80 11 -32 1 -65 5 -73 11 -23 14 -60 17 -75 5 -9 -7 -16 -6 -25 5
-7 9 -29 15 -51 15 -21 0 -40 4 -43 9 -4 5 -24 12 -46 16 -22 4 -40 12 -40 18
0 11 -24 24 -115 62 -22 9 -48 20 -57 25 -9 5 -35 13 -58 16 -22 4 -43 11 -46
15 -3 5 -16 9 -30 9 -15 0 -24 6 -24 15 0 10 -10 15 -30 15 -20 0 -30 5 -30
15 0 10 -10 15 -29 15 -15 0 -39 8 -52 18 -13 10 -42 26 -64 36 -22 11 -48 23
-57 27 -10 5 -24 9 -31 9 -8 0 -22 9 -32 20 -10 11 -25 20 -34 20 -9 0 -29 11
-45 25 -16 13 -38 27 -50 31 -11 4 -35 17 -52 30 -17 13 -39 24 -48 24 -9 0
-15 4 -12 8 3 5 -15 16 -39 26 -24 10 -54 29 -66 42 -12 13 -29 24 -37 24 -20
0 -52 29 -52 47 0 8 -12 13 -31 13 -22 0 -32 5 -36 20 -3 11 -12 20 -20 20 -8
0 -44 30 -79 68 -36 37 -69 68 -75 68 -5 1 -16 2 -24 3 -9 0 -19 9 -22 19 -8
20 -12 25 -59 80 -20 23 -34 45 -30 49 9 10 119 9 134 -1 7 -5 12 -4 12 3 0 7
8 10 18 7 41 -14 82 -13 82 0 0 15 12 18 24 7 4 -4 62 -8 129 -9 67 -1 129 -4
137 -7 8 -4 33 -9 55 -12 36 -6 65 -8 147 -13 15 -1 33 -8 40 -15 7 -7 24 -13
38 -15 69 -6 80 -9 99 -26 12 -11 21 -27 21 -36 0 -9 12 -23 28 -31 32 -16 52
-40 45 -52 -6 -10 26 -47 42 -47 18 0 58 -47 51 -59 -4 -7 -1 -8 8 -5 10 4 16
1 16 -10 0 -10 6 -13 15 -10 8 4 15 1 15 -5 0 -6 24 -26 53 -45 28 -19 72 -50
97 -70 25 -20 52 -36 61 -36 9 0 22 -7 29 -15 7 -8 33 -25 59 -37 25 -13 48
-26 49 -30 2 -5 10 -8 18 -8 8 0 14 -8 14 -17 0 -13 3 -14 12 -5 20 20 44 14
57 -15 9 -20 15 -23 20 -14 6 8 11 9 15 3 3 -6 24 -13 46 -17 22 -4 42 -11 46
-16 3 -5 17 -9 31 -9 14 0 31 -8 38 -17 11 -14 16 -15 28 -5 11 9 16 10 19 2
2 -6 33 -14 68 -17 36 -3 71 -10 79 -16 7 -6 62 -12 123 -13 61 -1 115 -7 122
-13 10 -8 16 -8 24 1 11 14 138 18 159 5 6 -4 26 0 45 10 67 34 68 34 68 19 0
-8 10 -13 25 -13 14 0 25 5 25 13 0 7 6 11 14 8 7 -3 30 2 50 10 21 9 38 11
41 5 9 -14 25 -11 25 6 0 18 31 20 48 3 9 -9 12 -8 12 5 0 9 8 17 18 17 9 0
26 7 36 15 11 8 29 15 41 15 11 0 37 9 58 20 20 11 44 20 52 20 8 0 15 5 15
10 0 6 9 10 19 10 11 0 26 6 33 13 7 8 26 17 41 21 15 3 27 11 27 16 0 6 9 10
19 10 10 0 21 7 25 15 3 8 12 15 21 15 9 0 25 9 37 19 11 11 26 17 34 14 9 -3
14 1 14 12 0 9 4 14 8 11 4 -2 32 20 62 49 29 30 61 57 72 61 10 3 18 12 18
20 0 8 7 14 15 14 8 0 15 5 15 11 0 6 20 34 45 62 36 42 42 53 32 66 -9 11 -9
15 1 18 17 6 15 33 -3 33 -8 0 -15 5 -15 10 0 6 -6 10 -12 10 -7 0 -23 23 -36
51 l-23 51 -87 -7 c-48 -4 -92 -11 -99 -16 -7 -7 -14 -6 -18 1 -5 8 -11 8 -20
0 -7 -6 -19 -8 -26 -6 -8 3 -84 7 -169 10 -93 4 -156 10 -158 16 -3 7 -8 7
-18 0 -7 -7 -19 -8 -26 -4 -14 9 -18 10 -98 20 -71 8 -82 10 -100 17 -8 3 -37
8 -64 11 -27 3 -54 10 -60 15 -6 5 -47 12 -91 16 -44 4 -85 11 -91 16 -6 5
-24 10 -40 10 -16 1 -49 7 -74 14 -25 8 -66 16 -92 20 -26 3 -50 10 -53 16 -4
5 -19 9 -35 9 -16 0 -33 7 -37 14 -5 10 -30 17 -66 19 -31 3 -63 9 -70 15 -6
6 -29 13 -49 17 -21 4 -38 11 -38 15 0 4 -19 10 -42 14 -24 3 -56 13 -73 20
-76 36 -105 46 -134 46 -17 0 -31 4 -31 9 0 5 -13 12 -30 16 -16 4 -30 10 -30
15 0 4 -18 11 -40 15 -22 4 -42 11 -46 16 -3 5 -16 9 -29 9 -13 0 -30 7 -38
15 -8 7 -28 17 -43 21 -16 4 -38 13 -49 20 -11 8 -28 14 -37 14 -18 0 -49 15
-78 36 -8 7 -29 15 -46 18 -17 4 -41 16 -53 27 -12 11 -26 17 -31 14 -6 -3
-10 -1 -10 5 0 6 -8 13 -17 17 -10 3 -37 24 -60 46 -34 32 -43 48 -43 74 0 26
-4 33 -20 33 -11 0 -20 7 -20 15 0 19 -21 19 -46 0 -10 -8 -26 -15 -35 -15 -9
0 -27 -9 -40 -21 -23 -20 -24 -26 -24 -152 1 -93 4 -132 13 -135 7 -2 12 -19
12 -38 0 -22 7 -40 20 -51 13 -12 18 -24 14 -40 -4 -15 0 -31 11 -43 13 -14
14 -20 5 -20 -9 0 -6 -8 8 -23 12 -13 22 -33 22 -44 0 -12 6 -24 13 -26 26
-10 -111 2 -180 16 -65 13 -148 17 -385 17 -42 0 -80 5 -83 10 -4 6 4 32 16
58 54 118 73 155 83 165 6 7 17 23 24 37 7 14 21 39 31 55 11 17 20 36 20 43
1 8 10 25 21 39 11 14 20 39 20 54 0 19 5 29 15 29 8 0 15 9 15 19 0 11 5 23
10 26 6 4 8 10 5 15 -3 5 1 20 10 33 8 13 13 31 9 40 -4 10 6 31 25 55 17 22
28 42 24 46 -4 3 3 20 15 36 12 16 22 40 22 53 0 14 7 30 15 37 8 7 15 23 15
35 0 12 7 28 15 35 8 7 15 21 15 31 0 10 5 21 10 24 6 3 10 13 10 22 0 14 57
143 81 183 5 8 18 34 29 56 11 23 27 47 35 54 8 7 15 20 15 29 0 10 7 26 15
37 8 10 15 26 15 35 0 9 6 22 14 29 8 6 12 18 9 26 -3 9 2 14 16 14 14 0 21 6
21 19 0 10 7 24 15 31 8 7 15 20 15 30 0 10 7 23 15 30 8 7 15 20 15 30 0 10
7 23 15 30 8 7 15 20 15 30 0 10 7 23 15 30 8 7 15 23 15 36 0 16 4 22 14 18
9 -4 16 6 20 30 4 19 11 36 17 38 6 2 13 22 16 46 3 26 11 42 19 42 8 0 14 10
14 24 0 13 7 29 15 36 8 7 15 21 15 31 0 10 6 22 13 26 15 9 47 74 47 96 0 8
11 25 25 38 13 13 25 32 25 41 0 10 14 33 30 51 17 19 30 39 30 44 0 6 9 18
20 28 11 10 20 25 20 33 0 8 6 12 15 8 13 -5 36 11 97 64 35 31 47 40 56 40 5
0 15 6 21 14 6 8 22 16 34 19 12 3 47 12 77 20 86 23 133 27 308 28 107 0 162
4 162 11 0 6 6 5 15 -2 11 -9 19 -10 26 -3 7 7 28 6 64 -3 30 -6 63 -10 73 -7
12 3 29 -6 48 -26 16 -17 37 -31 46 -31 10 0 18 -7 18 -16 0 -8 11 -30 25 -48
14 -18 25 -44 25 -58 0 -14 9 -33 20 -43 18 -16 23 -17 35 -4 17 16 28 106 14
114 -5 4 -9 17 -9 31 0 13 -4 24 -10 24 -5 0 -10 14 -10 30 0 20 -5 30 -15 30
-8 0 -15 4 -15 9 0 5 -10 25 -22 45 -17 26 -30 35 -50 36 -18 0 -28 5 -28 15
0 16 25 21 35 6 3 -5 28 -17 56 -26 28 -10 61 -27 73 -38 22 -22 72 -100 82
-129 4 -10 10 -18 14 -18 11 0 19 50 9 56 -13 8 -11 42 4 47 6 2 27 -2 45 -10
27 -11 32 -11 32 1 0 21 22 25 39 6 23 -24 41 -57 41 -76 0 -10 7 -14 23 -12
17 2 24 13 31 45 7 28 17 45 33 52 14 7 23 7 23 1 0 -6 -5 -10 -12 -10 -6 0
-9 -3 -6 -6 4 -3 16 0 28 6 14 8 19 17 15 30 -4 14 4 28 27 49 43 40 60 40 19
1 -17 -17 -29 -35 -26 -39 6 -11 45 -2 45 10 0 5 6 9 13 9 7 0 49 18 92 40 88
45 89 45 79 28z m1331 2 c3 -5 -1 -10 -10 -10 -9 0 -13 5 -10 10 3 6 8 10 10
10 2 0 7 -4 10 -10z m-1715 -64 c0 -19 -4 -37 -9 -41 -13 -7 -24 30 -16 55 10
32 25 23 25 -14z m860 -216 c0 -5 -2 -10 -4 -10 -3 0 -8 5 -11 10 -3 6 -1 10
4 10 6 0 11 -4 11 -10z m-3952 -14 c-7 -8 -15 -12 -17 -11 -5 6 10 25 20 25 5
0 4 -6 -3 -14z m3927 5 c3 -5 -6 -18 -20 -29 -13 -11 -29 -31 -34 -46 -12 -29
-36 -26 -46 5 -8 24 11 49 35 49 10 0 23 7 30 15 14 17 26 19 35 6z m415 -76
c0 -7 7 -18 15 -25 8 -7 15 -20 15 -30 0 -10 6 -23 14 -29 22 -18 15 -54 -11
-56 -13 -1 -23 2 -23 6 0 8 -91 25 -118 23 -19 -3 -25 41 -10 72 25 53 118 84
118 39z m-4410 5 c0 -5 -4 -10 -9 -10 -6 0 -13 5 -16 10 -3 6 1 10 9 10 9 0
16 -4 16 -10z m-30 -35 c0 -8 -7 -15 -15 -15 -8 0 -15 -8 -15 -18 0 -11 -9
-27 -20 -37 -11 -10 -20 -24 -20 -32 0 -7 -7 -13 -15 -13 -8 0 -15 -5 -15 -11
0 -10 -37 -61 -100 -136 -5 -7 -10 -15 -10 -18 0 -4 -16 -23 -35 -43 -19 -20
-35 -43 -35 -51 0 -16 -29 -51 -42 -51 -11 0 -10 48 2 63 5 7 30 36 55 66 25
30 45 60 45 66 0 6 16 28 35 49 19 21 35 45 35 52 0 8 7 14 15 14 8 0 15 7 15
15 0 8 7 15 15 15 8 0 15 7 15 15 0 8 7 15 15 15 8 0 15 9 15 20 0 11 6 20 14
20 8 0 16 7 20 15 3 8 10 15 16 15 5 0 10 -7 10 -15z m4276 -40 c-7 -18 -46
-20 -46 -2 0 14 43 36 48 24 2 -4 1 -14 -2 -22z m414 -75 c0 -5 -4 -10 -10
-10 -5 0 -10 5 -10 10 0 6 5 10 10 10 6 0 10 -4 10 -10z m-3480 -175 c-7 -8
-16 -15 -21 -15 -15 0 -10 22 9 36 20 15 29 0 12 -21z m-43 -43 c-10 -10 -17
-22 -17 -26 0 -4 -11 -17 -25 -30 -14 -13 -25 -27 -25 -31 0 -4 -13 -24 -28
-44 -16 -20 -32 -44 -35 -53 -4 -10 -13 -18 -22 -18 -8 0 -15 -7 -15 -15 0 -9
-7 -18 -15 -21 -8 -4 -15 -11 -15 -16 0 -6 -9 -20 -20 -32 -78 -85 -99 -113
-100 -127 0 -9 -9 -24 -20 -34 -11 -10 -20 -22 -20 -28 0 -5 -13 -26 -28 -46
-16 -20 -37 -55 -47 -78 -11 -24 -22 -43 -27 -43 -4 0 -8 -8 -8 -19 0 -10 -7
-24 -15 -31 -8 -7 -15 -17 -15 -22 0 -5 -10 -22 -21 -37 -12 -16 -19 -34 -15
-39 3 -5 -1 -12 -9 -16 -8 -3 -15 -15 -15 -26 0 -11 -7 -23 -15 -26 -8 -4 -15
-13 -15 -21 0 -25 -41 -104 -79 -152 -36 -45 -65 -92 -77 -123 -3 -10 -10 -18
-15 -18 -5 0 -9 -7 -9 -15 0 -8 -4 -15 -10 -15 -5 0 -10 -7 -10 -15 0 -8 -4
-15 -10 -15 -5 0 -10 -5 -10 -10 0 -11 -31 -59 -61 -95 -10 -11 -31 -48 -49
-82 -36 -72 -43 -79 -60 -58 -11 13 -9 20 12 43 15 15 29 45 32 67 7 47 11 65
19 85 14 35 26 94 21 102 -3 4 -1 8 4 8 6 0 13 27 17 61 5 42 14 68 30 85 13
14 26 41 30 61 7 38 10 45 43 110 12 23 22 46 22 52 0 5 25 36 55 67 30 32 55
64 55 71 0 7 15 27 33 46 51 53 77 87 87 113 5 13 16 24 24 24 8 0 18 9 21 20
3 11 44 59 91 107 46 49 84 94 84 101 0 6 6 12 13 12 15 0 87 68 87 82 0 12
38 48 52 48 7 0 23 12 36 28 70 83 89 101 106 102 18 0 18 -1 3 -18z m3628
-12 c3 -11 10 -20 15 -20 5 0 11 -13 15 -30 4 -16 11 -30 16 -30 5 0 9 -6 9
-13 0 -8 9 -22 20 -32 11 -10 20 -22 20 -26 0 -5 21 -30 46 -56 28 -28 41 -49
34 -51 -7 -3 -8 -7 -3 -11 14 -9 53 -120 53 -150 0 -15 4 -31 10 -37 10 -10
14 -53 25 -244 8 -121 12 -175 15 -175 4 0 9 -60 14 -200 5 -118 10 -151 21
-158 18 -10 11 -27 -11 -27 -8 0 -14 7 -14 15 0 8 -4 15 -9 15 -5 0 -11 22
-15 50 -4 27 -11 52 -16 55 -6 3 -10 21 -10 39 0 19 -6 39 -14 45 -8 7 -18 31
-21 54 -4 23 -13 49 -20 57 -13 16 -26 75 -26 122 0 14 -6 32 -14 38 -8 6 -11
18 -8 26 3 9 -1 14 -12 14 -14 0 -15 3 -5 15 9 11 10 18 1 29 -6 7 -14 33 -17
57 -4 24 -9 46 -13 49 -3 3 -7 14 -9 25 -1 11 -5 36 -7 55 -3 19 -7 54 -10 78
-2 23 -8 57 -14 75 -14 46 -43 189 -43 210 1 9 -5 17 -11 17 -8 0 -13 16 -14
40 -1 21 -7 49 -13 60 -6 11 -8 25 -5 30 10 17 33 11 40 -10z m-5125 -97 c-1
-18 -18 -35 -24 -24 -4 6 -4 16 -1 21 7 12 25 13 25 3z m634 -204 c-24 -27
-30 -16 -7 14 10 14 20 21 22 15 1 -5 -5 -18 -15 -29z m-24 -48 c0 -5 -5 -11
-11 -13 -5 -2 -10 -22 -11 -45 0 -24 -6 -47 -14 -53 -7 -6 -16 -36 -20 -66 -3
-30 -11 -57 -16 -60 -6 -4 -5 -10 3 -15 11 -6 10 -12 -4 -27 -9 -10 -17 -24
-17 -31 0 -7 -11 -26 -25 -43 -14 -16 -25 -36 -25 -44 0 -8 -7 -14 -15 -14 -8
0 -17 -14 -21 -35 -3 -19 -10 -35 -15 -35 -12 0 -12 47 0 54 5 4 12 25 16 49
4 23 11 47 15 52 4 6 11 31 14 58 4 26 11 47 15 47 5 0 12 16 15 35 4 21 13
35 21 35 10 0 15 10 15 28 0 35 21 82 36 82 7 0 15 11 18 25 6 24 26 36 26 16z
m4976 -116 c8 -11 14 -34 14 -52 0 -17 4 -34 9 -37 4 -3 14 -32 20 -65 7 -33
16 -63 21 -66 5 -3 7 -12 4 -19 -3 -7 2 -16 11 -20 11 -4 15 -12 11 -22 -4 -9
-1 -23 5 -30 8 -9 8 -14 1 -14 -7 0 -5 -10 4 -27 7 -16 14 -38 14 -49 0 -12 7
-27 15 -34 8 -7 15 -25 15 -41 0 -16 5 -29 10 -29 6 0 10 -13 10 -30 0 -16 3
-30 8 -30 4 0 8 -24 9 -53 1 -28 -1 -45 -4 -37 -3 8 -11 26 -16 40 -6 14 -11
33 -12 42 -1 10 -10 28 -19 42 -9 15 -12 27 -6 31 14 9 12 25 -3 25 -12 0 -48
91 -52 130 0 9 -4 20 -7 25 -3 6 -12 38 -18 73 -7 34 -17 65 -21 68 -5 3 -9
21 -9 40 0 22 -5 34 -14 34 -9 0 -16 19 -21 58 -4 31 -12 60 -18 64 -7 4 -6
12 4 24 13 16 14 16 18 -2 2 -10 10 -28 17 -39z m418 13 c-3 -12 0 -18 10 -18
9 0 16 -8 16 -19 0 -10 7 -21 15 -25 22 -8 18 -24 -7 -28 -16 -2 -25 -12 -29
-33 -5 -24 -7 -20 -8 22 0 28 -6 64 -11 79 -12 31 -3 75 11 53 5 -8 6 -22 3
-31z m-4596 8 c-7 -8 -15 -12 -17 -11 -5 6 10 25 20 25 5 0 4 -6 -3 -14z m-52
-78 c-9 -5 -16 -22 -16 -38 0 -20 -5 -30 -15 -30 -13 0 -19 -19 -18 -57 1 -7
-5 -13 -12 -13 -8 0 -16 -13 -20 -29 -3 -16 -13 -32 -21 -35 -8 -3 -14 -17
-14 -31 0 -14 -4 -25 -9 -25 -5 0 -13 -14 -16 -32 -4 -18 -11 -39 -16 -48 -14
-26 -37 -84 -44 -110 -3 -14 -13 -38 -20 -55 -8 -16 -16 -37 -19 -45 -3 -8
-10 -22 -15 -30 -20 -33 -53 -116 -58 -147 -3 -18 -12 -38 -19 -44 -8 -6 -14
-21 -14 -33 0 -12 -9 -39 -21 -60 -11 -21 -18 -40 -15 -43 2 -3 -4 -13 -15
-24 -10 -10 -19 -25 -19 -33 0 -13 -51 -114 -76 -151 -8 -11 -14 -25 -14 -33
0 -7 -11 -28 -24 -45 -13 -18 -27 -47 -31 -64 -3 -18 -10 -33 -14 -33 -7 0
-28 -45 -46 -100 -9 -27 -18 -36 -38 -38 -29 -4 -32 0 -18 26 5 9 15 36 22 59
6 24 20 50 31 59 10 10 18 30 18 46 0 17 5 28 14 28 15 0 26 30 26 73 0 17 5
27 15 27 8 0 12 6 10 13 -3 6 8 38 25 70 16 32 30 63 30 70 0 18 44 121 55
129 5 4 11 19 12 34 1 14 9 34 17 43 9 10 16 23 16 30 0 7 9 24 20 38 13 17
18 33 14 49 -4 17 -2 24 9 24 9 0 21 21 31 54 10 30 24 60 32 67 8 6 14 26 14
44 0 18 7 38 15 45 8 7 15 19 15 27 0 18 46 110 60 118 5 3 10 13 10 21 0 8
17 41 37 72 21 31 43 69 50 85 7 15 17 27 23 27 5 0 10 7 10 15 0 8 12 29 28
46 22 26 28 28 31 13 1 -9 -4 -21 -13 -26z m4730 -95 c8 -3 12 -9 9 -13 -3 -5
0 -21 6 -37 6 -15 17 -53 25 -83 8 -30 17 -62 21 -70 14 -32 31 -105 26 -112
-2 -5 1 -8 6 -8 6 0 11 -9 11 -20 0 -11 -4 -20 -10 -20 -5 0 -10 6 -10 14 0 7
-6 19 -14 25 -8 6 -17 32 -21 56 -4 30 -11 45 -21 45 -8 0 -14 6 -12 13 4 20
-12 68 -27 84 -11 10 -15 37 -14 96 1 45 4 72 6 59 3 -13 11 -26 19 -29z
m-5932 -236 l-7 -77 -38 6 c-29 5 -39 3 -39 -6 0 -8 -2 -11 -5 -8 -3 3 -1 18
5 33 9 24 23 44 70 102 6 7 10 18 10 24 0 7 2 10 5 7 3 -2 2 -39 -1 -81z
m6056 -168 c0 -5 -4 -9 -10 -9 -5 0 -10 7 -10 16 0 8 5 12 10 9 6 -3 10 -10
10 -16z m-6215 -29 c-11 -18 -17 -161 -7 -173 13 -16 13 -75 1 -83 -7 -4 -7
-10 0 -18 11 -12 9 -41 -2 -52 -11 -12 -8 -79 5 -92 8 -8 8 -15 -1 -26 -6 -7
-14 -37 -18 -65 -3 -28 -12 -56 -19 -62 -8 -6 -14 -17 -14 -23 0 -18 -46 -107
-69 -133 -18 -22 -48 -33 -36 -14 7 12 -15 61 -28 61 -5 0 -4 6 2 14 7 9 8 15
2 18 -6 1 -12 27 -14 57 -2 29 -10 57 -17 61 -9 5 -9 9 -1 14 6 4 11 17 11 29
0 12 7 36 16 52 9 17 16 45 16 63 0 21 5 32 14 32 8 0 14 10 14 23 1 12 9 40
19 61 11 22 17 45 14 52 -2 6 5 14 15 16 13 4 20 14 20 32 0 31 19 84 40 109
12 13 12 17 2 17 -9 0 -8 6 5 20 19 21 41 28 30 10z m5811 -110 c9 0 14 -11
14 -29 0 -17 6 -31 16 -35 11 -4 14 -13 10 -31 -4 -15 -2 -25 4 -25 7 0 9 -8
5 -19 -3 -11 1 -26 10 -35 20 -19 17 -127 -2 -134 -8 -2 -13 5 -13 15 0 11 -5
24 -12 31 -9 9 -9 12 1 12 10 0 10 4 3 13 -5 6 -13 28 -17 47 -4 19 -11 40
-15 45 -4 6 -10 34 -13 64 -4 29 -11 59 -18 67 -6 8 -8 21 -4 31 8 17 8 17 12
1 3 -10 11 -18 19 -18z m-146 -206 c0 -17 -22 -14 -28 4 -2 7 3 12 12 12 9 0
16 -7 16 -16z m-10 -44 c0 -5 -4 -10 -10 -10 -5 0 -10 5 -10 10 0 6 5 10 10
10 6 0 10 -4 10 -10z m25 -58 c0 -11 4 -24 8 -28 4 -4 7 -18 7 -30 0 -13 4
-25 8 -28 11 -6 2 -76 -9 -76 -10 0 -17 27 -24 95 -2 28 -7 61 -11 74 -5 18
-4 23 7 19 8 -3 14 -14 14 -26z m-5145 -32 c0 -5 -4 -10 -10 -10 -5 0 -10 -6
-10 -13 0 -8 -9 -22 -20 -32 -20 -18 -21 -18 -14 1 18 47 54 83 54 54z m5669
-32 c0 -31 -1 -31 -10 -10 -5 13 -7 28 -3 33 10 16 14 9 13 -23z m281 -96 c0
-11 9 -27 20 -37 11 -10 20 -27 20 -39 0 -11 12 -32 27 -48 21 -22 27 -38 28
-83 2 -55 2 -55 -17 -38 -11 10 -28 34 -38 53 -10 19 -27 44 -39 54 -12 11
-21 27 -21 38 0 10 -7 18 -15 18 -8 0 -15 7 -15 15 0 8 5 15 10 15 6 0 10 9
10 19 0 26 10 51 21 51 5 0 9 -8 9 -18z m-750 -31 c0 -13 -26 -32 -33 -24 -14
13 -6 33 13 33 11 0 20 -4 20 -9z m-4052 -19 c2 -7 -6 -12 -17 -12 -21 0 -27
11 -14 24 9 9 26 2 31 -12z m-1138 -29 c-11 -17 -11 -17 -6 0 3 10 6 24 7 30
0 9 2 9 5 0 3 -7 0 -20 -6 -30z m1220 -28 c0 -9 9 -15 23 -15 12 0 33 -12 46
-25 13 -14 34 -25 49 -25 28 0 62 -26 62 -47 0 -8 4 -12 9 -9 11 7 37 -3 100
-39 24 -14 50 -25 58 -25 22 0 15 -20 -12 -32 -16 -7 -27 -22 -31 -45 -3 -18
-8 -33 -10 -33 -12 0 -84 47 -109 71 -17 16 -35 29 -41 29 -21 0 -154 155
-154 180 0 6 -5 10 -11 10 -5 0 -7 5 -4 10 9 15 25 12 25 -5z m5067 -22 c-3
-10 -5 -4 -5 12 0 17 2 24 5 18 2 -7 2 -21 0 -30z m-852 -53 c8 0 12 -6 9 -13
-3 -8 -1 -24 4 -38 5 -13 9 -26 8 -29 0 -3 6 -17 15 -30 23 -36 17 -72 -19
-116 -18 -21 -32 -44 -32 -50 0 -6 -9 -19 -20 -29 -20 -18 -20 -17 -21 76 -1
52 -1 97 -1 100 1 4 4 38 8 75 3 38 11 82 18 97 l11 28 3 -36 c2 -22 8 -35 17
-35z m875 -2 c0 -5 9 -21 20 -35 11 -14 20 -36 20 -49 0 -14 6 -24 14 -24 13
0 46 -67 46 -94 0 -8 7 -17 16 -20 8 -3 14 -14 13 -23 -5 -33 12 -83 27 -83
10 0 13 -6 10 -17 -3 -10 1 -30 9 -45 10 -20 11 -28 2 -28 -8 0 -9 -2 -1 -8
16 -10 37 -53 40 -79 2 -13 5 -32 9 -43 5 -17 2 -20 -24 -20 -16 0 -32 4 -35
9 -3 4 -23 11 -45 15 -22 3 -53 14 -71 23 -25 15 -30 23 -27 46 2 15 1 27 -2
27 -3 0 -7 35 -8 78 -1 42 -4 92 -7 109 -2 18 -1 35 3 38 11 6 1 107 -12 123
-5 7 -11 31 -12 55 -1 23 -6 51 -11 62 -7 18 -6 18 9 6 9 -7 17 -18 17 -23z
m-6538 -68 c7 -16 19 -30 25 -30 8 0 13 -12 13 -29 0 -28 -2 -29 -29 -21 -16
4 -32 6 -35 3 -3 -3 -16 -3 -30 1 -19 5 -24 11 -19 24 4 9 12 21 20 25 7 4 13
16 13 26 0 40 24 41 42 1z m1973 -104 c35 -25 65 -32 65 -15 0 8 6 7 18 -3 9
-9 23 -13 30 -11 6 3 12 -2 12 -11 0 -16 10 -20 42 -17 16 2 13 -6 -52 -139
-12 -25 -20 -22 -212 70 -60 28 -108 55 -108 60 0 5 7 15 15 24 8 8 15 19 15
25 0 6 7 19 16 30 14 16 26 18 73 14 33 -4 68 -15 86 -27z m4071 -66 c11 -37
11 -39 -7 -29 -11 5 -19 14 -19 19 0 6 -7 10 -15 10 -19 0 -19 9 2 32 20 22
24 18 39 -32z m-3818 -16 c11 4 23 2 27 -4 3 -5 19 -10 36 -10 16 0 29 -4 29
-10 0 -5 13 -10 29 -10 16 0 34 -7 41 -15 7 -8 28 -15 47 -15 27 0 33 -3 25
-12 -5 -7 -13 -29 -17 -48 -11 -54 -37 -110 -52 -110 -24 0 -107 21 -140 36
-17 8 -38 14 -46 14 -9 0 -19 5 -22 10 -3 6 -17 10 -31 10 -31 0 -33 34 -4 87
11 21 20 45 20 53 0 23 22 43 31 29 3 -6 16 -8 27 -5z m302 -78 c0 -9 18 -16
53 -20 77 -10 86 -12 93 -19 4 -4 18 -7 30 -7 14 0 22 -5 20 -12 -1 -7 -1 -10
1 -5 3 4 11 7 19 7 20 0 17 -34 -6 -77 -11 -21 -20 -44 -20 -51 0 -31 -59 -58
-74 -33 -3 4 -37 11 -76 15 -38 4 -72 11 -75 17 -4 5 -15 9 -26 9 -20 0 -28
34 -10 44 5 4 12 24 16 46 4 22 11 42 16 46 5 3 9 16 9 30 0 15 6 24 15 24 8
0 15 -6 15 -14z m-2492 -25 c18 -2 15 -20 -17 -83 -16 -32 -32 -71 -36 -87 -3
-16 -26 -51 -51 -77 -70 -75 -91 -106 -99 -143 -4 -19 -11 -39 -16 -45 -55
-71 -72 -86 -85 -75 -7 6 -72 13 -151 16 -76 3 -140 8 -143 12 -3 4 -20 7 -37
7 -35 -1 -47 16 -16 23 10 2 22 10 26 17 5 8 12 12 18 9 5 -4 9 -1 9 5 0 15
52 70 65 70 6 0 16 13 22 30 7 19 20 31 39 36 16 4 37 13 46 22 10 8 25 12 35
8 14 -6 16 -5 6 5 -20 20 -15 27 18 23 24 -3 32 1 36 15 3 12 11 17 20 14 9
-4 16 2 20 16 3 11 9 21 14 21 5 0 9 7 9 15 0 8 16 30 35 49 24 24 35 45 35
64 0 25 3 29 25 27 14 -2 27 0 29 3 3 6 98 8 144 3z m5235 -33 c3 -24 11 -44
16 -46 6 -2 11 -11 11 -20 0 -8 7 -23 14 -31 8 -9 18 -46 22 -81 l6 -65 -50
-42 c-28 -24 -54 -43 -58 -43 -4 0 -15 -7 -24 -15 -15 -14 -16 -11 -12 42 3
32 9 60 13 61 5 2 9 19 9 37 0 19 6 64 14 102 8 37 14 75 14 83 -4 68 16 82
25 18z m-2434 -32 c10 -12 16 -12 39 0 22 11 28 11 42 -1 9 -8 35 -15 58 -15
41 0 42 -1 35 -27 -3 -16 -17 -49 -30 -75 -23 -45 -26 -48 -64 -48 -21 0 -39
5 -39 10 0 6 -31 10 -74 10 l-74 0 23 45 c13 24 27 60 31 80 7 38 31 47 53 21z
m-3639 -21 c0 -12 11 -31 25 -41 13 -10 30 -31 36 -46 6 -15 18 -28 26 -28 15
0 43 -23 43 -35 0 -13 -28 -34 -54 -41 -14 -3 -26 -10 -26 -15 0 -5 -7 -9 -15
-9 -8 0 -15 5 -15 10 0 6 -6 10 -14 10 -8 0 -18 9 -21 20 -3 11 -14 24 -24 29
-21 12 -101 126 -101 145 0 20 4 21 74 22 62 1 66 0 66 -21z m3992 -38 c5 -8
11 -7 21 2 10 8 17 9 22 1 3 -5 15 -10 26 -10 12 0 19 -7 19 -20 0 -11 -4 -20
-10 -20 -5 0 -10 -13 -10 -30 l0 -30 -97 -2 c-102 -1 -155 1 -162 8 -2 2 4 15
13 28 9 14 16 30 16 35 0 5 4 21 10 35 9 24 11 25 77 20 37 -3 71 -11 75 -17z
m192 -14 c4 -4 47 -6 96 -4 60 2 90 -1 90 -8 0 -14 37 -14 45 -1 8 12 55 13
55 1 0 -5 -17 -12 -37 -16 -21 -4 -43 -11 -49 -16 -6 -5 -40 -12 -75 -15 -35
-4 -68 -10 -74 -14 -5 -5 -46 -11 -90 -15 -66 -6 -78 -5 -67 6 6 7 12 19 12
26 0 29 32 63 59 63 15 0 31 -3 35 -7z m-4674 -16 c0 -4 -13 -10 -29 -13 -17
-4 -32 -12 -35 -20 -3 -8 -17 -14 -31 -14 -14 0 -25 -4 -25 -10 0 -5 -8 -10
-17 -10 -10 0 -31 -7 -47 -15 -15 -8 -41 -15 -55 -15 -15 0 -30 -3 -33 -6 -4
-3 -55 -6 -115 -6 -155 -1 -175 0 -167 13 3 6 15 9 25 6 10 -3 22 -1 25 4 3 5
9 7 13 4 5 -2 16 2 27 9 10 8 24 12 31 9 7 -3 32 3 56 12 25 9 53 16 63 14 19
-2 45 5 76 22 11 5 19 5 23 -1 4 -6 11 -7 17 -3 7 3 37 8 67 10 31 2 57 8 59
13 4 11 72 8 72 -3z m3105 -17 c3 -5 13 -10 22 -10 9 0 37 -10 62 -21 48 -23
74 -33 105 -43 11 -4 16 -12 12 -22 -3 -9 -6 -22 -6 -30 0 -21 -34 -17 -55 6
-10 11 -24 20 -31 20 -6 0 -22 11 -35 25 -13 13 -32 25 -41 25 -10 0 -27 9
-38 20 -21 21 -26 40 -11 40 6 0 13 -4 16 -10z m363 -68 c23 -5 42 -7 42 -5 0
2 5 1 11 -3 7 -4 42 -8 78 -10 36 -2 75 -5 86 -8 129 -28 207 -58 243 -90 47
-43 43 -57 -15 -49 -26 3 -58 12 -73 20 -29 15 -80 17 -80 3 0 -5 7 -7 15 -4
20 8 31 -24 17 -47 -7 -10 -12 -28 -12 -40 0 -16 -4 -19 -17 -14 -10 4 -37 11
-60 16 -23 4 -50 13 -60 18 -10 5 -35 13 -55 16 -21 3 -38 9 -38 12 0 10 43
78 54 85 14 10 5 17 -33 24 -30 6 -32 5 -26 -19 4 -16 1 -34 -10 -51 -14 -21
-22 -24 -48 -19 -17 4 -43 12 -57 20 -14 7 -33 13 -43 13 -10 0 -20 7 -23 15
-4 8 -16 15 -29 15 -22 0 -22 1 -6 35 18 38 39 51 55 35 13 -13 46 -13 46 0 0
5 -11 12 -25 16 -13 3 -29 12 -36 20 -9 11 -5 13 23 9 18 -2 52 -8 76 -13z
m-1812 -18 c-3 -8 1 -14 11 -14 21 0 53 -29 53 -47 0 -10 -6 -12 -20 -8 -25 8
-27 -16 -5 -68 8 -20 15 -51 15 -69 0 -19 7 -44 16 -57 13 -17 14 -25 5 -31
-13 -8 -10 -80 4 -113 6 -14 -2 -29 -34 -61 -22 -23 -41 -46 -41 -52 0 -5 -10
-18 -22 -29 -18 -15 -39 -19 -108 -19 -81 -1 -85 0 -88 22 -2 13 2 22 9 22 19
0 59 41 59 61 0 10 5 21 10 24 6 3 10 15 10 26 0 10 7 19 15 19 10 0 17 14 21
40 4 22 11 43 15 46 5 3 9 13 9 23 0 10 7 24 15 31 8 7 12 16 9 22 -3 5 -1 15
5 22 6 7 9 56 8 123 -2 102 -1 110 16 105 10 -3 16 -10 13 -18z m-1342 -128
c20 -20 43 -36 51 -36 8 0 15 -9 15 -20 0 -23 -8 -24 -44 -10 -25 9 -26 8 -26
-29 0 -32 6 -43 34 -65 19 -14 39 -26 45 -26 6 0 20 -9 31 -20 11 -11 26 -17
35 -14 9 4 15 1 15 -7 0 -11 2 -11 10 1 8 13 12 13 32 1 14 -9 56 -15 115 -16
60 -1 98 -6 108 -15 13 -11 21 -11 35 -2 14 9 21 8 31 -4 7 -9 20 -12 33 -8
18 6 19 5 7 -10 -7 -9 -22 -16 -32 -16 -11 0 -19 -7 -19 -15 0 -10 -10 -15
-29 -15 -15 0 -39 -9 -53 -19 -13 -11 -35 -19 -48 -20 -151 -3 -216 1 -229 12
-9 7 -35 22 -58 33 -24 10 -43 23 -43 28 0 5 -16 26 -35 47 -20 23 -35 50 -35
64 0 16 -6 25 -15 25 -8 0 -15 9 -15 20 0 11 -6 20 -14 20 -22 0 -24 13 -17
102 0 9 12 30 26 46 14 17 25 38 25 48 1 13 5 9 14 -12 8 -17 30 -48 50 -68z
m6996 17 c0 -6 -3 -13 -7 -16 -5 -2 -2 -2 5 -1 8 2 12 -9 12 -36 0 -21 5 -42
10 -45 6 -3 10 -13 10 -21 0 -8 9 -23 20 -34 11 -11 20 -27 20 -36 0 -14 -8
-16 -46 -10 -26 3 -53 6 -60 6 -12 0 -11 87 3 198 5 39 7 41 19 25 7 -10 14
-23 14 -30z m350 27 c0 -5 -5 -10 -11 -10 -5 0 -7 5 -4 10 3 6 8 10 11 10 2 0
4 -4 4 -10z m-5830 -100 c0 -16 -4 -32 -10 -35 -5 -3 -10 3 -10 14 0 11 -5 23
-10 26 -8 5 -7 11 1 21 16 19 29 8 29 -26z m2035 30 c3 -5 33 -12 66 -16 32
-4 62 -11 65 -15 3 -5 16 -9 29 -9 29 0 35 -8 28 -42 l-5 -26 -86 5 c-108 5
-158 19 -142 38 6 8 12 27 12 44 1 30 20 42 33 21z m4151 -15 c4 -8 10 -15 16
-15 5 0 6 4 3 10 -3 6 1 7 9 4 9 -3 16 -9 16 -13 0 -4 12 -6 28 -4 15 2 38 -2
51 -9 24 -14 53 -81 44 -104 -3 -8 0 -14 6 -14 6 0 11 -8 11 -18 0 -10 3 -22
7 -25 3 -4 8 -19 9 -33 2 -14 12 -43 23 -65 12 -22 21 -48 21 -59 0 -11 5 -20
11 -20 22 0 42 -32 44 -71 1 -22 7 -45 14 -52 6 -6 11 -19 11 -29 0 -10 5 -18
10 -18 6 0 10 -9 10 -19 0 -11 5 -23 10 -26 6 -3 10 -17 10 -31 0 -13 4 -24 9
-24 5 0 14 -15 20 -32 6 -18 21 -40 32 -48 16 -13 18 -21 11 -40 -6 -14 -20
-32 -33 -40 -12 -8 -37 -28 -56 -44 -18 -15 -33 -24 -33 -20 0 5 -4 4 -8 -1
-25 -35 -94 -57 -108 -34 -4 8 -9 7 -14 -2 -7 -10 -12 -10 -23 0 -8 6 -25 14
-37 16 -29 6 -62 35 -56 51 2 6 -4 21 -15 32 -10 12 -19 27 -19 35 0 7 -5 18
-12 25 -7 7 -8 12 -4 12 5 0 3 7 -4 15 -9 11 -9 15 -1 15 7 0 6 9 -5 25 -8 13
-13 33 -10 43 4 11 1 32 -5 48 -7 16 -13 34 -14 39 -1 6 -3 12 -4 15 -2 3 -5
25 -7 50 -3 25 -10 50 -15 56 -5 6 -6 14 -2 17 3 4 1 17 -5 30 -6 12 -14 57
-17 100 -4 42 -10 77 -14 77 -4 0 -13 33 -19 73 -9 61 -9 76 4 95 25 38 89 55
100 27z m-3881 -47 c6 -3 47 -9 93 -13 45 -4 82 -11 82 -16 0 -10 0 -10 -130
-12 l-95 -2 -3 28 c-3 24 0 27 20 25 13 -2 28 -6 33 -10z m-2195 -59 c0 -11 9
-19 23 -21 16 -2 23 -11 25 -30 2 -16 -1 -28 -7 -28 -6 0 -11 9 -11 20 0 11
-7 20 -15 20 -8 0 -15 5 -15 10 0 6 -7 10 -15 10 -10 0 -15 10 -15 31 0 27 2
30 15 19 8 -7 15 -21 15 -31z m-613 -96 c-14 -14 -30 -22 -36 -19 -18 11 -13
26 9 26 11 0 25 9 32 20 7 11 15 15 17 9 2 -6 -8 -22 -22 -36z m713 40 c1 -17
67 -83 83 -83 9 0 22 -9 29 -20 7 -11 23 -20 35 -20 12 0 25 -4 28 -10 3 -5
-1 -10 -9 -10 -9 0 -16 -7 -16 -15 0 -8 -7 -15 -15 -15 -8 0 -15 -8 -15 -17 0
-14 -7 -10 -28 15 -15 18 -32 32 -38 32 -22 0 -37 -31 -37 -76 0 -24 -4 -47
-9 -50 -5 -3 -4 -12 2 -19 8 -10 8 -25 -2 -56 -10 -34 -10 -43 0 -47 9 -3 10
-8 3 -16 -5 -6 -12 -56 -16 -111 -4 -55 -11 -104 -16 -109 -5 -6 -9 -21 -9
-35 0 -15 -6 -38 -14 -52 -7 -14 -16 -47 -20 -72 -4 -25 -13 -50 -20 -56 -13
-11 -63 -10 -82 2 -6 3 -30 9 -52 13 -77 12 -79 21 -17 91 30 33 55 66 55 72
0 7 6 14 14 17 8 3 12 12 9 20 -3 8 1 14 10 14 9 0 18 13 22 30 4 17 10 30 15
30 5 0 18 21 30 48 13 26 26 54 31 64 7 15 20 85 23 133 1 11 5 26 9 33 5 6 5
12 0 12 -10 0 -15 125 -7 208 3 34 10 62 15 62 5 0 9 -3 9 -7z m4657 -98 c3
-49 10 -86 18 -95 10 -11 11 -20 3 -34 -7 -13 -7 -25 3 -42 10 -20 10 -29 -1
-48 -7 -14 -10 -32 -7 -40 3 -8 2 -18 -3 -21 -6 -4 -10 -15 -10 -25 0 -21 -38
-90 -49 -90 -4 0 -13 -11 -19 -24 -13 -28 -47 -39 -63 -20 -6 8 -15 11 -20 9
-14 -9 -83 70 -113 131 -17 32 -31 78 -34 102 -4 45 15 102 34 102 6 0 17 7
24 16 8 8 28 21 47 29 18 8 33 19 33 24 0 6 9 11 20 11 11 0 20 7 20 15 0 8 7
15 15 15 8 0 15 6 15 14 0 16 34 31 50 21 5 -3 10 3 10 15 0 12 5 20 12 18 7
-3 13 -35 15 -83z m653 5 c0 -5 -4 -10 -10 -10 -5 0 -10 5 -10 10 0 6 5 10 10
10 6 0 10 -4 10 -10z m-6160 -52 c0 -29 -8 -39 -47 -60 -31 -18 -123 -25 -123
-10 0 13 55 50 84 58 14 3 26 12 26 20 0 9 11 14 30 14 24 0 30 -4 30 -22z
m686 -35 c-7 -7 -26 7 -26 19 0 6 6 6 15 -2 9 -7 13 -15 11 -17z m5847 -59
c-3 -20 -1 -40 7 -48 6 -9 9 -24 5 -36 -4 -12 -1 -27 5 -35 6 -8 9 -23 5 -35
-5 -14 -2 -20 9 -20 9 0 16 -8 16 -20 0 -10 11 -39 24 -62 13 -24 27 -59 31
-78 4 -19 12 -41 19 -49 9 -11 8 -13 -4 -9 -17 5 -70 103 -70 129 0 9 -9 28
-20 42 -13 16 -20 40 -20 66 0 23 -4 41 -10 41 -5 0 -10 5 -10 12 0 6 -6 19
-14 27 -23 26 -30 77 -12 84 9 4 16 19 16 34 1 26 2 27 15 10 8 -12 11 -31 8
-53z m-5850 7 c6 -25 -3 -71 -14 -71 -5 0 -9 -9 -9 -20 0 -28 -37 -98 -82
-152 -21 -26 -38 -51 -38 -57 0 -6 -7 -11 -15 -11 -8 0 -15 -4 -15 -10 0 -9
-77 -90 -86 -90 -3 0 -18 -10 -34 -21 -24 -18 -38 -21 -89 -17 -33 2 -63 7
-67 11 -3 3 -2 23 3 44 7 31 14 38 33 40 14 0 30 2 35 3 6 1 13 2 16 2 3 -1
20 13 38 29 19 16 38 28 44 26 6 -2 24 10 39 27 15 17 28 27 28 23 0 -5 7 -2
15 7 8 8 15 19 15 25 0 6 6 11 13 11 7 0 18 14 24 30 6 17 17 30 25 30 11 0
68 69 68 83 0 2 7 21 15 41 17 40 30 46 38 17z m5353 -29 c-33 -4 -51 10 -42
33 5 15 10 14 38 -7 l33 -23 -29 -3z m-4793 -18 c4 -7 25 -15 46 -19 42 -7 67
-27 56 -45 -3 -5 -1 -10 4 -10 16 0 -1 -183 -18 -204 -5 -6 -12 -31 -15 -55
-2 -23 -6 -44 -8 -46 -2 -1 -22 -6 -45 -10 l-43 -7 0 66 c0 36 -4 66 -9 66 -5
0 -12 34 -16 75 -4 41 -11 75 -16 75 -5 0 -9 13 -9 28 0 16 -3 32 -7 36 -4 4
-9 25 -10 46 -2 30 1 40 15 43 18 4 62 -18 75 -39z m-269 4 c1 -13 5 -29 9
-34 21 -35 29 -376 9 -396 -6 -6 -12 -26 -12 -44 0 -17 -9 -43 -20 -57 -11
-14 -20 -31 -20 -38 0 -18 -30 -49 -48 -49 -11 0 -12 7 -7 28 5 15 9 37 10 50
1 12 7 28 13 34 7 7 12 26 12 43 0 17 6 37 12 43 10 10 10 17 1 32 -8 12 -9
20 -2 22 13 4 19 72 19 242 0 127 4 165 17 153 2 -3 5 -16 7 -29z m4100 -60
c-4 -12 -8 -40 -9 -63 -1 -22 -6 -49 -11 -60 -5 -11 -9 -147 -9 -302 0 -156
-3 -283 -7 -283 -5 0 -8 4 -8 8 0 5 -9 18 -21 30 -11 12 -18 26 -15 31 3 5 -1
14 -9 21 -8 6 -17 32 -21 56 -3 24 -10 47 -15 50 -5 2 -11 27 -15 55 -4 27
-11 52 -15 55 -5 3 -7 9 -4 14 3 5 0 21 -5 36 -6 15 -12 83 -15 152 -3 88 -8
128 -17 134 -8 5 -3 6 13 3 21 -5 27 -2 32 15 4 16 12 20 33 18 31 -3 45 17
17 26 -10 3 -3 4 15 2 21 -2 32 2 32 11 0 8 12 13 31 13 27 0 30 -3 23 -22z
m797 -28 c5 0 9 -9 9 -20 0 -13 7 -20 20 -20 11 0 20 -7 20 -15 0 -8 9 -15 20
-15 10 0 24 -8 29 -17 6 -10 11 -14 11 -9 0 5 9 1 19 -8 12 -11 21 -14 26 -7
9 16 25 13 25 -4 0 -19 10 -19 38 1 14 9 28 12 35 7 15 -11 34 -9 75 8 17 7
32 19 32 26 0 7 10 12 23 11 12 -1 36 6 53 16 30 18 32 18 50 0 16 -16 39 -80
49 -134 5 -31 18 -60 25 -60 5 0 11 -13 15 -30 4 -16 13 -30 21 -30 8 0 14 -7
14 -15 0 -8 3 -15 8 -15 4 0 13 -13 20 -28 7 -16 26 -44 42 -62 17 -19 30 -41
30 -51 0 -10 13 -23 30 -31 17 -7 30 -21 30 -30 0 -10 6 -18 13 -18 7 0 19 -6
25 -12 7 -7 30 -18 50 -23 30 -9 37 -15 37 -35 0 -19 -10 -30 -40 -45 -73 -37
-149 -65 -197 -71 -27 -4 -48 -10 -48 -15 0 -4 -25 -16 -56 -26 -42 -13 -59
-14 -73 -6 -14 9 -21 9 -30 0 -8 -8 -16 -9 -29 -1 -10 7 -32 15 -50 19 -18 3
-32 11 -32 16 0 5 -11 14 -25 19 -25 9 -47 47 -38 63 2 4 15 7 27 7 13 0 34 9
48 19 13 11 37 23 51 26 15 4 27 13 27 20 0 7 7 15 15 19 8 3 15 15 15 26 0
11 7 23 15 26 11 5 13 10 5 19 -8 9 -8 15 0 20 14 9 13 52 -2 62 -7 4 -40 6
-73 4 -54 -2 -99 -17 -177 -57 -14 -8 -44 -14 -65 -14 -34 0 -40 4 -53 33 -7
17 -13 38 -13 45 1 6 -3 12 -7 12 -5 0 -8 14 -8 30 1 19 -8 40 -21 54 -12 13
-21 27 -19 32 1 5 -3 19 -10 32 -7 12 -10 27 -7 32 3 6 1 10 -5 10 -7 0 -9 7
-6 16 4 9 2 22 -3 28 -5 6 -15 40 -21 76 -6 35 -16 73 -22 84 -9 16 -8 18 7
13 9 -4 21 -7 26 -7z m-4345 -48 c-2 -4 4 -13 15 -20 15 -10 19 -10 19 0 0 9
3 9 12 0 7 -7 21 -12 32 -12 18 0 19 -1 1 -20 -10 -11 -23 -20 -30 -20 -6 0
-18 -11 -25 -25 -7 -14 -19 -25 -26 -25 -7 0 -15 -8 -17 -17 -2 -10 -5 16 -5
57 0 78 2 90 19 90 6 0 8 -4 5 -8z m3263 -118 c-3 -89 -4 -93 -24 -88 -15 4
-33 -6 -64 -35 -43 -40 -64 -45 -59 -13 1 10 -6 45 -17 80 -14 47 -23 61 -34
57 -11 -5 -11 -2 2 13 12 13 28 18 47 16 21 -3 30 1 30 11 0 9 6 12 15 9 9 -4
23 4 35 19 12 15 30 25 45 25 l26 0 -2 -94z m-4659 -14 c0 -5 7 -10 15 -10 8
0 15 -7 15 -15 0 -20 -19 -19 -42 2 -22 20 -23 33 -3 33 8 0 15 -4 15 -10z
m1751 0 c20 -11 26 -54 9 -65 -11 -7 -14 -58 -3 -69 11 -11 11 -50 1 -63 -7
-9 -7 -13 1 -13 13 0 15 -36 2 -44 -10 -7 -9 -61 2 -72 4 -4 2 -13 -4 -21 -6
-7 -9 -25 -6 -39 2 -14 0 -36 -7 -48 -19 -37 -59 -90 -78 -104 -10 -7 -18 -21
-18 -30 0 -20 -47 -46 -53 -29 -2 6 -9 7 -17 2 -20 -13 -59 -15 -65 -4 -4 5
-12 9 -20 9 -12 0 -105 81 -105 92 0 2 16 10 35 18 19 8 35 16 35 18 0 12 -38
31 -61 32 -39 0 -56 47 -32 85 7 11 13 30 13 42 0 13 6 23 13 23 7 0 28 14 45
31 18 17 32 26 32 20 0 -7 5 -9 10 -6 6 3 10 14 10 24 0 10 9 21 20 24 11 3
28 19 37 36 10 17 23 31 29 31 6 0 19 9 29 20 10 12 24 19 31 16 7 -3 15 6 18
19 4 14 20 32 36 40 17 9 30 20 30 25 0 13 7 13 31 0z m3319 -25 c0 -6 18 -31
40 -55 22 -23 37 -47 34 -51 -3 -5 5 -9 18 -9 12 0 31 -11 43 -25 16 -20 30
-25 71 -26 28 -1 57 2 64 6 19 12 60 13 67 2 8 -14 9 -106 1 -101 -13 8 -88
-58 -88 -78 0 -10 -7 -18 -15 -18 -8 0 -23 -12 -32 -27 -22 -34 -59 -72 -131
-135 -45 -39 -62 -48 -87 -46 l-30 3 -2 205 c-1 124 3 212 9 223 7 14 7 22 -2
27 -11 7 -8 64 9 139 2 9 31 -23 31 -34z m-3127 -9 c6 -8 10 -8 13 0 6 13 51
6 78 -12 10 -7 24 -10 31 -8 21 9 78 -25 67 -39 -5 -7 -10 -50 -11 -96 -1 -87
-45 -330 -71 -396 -15 -38 -30 -70 -42 -90 -7 -11 -14 -21 -15 -23 -1 -2 -11
1 -22 7 -19 10 -21 20 -20 96 1 47 6 88 10 91 11 7 12 44 1 44 -5 0 -8 10 -6
23 1 12 3 22 4 22 9 0 6 52 -7 104 -16 67 -22 110 -26 168 -2 18 -8 38 -15 45
-7 7 -12 21 -12 33 0 12 -5 26 -11 32 -7 7 -2 11 18 11 15 0 32 -5 36 -12z
m2411 -23 c-4 -21 -11 -43 -16 -50 -5 -7 -6 -18 -2 -25 5 -7 9 -29 10 -49 0
-19 4 -41 8 -47 4 -7 4 -12 -1 -12 -9 0 -7 -195 2 -210 4 -6 1 -18 -6 -26 -10
-12 -10 -20 -1 -34 8 -13 8 -21 1 -25 -5 -4 -9 -14 -8 -23 3 -28 -13 -122 -21
-122 -13 0 -40 48 -40 73 0 13 -6 32 -14 43 -10 13 -11 23 -4 31 6 8 7 13 1
13 -6 0 -13 34 -16 76 -4 42 -10 81 -14 87 -4 7 -9 23 -10 37 -10 129 -14 171
-22 207 -9 45 -7 49 39 70 39 18 53 21 88 22 33 1 33 1 26 -36z m-2095 -40
c-13 -15 -11 -16 14 -9 23 6 30 3 34 -13 3 -13 10 -18 20 -14 13 5 14 -1 8
-38 -4 -24 -11 -49 -16 -54 -10 -13 -7 -75 4 -92 5 -8 4 -13 -2 -13 -7 0 -11
-26 -11 -66 0 -37 -6 -78 -14 -92 -8 -15 -19 -40 -25 -56 -9 -22 -14 -26 -25
-17 -22 18 -26 64 -14 158 6 48 12 140 13 203 3 132 2 120 16 120 8 0 7 -6 -2
-17z m1701 -17 c60 14 94 10 106 -14 14 -28 10 -240 -5 -255 -6 -6 -11 -21
-11 -33 0 -12 -7 -27 -15 -34 -8 -7 -15 -19 -15 -26 0 -21 -39 -85 -71 -118
-16 -17 -29 -34 -29 -38 0 -5 -19 -28 -42 -52 -24 -24 -48 -52 -54 -62 -10
-16 -13 -17 -28 -5 -9 7 -16 26 -16 42 0 15 -4 30 -8 33 -5 3 -8 22 -6 43 1
21 -2 52 -8 70 -5 17 -10 117 -11 222 l-2 191 31 0 c16 0 35 5 42 12 9 9 12 9
12 0 0 -7 7 -12 15 -12 8 0 15 7 15 15 0 9 9 15 24 15 14 0 28 5 32 11 5 8 8
8 13 0 4 -6 18 -8 31 -5z m-1492 -28 c-3 -14 5 -14 35 -3 11 5 17 2 17 -8 0
-10 9 -13 29 -11 22 3 30 -1 34 -16 4 -17 0 -20 -29 -20 -23 0 -34 -5 -34 -14
0 -8 -6 -16 -12 -18 -9 -3 -13 -29 -13 -80 0 -62 -3 -75 -15 -71 -13 4 -13 3
-1 -5 18 -12 30 -192 14 -192 -13 0 -33 97 -39 185 -16 271 -16 265 0 265 9 0
15 -6 14 -12z m1190 -31 c14 5 17 -23 2 -32 -5 -3 -10 -20 -10 -38 -1 -18 -3
-115 -5 -217 -3 -102 -2 -192 2 -200 3 -8 7 -32 8 -52 1 -30 -3 -38 -16 -38
-20 0 -43 25 -35 38 7 11 -13 122 -24 137 -4 6 -8 36 -9 68 0 33 -3 63 -6 67
-3 5 -1 11 5 15 6 4 9 52 8 120 -1 99 1 117 17 135 16 17 20 18 34 6 9 -7 22
-11 29 -9z m-912 -18 c-3 -17 -6 -38 -6 -45 0 -8 -7 -14 -16 -14 -10 0 -14 7
-13 23 2 12 0 28 -5 36 -9 14 8 31 33 31 10 0 12 -8 7 -31z m659 0 c4 -6 13
-8 20 -5 29 11 36 -21 34 -173 -2 -104 -6 -160 -16 -177 -7 -15 -13 -50 -13
-79 0 -31 -5 -55 -11 -57 -7 -2 -13 -19 -16 -38 -2 -18 -5 -35 -7 -38 -10 -9
-26 11 -26 33 0 13 -4 26 -9 30 -5 3 -12 36 -16 73 -11 108 -12 116 -19 133
-4 9 -6 20 -5 25 1 5 0 11 -1 14 -1 3 -3 14 -4 25 -2 11 -6 47 -11 80 -5 33
-7 68 -6 78 1 9 -3 17 -8 17 -6 0 -11 14 -11 31 l0 32 45 -6 c27 -4 45 -3 45
3 0 13 27 13 35 -1z m1139 -4 c3 -9 0 -15 -9 -15 -8 0 -15 7 -15 15 0 8 4 15
9 15 5 0 11 -7 15 -15z m-1584 -95 c-8 -162 0 -271 21 -297 7 -7 7 -13 2 -13
-6 0 -13 -30 -16 -66 -4 -38 -13 -74 -22 -84 -8 -9 -15 -28 -15 -42 0 -14 -7
-31 -15 -38 -8 -7 -15 -19 -15 -27 0 -8 -7 -21 -15 -29 -8 -9 -15 -24 -15 -35
0 -10 -7 -19 -15 -19 -8 0 -15 -7 -15 -15 0 -24 -16 -17 -30 13 -16 32 -20 46
-27 90 -3 17 -9 32 -13 32 -5 0 -12 24 -15 54 -7 50 -5 57 23 93 17 21 33 53
37 71 4 17 11 32 16 32 5 0 9 13 9 29 0 16 6 34 14 40 8 7 18 27 21 44 4 18
12 46 18 64 8 24 8 42 -1 69 -8 27 -8 41 0 51 7 9 7 13 -1 13 -12 0 -15 52 -4
64 4 4 23 6 43 4 l35 -3 -5 -95z m217 21 c0 -116 14 -265 26 -273 7 -4 7 -11
-2 -22 -9 -11 -10 -20 -4 -28 6 -7 13 -56 17 -108 5 -71 11 -98 23 -107 9 -7
13 -16 10 -20 -4 -3 -1 -13 6 -22 19 -23 37 -68 30 -75 -20 -20 -93 11 -93 39
0 6 -9 28 -19 49 -11 21 -20 45 -20 54 0 9 -1 28 -2 42 -2 32 11 89 22 96 13
7 11 144 -1 144 -5 0 -10 9 -10 20 0 15 -7 20 -24 20 -14 0 -28 5 -31 10 -3 6
-15 10 -26 10 -16 0 -19 8 -21 48 0 26 0 60 1 75 1 16 -2 34 -7 40 -5 7 -7 26
-5 44 5 34 12 37 89 39 l42 1 -1 -76z m-2786 -35 c-9 -11 -2 -23 32 -58 24
-25 56 -48 73 -52 16 -4 32 -13 36 -19 4 -7 12 -6 24 4 15 13 16 12 9 -11 -4
-14 -12 -26 -16 -28 -5 -2 -9 -10 -9 -17 0 -7 -15 -17 -32 -21 -18 -3 -47 -17
-64 -30 -35 -27 -79 -31 -120 -9 -16 8 -36 15 -44 15 -8 0 -24 14 -35 30 -11
16 -26 30 -33 30 -8 0 -12 9 -10 23 2 15 10 22 25 22 11 0 25 3 29 8 4 4 0 7
-9 7 -9 0 -17 5 -17 10 0 6 16 10 35 10 23 0 35 5 35 14 0 7 12 22 28 32 15 9
33 26 40 36 7 10 18 18 24 18 7 0 7 -5 -1 -14z m2326 -18 c-3 -8 -6 -5 -6 6
-1 11 2 17 5 13 3 -3 4 -12 1 -19z m-1347 2 c0 -5 -2 -10 -4 -10 -3 0 -8 5
-11 10 -3 6 -1 10 4 10 6 0 11 -4 11 -10z m5921 -32 c10 -13 18 -30 19 -39 0
-8 11 -26 25 -39 14 -13 25 -29 25 -36 0 -6 18 -34 40 -60 22 -27 40 -54 40
-61 0 -6 14 -27 30 -45 17 -18 30 -38 30 -45 0 -6 12 -18 28 -26 15 -7 26 -19
25 -25 -2 -7 4 -12 12 -12 8 0 15 -6 15 -12 0 -16 47 -39 65 -32 7 3 16 1 20
-5 3 -6 17 -11 30 -11 31 0 43 -20 13 -22 -37 -2 -42 -3 -58 -13 -18 -11 -333
-20 -357 -10 -10 4 -27 9 -38 10 -11 2 -33 9 -50 16 -16 7 -36 13 -44 15 -7 1
-23 11 -35 22 -11 11 -26 18 -32 15 -15 -5 -84 62 -84 81 0 9 -5 16 -12 16 -6
0 -4 7 5 18 10 10 17 24 17 30 0 7 7 12 15 12 8 0 15 7 15 15 0 8 6 15 14 15
16 0 66 55 66 73 0 7 7 24 14 39 8 15 11 30 7 33 -5 2 -11 15 -13 28 -6 29 14
43 59 42 17 0 29 2 27 4 -4 4 33 30 44 31 2 0 12 -10 23 -22z m-291 -49 c0 -5
4 -7 10 -4 17 11 70 14 70 4 0 -5 -11 -14 -24 -19 -13 -5 -27 -14 -31 -19 -3
-6 -14 -11 -24 -11 -9 0 -32 -15 -50 -34 -32 -33 -68 -39 -57 -10 3 8 2 14 -2
14 -4 0 -13 13 -19 30 -13 36 -6 42 52 48 22 2 42 5 44 8 9 8 31 4 31 -7z
m-2231 -126 c11 -9 18 -20 15 -25 -5 -8 3 -20 39 -59 10 -11 15 -25 11 -31 -5
-7 0 -9 14 -6 12 4 22 2 22 -4 0 -5 10 -18 21 -27 16 -13 23 -31 26 -73 4 -55
4 -56 -34 -79 -21 -13 -41 -27 -44 -32 -3 -5 -10 -9 -15 -9 -18 -1 -59 -20
-76 -35 -9 -8 -21 -12 -26 -9 -4 3 -21 -2 -37 -10 -37 -19 -206 -16 -213 4 -2
7 5 16 17 19 11 3 23 14 26 24 4 10 13 19 21 19 16 0 54 35 54 50 0 6 6 10 14
10 8 0 18 9 21 20 3 11 11 20 16 20 5 0 9 6 9 13 0 6 7 26 16 42 41 76 68 131
70 140 0 6 2 20 2 33 2 26 6 27 31 5z m1911 -8 c-11 -13 -8 -15 14 -15 23 0
26 -4 26 -32 0 -25 3 -29 10 -18 5 8 10 11 10 6 0 -16 -32 -46 -50 -46 -9 0
-25 -7 -36 -15 -21 -16 -144 -21 -144 -7 0 11 30 37 53 45 9 4 17 13 17 22 0
8 5 15 11 15 5 0 24 13 42 30 34 32 71 43 47 15z m-1252 -37 c7 -7 12 -25 12
-40 0 -15 4 -28 10 -28 5 0 7 -13 4 -30 -5 -22 2 -47 27 -97 18 -38 38 -71 43
-75 6 -4 15 -22 22 -40 6 -18 24 -42 41 -53 17 -11 36 -30 42 -43 6 -13 23
-25 41 -28 16 -4 30 -10 30 -15 0 -4 16 -11 35 -15 20 -3 35 -12 35 -20 0 -13
9 -15 53 -18 6 0 27 -11 45 -24 18 -13 42 -22 55 -20 14 2 22 -2 22 -12 0 -8
-10 -16 -22 -18 -13 -2 -23 -6 -23 -10 0 -4 -10 -8 -22 -9 -80 -7 -186 -24
-206 -33 -30 -13 -299 -13 -307 0 -3 6 -27 10 -52 10 -27 0 -66 9 -92 21 -53
25 -121 86 -121 109 0 8 -6 24 -13 35 -15 23 -36 88 -40 125 -1 14 -5 30 -9
35 -3 6 -9 35 -12 66 l-7 57 51 3 c28 2 58 0 66 -4 8 -5 14 -4 14 3 0 5 8 10
18 10 10 0 28 9 41 21 13 12 30 19 41 16 13 -3 21 1 25 14 4 10 10 19 16 19
16 0 87 55 100 78 14 25 20 27 37 10z m-3032 -128 c8 0 14 -8 14 -18 0 -10 5
-23 12 -30 10 -10 5 -11 -22 -6 -62 12 -75 38 -42 84 l17 25 3 -27 c2 -16 9
-28 18 -28z m-655 3 c-5 -10 -19 -46 -31 -80 -24 -68 -36 -75 -66 -42 -10 12
-36 30 -56 40 -41 21 -52 34 -43 49 5 8 11 8 20 0 10 -8 15 -8 20 1 6 8 10 8
15 -2 8 -12 46 0 110 36 33 19 42 19 31 -2z m2212 -120 c-4 -10 -9 -20 -12
-23 -12 -10 -31 -50 -31 -66 0 -20 -39 -15 -53 7 -7 12 -5 21 11 37 12 12 24
22 27 22 3 0 14 9 25 20 25 25 42 26 33 3z m-373 -49 c0 -10 -9 -12 -32 -7
-45 8 -56 20 -33 37 16 12 22 12 42 -1 13 -9 23 -21 23 -29z m2405 -264 c-3
-5 -10 -10 -16 -10 -5 0 -9 5 -9 10 0 6 7 10 16 10 8 0 12 -4 9 -10z m-5975
-288 c0 -4 -45 -53 -100 -110 -55 -56 -100 -108 -100 -117 0 -8 -7 -15 -15
-15 -9 0 -20 -11 -25 -24 -5 -13 -14 -27 -19 -31 -6 -3 -11 -15 -11 -26 0 -10
-7 -19 -15 -19 -9 0 -15 -9 -15 -22 0 -13 -14 -36 -31 -52 -18 -18 -27 -36
-24 -45 3 -9 3 -12 -1 -9 -3 4 -7 53 -8 109 -1 89 2 105 18 120 10 10 24 15
31 13 8 -3 15 7 19 27 4 21 10 29 20 26 8 -3 24 5 37 19 12 13 30 26 41 30 10
3 18 11 18 19 0 11 79 69 115 84 5 2 16 10 23 18 15 14 42 18 42 5z m320 -48
c0 -14 9 -37 20 -51 11 -14 20 -34 20 -44 0 -10 4 -20 9 -24 13 -8 41 -65 41
-83 0 -9 6 -23 14 -31 8 -9 17 -45 20 -80 3 -38 12 -71 21 -81 11 -12 13 -20
6 -25 -13 -7 -15 -55 -2 -55 13 0 14 -287 1 -295 -7 -4 -7 -11 -2 -18 9 -13 9
-52 -1 -77 -3 -8 -8 -43 -10 -77 -2 -34 -9 -68 -15 -76 -7 -8 -10 -21 -6 -30
3 -8 1 -18 -5 -22 -6 -3 -11 -17 -11 -31 0 -13 -4 -32 -9 -42 -13 -25 -35
-105 -33 -119 2 -6 -2 -14 -8 -18 -5 -3 -10 -17 -10 -29 0 -13 -7 -29 -15 -36
-9 -7 -14 -19 -11 -26 12 -32 -23 -38 -277 -41 -139 -2 -281 -8 -317 -14 -77
-13 -116 -9 -112 11 2 7 4 39 5 69 1 31 6 61 10 67 4 7 0 14 -8 18 -19 7 -19
30 0 46 10 8 12 17 6 24 -12 14 -18 227 -7 244 6 10 10 216 5 249 -1 5 -1 24
0 43 1 30 9 41 57 78 31 24 59 52 61 62 3 11 20 28 39 39 19 11 34 25 34 31 0
6 32 42 71 81 54 53 74 68 80 57 6 -9 9 -2 9 20 0 17 5 32 11 32 18 0 76 55
71 68 -2 7 3 12 12 12 9 0 16 6 16 14 0 8 15 17 35 20 26 5 35 12 35 27 0 12
12 27 30 37 16 9 30 23 30 31 0 8 6 11 15 7 10 -3 15 1 15 11 0 20 29 53 47
53 7 0 13 -11 13 -26z m-554 -1466 c3 -4 109 -7 237 -7 128 0 245 0 260 0 25
-1 27 -4 21 -23 -13 -45 -33 -81 -71 -135 -13 -17 -23 -36 -23 -42 0 -6 -13
-26 -30 -44 -16 -19 -30 -42 -30 -51 0 -9 -7 -16 -15 -16 -8 0 -12 -6 -9 -13
3 -8 -6 -25 -20 -38 -14 -13 -26 -30 -26 -36 0 -7 -12 -13 -28 -13 -15 0 -33
-5 -38 -10 -6 -6 -60 -14 -120 -17 -60 -3 -112 -10 -115 -15 -4 -7 -9 -6 -13
1 -9 14 -53 14 -61 1 -8 -14 -42 -13 -51 1 -8 14 -7 447 2 460 6 11 123 8 130
-3z"/>
<path d="M5541 13653 c-16 -59 -25 -124 -36 -253 -4 -41 -9 -88 -11 -105 -3
-16 -7 -49 -9 -73 -2 -23 -6 -59 -9 -80 -3 -20 -8 -69 -11 -109 -4 -40 -8 -85
-10 -100 -2 -15 -6 -66 -10 -112 -3 -47 -8 -87 -10 -91 -2 -3 -7 -46 -10 -96
-4 -49 -8 -100 -10 -114 -2 -14 -6 -56 -9 -95 -6 -78 -15 -157 -21 -195 -2
-14 -7 -63 -10 -110 -3 -47 -8 -96 -10 -110 -3 -14 -7 -54 -10 -90 -3 -36 -12
-123 -20 -195 -7 -71 -13 -137 -13 -145 0 -8 -3 -40 -7 -70 -4 -30 -8 -77 -10
-105 -1 -27 -6 -66 -9 -85 -4 -19 -9 -69 -11 -110 -6 -89 -10 -127 -21 -200
-4 -30 -7 -59 -5 -64 1 -6 -5 -63 -15 -127 -16 -110 -16 -119 0 -143 10 -16
27 -27 44 -28 15 0 34 -2 42 -2 14 -1 43 28 46 47 1 4 3 10 4 15 2 4 4 45 6
92 1 47 5 119 8 160 10 141 17 225 22 275 2 28 6 80 8 116 2 37 7 72 11 78 3
7 2 18 -4 25 -6 7 -8 16 -4 20 4 3 8 24 10 46 2 21 7 66 11 100 5 33 5 63 0
66 -4 3 -5 11 -1 17 4 7 8 21 8 32 0 11 4 25 8 32 4 6 3 14 -3 18 -6 4 -7 12
-1 22 4 9 6 25 3 35 -4 18 -1 19 32 15 37 -5 70 2 136 30 19 8 44 17 54 19 11
2 29 12 40 23 12 10 31 17 44 15 12 -2 22 1 22 7 0 5 4 8 9 4 5 -3 12 -1 16 5
4 6 11 8 16 5 5 -4 9 -2 9 3 0 9 80 27 152 35 15 2 30 6 33 9 7 6 192 0 212
-7 7 -2 11 -10 8 -17 -2 -7 -7 -47 -11 -88 -3 -41 -8 -88 -10 -105 -2 -16 -6
-52 -8 -80 -3 -27 -7 -59 -9 -70 -3 -11 -8 -60 -12 -110 -4 -49 -9 -99 -11
-110 -5 -27 -14 -109 -19 -170 -10 -126 -17 -193 -25 -225 -5 -19 -9 -51 -9
-70 1 -19 -2 -51 -6 -70 -6 -35 -10 -63 -20 -170 -3 -30 -7 -67 -9 -83 -2 -15
1 -30 6 -33 4 -3 6 -9 3 -14 -6 -10 31 -22 55 -17 22 4 61 33 54 40 -4 3 -3
14 1 24 8 18 13 67 18 178 1 33 5 65 8 70 3 6 7 28 8 49 1 22 4 43 7 47 2 4 0
11 -6 14 -7 5 -8 11 -1 19 5 6 12 45 14 86 3 41 8 93 11 115 3 22 8 67 11 100
3 33 7 76 10 95 2 19 7 64 9 100 3 36 6 65 6 65 4 0 20 165 25 235 1 32 11
108 21 171 2 15 11 39 19 55 17 33 20 70 5 79 -5 3 -7 29 -5 58 3 29 8 86 11
127 2 41 7 95 9 120 3 25 8 70 10 100 3 30 8 75 12 100 3 25 7 59 8 75 5 76
15 199 21 242 3 25 7 71 10 102 3 31 8 81 11 111 4 30 7 113 7 185 1 116 -1
130 -16 133 -19 4 -32 -21 -41 -74 -19 -112 -27 -164 -31 -199 -3 -22 -7 -58
-10 -80 -9 -64 -22 -174 -31 -265 -4 -30 -8 -68 -10 -85 -2 -16 -13 -106 -24
-200 -11 -93 -23 -197 -27 -230 -8 -65 -12 -109 -13 -140 -2 -43 -15 -48 -123
-51 -89 -3 -177 -17 -253 -40 -11 -3 -32 -8 -47 -11 -16 -3 -28 -9 -28 -14 0
-5 -6 -9 -13 -9 -11 0 -143 -64 -227 -110 -14 -8 -29 -15 -35 -16 -5 -1 -22
-5 -37 -9 -29 -8 -36 3 -16 23 9 9 8 12 -4 12 -13 0 -15 10 -13 53 2 28 4 52
5 52 1 0 3 16 5 35 3 50 15 198 20 245 3 22 7 76 10 120 7 114 16 224 21 265
6 46 16 237 15 273 0 15 3 27 7 27 4 0 8 24 8 53 1 28 5 102 9 162 23 357 25
408 13 422 -19 23 -37 14 -47 -24z"/>
<path d="M8258 13133 c-30 -34 -52 -88 -54 -133 -8 -175 -14 -251 -19 -259 -3
-5 -8 -67 -11 -138 -3 -70 -7 -144 -10 -163 -3 -19 -7 -51 -9 -70 -2 -19 -6
-57 -9 -85 -3 -27 -8 -66 -10 -85 -4 -38 -16 -122 -22 -155 -19 -100 -30 -171
-39 -247 -1 -14 -8 -43 -15 -63 -7 -20 -10 -39 -7 -41 2 -3 0 -24 -5 -47 -5
-23 -16 -80 -24 -127 -21 -123 -22 -125 -43 -240 -11 -58 -25 -127 -31 -155
-16 -68 -29 -148 -36 -220 -3 -33 -9 -64 -12 -70 -10 -16 -11 -20 -27 -216 -1
-20 -4 -41 -7 -45 -2 -5 -3 -25 -1 -44 1 -19 3 -52 3 -73 0 -34 3 -38 30 -43
16 -4 28 -10 25 -14 -8 -13 43 -18 56 -6 9 8 10 8 5 -1 -12 -22 8 -14 33 13
20 20 25 38 28 97 2 40 6 90 8 112 3 22 7 69 10 105 3 36 7 83 10 105 3 22 7
56 9 75 2 19 7 58 11 85 3 28 6 53 6 57 0 4 5 22 10 40 11 40 18 78 24 132 9
78 14 121 20 146 3 14 7 43 10 65 3 22 7 51 10 65 3 14 8 48 11 75 3 28 8 66
11 85 3 19 6 46 7 60 1 14 4 30 7 35 3 6 6 30 7 55 2 53 5 71 13 85 4 6 5 19
3 29 -1 11 0 25 4 30 4 6 8 25 9 41 3 40 11 110 14 110 1 0 3 27 4 61 1 33 5
70 9 81 4 12 2 24 -4 28 -6 3 -7 12 -3 18 5 7 8 23 9 37 1 14 5 61 9 105 4 44
7 85 7 90 -1 16 0 147 1 384 2 234 -3 270 -35 234z"/>
<path d="M8729 12953 c0 -15 -3 -39 -5 -53 -3 -14 -6 -78 -7 -142 -1 -65 -4
-118 -7 -118 -3 0 -6 -48 -7 -108 -1 -59 -5 -132 -8 -162 -8 -75 -14 -175 -19
-301 -2 -59 -6 -111 -9 -116 -6 -10 -11 -91 -7 -108 1 -5 1 -12 0 -15 -2 -3
-4 -43 -5 -90 -2 -92 -13 -223 -20 -243 -3 -6 -7 -48 -9 -92 -3 -44 -6 -80 -6
-80 -3 0 -16 -80 -25 -145 -2 -14 -7 -45 -11 -70 -4 -25 -8 -58 -10 -75 -1
-16 -9 -66 -18 -110 -21 -110 -25 -137 -31 -196 -3 -28 -7 -54 -9 -58 -3 -4
-8 -32 -11 -62 -4 -30 -11 -74 -17 -99 -6 -25 -12 -93 -14 -151 -4 -104 -4
-106 21 -119 13 -7 21 -18 18 -23 -4 -6 0 -8 10 -4 19 7 33 -9 15 -17 -7 -3 7
-3 30 0 31 4 52 15 73 37 34 35 31 26 35 107 2 36 6 84 9 108 3 23 8 62 10 85
2 23 5 42 6 42 3 0 16 99 24 190 4 38 9 78 11 90 9 36 14 89 19 165 3 41 10
107 16 145 6 39 12 90 14 115 2 25 4 45 4 45 1 0 4 34 6 75 3 41 8 107 11 145
3 39 5 113 4 165 -1 110 -1 158 5 405 8 365 7 450 -10 708 -9 132 -15 151 -48
155 -24 3 -27 0 -28 -25z"/>
<path d="M10524 12855 c-9 -14 -14 -28 -11 -31 3 -3 1 -20 -5 -37 -6 -18 -12
-79 -13 -137 -2 -58 -6 -118 -10 -135 -3 -16 -8 -64 -10 -105 -17 -274 -14
-239 -35 -385 -6 -44 -22 -125 -35 -180 -13 -55 -27 -125 -30 -155 -10 -85
-12 -99 -34 -192 -11 -48 -25 -97 -31 -108 -6 -11 -8 -20 -6 -20 3 0 -1 -18
-9 -40 -8 -22 -14 -41 -14 -43 0 -1 -4 -13 -9 -27 -25 -65 -35 -245 -16 -265
17 -17 18 -29 2 -19 -7 4 -8 3 -4 -4 4 -7 16 -12 27 -12 10 0 19 -4 19 -10 0
-5 8 -10 18 -10 27 1 50 42 50 91 0 52 8 112 21 157 5 17 8 32 6 32 -2 0 3 17
12 38 8 20 15 38 14 40 0 1 -1 3 0 5 6 19 31 125 35 147 3 14 9 41 14 60 8 32
18 91 35 205 13 83 16 101 22 120 4 11 8 31 9 45 1 14 2 25 3 25 4 0 10 40 16
110 4 39 9 90 12 115 2 25 6 106 8 180 15 563 15 570 -21 570 -7 0 -21 -11
-30 -25z"/>
<path d="M7085 11965 c-75 -19 -130 -55 -225 -146 -84 -82 -150 -164 -150
-188 0 -5 -7 -14 -15 -21 -9 -7 -14 -18 -12 -25 3 -6 -1 -19 -9 -30 -8 -10
-14 -28 -14 -38 0 -11 -6 -25 -14 -31 -16 -12 -24 -50 -31 -136 -11 -129 -12
-181 -3 -186 5 -3 4 -12 -2 -19 -8 -10 -8 -19 0 -35 6 -11 8 -25 5 -30 -3 -6
-1 -10 4 -10 6 0 11 -9 11 -20 0 -10 10 -30 23 -43 31 -34 57 -70 57 -80 0 -4
4 -6 10 -2 5 3 22 -7 37 -23 15 -16 38 -32 51 -36 12 -4 19 -12 16 -18 -5 -7
2 -9 20 -4 20 5 26 3 26 -10 0 -13 3 -14 15 -4 8 7 15 8 15 3 0 -5 14 -17 31
-27 18 -11 29 -14 25 -7 -4 6 -3 11 3 11 5 0 13 -5 17 -11 3 -6 17 -9 31 -6
15 3 27 -1 30 -9 2 -7 13 -11 24 -9 10 2 19 1 19 -3 0 -9 25 -12 99 -12 30 0
60 -5 66 -10 9 -7 22 -7 41 0 17 7 30 7 32 2 1 -5 16 -8 33 -6 16 2 28 0 25
-4 -3 -5 1 -9 9 -9 8 0 12 5 8 10 -3 5 4 4 14 -2 11 -6 23 -7 27 -4 3 3 6 2 6
-4 0 -11 29 -11 47 0 6 4 15 3 18 -3 5 -8 12 -7 23 2 10 8 13 9 9 1 -5 -7 4
-6 23 4 17 8 41 12 55 9 13 -3 27 -1 30 5 4 6 14 8 22 5 11 -5 13 -2 9 10 -5
14 -4 15 8 5 12 -10 16 -8 21 8 3 12 13 21 21 21 8 0 12 5 9 10 -3 6 1 10 9
10 10 0 14 8 12 28 -2 15 -5 28 -6 30 -1 1 -3 6 -4 10 0 5 -12 22 -25 39 -22
28 -28 29 -85 27 -34 -1 -74 -5 -89 -9 -37 -10 -127 -12 -127 -3 0 4 -36 6
-80 4 -47 -2 -80 1 -80 7 0 6 -5 6 -12 -1 -14 -11 -37 -9 -178 14 -149 23
-154 24 -161 35 -5 9 -19 14 -49 18 -11 2 -67 58 -83 82 -19 31 -19 301 1 321
6 6 12 22 12 35 0 13 4 23 10 23 5 0 12 17 16 38 15 82 212 294 284 305 8 2
20 5 25 9 17 10 147 1 154 -11 4 -6 21 -14 37 -17 16 -3 32 -11 36 -17 4 -7 8
-7 8 -2 0 7 3 7 8 0 4 -6 25 -25 47 -44 41 -36 43 -39 45 -105 3 -60 2 -61
-26 -89 -61 -61 -216 -115 -350 -122 -153 -9 -224 -29 -224 -65 0 -16 14 -26
50 -35 3 -1 13 -5 22 -9 10 -5 45 -9 78 -10 33 0 60 -3 60 -6 0 -8 185 -4 199
4 7 4 27 10 44 12 41 6 147 46 147 56 0 5 9 8 20 8 11 0 23 7 26 15 4 8 15 15
25 15 10 0 19 7 19 15 0 8 5 15 10 15 6 0 10 7 10 15 0 8 8 19 18 24 25 14 42
94 38 179 -4 79 -8 86 -87 162 -57 54 -119 109 -119 105 0 -3 -16 4 -35 15
-57 32 -222 46 -300 25z"/>
<path d="M9365 11623 c-46 -10 -84 -37 -155 -110 -78 -82 -113 -123 -105 -123
3 0 -2 -9 -12 -19 -10 -11 -33 -51 -52 -88 -19 -37 -41 -80 -48 -95 -8 -16
-11 -28 -7 -28 3 0 2 -6 -4 -12 -6 -7 -10 -15 -10 -18 0 -3 -5 -23 -11 -45
-18 -71 -21 -104 -10 -111 8 -4 8 -8 1 -13 -6 -4 -13 -29 -16 -56 -3 -28 -6
-50 -6 -50 -1 0 -3 -40 -4 -89 -2 -69 1 -97 16 -127 10 -21 17 -42 16 -46 0
-4 4 -21 11 -38 7 -16 14 -35 15 -42 1 -7 13 -22 27 -35 25 -23 29 -30 29 -47
0 -5 8 -12 19 -16 10 -3 33 -19 50 -36 17 -16 36 -27 42 -24 5 4 15 3 22 -2
15 -11 127 -10 146 1 9 6 12 5 8 -1 -4 -6 15 -3 41 5 26 9 49 19 50 24 2 4 10
8 18 8 8 0 14 7 14 15 0 8 6 12 14 9 20 -8 136 114 136 143 0 6 8 18 18 25 20
15 82 136 82 161 0 9 5 17 10 17 6 0 10 9 10 20 0 11 5 20 11 20 5 0 7 5 4 10
-4 6 -2 17 5 25 6 8 11 22 10 32 -1 10 -1 20 0 23 17 40 19 382 2 388 -7 2
-12 11 -12 20 0 13 -10 49 -28 102 -3 8 -4 18 -4 23 1 4 -2 7 -8 7 -5 0 -16
16 -24 35 -18 42 -38 67 -96 119 -29 27 -160 50 -215 39z m75 -163 c3 -1 8 -2
13 -1 4 0 7 -4 7 -10 0 -5 4 -8 9 -4 6 3 16 -2 23 -10 7 -9 21 -25 31 -36 10
-11 15 -24 12 -29 -4 -6 -2 -10 4 -10 6 0 8 -7 5 -15 -4 -8 -1 -15 6 -15 6 0
10 -8 9 -17 -1 -10 1 -25 4 -33 4 -8 9 -26 11 -40 3 -14 5 -27 6 -30 4 -13 -1
-228 -5 -250 -3 -14 -7 -42 -9 -63 -2 -21 -9 -44 -15 -50 -6 -6 -11 -15 -11
-20 0 -9 -17 -49 -49 -117 -9 -19 -20 -38 -26 -42 -5 -4 -6 -8 -2 -8 5 0 1 -7
-8 -17 -9 -9 -27 -33 -40 -53 -13 -20 -45 -51 -72 -68 -39 -25 -59 -30 -106
-31 -55 0 -61 2 -95 37 -68 69 -85 115 -85 233 0 124 12 278 23 299 4 8 8 17
8 20 0 3 6 25 13 50 7 25 11 53 10 63 -1 9 2 17 8 17 5 0 15 16 22 35 7 19 17
35 21 35 4 0 8 9 8 20 0 11 4 20 8 20 5 0 16 16 25 35 9 19 21 35 26 35 5 0
13 9 16 20 5 14 12 19 24 15 10 -3 24 1 31 10 7 8 16 13 20 10 5 -3 11 -1 15
5 12 20 33 9 45 -22 10 -30 12 -31 21 -15 6 10 9 27 6 37 -4 16 7 20 33 10z"/>
<path d="M10210 10473 c-35 -23 -70 -65 -64 -75 3 -4 2 -8 -3 -8 -14 0 -35
-73 -40 -137 -3 -42 -1 -63 6 -63 6 0 11 -6 11 -13 0 -18 64 -50 105 -51 19
-1 35 2 35 7 0 4 7 7 15 7 8 0 30 21 49 46 31 41 35 52 34 105 0 33 4 65 11
72 6 6 11 25 11 42 0 68 -107 111 -170 68z"/>
<path d="M17390 13291 c0 -5 5 -13 10 -16 6 -3 10 -2 10 4 0 5 -4 13 -10 16
-5 3 -10 2 -10 -4z"/>
<path d="M16235 12799 c-3 -3 -23 -9 -45 -13 -22 -3 -43 -13 -46 -21 -4 -8
-16 -15 -28 -15 -12 0 -36 -13 -54 -30 -18 -16 -37 -30 -41 -30 -14 0 -61 -25
-61 -32 0 -5 -6 -8 -14 -8 -8 0 -16 -7 -20 -15 -3 -8 -16 -15 -28 -15 -26 -1
-60 -26 -77 -58 -6 -12 -17 -22 -23 -22 -22 0 -59 -64 -77 -135 -9 -35 -8 -42
11 -62 12 -13 31 -23 43 -23 27 0 65 27 65 46 0 8 11 19 24 24 13 5 27 18 31
29 3 12 12 21 19 21 6 0 29 9 51 20 22 11 47 20 57 20 10 0 18 5 18 11 0 6 6
9 13 6 7 -3 19 4 26 15 8 13 18 17 31 13 12 -4 27 2 42 17 13 13 28 23 33 24
6 0 17 3 25 7 62 23 79 25 90 11 9 -10 17 -11 32 -3 12 7 24 7 31 1 7 -5 24
-8 39 -7 15 2 30 -1 34 -6 3 -5 10 -7 15 -3 5 3 16 1 23 -5 11 -9 80 -14 157
-10 9 0 32 15 52 33 32 29 36 37 34 76 -2 30 -8 47 -21 54 -11 6 -26 18 -35
26 -9 8 -34 17 -56 19 -22 1 -48 7 -57 12 -9 5 -23 6 -31 3 -8 -3 -18 -1 -22
5 -3 7 -24 9 -51 6 -30 -4 -44 -2 -44 6 0 8 -12 10 -34 6 -19 -3 -37 -3 -40 1
-9 8 -86 10 -91 1z"/>
<path d="M17739 12484 c-6 -8 -19 -14 -29 -14 -9 0 -25 -9 -35 -20 -14 -15
-15 -23 -6 -34 8 -10 9 -16 1 -21 -5 -3 -10 -9 -10 -13 0 -12 63 -77 74 -77 6
-1 21 -7 34 -13 16 -9 58 -12 140 -9 90 3 121 1 133 -10 14 -11 18 -11 28 1
12 14 51 11 51 -5 0 -5 9 -9 19 -9 10 0 22 -8 25 -17 5 -11 9 -14 14 -6 5 8
11 7 20 -3 10 -11 10 -14 0 -14 -20 -1 23 -30 43 -30 10 0 25 -9 33 -21 8 -12
19 -18 25 -14 6 3 11 -1 11 -9 0 -9 8 -16 18 -16 9 0 28 -12 41 -25 13 -14 34
-28 47 -31 15 -4 24 -13 24 -25 0 -10 9 -24 20 -31 11 -7 20 -19 20 -26 0 -20
50 -62 73 -62 12 0 31 9 43 21 18 17 20 26 14 54 -4 19 -5 36 -2 39 2 3 0 11
-5 18 -6 7 -14 27 -17 43 -4 17 -16 35 -28 40 -12 6 -25 22 -29 36 -7 28 -42
69 -59 69 -5 0 -25 15 -44 33 -49 46 -64 57 -76 57 -5 0 -10 7 -10 15 0 8 -6
15 -14 15 -7 0 -16 9 -19 20 -3 14 -14 20 -31 20 -15 0 -26 6 -26 13 0 8 -25
27 -56 42 -56 28 -59 29 -250 31 -154 1 -196 -1 -205 -12z"/>
<path d="M16312 12362 c-12 -8 -22 -20 -22 -28 0 -7 -6 -11 -13 -8 -7 2 -22
-4 -32 -16 -10 -11 -24 -20 -31 -20 -7 0 -16 -17 -20 -37 -4 -21 -18 -49 -31
-62 -19 -20 -23 -33 -21 -80 1 -31 7 -64 12 -75 8 -13 8 -20 0 -23 -13 -4 10
-62 30 -75 6 -4 11 -13 11 -20 0 -7 10 -14 23 -16 12 -2 20 -7 17 -12 -6 -10
30 -32 38 -23 10 9 77 11 77 1 0 -5 17 5 38 22 22 17 52 34 67 38 27 8 36 17
49 52 4 8 17 35 31 59 25 44 35 134 16 145 -4 3 -11 27 -14 52 -3 28 -11 51
-21 56 -9 5 -16 16 -16 23 0 8 -8 15 -19 15 -10 0 -30 12 -45 26 -14 15 -26
21 -26 15 0 -7 -5 -9 -12 -4 -22 13 -62 11 -86 -5z"/>
<path d="M17810 12061 c-14 -14 -27 -26 -30 -26 -20 -1 -72 -55 -81 -84 -7
-20 -19 -46 -27 -58 -11 -17 -13 -44 -9 -113 5 -102 24 -141 87 -184 31 -21
42 -23 93 -17 32 4 62 12 66 19 4 6 27 22 51 35 37 19 51 35 78 88 31 59 33
69 29 140 -3 44 -12 90 -22 110 -20 40 -54 79 -68 79 -6 0 -18 7 -28 15 -9 9
-38 17 -65 19 -41 2 -52 -1 -74 -23z"/>
<path d="M15745 11500 c-11 -4 -29 -10 -40 -14 -11 -4 -27 -22 -35 -40 -14
-29 -14 -34 1 -49 8 -9 20 -17 25 -17 6 0 27 -18 49 -40 26 -27 42 -36 50 -30
7 6 16 5 23 -2 8 -8 15 -8 26 1 9 8 15 8 18 2 1 -6 22 -13 46 -16 24 -3 52
-11 62 -18 15 -8 25 -9 37 -1 20 12 73 -9 73 -30 0 -10 21 -13 81 -12 57 1 84
-3 92 -12 6 -8 22 -18 35 -23 13 -5 26 -18 29 -29 6 -22 42 -27 61 -8 9 9 12
9 12 0 0 -14 23 -16 48 -4 9 5 31 15 47 23 27 13 32 13 48 -4 10 -10 15 -22
12 -26 -3 -5 4 -7 15 -4 11 3 20 9 20 14 0 5 8 9 18 9 23 0 70 32 65 46 -2 5
8 21 22 34 14 13 25 31 25 41 0 10 5 21 10 24 13 8 13 45 -1 45 -5 0 -8 3 -6
8 3 4 -5 27 -16 52 -21 42 -24 45 -57 42 -19 -2 -43 -11 -52 -19 -14 -12 -21
-13 -32 -4 -10 8 -16 9 -21 1 -3 -5 -35 -10 -70 -10 -49 0 -66 4 -73 17 -8 13
-19 15 -55 10 -31 -4 -48 -2 -56 7 -11 13 -38 15 -58 3 -6 -4 -22 -3 -36 2
-14 5 -72 10 -128 11 -57 0 -117 3 -132 5 -15 2 -42 -1 -59 -6 -23 -6 -36 -5
-47 5 -21 18 -51 24 -76 16z"/>
<path d="M17140 11352 c-89 -67 -112 -115 -85 -177 8 -21 10 -37 4 -40 -13 -9
13 -54 52 -90 17 -16 29 -25 26 -19 -4 7 3 14 17 16 20 4 33 -4 62 -39 20 -23
45 -43 55 -43 11 0 19 -4 19 -9 0 -14 39 -24 53 -13 23 18 99 22 115 6 8 -8
21 -13 29 -10 8 4 31 -7 50 -23 32 -27 38 -28 57 -16 24 16 47 15 69 -3 16
-14 116 -42 147 -42 11 0 20 -3 20 -8 0 -4 14 -13 30 -21 23 -10 38 -10 58 -2
15 5 44 13 66 16 53 7 56 11 56 55 0 30 -7 45 -27 65 -15 14 -37 26 -48 26
-11 1 -27 2 -35 3 -8 1 -28 10 -45 22 -38 26 -163 84 -181 84 -8 0 -14 4 -14
9 0 5 -15 15 -32 22 -31 13 -38 15 -64 18 -6 0 -23 12 -38 24 -18 16 -36 22
-52 19 -14 -2 -24 0 -24 7 0 18 -63 42 -72 28 -7 -12 -138 49 -138 65 0 4 -5
7 -12 6 -6 -2 -18 9 -25 25 -8 15 -21 27 -29 27 -7 0 -14 4 -14 9 0 18 -28 19
-50 3z"/>
<path d="M15310 11020 c0 -5 5 -10 10 -10 6 0 10 5 10 10 0 6 -4 10 -10 10 -5
0 -10 -4 -10 -10z"/>
<path d="M16540 10280 c0 -5 5 -10 10 -10 6 0 10 5 10 10 0 6 -4 10 -10 10 -5
0 -10 -4 -10 -10z"/>
<path d="M16575 10280 c-3 -5 -1 -10 4 -10 6 0 11 5 11 10 0 6 -2 10 -4 10 -3
0 -8 -4 -11 -10z"/>
<path d="M12539 14504 c-17 -20 16 -51 36 -34 8 7 15 18 15 25 0 18 -37 25
-51 9z"/>
<path d="M16364 3148 c3 -13 6 -26 6 -30 0 -5 6 -8 14 -8 8 0 16 -4 18 -9 2
-4 14 -12 26 -16 22 -6 23 -5 13 14 -7 12 -16 21 -22 21 -14 0 -39 26 -39 39
0 6 -5 11 -11 11 -7 0 -9 -9 -5 -22z"/>
</g>
</svg>
