<?xml version="1.0" standalone="no"?>
<!DOCTYPE svg PUBLIC "-//W3C//DTD SVG 20010904//EN"
 "http://www.w3.org/TR/2001/REC-SVG-20010904/DTD/svg10.dtd">
<svg version="1.0" xmlns="http://www.w3.org/2000/svg"
 width="1668.000000pt" height="2388.000000pt" viewBox="0 0 1668.000000 2388.000000"
 preserveAspectRatio="xMidYMid meet">

<g transform="translate(0.000000,2388.000000) scale(0.100000,-0.100000)"
fill="#000000" stroke="none">
<path d="M10157 18114 c-1 -1 -96 -5 -212 -8 -280 -9 -382 -13 -490 -19 -49
-4 -182 -9 -295 -12 -113 -3 -216 -8 -230 -10 -36 -6 -177 -13 -400 -20 -107
-4 -224 -8 -260 -10 -36 -2 -101 -5 -146 -6 -45 -1 -111 -8 -148 -15 -59 -13
-69 -12 -91 2 -13 8 -32 15 -42 14 -10 -1 -22 -1 -28 0 -5 1 -116 1 -245 1
-205 0 -335 7 -418 24 -13 2 -220 7 -460 11 -241 3 -467 10 -504 15 -36 4
-353 8 -705 8 -351 0 -685 1 -742 3 -115 5 -199 -7 -331 -47 -47 -15 -110 -33
-140 -41 -76 -20 -209 -63 -245 -79 -16 -7 -52 -21 -80 -31 -49 -18 -175 -82
-185 -94 -3 -3 -30 -21 -60 -40 -30 -19 -65 -44 -77 -57 -12 -13 -24 -23 -26
-23 -5 0 -51 -38 -98 -80 -15 -14 -60 -54 -100 -90 -113 -101 -263 -244 -272
-258 -5 -7 -21 -26 -37 -42 -15 -15 -41 -46 -56 -67 -35 -47 -72 -83 -85 -83
-5 0 -9 -5 -9 -10 0 -6 -11 -23 -24 -38 -57 -63 -76 -87 -76 -95 0 -8 -36 -62
-57 -84 -6 -7 -21 -29 -34 -50 -13 -21 -26 -40 -29 -43 -11 -8 -81 -113 -91
-135 -5 -11 -13 -27 -18 -35 -17 -28 -62 -126 -65 -140 -1 -8 -25 -85 -53
-170 -29 -85 -54 -173 -56 -195 -3 -22 -9 -51 -15 -65 -9 -24 -23 -96 -25
-132 -1 -10 -4 -18 -7 -18 -4 0 -6 -10 -5 -22 1 -12 -4 -37 -11 -57 -45 -131
-56 -433 -39 -1041 3 -113 7 -297 10 -410 2 -113 7 -221 10 -240 3 -19 8 -51
11 -70 27 -159 19 -1318 -11 -1735 -9 -113 -9 -483 -1 -570 9 -95 11 -672 3
-765 -9 -95 -18 -333 -18 -451 0 -56 -2 -106 -6 -112 -6 -10 -5 -230 3 -442 6
-147 6 -167 -1 -285 -4 -78 -10 -133 -22 -200 -6 -33 -12 -123 -16 -246 -2
-55 -6 -105 -9 -110 -3 -5 -6 -49 -7 -99 -1 -49 -6 -92 -12 -96 -10 -6 -9 -84
5 -354 2 -38 9 -94 16 -124 7 -29 10 -66 6 -82 -3 -15 -1 -31 4 -34 6 -4 8
-10 6 -14 -3 -4 2 -30 11 -57 8 -27 19 -67 23 -89 4 -22 22 -80 40 -130 17
-49 33 -99 36 -110 8 -43 67 -201 84 -225 31 -45 130 -249 130 -268 0 -4 18
-41 39 -82 137 -265 165 -316 177 -323 8 -4 14 -15 14 -22 0 -8 4 -15 9 -15 5
0 12 -8 16 -19 10 -33 312 -330 401 -396 15 -11 45 -37 67 -57 22 -21 44 -38
49 -38 5 0 7 -4 4 -9 -3 -4 6 -13 19 -19 14 -7 25 -17 25 -24 1 -12 46 -45
126 -93 18 -11 42 -26 52 -33 23 -17 105 -65 152 -89 19 -10 41 -24 49 -31 7
-7 31 -20 52 -29 22 -8 39 -19 39 -24 0 -5 8 -9 18 -9 10 0 22 -4 27 -8 6 -5
28 -13 50 -19 22 -6 60 -17 85 -25 25 -7 48 -14 53 -14 4 -1 8 -3 10 -4 1 -1
16 -4 32 -6 18 -2 40 -15 55 -32 20 -23 32 -29 63 -27 20 1 37 -1 37 -6 0 -5
8 -9 18 -9 10 0 22 -3 25 -6 4 -4 21 -8 39 -10 48 -5 67 -9 73 -15 3 -3 44 0
93 7 72 11 174 17 252 14 99 -3 185 -11 221 -20 31 -9 44 -9 47 -1 2 6 8 8 14
5 17 -11 399 -21 1058 -27 146 -1 270 -5 276 -9 6 -4 25 -3 42 1 17 5 33 7 35
4 3 -2 56 -4 119 -3 62 1 151 1 198 1 248 -4 439 -10 475 -15 22 -3 101 -5
175 -4 242 2 383 0 480 -6 118 -7 147 -8 290 -7 63 1 142 -1 175 -3 154 -11
233 -18 270 -22 22 -2 105 -6 185 -9 80 -2 181 -7 225 -11 103 -8 591 -7 715
1 52 4 190 8 305 10 251 3 487 16 535 30 8 3 67 7 130 10 63 3 128 8 143 11
33 5 296 13 638 17 135 2 249 6 255 9 5 3 38 9 74 12 103 11 140 17 167 27 13
5 35 9 49 9 13 0 24 3 24 8 0 4 12 8 28 8 42 2 102 13 120 23 9 5 37 11 61 15
25 3 49 10 55 16 5 5 17 10 25 10 8 0 44 13 80 29 36 16 109 48 161 71 158 69
172 76 254 116 96 48 125 64 179 100 23 16 45 28 48 27 3 -1 19 11 34 27 16
17 32 30 36 30 7 0 28 17 85 66 13 11 34 28 46 38 367 270 420 315 485 416 20
30 62 86 95 123 32 38 68 87 80 110 22 44 52 89 81 121 9 11 17 25 17 31 0 6
9 21 20 33 12 12 18 22 14 22 -3 0 -1 6 5 14 6 8 14 27 16 42 2 16 14 56 25
89 12 33 23 69 24 80 2 11 8 36 14 55 21 69 36 225 48 500 2 58 7 132 9 165 7
79 7 97 -1 460 -12 587 -5 2054 10 2125 3 13 8 71 10 128 3 56 7 122 10 145 3
23 8 67 11 97 3 30 11 100 16 155 6 55 12 127 15 160 2 33 6 74 8 90 5 30 11
106 22 240 2 39 7 93 9 120 2 28 7 95 10 150 3 55 8 116 10 135 6 40 24 339
30 480 3 52 9 156 15 230 17 224 23 389 23 725 1 293 -3 420 -19 593 -3 34 0
112 6 173 13 126 19 191 25 304 2 44 4 80 5 80 0 0 2 88 5 195 4 119 2 214 -5
245 -9 44 -19 102 -36 210 -3 17 -6 45 -8 62 -2 18 -14 49 -26 69 -11 20 -19
42 -16 49 2 6 0 34 -6 61 -5 27 -11 69 -12 94 -5 83 -19 123 -81 250 -60 119
-75 152 -80 175 -2 6 -19 39 -39 75 -42 76 -72 142 -68 153 1 4 -2 7 -6 7 -4
0 -14 16 -21 35 -7 19 -18 40 -25 47 -6 7 -20 33 -30 58 -21 53 -76 137 -131
199 -56 63 -166 171 -174 171 -4 0 -21 15 -37 33 -49 54 -197 187 -210 187 -3
0 -12 6 -19 13 -30 26 -44 37 -50 37 -3 0 -11 5 -18 11 -7 5 -25 19 -42 29
-62 40 -69 45 -89 63 -11 9 -26 17 -33 17 -7 0 -32 13 -55 29 -24 15 -63 41
-88 57 -25 16 -46 32 -48 37 -2 4 -9 7 -14 7 -6 0 -35 18 -64 40 -29 22 -58
40 -65 40 -6 0 -25 7 -42 16 -58 31 -67 34 -82 34 -9 0 -33 9 -54 20 -22 11
-56 26 -78 34 -123 45 -177 67 -187 74 -6 4 -24 9 -41 11 -16 2 -55 12 -85 24
-62 23 -60 23 -115 32 -22 3 -101 17 -175 31 -74 13 -160 27 -190 30 -30 3
-62 7 -70 8 -8 1 -42 6 -75 10 -33 4 -71 10 -85 12 -14 3 -68 7 -120 9 -52 3
-115 8 -140 11 -25 4 -60 7 -77 7 -18 0 -33 3 -33 6 0 4 -8 7 -17 7 -10 1 -38
4 -63 7 -25 3 -76 9 -115 12 -38 4 -72 8 -76 10 -3 2 -46 7 -95 10 -49 3 -107
9 -129 12 -36 5 -633 12 -638 7z m-4562 -1819 c17 -1 40 -7 53 -14 14 -7 22
-8 22 -1 0 10 27 9 46 -2 6 -4 28 -5 50 -2 36 5 99 -6 149 -26 69 -26 126 -55
147 -74 13 -11 41 -30 63 -41 22 -11 43 -24 46 -28 3 -5 9 -8 13 -8 16 3 65
-31 88 -61 14 -18 40 -49 57 -68 28 -32 100 -164 90 -166 -2 0 2 -8 9 -17 24
-29 42 -306 29 -432 -15 -130 -31 -176 -81 -232 -23 -26 -55 -66 -69 -88 -63
-95 -72 -104 -164 -170 -41 -30 -115 -70 -141 -76 -4 -1 -29 -14 -57 -28 -59
-32 -99 -45 -180 -62 -33 -7 -68 -16 -77 -21 -17 -8 -277 -11 -349 -4 -38 4
-67 17 -91 38 -7 7 -36 24 -63 38 -49 25 -125 94 -125 115 0 5 -30 37 -67 70
-36 33 -72 73 -80 90 -28 58 -44 85 -52 85 -10 0 -21 24 -27 60 -3 14 -13 39
-23 55 -15 27 -30 66 -36 100 -1 6 -3 12 -4 15 -2 3 -4 61 -6 130 -3 104 0
136 16 190 11 36 22 72 24 81 2 9 8 25 13 35 5 11 18 37 29 59 47 94 71 131
121 182 12 13 22 27 22 32 0 9 76 81 85 81 4 0 25 16 48 35 22 19 48 35 58 35
9 0 19 7 23 15 3 8 12 15 20 15 7 0 16 7 20 15 3 8 12 15 20 15 8 0 16 4 18 8
2 5 17 16 33 25 28 14 114 15 280 2z m353 -2312 c37 -3 82 -6 100 -7 17 0 32
-5 32 -9 0 -5 5 -5 10 -2 6 3 10 0 10 -7 0 -10 2 -10 8 0 6 9 57 11 57 2 0 0
22 -3 49 -5 27 -3 54 -9 60 -15 5 -5 11 -108 13 -247 3 -283 12 -577 18 -653
3 -30 7 -82 9 -115 3 -33 7 -82 11 -110 3 -27 8 -174 11 -325 3 -151 10 -297
15 -325 10 -55 30 -392 29 -495 0 -36 -5 -91 -11 -123 -19 -106 -20 -121 -25
-197 -2 -41 -6 -97 -9 -125 -14 -123 -20 -292 -19 -580 1 -270 3 -320 20 -385
17 -68 19 -110 17 -430 -1 -195 -2 -490 -3 -655 0 -165 -5 -372 -11 -460 -5
-88 -10 -168 -10 -177 0 -11 -8 -18 -20 -18 -11 0 -29 -5 -40 -10 -11 -6 -25
-7 -32 -3 -19 12 -74 21 -141 24 -37 2 -77 -2 -191 -18 -22 -3 -44 -5 -50 -5
-5 1 -90 6 -189 12 -115 8 -191 9 -216 2 -38 -9 -159 2 -169 16 -4 4 -24 8
-46 9 -22 1 -77 4 -122 7 -46 2 -83 1 -83 -3 0 -11 -59 -6 -92 7 l-27 11 4 93
c9 217 18 348 24 348 11 0 17 458 8 610 -11 175 -17 255 -22 310 -18 199 -21
244 -31 385 -9 126 -5 450 6 450 1 0 2 46 3 103 0 56 3 102 6 102 3 0 6 71 7
158 0 86 4 191 8 232 4 41 9 156 11 255 2 99 6 221 10 270 19 255 22 389 10
495 -4 41 -8 87 -9 103 0 15 -3 27 -6 27 -3 0 -4 64 -3 143 0 78 -2 162 -7
185 -4 23 -5 44 -1 46 6 4 5 50 -4 151 -3 33 -8 96 -11 140 -4 44 -8 98 -10
120 -12 117 -18 566 -9 579 8 10 32 14 93 12 45 -1 82 2 82 6 0 4 6 5 13 2 8
-3 27 0 43 7 16 6 45 13 64 15 19 2 46 6 60 10 14 3 48 8 75 9 28 2 68 6 90 9
22 4 85 8 140 9 55 2 116 9 135 15 44 15 129 21 136 10 3 -4 12 -1 20 7 9 8
20 12 26 9 5 -3 39 -8 76 -11z m1842 -37 c113 -1 224 1 247 5 23 3 40 3 38 -1
-2 -4 60 -5 138 -2 78 2 187 3 242 2 55 -1 159 -3 230 -4 72 0 133 -5 137 -10
3 -5 7 -77 9 -160 1 -83 2 -200 3 -261 1 -60 -1 -130 -5 -155 -4 -25 -10 -84
-14 -131 -6 -72 -5 -88 9 -102 12 -12 23 -14 39 -8 26 10 121 101 125 120 1 7
23 33 49 59 26 26 43 40 38 32 -5 -8 2 -5 16 7 48 45 72 63 90 68 11 4 19 10
19 14 0 10 120 73 120 63 0 -4 4 -1 9 7 5 8 16 16 25 17 27 4 116 47 116 56 0
5 4 7 9 3 5 -3 12 -1 16 5 4 6 10 8 15 5 4 -3 21 5 37 18 15 13 43 29 61 36
17 8 32 17 32 22 0 5 6 9 14 9 14 0 84 37 96 50 6 6 77 39 88 41 4 0 13 5 20
11 6 6 12 7 12 3 0 -4 7 -2 15 5 8 7 22 10 30 6 8 -3 15 -1 15 5 0 6 6 9 13 6
6 -2 27 2 44 10 18 7 36 13 40 12 5 -1 10 0 13 1 24 9 131 21 198 22 23 1 42
6 42 12 0 7 3 8 8 1 8 -12 113 -15 106 -4 -2 4 11 4 29 0 17 -3 79 -6 137 -5
62 0 108 -3 112 -9 4 -7 11 -7 21 1 12 10 18 10 28 0 8 -7 25 -14 39 -14 14
-1 47 -3 74 -5 27 -2 70 -8 94 -14 25 -7 64 -8 90 -5 44 7 58 5 152 -21 25 -7
50 -13 55 -15 29 -6 136 -50 175 -72 25 -14 46 -25 48 -24 8 6 22 0 17 -7 -7
-12 29 -33 39 -24 3 3 6 1 6 -5 0 -6 8 -13 18 -16 9 -3 32 -19 50 -36 18 -16
39 -30 47 -30 7 0 16 -7 19 -16 3 -8 9 -14 13 -12 5 2 29 -18 54 -44 26 -26
45 -48 43 -48 -5 0 31 -44 64 -77 12 -13 22 -26 22 -29 0 -12 56 -74 67 -74 6
0 15 -10 19 -22 3 -13 13 -30 21 -39 8 -9 29 -48 48 -85 19 -38 53 -98 75
-134 22 -35 45 -82 51 -105 6 -22 18 -53 26 -69 8 -15 17 -40 19 -55 3 -14 11
-35 18 -46 8 -11 23 -59 35 -105 45 -173 62 -233 71 -249 4 -9 11 -37 15 -61
4 -25 12 -74 20 -110 28 -141 33 -257 22 -520 -3 -63 -8 -205 -11 -315 -10
-329 -16 -506 -21 -575 -3 -36 -8 -110 -12 -165 -11 -139 -8 -569 5 -755 6
-85 13 -218 16 -295 3 -77 8 -169 11 -205 3 -36 7 -148 10 -250 4 -146 1 -193
-10 -225 -10 -28 -15 -83 -15 -181 0 -105 -3 -141 -12 -141 -7 -1 -31 -4 -53
-7 -22 -3 -65 -8 -95 -11 -30 -4 -66 -8 -80 -11 -46 -8 -699 -2 -1035 10 -99
3 -184 6 -189 6 -5 0 -4 6 1 13 6 7 8 66 5 147 -14 343 -6 971 12 1058 4 19
10 396 6 412 0 3 -3 63 -6 134 -3 71 -5 131 -6 135 0 3 0 8 1 11 5 14 3 437
-2 450 -3 8 -5 29 -5 45 0 17 -3 66 -7 110 -4 44 -8 98 -10 120 -11 115 -16
187 -20 250 -4 60 -8 101 -19 175 -4 27 -28 135 -34 150 -3 8 -4 19 -3 24 4
18 -22 123 -40 157 -10 20 -15 39 -12 43 4 3 1 6 -5 6 -7 0 -12 13 -12 29 0
16 -7 37 -16 45 -8 9 -13 20 -9 25 3 6 -3 14 -12 20 -10 6 -14 11 -10 11 18 0
-34 78 -100 148 -23 25 -41 48 -38 52 2 3 -7 19 -21 35 -13 16 -39 47 -56 70
-18 23 -41 46 -52 52 -78 39 -92 47 -97 56 -3 5 -10 9 -15 9 -5 0 -25 8 -45
19 -20 10 -58 23 -85 30 -27 7 -55 16 -61 21 -16 13 -241 12 -307 -1 -28 -6
-71 -12 -96 -15 -25 -3 -58 -10 -75 -15 -35 -10 -127 -60 -155 -84 -11 -9 -20
-14 -20 -10 0 3 -11 -4 -25 -17 -14 -13 -25 -21 -25 -17 0 9 -140 -132 -172
-173 -75 -97 -123 -165 -138 -193 -33 -63 -82 -153 -100 -182 -29 -47 -57
-131 -86 -255 -23 -103 -27 -140 -30 -345 -2 -126 -7 -356 -11 -510 -8 -308
-8 -317 0 -1420 2 -423 2 -783 0 -798 -4 -22 -10 -26 -22 -21 -9 5 -70 9 -136
10 -66 0 -127 4 -135 7 -8 3 -26 6 -40 7 -253 5 -307 7 -317 13 -16 10 -113
17 -308 24 -232 7 -299 5 -359 -12 -84 -25 -116 -26 -117 -7 -1 32 2 147 4
172 2 14 0 38 -5 54 -4 16 -4 36 1 44 5 8 5 30 1 48 -4 18 -6 35 -3 38 5 4 10
332 12 696 2 301 2 774 1 785 -2 33 -4 885 -2 905 2 14 3 99 3 190 0 91 1 265
2 388 1 122 -2 222 -6 222 -4 0 -8 48 -8 108 0 59 -1 130 -3 157 -13 206 -19
281 -24 290 -7 11 -11 395 -4 408 2 4 6 83 8 175 2 92 7 199 10 237 11 134 11
181 -1 305 -7 69 -11 127 -9 129 2 2 -1 10 -6 16 -8 10 8 13 72 14 45 1 84 3
86 6 2 2 14 1 25 -2 12 -3 114 -7 227 -7z"/>
</g>
</svg>
