<?xml version="1.0" standalone="no"?>
<!DOCTYPE svg PUBLIC "-//W3C//DTD SVG 20010904//EN"
 "http://www.w3.org/TR/2001/REC-SVG-20010904/DTD/svg10.dtd">
<svg version="1.0" xmlns="http://www.w3.org/2000/svg"
 width="500.000000pt" height="350.000000pt" viewBox="0 0 500.000000 350.000000"
 preserveAspectRatio="xMidYMid meet">

<g transform="translate(0.000000,350.000000) scale(0.100000,-0.100000)"
fill="#000000" stroke="none">
<path d="M2713 3034 c-7 -3 -22 -21 -34 -41 -18 -29 -22 -49 -21 -112 1 -42 4
-87 7 -101 3 -14 6 -91 6 -172 0 -132 2 -148 18 -153 45 -14 67 22 88 150 9
55 9 410 0 423 -9 12 -41 15 -64 6z"/>
<path d="M3993 3025 c-12 -8 -26 -30 -32 -48 -17 -52 -39 -185 -46 -277 -10
-130 -11 -143 -18 -165 -3 -11 -9 -46 -12 -78 l-6 -58 27 3 c29 3 33 8 63 78
29 69 43 119 37 135 -3 8 -1 15 5 15 6 0 8 9 4 20 -3 11 -3 20 2 20 5 0 9 8 9
18 1 9 5 35 9 57 5 22 9 55 9 73 1 17 4 32 7 32 6 0 8 10 12 62 1 20 5 40 9
44 10 9 -2 55 -18 71 -17 17 -35 16 -61 -2z"/>
<path d="M2126 3001 c-9 -10 -19 -29 -22 -42 -9 -34 -16 -475 -8 -503 3 -13
15 -26 25 -29 38 -10 56 77 64 308 4 108 6 134 20 206 6 33 4 39 -23 58 -36
25 -35 25 -56 2z"/>
<path d="M3348 2987 c-11 -22 -11 -73 -1 -152 3 -22 7 -107 8 -190 3 -175 3
-180 12 -172 3 4 12 2 18 -3 19 -16 30 6 54 100 17 69 20 104 16 185 -3 55 -6
120 -6 145 0 25 -4 59 -10 77 -9 27 -14 31 -45 31 -25 0 -37 -6 -46 -21z"/>
<path d="M1387 2936 c-21 -16 -21 -19 -13 -156 4 -58 9 -152 11 -210 4 -106
17 -159 38 -156 26 4 35 18 35 58 0 24 2 50 5 58 6 17 6 10 7 165 2 131 -5
202 -20 220 -5 7 -7 15 -3 18 3 4 1 7 -5 7 -5 0 -16 2 -24 5 -7 2 -21 -2 -31
-9z"/>
<path d="M3672 2853 c-11 -16 -25 -46 -31 -68 -23 -84 -7 -267 24 -279 15 -5
22 24 24 109 1 33 4 78 7 100 20 163 14 192 -24 138z"/>
<path d="M4726 2728 c-34 -35 -75 -81 -91 -103 -17 -22 -35 -44 -41 -50 -15
-14 -94 -121 -128 -175 -16 -25 -37 -51 -47 -57 -11 -8 -15 -20 -12 -34 5 -18
11 -20 42 -15 27 4 51 21 100 71 35 36 67 65 72 65 5 0 9 5 9 12 0 6 36 46 80
89 44 42 80 81 80 87 0 6 9 13 19 17 11 3 26 19 33 35 7 17 16 30 19 30 13 0
6 56 -9 73 -29 33 -61 21 -126 -45z"/>
<path d="M1023 2703 c3 -27 12 -75 19 -108 11 -49 17 -60 33 -60 41 0 25 138
-21 189 -14 14 -27 26 -31 26 -3 0 -3 -21 0 -47z"/>
<path d="M3086 2742 c-11 -19 -18 -165 -8 -197 12 -43 38 -45 45 -3 13 84 -15
236 -37 200z"/>
<path d="M1784 2640 c3 -73 8 -107 21 -126 9 -14 19 -24 21 -21 12 12 5 175
-9 210 -27 63 -36 45 -33 -63z"/>
<path d="M2435 2727 c-23 -65 -24 -159 -1 -195 18 -29 55 0 55 44 1 10 1 26 2
34 2 18 -8 81 -16 103 -8 20 -35 30 -40 14z"/>
<path d="M465 2723 c-73 -8 -74 -9 -72 -65 2 -48 4 -52 38 -70 20 -10 56 -36
79 -58 24 -22 47 -40 52 -40 4 0 8 -5 8 -11 0 -12 60 -74 60 -62 0 4 6 1 13
-8 20 -26 60 -47 86 -46 19 2 24 8 27 35 8 66 -77 186 -201 287 -47 39 -54 41
-90 38z"/>
<path d="M4302 2676 c-46 -49 -89 -118 -114 -183 -13 -33 -14 -45 -4 -59 19
-25 49 -13 69 30 10 22 25 45 33 53 8 8 14 21 14 30 0 8 6 27 14 41 17 33 46
109 46 122 0 20 -17 9 -58 -34z"/>
<path d="M1068 2272 c-27 -2 -48 -14 -77 -42 -64 -62 -101 -150 -68 -163 13
-5 15 -305 4 -632 -7 -233 14 -314 81 -296 22 6 28 14 32 47 3 21 2 47 -2 56
-5 10 -10 60 -12 112 -3 73 0 96 10 100 7 3 16 1 20 -5 3 -5 14 -7 25 -4 11 4
19 2 19 -5 0 -7 6 -8 19 -1 10 6 21 7 25 4 3 -3 6 -2 6 4 0 11 73 46 108 52 4
0 26 18 49 39 24 20 54 46 68 57 13 11 27 33 31 48 3 16 12 31 19 33 17 7 37
87 29 118 -3 13 -1 27 4 30 10 6 8 50 -4 106 -3 14 -7 34 -9 45 -5 33 -33 91
-49 104 -9 7 -13 17 -10 22 3 5 1 9 -5 9 -5 0 -12 8 -15 18 -5 15 -136 112
-152 112 -3 0 -20 6 -37 14 -41 18 -63 22 -109 18z m72 -125 c0 -5 5 -5 10 -2
6 3 10 2 10 -4 0 -5 9 -13 20 -16 34 -11 80 -67 111 -135 25 -53 30 -76 28
-128 -2 -65 -18 -132 -31 -132 -5 0 -8 -6 -8 -13 0 -22 -40 -51 -125 -93 -44
-21 -91 -46 -105 -55 l-25 -17 -1 177 c0 154 -7 279 -18 346 -4 27 14 65 31
65 7 0 13 5 13 10 0 6 20 9 45 8 25 -2 45 -7 45 -11z"/>
<path d="M500 2222 c-44 -7 -42 -18 9 -45 65 -33 136 -45 144 -23 12 32 -90
77 -153 68z"/>
<path d="M4820 2160 c-8 -5 -24 -10 -34 -10 -21 0 -104 -38 -124 -57 -7 -7
-20 -13 -27 -13 -13 0 -42 -39 -33 -43 2 -1 13 -7 24 -14 17 -9 27 -9 47 2 14
7 28 11 31 7 3 -3 6 1 6 8 0 7 3 11 6 7 11 -10 128 95 123 111 -3 8 -9 8 -19
2z"/>
<path d="M3714 2087 c-6 -7 -9 -22 -8 -32 8 -49 11 -144 4 -154 -4 -7 -38 -19
-76 -27 -74 -15 -100 -35 -84 -64 8 -15 21 -18 67 -16 70 3 109 -6 104 -25 -3
-13 -2 -88 2 -194 1 -22 6 -43 12 -47 6 -5 5 -8 -3 -8 -7 0 -11 -4 -8 -9 8
-12 9 -201 2 -209 -4 -3 -12 2 -19 12 -14 18 -44 19 -152 1 -57 -9 -96 18
-113 77 -13 44 -9 111 8 133 8 10 10 16 10 34 0 5 17 25 37 45 33 32 36 38 24
59 -21 40 -64 34 -117 -15 -40 -38 -72 -83 -75 -105 -1 -5 -5 -18 -10 -31 -24
-62 -8 -222 21 -222 4 0 13 -12 19 -28 6 -15 25 -36 41 -47 17 -11 30 -23 30
-27 0 -5 6 -8 14 -8 8 0 17 -6 19 -12 4 -10 6 -9 6 1 1 10 4 11 15 2 17 -14
136 -22 136 -8 0 5 9 7 20 4 12 -3 20 0 20 6 0 18 65 36 87 24 10 -6 21 -15
24 -20 4 -5 14 -7 24 -4 9 4 14 3 10 -3 -14 -23 24 -8 39 15 9 14 23 25 31 25
12 0 33 61 27 81 -1 6 -9 60 -17 124 -2 17 -4 30 -5 30 -1 0 -3 14 -4 30 -2
17 -8 61 -15 98 -6 38 -13 92 -15 120 -3 29 -7 60 -11 70 -8 18 3 21 60 17 86
-7 171 -5 180 5 35 36 36 42 13 68 -26 27 -69 37 -168 38 -83 1 -99 6 -95 27
1 9 0 22 -4 27 -3 6 -7 21 -9 35 -1 14 -13 45 -25 70 -23 46 -52 61 -73 37z"/>
<path d="M233 2026 c-21 -6 -33 -17 -33 -27 0 -10 -4 -20 -8 -23 -5 -3 -7 -19
-4 -36 4 -27 10 -32 48 -42 23 -7 40 -16 37 -22 -4 -5 1 -7 10 -3 10 3 17 3
17 -1 0 -10 71 -42 93 -42 10 0 17 -4 17 -9 0 -10 32 -7 52 5 6 4 8 3 5 -3 -4
-6 4 -10 20 -10 31 0 62 33 56 58 -6 22 -56 67 -96 85 -42 20 -71 37 -91 53
-9 7 -16 10 -16 6 0 -4 -7 -2 -15 5 -8 7 -21 10 -29 7 -7 -3 -17 -2 -22 2 -5
4 -24 2 -41 -3z"/>
<path d="M4785 1803 c-148 -39 -166 -50 -134 -79 18 -16 37 -19 128 -20 58 0
117 3 131 7 14 4 31 8 39 10 24 7 51 38 51 60 0 25 -38 59 -65 58 -11 -1 -78
-17 -150 -36z"/>
<path d="M2362 1768 c-9 -9 -8 -16 5 -30 15 -17 17 -17 35 -2 14 13 15 20 7
31 -14 16 -31 17 -47 1z"/>
<path d="M4280 1771 c-25 -6 -84 -36 -104 -52 -6 -5 -21 -17 -33 -27 -32 -27
-65 -96 -58 -124 3 -13 20 -38 36 -56 17 -18 27 -37 24 -42 -4 -6 -3 -9 2 -8
4 1 22 -5 39 -15 17 -9 35 -13 39 -9 5 4 6 3 3 -3 -3 -5 3 -18 14 -27 10 -10
18 -15 18 -11 0 3 8 -2 19 -11 23 -21 24 -60 2 -79 -27 -24 -69 -33 -181 -40
-75 -4 -122 -22 -162 -60 -18 -17 -17 -18 4 -61 13 -24 26 -42 29 -40 4 2 14
-5 24 -16 10 -11 24 -20 32 -20 7 0 13 -5 13 -10 0 -7 7 -8 18 -3 20 9 50 9
74 -1 9 -4 23 -4 30 0 11 7 27 10 78 15 8 1 22 7 30 14 21 17 52 28 72 26 9
-1 19 7 23 19 3 11 13 20 21 20 17 0 64 44 64 59 0 5 5 11 10 13 6 2 12 13 13
26 0 12 4 22 8 22 8 0 7 19 -2 35 -3 6 -4 20 -3 33 0 12 -2 22 -5 22 -4 0 -13
16 -20 37 -15 41 -96 124 -141 146 -39 19 -75 45 -75 54 0 24 62 80 103 91 46
14 51 26 24 58 -22 26 -48 34 -82 25z"/>
<path d="M2872 1673 c-28 -13 -62 -39 -74 -56 -12 -18 -27 -35 -33 -39 -5 -4
-6 -8 -1 -8 5 0 1 -9 -8 -19 -10 -11 -19 -25 -20 -33 -2 -7 -8 -26 -15 -43
-32 -77 -8 -183 52 -234 16 -14 35 -31 42 -38 8 -7 18 -13 24 -13 6 0 11 -4
11 -8 0 -5 6 -9 13 -10 51 -7 61 -10 65 -20 2 -7 9 -9 15 -5 7 4 30 9 52 10
22 2 53 4 70 6 16 1 38 10 47 20 10 9 24 17 31 17 6 0 17 12 24 26 16 35 -11
100 -44 107 -12 2 -25 2 -28 -1 -3 -3 -15 -7 -28 -8 -12 -2 -47 -8 -78 -15
-52 -11 -60 -10 -101 11 -25 12 -45 27 -46 33 -1 7 -4 26 -8 42 l-6 30 51 0
c28 0 51 3 51 7 0 5 6 8 13 8 6 0 24 10 39 23 14 12 36 30 48 40 14 12 19 24
15 37 -4 12 -2 20 4 20 6 0 11 13 11 28 0 33 -58 102 -86 103 -11 0 -26 2 -35
4 -8 1 -39 -8 -67 -22z m68 -102 c0 -5 -12 -19 -27 -31 -20 -15 -29 -18 -32
-9 -2 7 1 15 8 17 7 2 17 10 24 18 14 16 27 18 27 5z"/>
<path d="M1609 1651 c-38 -8 -118 -62 -125 -83 -3 -10 -10 -18 -15 -18 -6 0
-7 -4 -4 -10 3 -5 2 -10 -3 -10 -17 0 -39 -97 -35 -156 3 -55 9 -99 13 -99 1
0 4 -16 7 -35 2 -19 8 -39 13 -45 4 -5 11 -24 14 -41 4 -19 18 -37 38 -48 31
-19 31 -19 49 5 14 17 18 34 14 59 -3 19 -8 62 -10 95 -4 67 -13 151 -20 185
-6 29 29 64 79 80 33 11 40 10 47 -3 5 -8 24 -24 43 -35 30 -18 36 -19 64 -5
37 18 44 39 23 77 -36 63 -121 102 -192 87z"/>
<path d="M471 1622 c-110 -27 -137 -68 -38 -59 164 16 187 20 187 32 0 36 -64
48 -149 27z"/>
<path d="M2011 1587 c-41 -21 -93 -121 -112 -217 -16 -84 -5 -166 27 -186 13
-9 22 -20 19 -24 -7 -12 62 -50 96 -54 16 -1 32 -5 35 -9 18 -17 143 83 144
116 0 9 4 17 8 17 21 0 44 106 43 196 -1 39 -54 134 -76 134 -4 0 -18 9 -32
20 -30 23 -113 27 -152 7z m114 -150 c18 -43 10 -146 -15 -199 -13 -28 -49
-43 -79 -33 -17 5 -41 42 -48 75 -7 34 -1 105 10 116 4 4 7 17 7 29 0 12 9 30
20 40 15 13 20 15 20 4 0 -10 4 -9 17 3 22 22 50 8 68 -35z"/>
<path d="M2405 1540 c-15 -17 -16 -22 -4 -37 11 -14 11 -15 1 -9 -12 7 -12 4
-1 -15 7 -13 12 -30 11 -36 -2 -7 2 -13 8 -13 5 0 10 -10 10 -23 0 -13 3 -27
8 -31 4 -4 7 -11 8 -14 0 -4 6 -20 12 -35 7 -16 12 -33 12 -38 0 -5 4 -9 8 -9
4 0 8 -8 9 -17 2 -17 8 -43 32 -136 12 -50 9 -166 -6 -193 -11 -18 -20 -21
-69 -18 -56 3 -114 22 -114 36 0 5 -5 8 -10 8 -6 0 -20 8 -31 18 -26 25 -53
21 -84 -12 -28 -30 -31 -46 -12 -65 10 -11 10 -13 0 -7 -8 4 -13 2 -13 -6 0
-19 35 -69 43 -62 4 4 13 2 20 -4 8 -7 16 -9 20 -6 3 3 13 -8 21 -24 12 -23
22 -30 41 -28 14 2 25 -1 25 -6 0 -6 7 -8 15 -4 8 3 15 1 15 -3 0 -5 11 -8 25
-6 14 1 25 -2 25 -8 0 -5 12 -2 26 8 15 9 23 11 19 4 -6 -9 -2 -10 16 -5 20 7
43 11 82 15 4 1 7 7 7 15 0 8 14 24 30 36 17 12 30 28 30 36 0 8 3 14 8 14 7
0 13 31 15 90 1 30 -4 79 -17 173 -1 9 -8 23 -14 29 -7 7 -12 22 -12 34 0 30
-44 141 -108 272 -42 87 -78 114 -107 82z"/>
<path d="M4675 1380 c-17 -19 -17 -20 26 -40 24 -11 53 -20 64 -20 11 0 40 -6
65 -13 52 -15 100 -11 100 7 0 7 -18 22 -40 35 -22 12 -40 20 -40 17 0 -3 -11
-1 -25 4 -14 5 -46 12 -72 16 -27 3 -51 8 -54 10 -4 2 -14 -5 -24 -16z"/>
<path d="M527 1308 c-21 -4 -55 -9 -75 -11 -20 -1 -42 -6 -47 -9 -6 -4 -29 -9
-50 -12 -43 -5 -144 -31 -148 -37 -2 -2 -11 -21 -22 -41 -19 -37 -19 -38 0
-52 11 -9 28 -16 37 -16 9 0 20 -5 23 -11 4 -6 14 -7 24 -4 15 7 66 14 104 15
9 1 15 6 11 11 -3 6 0 9 7 8 24 -4 89 13 89 23 0 5 4 7 9 3 5 -3 15 0 23 7 7
7 19 13 26 14 6 1 18 2 25 3 10 1 62 82 55 86 -2 0 -14 8 -28 16 -18 11 -35
13 -63 7z"/>
<path d="M733 1052 c-39 -31 -96 -76 -127 -99 -31 -24 -56 -50 -56 -58 0 -18
37 -20 66 -2 12 6 41 23 65 36 24 13 48 30 52 37 4 8 13 14 18 14 16 0 76 65
84 90 5 15 2 26 -6 31 -19 12 -16 14 -96 -49z"/>
<path d="M4615 1048 c-13 -32 -13 -33 36 -80 28 -27 53 -48 57 -48 4 0 24 -11
45 -25 20 -14 42 -23 49 -19 6 4 8 3 4 -4 -6 -9 16 -22 50 -28 6 -1 26 11 44
26 29 25 31 29 19 49 -8 11 -17 21 -21 21 -5 0 -8 6 -8 14 0 12 -91 64 -124
71 -28 5 -96 38 -96 46 0 5 -9 9 -20 9 -14 0 -26 -11 -35 -32z"/>
<path d="M1181 873 c-51 -111 -89 -247 -72 -258 13 -8 51 16 51 32 0 7 5 13
10 13 6 0 10 8 10 19 0 10 7 32 15 47 8 16 15 37 15 46 0 10 7 38 16 64 17 51
17 49 -12 58 -16 5 -23 0 -33 -21z"/>
<path d="M889 852 c-61 -46 -269 -245 -269 -257 0 -7 13 -23 29 -38 l29 -25
36 19 c20 10 36 17 36 14 0 -6 5 -1 107 112 97 107 112 126 122 155 17 49 -36
61 -90 20z"/>
<path d="M4340 858 c0 -11 21 -44 48 -72 26 -29 59 -66 75 -84 25 -29 64 -42
79 -26 24 23 -134 204 -178 204 -18 0 -24 -5 -24 -22z"/>
<path d="M1675 795 c-9 -28 -16 -240 -9 -259 3 -9 13 -16 22 -16 8 0 13 2 10
6 -3 3 -2 22 3 42 5 20 11 85 15 144 5 103 5 107 -15 105 -11 0 -23 -10 -26
-22z"/>
<path d="M3688 793 c-23 -6 -22 -17 1 -106 39 -142 60 -187 87 -187 18 0 18
56 0 112 -8 24 -17 59 -21 78 -7 31 -42 112 -48 109 -1 -1 -10 -3 -19 -6z"/>
<path d="M4018 783 c-13 -15 -14 -28 -7 -77 6 -33 13 -64 16 -69 3 -6 7 -20 9
-31 4 -26 12 -61 14 -61 1 0 3 -13 5 -30 2 -16 7 -46 11 -65 4 -19 8 -37 8
-40 1 -3 8 -15 16 -26 18 -26 90 -32 90 -8 0 8 3 14 8 14 11 0 12 60 1 110 -5
25 -11 55 -14 68 -2 12 -7 27 -10 32 -3 5 -8 19 -10 30 -2 12 -18 50 -35 86
-21 45 -38 68 -56 74 -32 12 -28 13 -46 -7z"/>
<path d="M3049 767 c-21 -16 -17 -70 14 -206 2 -7 12 -18 22 -23 17 -10 18 -6
12 73 -10 139 -21 175 -48 156z"/>
<path d="M1350 729 c-7 -11 -13 -53 -16 -92 -2 -40 -9 -118 -14 -175 -12 -120
-8 -142 25 -142 28 0 63 57 65 106 0 16 1 89 2 163 1 120 -1 135 -17 147 -25
19 -32 18 -45 -7z"/>
<path d="M2771 716 c-16 -19 -20 -84 -10 -148 5 -30 11 -72 13 -94 15 -119 17
-125 64 -129 25 -2 32 2 38 24 9 33 5 103 -6 116 -5 6 -9 20 -9 30 2 52 -26
182 -43 203 -14 16 -33 15 -47 -2z"/>
<path d="M3331 713 c-10 -20 -8 -49 15 -198 2 -11 5 -36 8 -55 17 -116 26
-134 63 -128 40 7 56 33 49 85 -22 160 -43 259 -63 290 -18 27 -58 30 -72 6z"/>
<path d="M1878 683 c-18 -21 -22 -43 -43 -208 -22 -181 -21 -197 16 -219 32
-19 32 -19 50 5 11 13 18 33 17 44 0 11 2 31 5 45 10 38 21 203 18 277 -1 38
-20 73 -40 73 -4 0 -15 -8 -23 -17z"/>
<path d="M2354 655 c-10 -26 14 -194 30 -210 12 -13 15 -12 19 8 11 49 -15
217 -34 217 -5 0 -12 -7 -15 -15z"/>
</g>
</svg>
