<?xml version="1.0" standalone="no"?>
<!DOCTYPE svg PUBLIC "-//W3C//DTD SVG 20010904//EN"
 "http://www.w3.org/TR/2001/REC-SVG-20010904/DTD/svg10.dtd">
<svg version="1.0" xmlns="http://www.w3.org/2000/svg"
 width="500.000000pt" height="350.000000pt" viewBox="0 0 500.000000 350.000000"
 preserveAspectRatio="xMidYMid meet">

<g transform="translate(0.000000,350.000000) scale(0.100000,-0.100000)"
fill="#000000" stroke="none">
<path d="M1068 2272 c-27 -2 -48 -14 -77 -42 -64 -62 -101 -150 -68 -163 13
-5 15 -305 4 -632 -7 -233 14 -314 81 -296 22 6 28 14 32 47 3 21 2 47 -2 56
-5 10 -10 60 -12 112 -3 73 0 96 10 100 7 3 16 1 20 -5 3 -5 14 -7 25 -4 11 4
19 2 19 -5 0 -7 6 -8 19 -1 10 6 21 7 25 4 3 -3 6 -2 6 4 0 11 73 46 108 52 4
0 26 18 49 39 24 20 54 46 68 57 13 11 27 33 31 48 3 16 12 31 19 33 17 7 37
87 29 118 -3 13 -1 27 4 30 10 6 8 50 -4 106 -3 14 -7 34 -9 45 -5 33 -33 91
-49 104 -9 7 -13 17 -10 22 3 5 1 9 -5 9 -5 0 -12 8 -15 18 -5 15 -136 112
-152 112 -3 0 -20 6 -37 14 -41 18 -63 22 -109 18z m72 -125 c0 -5 5 -5 10 -2
6 3 10 2 10 -4 0 -5 9 -13 20 -16 34 -11 80 -67 111 -135 25 -53 30 -76 28
-128 -2 -65 -18 -132 -31 -132 -5 0 -8 -6 -8 -13 0 -22 -40 -51 -125 -93 -44
-21 -91 -46 -105 -55 l-25 -17 -1 177 c0 154 -7 279 -18 346 -4 27 14 65 31
65 7 0 13 5 13 10 0 6 20 9 45 8 25 -2 45 -7 45 -11z"/>
<path d="M3714 2087 c-6 -7 -9 -22 -8 -32 8 -49 11 -144 4 -154 -4 -7 -38 -19
-76 -27 -74 -15 -100 -35 -84 -64 8 -15 21 -18 67 -16 70 3 109 -6 104 -25 -3
-13 -2 -88 2 -194 1 -22 6 -43 12 -47 6 -5 5 -8 -3 -8 -7 0 -11 -4 -8 -9 8
-12 9 -201 2 -209 -4 -3 -12 2 -19 12 -14 18 -44 19 -152 1 -57 -9 -96 18
-113 77 -13 44 -9 111 8 133 8 10 10 16 10 34 0 5 17 25 37 45 33 32 36 38 24
59 -21 40 -64 34 -117 -15 -40 -38 -72 -83 -75 -105 -1 -5 -5 -18 -10 -31 -24
-62 -8 -222 21 -222 4 0 13 -12 19 -28 6 -15 25 -36 41 -47 17 -11 30 -23 30
-27 0 -5 6 -8 14 -8 8 0 17 -6 19 -12 4 -10 6 -9 6 1 1 10 4 11 15 2 17 -14
136 -22 136 -8 0 5 9 7 20 4 12 -3 20 0 20 6 0 18 65 36 87 24 10 -6 21 -15
24 -20 4 -5 14 -7 24 -4 9 4 14 3 10 -3 -14 -23 24 -8 39 15 9 14 23 25 31 25
12 0 33 61 27 81 -1 6 -9 60 -17 124 -2 17 -4 30 -5 30 -1 0 -3 14 -4 30 -2
17 -8 61 -15 98 -6 38 -13 92 -15 120 -3 29 -7 60 -11 70 -8 18 3 21 60 17 86
-7 171 -5 180 5 35 36 36 42 13 68 -26 27 -69 37 -168 38 -83 1 -99 6 -95 27
1 9 0 22 -4 27 -3 6 -7 21 -9 35 -1 14 -13 45 -25 70 -23 46 -52 61 -73 37z"/>
<path d="M2362 1768 c-9 -9 -8 -16 5 -30 15 -17 17 -17 35 -2 14 13 15 20 7
31 -14 16 -31 17 -47 1z"/>
<path d="M4280 1771 c-25 -6 -84 -36 -104 -52 -6 -5 -21 -17 -33 -27 -32 -27
-65 -96 -58 -124 3 -13 20 -38 36 -56 17 -18 27 -37 24 -42 -4 -6 -3 -9 2 -8
4 1 22 -5 39 -15 17 -9 35 -13 39 -9 5 4 6 3 3 -3 -3 -5 3 -18 14 -27 10 -10
18 -15 18 -11 0 3 8 -2 19 -11 23 -21 24 -60 2 -79 -27 -24 -69 -33 -181 -40
-75 -4 -122 -22 -162 -60 -18 -17 -17 -18 4 -61 13 -24 26 -42 29 -40 4 2 14
-5 24 -16 10 -11 24 -20 32 -20 7 0 13 -5 13 -10 0 -7 7 -8 18 -3 20 9 50 9
74 -1 9 -4 23 -4 30 0 11 7 27 10 78 15 8 1 22 7 30 14 21 17 52 28 72 26 9
-1 19 7 23 19 3 11 13 20 21 20 17 0 64 44 64 59 0 5 5 11 10 13 6 2 12 13 13
26 0 12 4 22 8 22 8 0 7 19 -2 35 -3 6 -4 20 -3 33 0 12 -2 22 -5 22 -4 0 -13
16 -20 37 -15 41 -96 124 -141 146 -39 19 -75 45 -75 54 0 24 62 80 103 91 46
14 51 26 24 58 -22 26 -48 34 -82 25z"/>
<path d="M2872 1673 c-28 -13 -62 -39 -74 -56 -12 -18 -27 -35 -33 -39 -5 -4
-6 -8 -1 -8 5 0 1 -9 -8 -19 -10 -11 -19 -25 -20 -33 -2 -7 -8 -26 -15 -43
-32 -77 -8 -183 52 -234 16 -14 35 -31 42 -38 8 -7 18 -13 24 -13 6 0 11 -4
11 -8 0 -5 6 -9 13 -10 51 -7 61 -10 65 -20 2 -7 9 -9 15 -5 7 4 30 9 52 10
22 2 53 4 70 6 16 1 38 10 47 20 10 9 24 17 31 17 6 0 17 12 24 26 16 35 -11
100 -44 107 -12 2 -25 2 -28 -1 -3 -3 -15 -7 -28 -8 -12 -2 -47 -8 -78 -15
-52 -11 -60 -10 -101 11 -25 12 -45 27 -46 33 -1 7 -4 26 -8 42 l-6 30 51 0
c28 0 51 3 51 7 0 5 6 8 13 8 6 0 24 10 39 23 14 12 36 30 48 40 14 12 19 24
15 37 -4 12 -2 20 4 20 6 0 11 13 11 28 0 33 -58 102 -86 103 -11 0 -26 2 -35
4 -8 1 -39 -8 -67 -22z m68 -102 c0 -5 -12 -19 -27 -31 -20 -15 -29 -18 -32
-9 -2 7 1 15 8 17 7 2 17 10 24 18 14 16 27 18 27 5z"/>
<path d="M1609 1651 c-38 -8 -118 -62 -125 -83 -3 -10 -10 -18 -15 -18 -6 0
-7 -4 -4 -10 3 -5 2 -10 -3 -10 -17 0 -39 -97 -35 -156 3 -55 9 -99 13 -99 1
0 4 -16 7 -35 2 -19 8 -39 13 -45 4 -5 11 -24 14 -41 4 -19 18 -37 38 -48 31
-19 31 -19 49 5 14 17 18 34 14 59 -3 19 -8 62 -10 95 -4 67 -13 151 -20 185
-6 29 29 64 79 80 33 11 40 10 47 -3 5 -8 24 -24 43 -35 30 -18 36 -19 64 -5
37 18 44 39 23 77 -36 63 -121 102 -192 87z"/>
<path d="M2011 1587 c-41 -21 -93 -121 -112 -217 -16 -84 -5 -166 27 -186 13
-9 22 -20 19 -24 -7 -12 62 -50 96 -54 16 -1 32 -5 35 -9 18 -17 143 83 144
116 0 9 4 17 8 17 21 0 44 106 43 196 -1 39 -54 134 -76 134 -4 0 -18 9 -32
20 -30 23 -113 27 -152 7z m114 -150 c18 -43 10 -146 -15 -199 -13 -28 -49
-43 -79 -33 -17 5 -41 42 -48 75 -7 34 -1 105 10 116 4 4 7 17 7 29 0 12 9 30
20 40 15 13 20 15 20 4 0 -10 4 -9 17 3 22 22 50 8 68 -35z"/>
<path d="M2405 1540 c-15 -17 -16 -22 -4 -37 11 -14 11 -15 1 -9 -12 7 -12 4
-1 -15 7 -13 12 -30 11 -36 -2 -7 2 -13 8 -13 5 0 10 -10 10 -23 0 -13 3 -27
8 -31 4 -4 7 -11 8 -14 0 -4 6 -20 12 -35 7 -16 12 -33 12 -38 0 -5 4 -9 8 -9
4 0 8 -8 9 -17 2 -17 8 -43 32 -136 12 -50 9 -166 -6 -193 -11 -18 -20 -21
-69 -18 -56 3 -114 22 -114 36 0 5 -5 8 -10 8 -6 0 -20 8 -31 18 -26 25 -53
21 -84 -12 -28 -30 -31 -46 -12 -65 10 -11 10 -13 0 -7 -8 4 -13 2 -13 -6 0
-19 35 -69 43 -62 4 4 13 2 20 -4 8 -7 16 -9 20 -6 3 3 13 -8 21 -24 12 -23
22 -30 41 -28 14 2 25 -1 25 -6 0 -6 7 -8 15 -4 8 3 15 1 15 -3 0 -5 11 -8 25
-6 14 1 25 -2 25 -8 0 -5 12 -2 26 8 15 9 23 11 19 4 -6 -9 -2 -10 16 -5 20 7
43 11 82 15 4 1 7 7 7 15 0 8 14 24 30 36 17 12 30 28 30 36 0 8 3 14 8 14 7
0 13 31 15 90 1 30 -4 79 -17 173 -1 9 -8 23 -14 29 -7 7 -12 22 -12 34 0 30
-44 141 -108 272 -42 87 -78 114 -107 82z"/>
</g>
</svg>
