<?xml version="1.0" standalone="no"?>
<!DOCTYPE svg PUBLIC "-//W3C//DTD SVG 20010904//EN"
 "http://www.w3.org/TR/2001/REC-SVG-20010904/DTD/svg10.dtd">
<svg version="1.0" xmlns="http://www.w3.org/2000/svg"
 width="500.000000pt" height="350.000000pt" viewBox="0 0 500.000000 350.000000"
 preserveAspectRatio="xMidYMid meet">

<g transform="translate(0.000000,350.000000) scale(0.100000,-0.100000)"
fill="#000000" stroke="none">
<path d="M4280 2271 c-6 -12 -8 -40 -5 -63 3 -24 7 -59 10 -78 5 -49 13 -99
20 -119 2 -9 7 -36 10 -61 3 -25 7 -61 10 -80 9 -68 16 -125 21 -170 6 -62 7
-325 0 -381 -4 -40 -2 -50 18 -68 16 -15 26 -19 31 -12 3 6 10 9 13 7 4 -2 19
4 32 14 l25 19 -1 188 c-1 184 -8 276 -27 388 -5 26 -17 111 -22 150 -19 157
-48 242 -93 268 -30 18 -31 18 -42 -2z"/>
<path d="M1218 2263 c-38 -44 -84 -192 -94 -303 -4 -52 -15 -164 -20 -200 -1
-14 -3 -63 -3 -109 -1 -87 -8 -103 -16 -35 -3 22 -9 59 -15 84 -5 25 -12 63
-14 85 -2 22 -9 78 -15 125 -20 163 -22 185 -22 238 0 47 -3 54 -25 63 -34 12
-32 14 -53 -33 -27 -60 -56 -165 -67 -238 -2 -19 -6 -42 -9 -50 -11 -38 -27
-220 -28 -322 0 -66 -11 -68 -22 -6 -10 51 -7 42 -28 103 -9 28 -19 66 -21 85
-5 35 -73 322 -83 350 -4 8 -8 24 -10 35 -9 50 -26 75 -51 75 -24 0 -24 -1
-18 -52 7 -51 45 -272 67 -388 14 -70 60 -270 67 -290 3 -8 6 -19 6 -25 1 -5
9 -44 18 -85 10 -41 23 -101 29 -133 12 -63 25 -75 79 -73 33 1 35 3 35 34 -1
17 2 32 5 32 7 0 9 35 14 280 5 235 14 371 25 383 5 5 11 -11 14 -35 3 -24 8
-54 10 -68 6 -29 15 -107 22 -203 4 -38 8 -83 11 -100 3 -18 7 -48 9 -67 16
-125 49 -240 71 -240 26 0 74 35 75 55 0 11 2 32 4 48 2 15 7 82 10 150 8 148
13 212 19 252 3 17 6 68 7 115 1 96 15 230 32 305 3 11 11 47 18 81 17 83 2
117 -33 77z"/>
<path d="M3037 2255 c-64 -33 -109 -120 -110 -210 0 -85 34 -225 55 -225 5 0
8 -9 8 -20 0 -11 4 -20 10 -20 5 0 13 -12 16 -27 4 -16 11 -34 17 -41 19 -24
27 -144 15 -222 -4 -27 -12 -39 -39 -52 -19 -10 -43 -18 -54 -18 -25 0 -36 -8
-58 -42 -29 -47 -23 -62 36 -81 55 -18 104 -20 113 -6 3 5 14 9 25 9 10 0 19
5 19 10 0 6 5 10 10 10 16 0 51 39 57 63 36 151 29 254 -22 362 -21 44 -39 82
-40 85 -1 3 -13 31 -28 62 -15 31 -33 87 -41 124 -13 61 -13 72 2 108 14 36
55 85 71 86 3 0 15 7 25 15 16 12 17 17 6 30 -16 19 -57 19 -93 0z"/>
<path d="M3416 2181 c-6 -10 -1 -55 14 -134 6 -26 13 -71 16 -100 3 -29 7 -68
10 -87 3 -19 7 -55 10 -79 2 -24 8 -69 14 -100 5 -31 10 -132 11 -224 1 -159
3 -170 24 -194 l22 -26 26 19 c21 15 27 28 28 64 1 25 3 59 4 75 2 17 3 51 4
78 1 59 16 62 24 5 3 -24 8 -52 11 -63 2 -11 5 -23 5 -27 1 -6 30 -24 66 -41
8 -3 40 47 37 57 -2 6 -3 28 -3 50 0 23 -5 56 -11 75 -6 18 -11 52 -13 75 -8
139 -28 185 -82 189 -20 2 -32 -6 -49 -30 -22 -33 -22 -33 -28 -9 -3 13 -8 52
-11 87 -3 35 -7 87 -10 114 -2 28 -6 57 -8 65 -27 90 -44 138 -57 153 -16 18
-45 23 -54 8z"/>
<path d="M1935 2130 c-4 -12 -4 -56 0 -98 15 -193 18 -289 15 -567 -1 -99 1
-187 5 -196 8 -20 53 -42 67 -33 7 4 8 2 4 -4 -15 -25 14 -10 31 16 14 20 18
42 16 86 -1 33 -4 65 -7 71 -7 18 10 39 27 32 8 -3 18 -21 22 -39 14 -66 37
-121 61 -147 13 -14 24 -29 24 -34 0 -4 5 -5 10 -2 6 3 10 0 10 -8 0 -23 35
-9 59 24 19 26 20 33 10 76 -6 27 -18 58 -25 70 -8 12 -14 31 -14 43 0 11 -4
20 -10 20 -5 0 -10 7 -10 15 0 8 -14 28 -31 46 -28 29 -43 36 -78 38 -18 1
-10 41 22 112 26 56 21 89 -14 89 -18 0 -59 -40 -59 -58 0 -22 -20 -12 -21 11
-3 93 -13 176 -33 277 -24 117 -47 180 -66 180 -5 0 -12 -9 -15 -20z"/>
<path d="M3314 1752 c-12 -9 -37 -44 -55 -76 -29 -53 -33 -69 -34 -135 0 -81
16 -131 54 -165 11 -10 19 -22 16 -26 -2 -3 20 -14 50 -24 49 -15 57 -15 83
-2 16 8 32 23 36 32 9 22 -34 73 -62 73 -77 2 -105 133 -51 242 34 67 33 66
15 85 -19 18 -26 17 -52 -4z"/>
<path d="M2582 1723 c-4 -10 -8 -52 -7 -94 l2 -76 -46 -13 c-54 -16 -91 -38
-91 -54 1 -6 9 -21 20 -34 18 -21 21 -22 59 -8 l41 14 -4 -42 c-2 -22 -7 -55
-11 -72 -9 -40 26 -79 56 -63 11 5 19 16 19 23 0 7 12 26 26 42 76 85 127 133
135 128 5 -3 9 0 9 5 0 6 6 11 14 11 23 0 26 38 4 65 -13 17 -26 24 -37 20
-27 -11 -111 -23 -115 -16 -2 3 -7 39 -10 80 -4 41 -12 81 -18 88 -15 18 -36
16 -46 -4z"/>
<path d="M3845 1728 c-54 -30 -77 -90 -70 -185 9 -111 104 -219 155 -175 8 7
27 21 42 32 18 14 30 35 36 63 l8 42 17 -30 c26 -48 51 -72 88 -88 31 -13 40
-12 79 3 39 15 46 22 53 56 16 72 -12 167 -65 224 -10 10 -18 25 -18 33 0 57
-108 42 -141 -20 -15 -28 -26 -29 -33 -5 -12 38 -43 59 -87 60 -24 1 -53 -4
-64 -10z m310 -200 c4 -27 4 -48 1 -48 -17 0 -46 69 -46 110 l0 45 19 -30 c11
-16 22 -51 26 -77z m-266 68 c6 -13 6 -40 1 -62 -5 -21 -7 -42 -4 -46 3 -4 1
-8 -5 -8 -12 0 -35 39 -27 47 2 3 1 15 -3 27 -9 24 3 66 19 66 6 0 15 -11 19
-24z"/>
<path d="M1685 1665 c-17 -9 -43 -34 -57 -56 -24 -37 -27 -49 -23 -113 2 -40
11 -92 19 -116 9 -25 16 -55 16 -67 0 -12 5 -25 10 -28 6 -3 10 -16 10 -27 0
-25 27 -47 57 -48 35 0 39 31 19 150 -3 19 -8 53 -10 75 -3 22 -10 53 -15 68
-16 42 -13 65 10 78 17 9 25 7 45 -12 13 -12 24 -27 24 -33 1 -21 44 -44 68
-35 27 10 28 33 3 92 -32 74 -108 105 -176 72z"/>
<path d="M1339 1647 c-20 -15 -46 -65 -56 -108 -11 -50 -9 -169 3 -177 6 -4
15 -18 19 -32 15 -49 92 -88 138 -70 81 31 136 215 91 303 -39 74 -147 121
-195 84z m76 -121 c8 -16 15 -41 15 -56 0 -50 -13 -120 -22 -120 -23 0 -48 67
-48 131 0 36 3 68 6 71 12 13 36 0 49 -26z"/>
</g>
</svg>
