<?xml version="1.0" standalone="no"?>
<!DOCTYPE svg PUBLIC "-//W3C//DTD SVG 20010904//EN"
 "http://www.w3.org/TR/2001/REC-SVG-20010904/DTD/svg10.dtd">
<svg version="1.0" xmlns="http://www.w3.org/2000/svg"
 width="500.000000pt" height="350.000000pt" viewBox="0 0 500.000000 350.000000"
 preserveAspectRatio="xMidYMid meet">

<g transform="translate(0.000000,350.000000) scale(0.100000,-0.100000)"
fill="#000000" stroke="none">
<path d="M3408 2402 c-6 -22 -3 -132 7 -284 6 -100 6 -107 -12 -106 -18 1 -91
-8 -151 -18 -18 -4 -35 -10 -38 -15 -3 -5 -10 -7 -15 -3 -12 7 -38 -24 -39
-44 0 -27 80 -49 169 -46 100 3 116 -7 113 -70 -2 -22 5 -68 13 -100 9 -32 14
-61 11 -63 -2 -2 0 -20 5 -38 6 -19 12 -53 14 -75 2 -22 7 -44 9 -49 7 -11 8
-220 2 -250 -3 -14 -10 -29 -16 -35 -14 -14 -12 -48 4 -69 10 -12 16 -15 21
-7 5 8 11 5 20 -7 7 -10 17 -15 21 -11 4 4 13 3 19 -2 8 -7 21 -7 38 -1 14 5
28 8 31 5 3 -2 4 -1 1 2 -5 8 26 64 36 64 4 0 5 9 2 20 -3 11 0 20 5 20 13 0
5 227 -8 260 -1 3 -2 9 -1 13 1 5 -8 38 -19 74 -11 36 -23 79 -26 96 -2 17 -7
34 -10 39 -3 5 -16 47 -29 93 l-23 85 26 1 c15 1 32 0 37 -1 6 -2 44 -4 85 -5
55 -1 80 3 94 14 10 9 21 15 25 15 11 -3 51 15 52 23 0 5 2 17 4 28 2 12 -7
31 -22 47 -25 26 -26 26 -168 26 -78 0 -147 2 -152 5 -6 4 -16 41 -23 84 -8
43 -15 85 -16 93 -3 17 -20 85 -35 144 -16 59 -51 87 -61 48z"/>
<path d="M1188 2392 c-20 -4 -80 -91 -99 -144 -7 -21 -16 -38 -19 -38 -4 0
-13 -23 -20 -51 -8 -27 -18 -53 -22 -55 -5 -3 -6 -10 -3 -15 4 -5 1 -9 -5 -9
-6 0 -9 -4 -5 -9 3 -5 1 -12 -5 -16 -5 -3 -10 -17 -10 -30 0 -13 -4 -26 -9
-29 -8 -5 -12 -20 -28 -106 -2 -13 -13 -52 -23 -85 -11 -33 -26 -98 -35 -145
-9 -47 -29 -139 -45 -205 -16 -66 -32 -140 -36 -165 -10 -57 -11 -161 -3 -157
4 1 16 -6 27 -16 19 -17 20 -17 43 7 16 17 33 62 55 152 35 138 46 173 75 244
11 25 21 55 22 68 4 31 15 39 83 63 103 37 181 45 188 20 8 -28 15 -74 21
-131 3 -30 12 -93 20 -140 9 -47 17 -102 19 -124 2 -21 7 -59 12 -85 4 -25 6
-54 5 -63 -1 -10 2 -18 8 -18 6 0 8 -6 5 -14 -3 -8 4 -37 16 -65 20 -44 25
-49 41 -40 11 5 23 7 28 4 5 -3 18 6 29 20 16 21 20 37 17 83 -2 31 -7 68 -10
82 -6 23 -8 40 -20 130 -2 19 -7 49 -10 65 -3 17 -8 53 -11 80 -7 56 -11 88
-14 95 -1 3 -2 8 -1 12 0 4 -4 31 -9 60 -14 80 -19 118 -25 173 -5 44 -9 69
-29 175 -3 14 -7 35 -10 48 -4 12 -8 30 -10 40 -19 80 -31 121 -43 145 -7 15
-10 27 -7 27 4 0 0 8 -8 18 -8 9 -18 28 -21 42 -4 14 -15 35 -27 47 -11 12
-20 26 -20 30 0 12 -51 30 -72 25z m7 -172 c-3 -6 3 -29 14 -53 27 -56 76
-260 87 -361 3 -28 7 -53 10 -58 3 -4 -16 -8 -43 -8 -50 0 -122 -21 -157 -45
-32 -23 -37 -18 -21 22 8 20 13 38 10 41 -2 2 0 12 5 22 5 9 12 32 15 51 3 19
8 41 11 50 2 9 7 32 9 50 3 19 7 45 10 59 8 34 13 72 19 134 5 53 21 106 31
106 4 0 3 -5 0 -10z"/>
<path d="M1655 2256 c-21 -15 -23 -58 -9 -206 4 -47 7 -97 7 -112 0 -16 2 -28
6 -28 3 0 6 -21 7 -47 1 -81 7 -178 13 -188 3 -5 5 -30 6 -55 4 -112 8 -176
13 -185 3 -5 5 -26 3 -47 -1 -21 1 -43 5 -49 4 -7 8 -36 9 -65 5 -105 16 -154
33 -155 10 0 30 -2 47 -4 16 -2 32 1 36 6 4 7 11 5 21 -4 7 -8 24 -18 36 -21
12 -4 22 -12 22 -18 0 -7 4 -7 13 0 6 6 29 9 50 8 20 -2 37 1 37 6 0 4 5 8 11
8 16 0 61 51 86 97 13 24 24 65 27 97 3 56 -13 160 -30 187 -4 8 -10 22 -11
31 -6 35 -99 156 -111 143 -2 -2 -14 1 -25 7 -29 15 -81 14 -111 -2 -14 -7
-28 -11 -30 -9 -2 2 -7 36 -11 74 -6 70 -10 97 -21 145 -3 14 -8 45 -10 69 -1
24 -6 51 -10 60 -4 9 -8 23 -9 31 -1 8 -6 31 -10 50 -4 19 -8 44 -9 55 -6 44
-19 91 -28 103 -6 6 -7 12 -2 12 9 0 -17 20 -27 20 -3 0 -14 -6 -24 -14z m326
-808 c5 -20 14 -40 20 -44 6 -3 8 -12 5 -19 -2 -7 -1 -30 4 -51 7 -29 5 -47
-7 -72 -18 -38 -35 -49 -83 -54 l-35 -3 -2 55 c-7 166 -4 217 11 254 l16 38
30 -34 c17 -18 35 -50 41 -70z"/>
<path d="M3100 1771 c0 -5 -10 -11 -22 -13 -37 -5 -52 -66 -39 -158 23 -156
27 -226 22 -319 -2 -39 -85 115 -104 194 -25 102 -56 153 -98 160 -40 7 -53
-31 -39 -120 6 -39 13 -83 15 -99 8 -54 46 -154 60 -160 8 -3 12 -11 10 -18
-7 -16 62 -91 75 -83 6 3 10 2 10 -3 0 -15 61 -36 99 -33 33 2 52 17 107 84
15 18 37 124 29 137 -3 5 -2 10 4 10 10 0 9 94 -3 225 -11 110 -35 175 -66
175 -11 0 -23 7 -26 15 -7 16 -34 21 -34 6z"/>
<path d="M2423 1693 c-33 -4 -53 -25 -83 -88 -8 -16 -18 -32 -21 -35 -7 -6
-40 -89 -45 -115 -12 -56 -20 -147 -12 -151 5 -3 5 -10 2 -16 -4 -5 -2 -20 4
-31 5 -12 18 -41 28 -65 9 -24 27 -48 38 -54 12 -6 25 -17 29 -25 5 -7 12 -11
18 -8 5 4 9 2 9 -3 0 -11 83 -27 115 -23 35 5 105 43 105 57 0 8 5 14 10 14 6
0 18 17 27 38 8 20 20 47 26 59 6 13 7 26 4 30 -4 3 -3 11 2 17 12 15 17 68 8
84 -5 6 -4 12 2 12 22 0 -23 171 -52 195 -7 6 -20 22 -30 37 -16 26 -97 77
-97 61 0 -4 -5 -2 -12 5 -7 7 -19 11 -27 10 -9 0 -31 -3 -48 -5z m65 -177 c14
-23 30 -44 35 -48 18 -11 19 -182 1 -216 -20 -42 -39 -55 -66 -46 -80 25 -110
196 -56 325 17 40 55 34 86 -15z"/>
</g>
</svg>
