<?xml version="1.0" standalone="no"?>
<!DOCTYPE svg PUBLIC "-//W3C//DTD SVG 20010904//EN"
 "http://www.w3.org/TR/2001/REC-SVG-20010904/DTD/svg10.dtd">
<svg version="1.0" xmlns="http://www.w3.org/2000/svg"
 width="500.000000pt" height="350.000000pt" viewBox="0 0 500.000000 350.000000"
 preserveAspectRatio="xMidYMid meet">

<g transform="translate(0.000000,350.000000) scale(0.100000,-0.100000)"
fill="#000000" stroke="none">
<path d="M2160 2049 c-25 -5 -55 -8 -67 -6 -22 4 -22 3 -25 -167 -2 -94 -1
-175 1 -180 7 -14 19 25 20 60 1 27 5 32 32 38 17 3 44 6 58 6 15 0 36 7 47
16 18 14 16 15 -31 10 -27 -3 -62 -8 -77 -12 l-28 -6 0 68 c0 38 -3 85 -6 105
l-6 36 75 8 c46 4 81 12 88 21 9 11 7 14 -12 13 -13 -1 -44 -5 -69 -10z"/>
<path d="M4920 2033 c0 -5 5 -35 11 -66 11 -56 11 -57 -15 -78 -55 -43 -20
-117 42 -86 15 7 26 18 25 23 -1 5 -13 54 -27 108 -24 91 -36 125 -36 99z m27
-182 c13 -22 8 -31 -19 -31 -18 0 -25 29 -11 43 10 11 17 8 30 -12z"/>
<path d="M2969 2029 c-7 -22 -35 -287 -31 -296 10 -29 22 -10 22 37 0 56 18
74 71 68 26 -2 33 -9 45 -43 7 -22 14 -48 14 -58 0 -17 26 -35 35 -25 8 7 -45
160 -70 203 -24 41 -84 121 -86 114z m71 -148 c0 -10 -61 -34 -68 -27 -2 3 -1
33 3 67 l7 62 29 -47 c16 -25 29 -50 29 -55z"/>
<path d="M3432 2017 c-8 -10 -7 -42 4 -118 9 -57 19 -111 22 -119 12 -30 14
77 2 143 -17 99 13 118 38 25 8 -28 7 -40 -3 -48 -10 -9 -5 -27 28 -92 39 -75
59 -99 74 -84 3 3 -1 14 -9 23 -8 10 -29 45 -46 77 -23 43 -29 63 -21 72 14
17 -6 89 -32 115 -22 22 -42 24 -57 6z"/>
<path d="M1550 2000 c-8 -6 -46 -9 -85 -9 -65 2 -155 -14 -155 -28 0 -3 24 -2
54 1 l53 7 6 -63 c9 -81 -5 -167 -29 -185 -30 -22 -94 10 -94 49 0 10 -4 18
-10 18 -21 0 -8 -43 21 -71 51 -48 109 -36 130 28 6 20 12 78 13 130 l1 93 48
0 c52 0 91 15 82 31 -8 11 -16 11 -35 -1z"/>
<path d="M3136 1909 c4 -57 8 -115 9 -129 2 -14 3 -35 4 -47 0 -13 6 -23 12
-23 18 0 -7 279 -26 299 -3 2 -2 -42 1 -100z"/>
<path d="M3213 1996 c3 -7 9 -70 13 -140 6 -107 15 -152 28 -135 4 6 -12 218
-19 257 -3 17 -11 32 -17 32 -5 0 -8 -6 -5 -14z"/>
<path d="M3864 1974 c4 -19 10 -42 13 -50 3 -8 -1 -14 -7 -14 -9 0 -8 -5 3
-18 9 -10 20 -36 25 -58 8 -42 29 -46 25 -4 -2 14 -4 38 -5 55 -1 16 -7 36
-14 43 -7 7 -16 28 -20 47 -3 19 -11 35 -16 35 -6 0 -8 -14 -4 -36z"/>
<path d="M4182 1998 c-16 -16 -15 -63 2 -124 8 -27 17 -61 20 -76 11 -49 25
-30 20 25 l-6 52 29 -54 c15 -30 34 -56 41 -59 19 -6 14 13 -16 65 -22 38 -27
57 -24 93 3 35 -1 50 -18 68 -24 25 -31 27 -48 10z m48 -75 c0 -12 -4 -24 -9
-27 -9 -6 -21 40 -21 78 1 20 2 20 15 -4 8 -14 14 -35 15 -47z"/>
<path d="M534 1974 c-28 -15 -44 -31 -44 -47 0 -5 12 1 26 12 104 82 108 -95
5 -193 -17 -17 -31 -35 -31 -42 0 -16 67 -26 153 -22 97 5 82 23 -21 24 -48 1
-90 2 -93 3 -3 1 11 19 32 41 99 103 77 278 -27 224z"/>
<path d="M3740 1986 c0 -15 43 -184 50 -196 7 -12 11 -9 21 15 l11 30 15 -34
c21 -51 37 -25 16 27 -16 42 -30 51 -50 31 -7 -7 -12 0 -17 28 -11 58 -26 103
-37 103 -5 0 -9 -2 -9 -4z"/>
<path d="M1669 1966 c-3 -4 -2 -27 2 -54 4 -26 8 -79 8 -119 1 -39 6 -75 11
-78 6 -3 10 -3 11 2 1 16 9 59 15 83 6 23 7 24 14 5 4 -11 10 -41 14 -67 9
-60 36 -68 36 -10 0 68 -38 146 -65 136 -8 -4 -17 13 -26 51 -8 31 -17 54 -20
51z"/>
<path d="M764 1949 c-3 -6 -6 -52 -6 -103 -1 -104 21 -169 59 -174 17 -3 24 5
33 34 15 45 6 162 -14 203 -17 31 -62 56 -72 40z m45 -38 c12 -22 27 -145 23
-184 -2 -16 -8 -27 -15 -24 -21 6 -36 69 -36 150 -1 76 8 95 28 58z"/>
<path d="M890 1941 c0 -5 8 -8 18 -7 24 2 27 -51 8 -134 -20 -83 -12 -94 56
-76 26 6 50 15 54 19 13 13 -26 19 -57 8 -18 -6 -33 -10 -35 -9 -1 2 5 37 13
78 18 91 8 130 -32 130 -14 0 -25 -4 -25 -9z"/>
<path d="M1010 1940 c-12 -8 -9 -10 12 -10 25 0 27 -3 22 -27 -4 -24 0 -30 28
-43 53 -24 51 -90 -3 -109 -33 -11 -35 -34 -3 -39 27 -4 70 31 78 63 9 34 -18
93 -48 106 -21 10 -24 17 -19 40 5 27 3 29 -23 29 -16 0 -36 -5 -44 -10z"/>
<path d="M138 1895 c-56 -38 -76 -126 -42 -184 28 -47 74 -71 150 -77 63 -5
67 -4 50 10 -10 8 -43 18 -73 22 -65 8 -101 35 -112 84 -17 77 28 140 99 140
76 0 128 -89 86 -146 -12 -15 -18 -17 -33 -8 -13 9 -17 22 -15 50 2 22 -3 47
-11 58 -32 43 -103 -18 -95 -82 3 -24 7 -27 40 -28 21 0 46 -8 57 -18 38 -34
93 8 95 72 1 46 -23 85 -67 112 -43 27 -85 25 -129 -5z m67 -88 c0 -34 -10
-57 -26 -57 -15 0 -10 52 8 72 9 10 17 18 17 18 1 0 1 -15 1 -33z"/>
<path d="M3986 1904 c-23 -23 -19 -49 9 -62 14 -6 25 -16 25 -22 0 -6 -11 -15
-25 -20 -31 -12 -33 -30 -2 -30 27 0 52 17 60 42 4 12 -3 25 -23 40 -23 16
-28 27 -24 45 7 27 1 29 -20 7z"/>
<path d="M4719 1908 c-1 -7 -1 -18 0 -25 3 -24 -19 -23 -25 2 -6 26 -24 35
-24 11 0 -22 40 -106 51 -106 27 0 37 119 10 128 -6 2 -12 -2 -12 -10z"/>
<path d="M4794 1912 c-19 -12 -34 -50 -28 -67 9 -22 41 -37 64 -30 26 8 26 29
0 22 -26 -7 -36 11 -15 27 29 21 8 68 -21 48z"/>
<path d="M2595 1900 c-3 -5 -1 -10 4 -10 6 0 11 5 11 10 0 6 -2 10 -4 10 -3 0
-8 -4 -11 -10z"/>
<path d="M4596 1901 c-8 -13 23 -111 35 -111 6 0 9 6 6 14 -3 8 -9 31 -13 50
-5 30 -3 36 10 36 10 0 14 5 11 10 -8 12 -42 13 -49 1z"/>
<path d="M4507 1873 c-27 -53 19 -125 68 -107 19 8 9 24 -15 24 -11 0 -25 10
-31 22 -10 19 -9 24 10 36 27 18 28 52 1 52 -11 0 -25 -11 -33 -27z"/>
<path d="M4393 1874 c-4 -11 6 -27 33 -50 l39 -33 -27 -1 c-18 0 -28 -5 -28
-15 0 -15 26 -20 54 -9 28 11 19 53 -14 72 -21 11 -29 23 -26 35 5 22 -22 23
-31 1z"/>
<path d="M4294 1855 c-3 -14 -4 -32 0 -40 8 -21 66 -55 82 -48 20 7 17 23 -4
23 -27 0 -43 20 -32 41 13 24 2 49 -21 49 -12 0 -21 -9 -25 -25z"/>
<path d="M1827 1853 c-13 -3 -17 -11 -13 -26 2 -12 8 -46 12 -75 10 -78 24
-74 24 7 0 68 13 94 26 54 31 -93 64 -150 64 -110 0 23 -49 140 -63 149 -13 8
-21 8 -50 1z"/>
<path d="M2324 1842 c-18 -12 -23 -49 -12 -92 14 -55 31 -51 22 5 -8 60 -1 79
26 65 16 -8 20 -8 20 4 0 21 -35 33 -56 18z"/>
<path d="M1517 1823 c-15 -18 -20 -35 -18 -65 1 -21 60 -41 95 -32 47 11 47
81 0 102 -35 17 -58 15 -77 -5z m78 -33 c24 -27 9 -43 -36 -38 -24 2 -35 9
-37 22 -7 37 44 48 73 16z"/>
<path d="M2530 1811 c0 -36 -15 -48 -29 -24 -9 16 -13 16 -31 5 -19 -12 -22
-11 -27 7 -9 33 -35 27 -27 -6 14 -60 46 -85 61 -48 5 14 8 14 24 -1 15 -14
21 -14 34 -4 17 14 21 100 5 100 -5 0 -10 -13 -10 -29z"/>
<path d="M3607 1803 c6 -39 23 -70 23 -41 0 30 -13 78 -21 78 -4 0 -5 -17 -2
-37z"/>
<path d="M3684 1815 c-8 -31 10 -55 42 -55 26 0 44 -31 44 -75 0 -29 -41 -45
-65 -25 -17 14 -31 7 -20 -10 15 -24 57 -31 83 -14 21 14 24 22 20 58 -3 22
-16 59 -29 80 -22 38 -24 39 -29 17 -5 -21 -7 -22 -19 -8 -7 9 -10 25 -6 37 4
11 2 20 -4 20 -6 0 -13 -11 -17 -25z"/>
<path d="M2668 1795 c-4 -38 1 -65 13 -65 5 0 9 16 9 35 0 28 4 35 20 35 12 0
26 -12 35 -30 9 -16 20 -30 25 -30 21 0 17 19 -11 53 -24 29 -37 37 -59 35
-23 -2 -29 -7 -32 -33z"/>
<path d="M2590 1780 c0 -22 5 -40 10 -40 6 0 10 18 10 40 0 22 -4 40 -10 40
-5 0 -10 -18 -10 -40z"/>
<path d="M2151 1719 c-60 -12 -74 -28 -16 -19 25 4 48 8 50 8 3 1 23 2 46 2
24 0 38 4 34 10 -7 12 -52 11 -114 -1z"/>
</g>
</svg>
