<?xml version="1.0" standalone="no"?>
<!DOCTYPE svg PUBLIC "-//W3C//DTD SVG 20010904//EN"
 "http://www.w3.org/TR/2001/REC-SVG-20010904/DTD/svg10.dtd">
<svg version="1.0" xmlns="http://www.w3.org/2000/svg"
 width="500.000000pt" height="350.000000pt" viewBox="0 0 500.000000 350.000000"
 preserveAspectRatio="xMidYMid meet">

<g transform="translate(0.000000,350.000000) scale(0.100000,-0.100000)"
fill="#000000" stroke="none">
<path d="M2890 3075 c0 -8 -4 -15 -9 -15 -4 0 -7 -26 -5 -57 5 -102 5 -307 0
-332 -16 -74 38 -97 67 -29 10 21 15 43 12 49 -4 5 -2 9 3 9 5 0 9 6 10 13 15
129 18 178 18 260 -1 108 -6 117 -63 117 -23 0 -33 -5 -33 -15z"/>
<path d="M2256 3040 c-17 -18 -18 -31 -12 -192 8 -210 13 -248 36 -248 20 0
31 45 36 148 4 59 7 127 8 152 2 25 6 63 11 84 7 34 5 41 -16 57 -30 23 -39
23 -63 -1z"/>
<path d="M3470 2988 c-25 -41 -38 -108 -45 -223 -3 -49 -7 -113 -10 -140 -5
-59 4 -80 32 -71 27 9 57 93 77 216 2 14 9 45 16 70 7 25 14 54 16 65 2 11 6
33 10 48 4 21 1 34 -15 48 -30 28 -58 24 -81 -13z"/>
<path d="M2590 2950 c-8 -20 -10 -57 -6 -119 7 -105 12 -121 36 -121 38 0 40
177 3 238 l-20 33 -13 -31z"/>
<path d="M4188 2973 c-23 -6 -47 -45 -52 -85 -10 -71 -18 -117 -42 -222 -13
-60 -24 -117 -24 -126 0 -26 26 -32 48 -12 26 23 74 107 65 115 -3 4 -1 7 6 7
7 0 9 5 6 10 -3 6 -1 10 6 10 7 0 10 3 6 6 -3 3 -2 16 3 28 9 24 21 87 24 121
1 11 7 30 14 42 15 27 15 55 0 88 -11 24 -23 28 -60 18z"/>
<path d="M1666 2918 c-18 -28 -15 -65 19 -240 9 -46 18 -93 20 -105 6 -26 36
-24 46 3 7 19 3 184 -6 283 -7 75 -48 106 -79 59z"/>
<path d="M1120 2895 c-14 -17 -8 -114 15 -245 22 -131 33 -167 50 -174 30 -11
30 10 6 296 -5 58 -11 111 -15 116 -10 17 -45 21 -56 7z"/>
<path d="M2049 2889 c0 -2 -3 -13 -6 -24 -11 -43 -3 -180 12 -194 8 -8 18 -12
22 -8 14 14 7 175 -8 193 -8 9 -12 19 -11 21 2 3 1 7 -2 11 -3 3 -6 3 -7 1z"/>
<path d="M3226 2821 c-27 -60 -33 -105 -17 -130 8 -12 12 -12 25 -2 9 7 14 16
11 20 -2 4 2 25 10 47 16 44 19 110 6 118 -5 3 -20 -21 -35 -53z"/>
<path d="M3851 2779 c-17 -44 -31 -89 -31 -99 0 -27 11 -50 24 -50 19 0 59
102 61 155 4 102 -14 100 -54 -6z"/>
<path d="M450 2827 c-15 -8 -27 -24 -31 -45 -7 -33 2 -49 66 -116 11 -12 19
-24 17 -28 -1 -5 2 -8 8 -8 6 0 10 -7 10 -16 0 -8 4 -13 8 -10 4 2 18 -11 32
-30 42 -63 110 -82 110 -31 0 37 -29 113 -54 140 -12 13 -21 28 -19 34 2 5 -7
21 -20 34 -13 13 -26 31 -30 40 -4 12 -60 51 -71 49 -1 0 -12 -6 -26 -13z"/>
<path d="M1483 2699 c6 -108 19 -151 40 -130 5 5 9 37 8 71 -1 102 -18 170
-43 170 -7 0 -9 -34 -5 -111z"/>
<path d="M897 2675 c-9 -50 2 -129 20 -142 23 -18 35 -3 38 49 5 70 -46 152
-58 93z"/>
<path d="M4480 2667 c-52 -47 -121 -138 -118 -154 11 -62 129 21 160 112 23
70 7 86 -42 42z"/>
<path d="M4834 2592 c-35 -12 -105 -79 -156 -152 -10 -14 -36 -51 -58 -82 -44
-63 -47 -70 -25 -88 22 -19 55 -5 108 45 26 25 53 45 59 45 6 0 8 3 5 6 -4 4
16 29 43 56 28 27 50 52 50 56 0 3 12 18 26 33 24 25 25 29 12 55 -14 30 -30
36 -64 26z"/>
<path d="M426 2491 c-4 -5 -3 -11 2 -13 11 -5 72 -103 72 -116 0 -6 10 -16 21
-23 41 -22 48 24 15 94 -24 50 -93 86 -110 58z"/>
<path d="M144 2232 c-23 -3 -34 -27 -34 -75 0 -16 4 -26 10 -22 6 3 10 1 10
-5 0 -7 7 -10 15 -6 8 3 22 -2 30 -11 9 -8 19 -13 22 -10 3 4 14 2 23 -3 10
-5 37 -12 60 -15 24 -3 49 -10 57 -16 10 -9 13 -8 13 2 0 9 3 10 8 4 17 -23
92 4 92 34 0 31 -112 91 -171 91 -17 0 -56 17 -69 30 -6 6 -35 7 -66 2z"/>
<path d="M919 2209 c-37 -4 -81 -15 -99 -24 -28 -15 -36 -15 -68 -2 -36 14
-38 14 -56 -10 -17 -23 -19 -48 -22 -242 -1 -119 -5 -238 -8 -266 -3 -27 -8
-103 -11 -168 -4 -64 -8 -125 -9 -135 -6 -29 12 -136 24 -140 5 -2 8 -8 5 -13
-4 -5 1 -6 9 -3 10 4 16 1 16 -9 0 -25 34 -29 115 -12 42 8 98 16 123 17 26 1
52 5 58 10 6 4 24 4 40 -1 16 -4 37 -7 47 -5 31 4 67 34 67 54 0 61 -124 66
-330 15 l-26 -6 1 140 0 140 61 10 c33 6 70 11 82 11 11 0 28 7 37 16 15 16
15 18 -4 37 -19 19 -25 20 -78 10 -32 -6 -66 -14 -75 -18 -16 -6 -18 1 -18 76
-1 149 -9 333 -15 365 -6 29 -5 31 36 43 23 7 96 15 161 17 101 3 121 7 138
24 25 25 25 32 0 55 -23 21 -91 25 -201 14z"/>
<path d="M4779 1901 c-61 -20 -89 -42 -89 -72 0 -16 56 -33 65 -20 2 4 18 7
37 6 18 0 36 5 40 10 5 6 8 5 8 -3 0 -8 5 -9 18 -3 9 5 36 17 60 26 23 10 42
22 42 26 0 26 -127 47 -181 30z"/>
<path d="M365 1823 c-62 -16 -145 -69 -145 -95 0 -16 82 -8 108 10 18 12 42
18 72 17 65 -2 83 33 30 60 -30 16 -32 16 -65 8z"/>
<path d="M2817 1788 c-25 -13 -21 -43 8 -58 22 -12 27 -11 40 6 8 10 14 25 12
33 -3 19 -40 31 -60 19z"/>
<path d="M3870 1684 c-42 -18 -59 -36 -95 -100 -30 -52 -38 -131 -23 -220 9
-54 38 -114 55 -114 8 0 11 -4 8 -10 -3 -5 1 -10 9 -10 9 0 16 -4 16 -8 0 -5
7 -9 15 -10 82 -10 137 12 152 61 15 49 -17 70 -80 52 -47 -13 -73 9 -83 69
-12 76 -12 78 2 114 7 18 12 35 11 38 -4 10 45 54 54 48 5 -3 9 0 9 5 0 6 3
10 8 10 4 -1 26 -1 48 0 32 1 43 5 47 20 12 47 -88 83 -153 55z"/>
<path d="M2454 1643 c-32 -30 -52 -66 -54 -98 -3 -50 2 -114 11 -155 6 -25 13
-56 15 -70 7 -35 35 -90 46 -90 5 0 6 -4 3 -10 -8 -13 1 -13 41 2 32 11 33 14
29 52 -3 23 -9 61 -15 86 -19 92 -27 164 -21 188 l7 25 17 -26 c9 -15 17 -30
17 -34 1 -13 45 -59 64 -66 28 -11 66 3 66 24 0 22 -21 71 -35 81 -5 4 -10 11
-10 15 0 4 -10 25 -22 46 -37 62 -109 76 -159 30z"/>
<path d="M4199 1627 c-72 -41 -88 -54 -121 -98 -50 -67 -54 -173 -10 -217 32
-32 77 -59 110 -67 18 -3 30 -10 28 -14 -2 -3 41 -6 97 -5 74 1 110 6 132 17
17 9 36 17 43 17 6 0 12 4 12 9 0 5 14 22 30 38 17 15 30 31 30 34 0 3 -16 24
-36 48 -33 38 -40 41 -68 35 -17 -4 -41 -14 -55 -22 -13 -9 -31 -17 -40 -19
-188 -34 -217 -28 -208 38 7 55 24 72 61 64 68 -15 96 -16 136 -5 67 18 94 56
84 117 -7 47 -36 63 -113 63 -45 0 -67 -7 -112 -33z"/>
<path d="M3525 1643 c-11 -3 -24 -9 -29 -14 -6 -5 -18 -9 -27 -9 -29 0 -34
-19 -40 -145 -4 -66 -9 -130 -12 -143 -8 -32 39 -75 73 -67 30 8 40 21 40 57
0 15 4 29 8 32 4 3 9 38 10 80 3 75 8 115 16 123 5 5 21 -78 17 -92 -2 -5 -3
-47 -3 -93 0 -80 13 -119 34 -106 5 3 17 -4 27 -15 17 -19 20 -20 32 -5 7 9
23 20 36 25 22 8 22 9 8 56 -8 26 -14 57 -13 68 1 47 -12 139 -21 148 -6 6
-11 18 -11 28 0 24 -40 71 -56 65 -7 -3 -16 -1 -19 4 -6 10 -35 11 -70 3z"/>
<path d="M1429 1617 c-18 -7 -34 -28 -52 -68 -15 -33 -30 -59 -34 -59 -5 0
-33 23 -63 50 -30 28 -63 50 -72 50 -41 0 -8 -80 65 -157 22 -23 28 -38 24
-55 -3 -13 -9 -36 -13 -53 -4 -16 -13 -37 -21 -47 -22 -25 -43 -105 -34 -129
4 -12 22 -27 39 -35 29 -12 33 -11 42 7 6 10 17 19 26 19 13 0 32 52 26 73 -1
4 2 7 8 7 5 0 7 8 4 18 -3 9 4 1 15 -18 28 -49 41 -79 41 -94 0 -7 13 -25 30
-39 30 -27 60 -36 60 -17 0 6 9 10 20 10 15 0 18 5 15 28 -8 50 -11 60 -21 73
-6 8 -14 21 -18 29 -4 8 -20 38 -36 65 -60 103 -60 72 -5 258 13 43 13 51 -1
73 -9 13 -17 24 -18 23 0 -1 -13 -6 -27 -12z"/>
<path d="M3077 1583 c-80 -68 -114 -186 -67 -233 11 -11 20 -27 20 -35 0 -8 5
-15 12 -15 6 0 19 -6 27 -14 22 -20 137 -37 187 -27 50 10 102 40 110 64 4 12
-3 27 -21 43 l-28 25 -75 -15 c-61 -12 -80 -13 -100 -3 -51 25 -54 62 -7 70
32 5 88 37 107 61 25 30 22 53 -11 87 -44 43 -96 41 -154 -8z"/>
<path d="M1683 1590 c-41 -24 -64 -60 -58 -89 15 -77 26 -180 22 -206 -2 -16
0 -35 5 -42 5 -7 5 -14 -1 -17 -7 -4 -7 -15 -1 -30 5 -13 6 -27 2 -30 -3 -4
-8 -91 -9 -193 -3 -198 -2 -203 45 -203 16 0 21 -4 16 -12 -5 -7 7 -1 26 13
19 14 38 39 42 55 9 32 2 370 -9 387 -4 6 -1 7 7 2 20 -12 76 -15 59 -3 -11 7
-10 8 6 6 17 -3 65 33 65 49 0 4 10 17 22 30 32 34 37 126 10 179 -56 110
-165 156 -249 104z m124 -61 c53 -20 81 -123 49 -183 -15 -30 -54 -63 -80 -68
-24 -4 -31 20 -40 128 -3 43 -9 90 -12 103 -11 40 14 46 83 20z"/>
<path d="M2847 1581 c-9 -35 -2 -280 8 -290 6 -6 27 -8 48 -4 l37 6 -4 112
c-3 81 -9 123 -23 151 -21 44 -57 58 -66 25z"/>
<path d="M2112 1580 c-38 -16 -80 -71 -98 -127 -25 -78 -7 -154 47 -204 46
-42 87 -56 152 -49 33 3 58 14 82 34 19 16 35 33 35 37 0 5 -11 19 -25 32 -19
17 -34 22 -55 19 -17 -2 -30 -8 -30 -12 0 -11 -39 -20 -45 -9 -3 4 -12 6 -19
3 -18 -7 -48 42 -44 74 2 22 9 28 40 33 24 4 48 18 71 41 66 68 46 131 -43
135 -25 1 -55 -2 -68 -7z"/>
<path d="M4776 1523 c-4 -4 -24 -6 -46 -5 -46 3 -75 -10 -91 -39 -9 -17 -7
-24 10 -40 22 -21 61 -38 101 -45 33 -6 69 -13 100 -20 39 -9 61 -6 79 10 10
9 22 16 28 16 6 0 14 12 17 26 5 19 1 33 -13 48 -12 12 -21 28 -21 34 0 7 -8
12 -17 13 -10 0 -46 2 -79 4 -34 2 -65 1 -68 -2z"/>
<path d="M313 1462 c-98 -27 -127 -67 -79 -109 26 -23 89 -24 154 -2 20 7 41
13 45 14 5 0 15 8 22 18 7 10 16 18 19 18 23 -3 27 3 24 37 l-3 37 -60 2 c-33
1 -88 -6 -122 -15z"/>
<path d="M445 1122 c-27 -20 -68 -54 -90 -76 -38 -37 -39 -40 -19 -48 24 -11
109 24 118 48 3 8 12 14 21 14 8 0 15 4 15 9 0 6 14 18 30 28 20 12 30 24 28
37 -5 33 -48 28 -103 -12z"/>
<path d="M4563 1073 c-29 -11 -7 -61 29 -67 34 -6 65 -20 86 -39 12 -11 22
-17 22 -13 0 4 12 -1 28 -12 29 -20 83 -23 90 -3 13 40 -40 94 -118 119 -42
13 -120 22 -137 15z"/>
<path d="M4332 931 c-25 -15 -24 -59 2 -98 14 -20 26 -44 26 -51 0 -7 11 -28
25 -46 14 -18 25 -40 25 -48 0 -9 7 -18 15 -22 8 -3 12 -11 10 -18 -5 -13 12
-37 52 -69 37 -30 43 -30 77 -4 31 24 34 29 25 53 -22 62 -85 158 -139 212
-14 14 -34 36 -45 50 -26 31 -59 50 -73 41z"/>
<path d="M458 855 c-38 -25 -68 -49 -68 -55 0 -5 -7 -10 -16 -10 -8 0 -43 -29
-78 -65 -59 -61 -63 -70 -57 -116 1 -3 7 -6 14 -6 6 0 19 -4 28 -7 10 -5 29 5
55 28 21 20 42 36 45 36 3 0 23 16 45 35 21 19 42 35 47 35 4 0 7 7 7 16 0 8
5 12 10 9 6 -3 10 1 10 9 0 9 4 16 9 16 15 0 80 86 73 97 -18 30 -57 23 -124
-22z"/>
<path d="M4035 841 c-16 -50 61 -198 118 -227 24 -13 28 -13 33 1 10 26 -6 86
-39 145 -50 87 -51 88 -79 95 -21 5 -27 3 -33 -14z"/>
<path d="M3663 797 c-6 -13 -9 -36 -7 -52 3 -17 7 -59 9 -95 10 -129 36 -212
75 -240 27 -19 28 -19 48 -1 18 15 21 27 18 72 -3 30 -9 79 -16 109 -6 30 -12
64 -14 75 -2 11 -11 46 -20 78 -13 45 -23 60 -42 67 -36 14 -39 13 -51 -13z"/>
<path d="M785 788 c-66 -38 -166 -188 -124 -188 12 0 96 83 114 111 6 9 19 28
29 43 22 31 11 51 -19 34z"/>
<path d="M3241 772 c-5 -10 -9 -65 -9 -120 2 -87 5 -105 22 -124 l20 -21 8 29
c11 36 16 244 6 244 -3 0 -13 3 -21 6 -9 3 -20 -2 -26 -14z"/>
<path d="M2844 770 c-17 -7 -23 -20 -28 -57 -4 -36 -1 -228 4 -228 0 0 2 -39
4 -87 2 -48 7 -92 10 -97 8 -13 76 -32 88 -25 4 3 8 14 8 25 0 10 5 19 11 19
14 0 7 98 -21 270 -6 36 -11 84 -11 108 -1 23 -5 42 -9 42 -4 0 -10 9 -13 20
-6 22 -11 23 -43 10z"/>
<path d="M2486 710 c-2 -3 -4 -30 -5 -61 -3 -74 15 -138 46 -166 46 -43 53
-13 27 114 -9 43 -18 88 -20 100 -3 15 -11 21 -25 20 -11 -1 -22 -4 -23 -7z"/>
<path d="M977 618 c-80 -113 -175 -263 -182 -286 -5 -19 -1 -25 27 -36 32 -14
58 -7 58 16 0 5 9 18 20 30 11 12 20 28 20 35 0 7 4 13 8 13 5 0 15 12 23 28
7 15 21 38 31 51 10 13 18 33 18 44 0 11 3 17 6 14 7 -7 60 97 66 128 2 15 -3
21 -24 23 -22 3 -33 -6 -71 -60z"/>
<path d="M2170 659 c-15 -27 -20 -448 -6 -457 21 -13 72 -28 84 -24 7 2 12 14
12 27 0 13 5 27 10 30 6 4 7 11 4 17 -4 6 -6 41 -4 77 4 93 4 97 -4 181 -10
105 -27 153 -60 161 -20 6 -29 3 -36 -12z"/>
<path d="M1924 656 c-16 -12 -19 -27 -19 -102 0 -57 4 -89 12 -91 14 -5 20 15
28 82 3 28 8 67 11 88 6 40 -1 45 -32 23z"/>
<path d="M1255 623 c-23 -57 -24 -183 -1 -183 16 0 36 71 42 148 4 46 2 52
-15 52 -10 0 -22 -8 -26 -17z"/>
<path d="M1576 617 c-17 -17 -26 -37 -25 -54 0 -16 -2 -96 -5 -179 l-6 -150
29 -22 c17 -12 35 -22 40 -22 20 0 50 52 49 84 -1 18 2 38 6 44 3 6 2 13 -4
17 -6 4 -7 12 -3 18 9 15 12 47 3 47 -3 0 -6 26 -6 58 -1 116 -4 131 -28 158
l-23 28 -27 -27z"/>
</g>
</svg>
