<?xml version="1.0" standalone="no"?>
<!DOCTYPE svg PUBLIC "-//W3C//DTD SVG 20010904//EN"
 "http://www.w3.org/TR/2001/REC-SVG-20010904/DTD/svg10.dtd">
<svg version="1.0" xmlns="http://www.w3.org/2000/svg"
 width="1668.000000pt" height="2388.000000pt" viewBox="0 0 1668.000000 2388.000000"
 preserveAspectRatio="xMidYMid meet">

<g transform="translate(0.000000,2388.000000) scale(0.100000,-0.100000)"
fill="#000000" stroke="none">
<path d="M14060 19995 c-27 -28 -40 -32 -40 -11 0 27 -17 26 -31 -2 -25 -49
-58 -68 -74 -42 -3 6 -17 10 -30 10 -13 0 -27 5 -30 10 -5 7 -11 8 -19 1 -7
-6 -17 -6 -26 -1 -8 6 -26 10 -40 10 -15 0 -31 5 -37 11 -8 8 -13 8 -17 0 -10
-15 -69 -14 -84 1 -10 10 -17 10 -32 0 -11 -6 -37 -12 -58 -12 -21 0 -43 -5
-50 -12 -9 -9 -15 -9 -24 0 -14 14 -98 16 -98 2 0 -5 -13 -10 -29 -10 -17 0
-33 -5 -36 -10 -5 -7 -11 -8 -19 -1 -16 13 -75 12 -104 -2 -16 -8 -25 -8 -33
0 -9 9 -17 8 -30 0 -14 -9 -21 -9 -31 1 -9 9 -17 7 -35 -10 -20 -19 -25 -20
-33 -8 -8 13 -13 13 -30 2 -16 -10 -25 -10 -35 -2 -10 8 -22 5 -50 -10 -27
-15 -40 -18 -50 -10 -9 8 -14 7 -18 -4 -9 -22 -74 -50 -94 -40 -10 4 -25 8
-33 9 -8 1 -29 5 -46 9 -24 5 -33 3 -37 -8 -4 -9 -16 -16 -28 -16 -12 0 -23
-8 -26 -20 -6 -22 -18 -26 -28 -10 -9 14 -71 12 -95 -2 -16 -10 -24 -10 -41 0
-18 12 -24 11 -43 -7 -14 -14 -29 -18 -44 -14 -14 3 -30 -1 -41 -11 -10 -9
-25 -14 -35 -10 -11 4 -16 1 -16 -10 0 -20 -9 -20 -32 1 -18 16 -21 14 -63
-27 -40 -39 -48 -43 -65 -32 -10 6 -26 9 -35 6 -8 -3 -15 -1 -15 4 0 15 -71 3
-91 -15 -9 -7 -23 -11 -31 -8 -8 3 -25 -6 -38 -20 -28 -29 -33 -30 -55 -9 -12
13 -19 14 -28 5 -6 -6 -20 -11 -32 -11 -12 0 -26 -5 -32 -11 -6 -6 -33 -11
-61 -12 -28 -1 -54 -6 -58 -10 -4 -4 -15 -7 -25 -7 -10 0 -35 -10 -56 -22 -21
-12 -51 -20 -66 -19 -15 1 -36 -3 -46 -8 -12 -7 -22 -6 -29 1 -8 8 -16 5 -30
-13 -17 -20 -22 -21 -35 -11 -13 11 -20 10 -43 -4 -14 -10 -36 -19 -47 -19
-12 -1 -23 -7 -25 -13 -2 -7 -12 -12 -22 -12 -10 0 -22 -4 -25 -10 -9 -14 -48
-13 -63 2 -10 10 -17 10 -31 1 -14 -9 -21 -9 -30 0 -9 9 -13 7 -17 -8 -3 -12
-27 -30 -56 -44 -41 -20 -54 -22 -69 -13 -23 15 -86 16 -94 2 -3 -5 -17 -10
-30 -10 -16 0 -28 -9 -37 -27 -8 -17 -23 -29 -38 -31 -14 -2 -29 -8 -35 -13
-15 -14 -45 -10 -45 6 0 21 -14 19 -48 -10 -16 -13 -32 -22 -35 -18 -4 3 -16
-6 -28 -21 l-21 -27 -25 23 c-20 19 -27 20 -43 10 -11 -7 -27 -12 -35 -12 -20
0 -102 -37 -110 -49 -3 -5 -20 -7 -38 -4 -23 3 -45 -2 -70 -16 -21 -12 -55
-21 -76 -21 -23 0 -44 -6 -52 -16 -8 -10 -22 -14 -38 -11 -14 3 -34 0 -44 -8
-10 -7 -26 -11 -36 -8 -12 3 -24 -3 -33 -16 -8 -12 -18 -18 -22 -13 -16 16
-55 8 -60 -12 -4 -16 -8 -18 -18 -8 -18 18 -36 15 -64 -13 -19 -19 -31 -23
-54 -18 -18 3 -36 0 -45 -7 -12 -10 -18 -10 -30 0 -8 7 -15 8 -15 3 0 -16 -69
-36 -83 -24 -10 7 -17 0 -30 -30 -13 -29 -21 -38 -30 -31 -15 12 -115 14 -122
2 -3 -4 -14 -6 -25 -3 -14 4 -20 0 -20 -12 0 -11 -5 -15 -15 -12 -8 4 -17 2
-21 -4 -3 -6 -12 -8 -19 -5 -7 2 -17 0 -22 -5 -5 -5 -30 -9 -56 -10 -26 -1
-47 -6 -47 -11 0 -4 -21 -8 -48 -8 -34 0 -50 -5 -58 -18 -8 -12 -26 -18 -58
-20 -26 -1 -52 -5 -58 -8 -6 -4 -29 -9 -52 -11 -23 -2 -50 -12 -63 -25 -21
-19 -28 -21 -53 -11 -27 10 -32 9 -51 -15 -16 -21 -30 -27 -57 -27 -29 0 -39
-5 -47 -22 -6 -14 -16 -21 -25 -18 -10 3 -21 -9 -34 -35 -17 -35 -46 -61 -107
-94 -11 -7 -16 -22 -15 -47 0 -30 -6 -45 -32 -72 -17 -18 -32 -38 -32 -43 0
-6 14 -20 31 -33 24 -18 30 -29 27 -54 -2 -23 -8 -31 -19 -29 -22 3 -45 -73
-28 -94 15 -18 53 -18 69 1 7 8 19 15 27 15 10 0 8 -6 -8 -19 l-24 -20 45 -45
c31 -33 52 -46 72 -46 15 0 37 -4 50 -9 13 -5 31 -12 42 -15 15 -5 16 -9 6
-21 -10 -12 -8 -16 11 -23 15 -6 18 -11 11 -16 -19 -11 -14 -51 8 -71 16 -14
23 -16 32 -7 15 15 84 16 93 2 3 -5 17 -10 30 -10 12 0 26 -8 30 -17 7 -16 9
-14 15 7 4 14 13 24 20 22 7 -1 18 5 25 15 13 17 15 17 37 -4 30 -28 62 -31
54 -5 -5 15 1 18 44 20 39 2 50 -1 50 -13 0 -21 18 -19 32 4 9 15 15 17 25 9
17 -14 43 7 43 36 0 30 18 46 52 46 23 0 28 -4 28 -25 0 -30 16 -33 23 -5 3
11 12 20 21 20 12 0 16 10 16 34 l0 34 43 -6 c23 -3 53 -12 67 -21 29 -19 100
-23 100 -5 0 6 7 17 16 25 8 7 13 21 10 32 -3 13 0 17 10 13 8 -3 23 -1 33 6
10 6 26 8 36 4 14 -5 15 -9 5 -22 -9 -10 -10 -18 -2 -26 11 -11 35 -2 27 12
-19 31 47 60 77 33 20 -18 36 -10 48 23 11 29 40 32 40 4 0 -11 4 -20 8 -20 5
0 17 9 27 20 10 11 24 20 30 20 7 0 16 10 19 23 l6 22 13 -23 c13 -22 14 -22
29 -5 8 10 21 29 28 42 15 29 31 16 32 -28 1 -25 5 -31 24 -31 14 0 25 8 29
20 3 11 13 20 20 20 8 0 20 12 27 28 11 22 20 27 52 27 22 0 41 6 44 13 6 19
22 14 22 -7 0 -24 25 -45 45 -37 8 3 15 13 15 21 0 11 6 15 18 11 9 -3 24 -1
32 4 12 8 13 11 1 19 -9 6 -10 11 -2 15 6 4 11 2 11 -3 0 -6 9 -11 20 -11 11
0 20 6 20 13 0 37 87 65 106 35 5 -7 10 -4 16 11 7 19 11 21 23 11 9 -7 13
-21 10 -31 -5 -16 -1 -19 29 -19 26 0 36 5 41 21 5 16 10 18 20 9 12 -10 18
-4 32 29 16 37 21 41 54 41 38 0 77 -29 52 -37 -7 -3 -13 -9 -13 -15 0 -6 6
-5 15 2 9 7 13 21 10 30 -4 11 1 20 12 24 10 3 25 9 33 13 12 5 13 4 3 -9 -10
-11 -10 -17 -1 -26 18 -18 28 -15 28 9 0 37 41 62 66 40 5 -4 24 -11 42 -14
28 -6 32 -4 32 14 0 35 43 65 53 37 3 -10 9 -10 26 0 27 16 29 15 34 -5 4 -17
5 -17 6 0 1 11 12 20 30 23 20 4 31 14 35 30 6 21 11 23 47 20 22 -2 46 -9 54
-16 8 -6 20 -8 27 -4 7 4 22 9 35 10 17 2 23 -2 23 -17 0 -10 5 -19 10 -19 6
0 9 14 8 31 -4 40 22 60 52 41 12 -7 25 -10 31 -6 6 3 17 -2 24 -12 12 -16 14
-16 15 -4 0 9 -5 21 -12 28 -17 17 3 15 25 -3 16 -12 23 -11 50 4 18 10 31 26
31 35 -3 25 14 19 30 -11 14 -26 16 -26 21 -8 9 28 113 77 137 64 20 -11 62 7
105 45 13 11 26 16 30 11 5 -4 2 -10 -4 -12 -16 -6 -17 -23 -2 -23 14 0 39 26
39 40 0 7 8 9 20 5 16 -5 20 -2 20 18 0 32 10 40 26 19 8 -11 9 -21 3 -29 -7
-7 -6 -13 1 -18 5 -3 10 1 10 9 0 9 4 16 9 16 5 0 11 9 14 20 3 14 10 18 21
14 10 -4 25 1 35 11 18 16 20 15 26 -6 l7 -22 13 23 c8 15 14 19 19 11 6 -9
11 -9 22 0 12 10 18 8 30 -10 15 -21 17 -21 35 -5 10 9 19 23 19 31 0 7 5 13
10 13 6 0 10 8 10 19 0 10 7 24 15 31 12 10 18 9 32 -6 13 -12 14 -19 5 -22
-6 -2 -12 -9 -12 -15 0 -6 10 -1 23 11 30 29 57 29 57 0 0 -17 3 -19 12 -10 7
7 20 12 30 12 10 0 18 6 18 13 0 29 25 67 41 62 9 -3 22 1 29 10 19 23 43 18
75 -15 28 -29 28 -29 39 -8 6 11 20 26 30 32 11 6 29 19 40 29 11 9 23 17 28
17 14 0 8 -15 -12 -30 -11 -8 -20 -21 -20 -30 1 -10 8 -5 21 13 11 15 27 27
36 27 10 0 12 6 8 20 -5 17 -2 20 24 20 22 0 31 -5 31 -16 0 -21 23 -13 34 12
10 21 49 44 76 44 9 0 21 5 28 12 8 8 15 8 26 -1 17 -15 36 -7 36 15 0 11 6
13 20 9 14 -4 20 -2 20 9 0 12 7 14 30 10 27 -6 30 -4 30 20 0 49 81 47 88 -3
2 -13 10 -20 19 -19 23 4 29 -22 6 -28 -11 -3 -27 -19 -37 -35 -9 -16 -23 -29
-30 -29 -7 0 -24 -12 -39 -28 -19 -20 -24 -31 -17 -42 20 -32 11 -49 -27 -52
-33 -3 -39 -7 -43 -33 -3 -17 -14 -34 -28 -41 -31 -15 -72 -55 -72 -69 0 -6
-14 -24 -30 -40 -17 -16 -28 -35 -26 -42 3 -7 1 -13 -5 -13 -20 0 -118 -114
-108 -126 10 -12 -24 -49 -63 -68 -15 -8 -25 -24 -29 -49 -6 -41 -32 -75 -66
-88 -13 -5 -23 -15 -23 -24 0 -8 -7 -15 -15 -15 -9 0 -24 -14 -33 -30 -9 -17
-24 -32 -33 -35 -8 -3 -20 -20 -27 -38 -7 -19 -23 -39 -37 -45 -17 -8 -24 -18
-22 -34 1 -14 -3 -23 -13 -23 -10 0 -17 -13 -20 -36 -4 -27 -21 -54 -65 -103
-33 -36 -68 -66 -77 -66 -14 0 -18 -8 -18 -34 0 -26 -7 -40 -27 -56 -15 -12
-32 -36 -38 -53 -8 -24 -16 -32 -34 -32 -16 0 -31 -10 -40 -26 -9 -14 -21 -24
-27 -22 -17 6 -35 -52 -22 -65 12 -12 -6 -42 -26 -42 -6 0 -31 -23 -56 -50
-24 -28 -52 -50 -62 -50 -14 0 -18 -8 -18 -35 0 -40 -50 -105 -81 -105 -10 0
-23 -13 -31 -30 -7 -16 -16 -30 -20 -30 -5 0 -8 -8 -8 -17 0 -10 -18 -36 -40
-57 -22 -21 -37 -43 -34 -48 7 -10 -20 -34 -53 -48 -12 -5 -31 -28 -42 -52
-11 -24 -31 -60 -45 -81 -14 -21 -26 -41 -26 -45 0 -12 -72 -78 -92 -85 -13
-4 -18 -17 -18 -40 0 -21 -8 -41 -20 -52 -11 -10 -20 -22 -20 -27 0 -17 -28
-38 -50 -38 -11 0 -23 -8 -27 -17 -3 -10 -23 -35 -45 -56 -21 -21 -38 -44 -38
-51 0 -8 -9 -16 -20 -19 -11 -3 -20 -12 -20 -20 0 -9 -9 -19 -20 -22 -15 -5
-20 -15 -20 -40 0 -46 -74 -139 -113 -143 -21 -3 -27 -9 -27 -26 0 -13 -7 -29
-15 -36 -8 -7 -15 -18 -15 -26 0 -7 -12 -14 -27 -16 -23 -2 -29 -9 -34 -38 -9
-54 -20 -80 -35 -80 -7 0 -19 -12 -26 -27 -7 -15 -24 -33 -38 -40 -14 -7 -19
-13 -12 -13 25 0 11 -20 -20 -28 -21 -5 -38 -18 -46 -35 -7 -15 -18 -27 -25
-27 -13 0 -37 -45 -37 -70 0 -24 -11 -32 -27 -19 -10 9 -13 8 -13 -3 0 -8 -13
-27 -29 -42 -25 -24 -42 -57 -45 -89 -1 -4 -6 -11 -11 -15 -6 -4 -22 -23 -37
-43 -14 -19 -42 -46 -61 -59 -22 -15 -39 -37 -46 -61 -11 -37 -46 -69 -76 -69
-18 0 -46 -61 -34 -76 11 -13 1 -24 -22 -24 -19 0 -49 -41 -49 -68 0 -24 -35
-58 -45 -43 -3 6 -13 11 -21 11 -10 0 -14 -12 -14 -44 0 -34 -6 -49 -27 -70
-14 -15 -32 -25 -40 -22 -7 3 -13 1 -13 -5 0 -5 -8 -19 -19 -30 -10 -11 -22
-34 -25 -51 -6 -29 -30 -56 -125 -138 -28 -24 -40 -43 -41 -61 0 -28 -20 -42
-45 -33 -17 7 -21 -16 -5 -32 12 -12 -48 -84 -71 -84 -9 0 -26 -20 -39 -47
-30 -60 -49 -83 -77 -94 -15 -5 -23 -17 -23 -32 0 -14 -19 -41 -50 -72 -30
-29 -50 -58 -50 -71 0 -13 -8 -24 -19 -27 -14 -3 -18 -11 -15 -24 8 -28 -22
-50 -46 -35 -14 9 -21 7 -36 -10 -11 -11 -18 -22 -16 -24 1 -2 2 -16 2 -30 0
-22 -2 -25 -15 -14 -15 13 -17 10 -19 -25 -1 -13 -7 -19 -19 -17 -10 2 -20 -5
-23 -15 -15 -44 -29 -73 -36 -73 -5 0 -8 5 -8 10 0 6 -5 10 -12 10 -9 0 -9 -3
0 -12 17 -17 15 -28 -4 -28 -9 0 -18 -9 -21 -20 -3 -11 -11 -20 -18 -20 -16 0
-45 -33 -45 -50 0 -8 -10 -36 -22 -62 -17 -35 -29 -48 -48 -50 -19 -2 -26 -10
-30 -33 -4 -22 -15 -35 -42 -48 -24 -12 -38 -26 -38 -37 0 -10 -4 -22 -10 -25
-5 -3 -10 -17 -10 -30 0 -18 -11 -29 -47 -47 -49 -24 -82 -69 -83 -115 0 -27
-16 -38 -34 -24 -16 13 -26 4 -26 -24 0 -22 -32 -57 -62 -68 -13 -4 -18 -17
-18 -41 0 -30 -4 -35 -30 -41 -28 -6 -30 -10 -30 -49 0 -30 -6 -48 -20 -61
-11 -10 -20 -25 -20 -33 0 -11 -8 -13 -29 -9 -33 7 -51 -7 -51 -41 0 -14 -7
-26 -18 -28 -17 -5 -42 -46 -42 -69 0 -7 -7 -26 -16 -44 -12 -24 -19 -29 -29
-21 -9 8 -14 5 -18 -11 -5 -19 -8 -20 -21 -9 -14 11 -16 8 -16 -27 0 -49 -23
-83 -57 -83 -17 0 -27 -7 -30 -20 -4 -15 -11 -19 -24 -15 -15 5 -19 1 -19 -15
0 -14 -5 -20 -17 -18 -13 2 -19 -5 -21 -22 -2 -14 -12 -34 -22 -45 -10 -11
-20 -31 -22 -45 -2 -19 -10 -26 -32 -28 -25 -3 -28 -7 -23 -31 7 -32 -1 -47
-27 -52 -11 -2 -27 -17 -36 -34 -9 -16 -26 -34 -38 -40 -13 -6 -22 -19 -22
-32 0 -12 -4 -25 -10 -28 -6 -3 -10 -16 -10 -29 0 -13 -9 -31 -20 -41 -11 -10
-20 -26 -20 -35 0 -21 -23 -42 -42 -39 -7 1 -27 1 -44 0 -26 -1 -33 -6 -39
-28 -3 -16 -19 -41 -35 -58 -18 -19 -30 -43 -32 -65 -2 -25 -8 -36 -23 -39
-25 -4 -35 -19 -35 -53 0 -24 -4 -28 -30 -28 -23 0 -30 -4 -30 -20 0 -13 -7
-20 -18 -20 -30 0 -42 -21 -42 -71 0 -39 -4 -49 -20 -54 -11 -3 -29 -3 -40 0
-16 5 -20 2 -20 -17 0 -40 -23 -78 -42 -72 -15 4 -18 -1 -18 -31 0 -31 -3 -36
-17 -30 -34 13 -38 10 -43 -35 -5 -42 -7 -45 -32 -42 -25 2 -28 -2 -45 -58
-14 -50 -21 -60 -39 -60 -18 0 -21 -4 -16 -22 5 -20 3 -21 -10 -11 -20 17 -28
7 -28 -33 0 -23 -5 -33 -20 -37 -11 -3 -20 -12 -20 -21 0 -10 -9 -16 -23 -16
-24 0 -57 -28 -57 -47 0 -6 -13 -23 -30 -36 -31 -27 -37 -46 -20 -63 7 -7 0
-20 -20 -39 -16 -16 -30 -39 -30 -52 0 -19 -7 -24 -40 -29 -22 -4 -40 -12 -40
-19 0 -6 -9 -20 -20 -30 -11 -10 -20 -26 -20 -36 0 -10 -9 -34 -20 -54 -11
-20 -20 -42 -20 -51 0 -25 -30 -75 -41 -68 -11 6 -68 -53 -69 -72 0 -5 -14
-23 -30 -39 -18 -18 -26 -31 -19 -35 7 -5 3 -20 -11 -44 -11 -21 -18 -41 -15
-46 3 -4 -11 -15 -30 -24 -29 -14 -35 -22 -35 -49 0 -18 -5 -38 -11 -44 -8 -8
-8 -13 0 -17 19 -12 13 -38 -8 -31 -25 8 -46 -20 -43 -57 2 -23 -5 -38 -29
-60 -24 -24 -28 -32 -18 -39 11 -6 11 -11 1 -21 -7 -7 -12 -38 -12 -74 0 -42
-5 -65 -15 -74 -22 -18 -45 -69 -45 -99 0 -19 9 -31 31 -44 25 -14 29 -20 20
-31 -8 -10 -9 -16 -1 -21 14 -8 13 -68 -1 -82 -9 -9 -8 -21 5 -47 15 -32 22
-36 54 -37 37 0 37 0 15 -16 -30 -21 -33 -83 -4 -83 11 0 21 -6 24 -12 3 -9
11 -4 25 12 16 20 23 23 33 13 17 -16 131 -17 147 -1 10 10 39 3 71 -19 3 -2
-4 -10 -15 -18 -18 -14 -18 -14 7 -15 14 0 30 5 35 10 7 7 16 4 29 -10 22 -24
75 -28 75 -4 0 11 -6 14 -20 9 -11 -3 -20 -3 -20 0 0 12 29 35 44 35 9 0 16 5
16 11 0 8 17 10 50 7 42 -4 50 -2 50 12 0 24 37 60 62 60 12 0 30 -7 40 -17
17 -15 18 -15 18 10 0 32 16 43 29 20 9 -16 10 -16 11 -1 0 9 10 18 22 20 13
2 28 15 35 29 17 36 45 58 50 42 10 -28 33 -12 39 27 4 22 12 40 18 39 27 -3
35 3 46 35 12 38 41 68 61 64 8 -2 15 7 17 20 2 12 10 22 17 22 21 0 27 17 15
41 -10 17 -8 21 9 26 13 3 21 14 21 27 1 20 2 20 14 4 17 -23 22 -23 31 5 6
19 8 19 12 5 2 -10 9 -18 14 -18 5 0 9 -9 9 -20 0 -14 7 -20 21 -20 18 0 19 3
9 15 -9 11 -8 20 9 44 12 16 21 44 21 63 0 30 5 37 38 53 20 11 43 19 50 18 6
0 12 9 12 21 0 13 11 45 25 72 23 45 27 49 57 45 18 -1 39 -8 46 -13 22 -19
13 9 -13 40 -29 35 -32 47 -9 38 13 -5 15 -2 11 16 -6 22 7 48 24 48 5 0 9
-12 9 -27 0 -22 2 -25 10 -13 5 8 10 25 10 38 0 15 6 22 20 22 11 0 20 -7 20
-15 0 -8 5 -15 10 -15 6 0 10 10 10 22 0 17 3 19 12 10 7 -7 20 -12 30 -12 15
0 17 5 12 28 -4 15 -11 35 -16 45 -6 12 -5 17 4 15 6 -2 15 11 19 27 6 28 7
29 14 8 5 -14 15 -23 28 -23 16 0 18 3 9 12 -15 15 -16 50 -2 64 8 8 6 15 -5
24 -25 21 -17 29 17 19 18 -5 34 -9 35 -9 2 0 3 11 3 25 0 28 18 32 50 13 24
-15 37 -4 20 17 -8 10 -9 15 -1 15 6 0 11 -4 11 -10 0 -5 4 -10 8 -10 5 0 9
13 9 29 0 21 -6 32 -21 37 -21 6 -21 7 2 11 13 3 22 12 22 23 0 10 5 22 11 26
7 4 1 12 -17 20 l-29 12 25 1 c31 1 50 18 50 43 0 10 5 18 11 18 6 0 9 -15 8
-35 -2 -19 1 -39 6 -44 7 -7 11 8 13 41 4 62 9 73 28 57 11 -9 14 -8 14 4 0 9
-5 19 -10 22 -16 10 -1 25 24 25 18 0 25 7 30 31 5 26 10 30 33 27 26 -3 28 0
36 50 8 50 19 64 32 42 5 -8 12 -7 23 2 12 10 16 10 19 1 10 -27 23 -11 23 27
0 22 4 40 8 40 5 0 15 12 22 26 12 21 12 27 0 34 -11 7 -11 11 -1 24 8 9 22
16 32 16 12 0 19 7 19 19 0 16 6 19 40 15 l41 -4 -1 58 c-2 90 -1 94 20 87 23
-7 38 17 43 71 4 33 8 39 34 46 17 4 36 15 43 23 7 8 17 15 22 15 19 0 68 42
62 52 -4 6 -10 6 -17 -1 -20 -20 -31 -11 -12 9 19 21 50 26 60 10 12 -20 23
-9 29 32 4 24 3 45 -4 52 -14 14 -12 41 4 55 15 13 38 4 79 -28 9 -8 20 -11
24 -8 3 4 1 7 -5 7 -7 0 -12 9 -12 21 0 16 4 19 20 14 20 -6 28 9 10 20 -13 8
-13 65 0 65 6 0 10 -6 10 -14 0 -17 28 -41 37 -32 4 4 2 15 -5 26 -7 12 -8 21
-2 25 6 3 10 22 10 41 0 24 5 34 15 34 8 0 15 5 15 10 0 6 -7 13 -15 16 -8 4
-15 17 -15 30 0 25 15 33 22 12 7 -20 38 0 38 25 0 23 27 57 45 57 5 0 19 10
32 22 23 22 31 15 14 -12 -14 -20 -2 -33 16 -18 14 11 15 10 8 -11 -6 -21 -5
-22 8 -10 9 9 12 18 6 23 -13 14 -11 53 3 62 8 5 5 11 -7 20 -24 18 -10 32 15
16 29 -18 37 -15 44 15 5 17 3 29 -6 34 -10 7 -9 9 5 9 9 0 17 -6 17 -14 0
-12 18 -25 37 -26 4 0 7 28 8 62 0 40 4 63 13 66 6 2 12 -1 12 -7 0 -6 7 -11
15 -11 8 0 15 5 15 10 0 6 -4 10 -10 10 -14 0 -13 27 1 36 7 4 15 1 20 -7 22
-36 28 -43 35 -36 4 3 2 13 -5 21 -14 17 13 73 44 90 11 6 23 15 27 20 8 12
-1 36 -14 36 -6 0 -8 -7 -5 -15 7 -17 -9 -30 -18 -14 -9 14 15 61 29 56 6 -3
19 2 28 10 13 11 21 12 37 3 19 -10 21 -8 21 25 0 39 21 55 45 35 12 -10 15
-10 15 3 0 9 -4 19 -10 22 -19 11 -10 25 16 25 21 0 24 4 19 20 -4 12 -2 20 5
20 7 0 7 7 -2 23 -14 25 -21 88 -7 66 4 -7 10 -11 11 -9 2 3 12 18 22 33 15
24 20 26 33 15 15 -12 16 -9 10 21 -6 28 -5 32 7 22 11 -9 15 -9 19 1 4 10 9
8 20 -5 15 -18 15 -17 22 3 5 17 10 19 21 9 11 -9 14 -8 14 4 0 8 -7 20 -16
28 -13 10 -17 10 -25 -2 -5 -8 -9 -9 -9 -3 0 21 25 35 38 22 20 -20 38 6 24
36 -9 19 -8 27 4 36 8 7 14 18 14 25 0 7 8 15 18 19 9 3 23 9 30 12 6 3 12 -1
12 -9 0 -8 6 -19 13 -25 11 -9 12 0 9 51 -4 54 -3 60 10 49 20 -16 30 -4 17
20 -14 26 -3 35 21 20 11 -7 27 -12 37 -12 14 0 13 3 -5 23 -27 29 -27 33 -2
40 13 3 20 14 20 30 0 14 7 27 15 31 8 3 21 18 27 33 11 27 12 27 15 6 4 -23
23 -33 23 -12 0 6 9 8 23 4 18 -5 19 -4 7 5 -11 9 -12 13 -2 17 6 2 12 18 12
34 0 22 5 29 19 29 20 0 35 25 25 42 -3 5 2 15 11 22 16 12 16 13 1 19 -23 9
-20 30 9 57 25 23 26 23 43 6 16 -18 16 -19 0 -13 -12 4 -18 1 -18 -8 0 -8 5
-15 11 -15 6 0 17 -7 26 -15 24 -24 30 -10 29 65 -1 51 2 70 11 70 9 0 12 11
11 33 -3 27 0 32 19 32 12 0 25 4 29 8 4 4 15 7 24 7 9 0 21 15 29 37 12 32
15 35 26 20 16 -22 25 -11 25 30 0 20 4 32 10 28 6 -3 10 -17 10 -30 0 -12 7
-26 16 -29 22 -8 31 1 16 16 -15 15 -15 50 0 83 14 31 28 33 28 3 0 -17 3 -19
12 -10 7 7 21 12 32 12 16 0 17 3 8 12 -7 7 -12 20 -12 29 0 10 -5 19 -12 21
-15 5 19 47 48 58 16 6 21 16 20 44 -1 19 -5 38 -8 42 -11 11 68 88 81 79 7
-4 10 -13 7 -21 -7 -18 18 -18 32 -1 6 7 12 37 14 67 2 44 7 56 21 58 12 2 20
-3 24 -16 4 -17 8 -18 29 -8 13 6 22 17 19 24 -7 18 25 28 36 11 7 -12 9 -12
9 1 0 8 -9 26 -19 39 -23 31 -17 51 16 51 19 0 24 4 19 16 -9 23 12 44 44 44
35 0 90 28 90 46 0 8 5 14 10 14 6 0 10 -5 10 -11 0 -5 5 -7 11 -3 8 5 8 9 -1
14 -19 12 -11 151 10 175 10 11 20 29 22 40 2 12 15 23 33 28 17 5 38 13 48
18 19 10 23 -1 6 -18 -8 -8 -7 -13 1 -18 18 -11 28 6 32 55 3 41 5 45 31 48
20 2 27 8 23 17 -8 23 16 30 31 10 10 -15 16 -16 25 -7 10 10 10 15 -1 21 -9
6 -10 11 -2 15 6 4 11 18 11 32 0 25 44 73 68 74 21 0 13 20 -8 20 -26 0 -25
12 1 28 12 8 18 19 15 28 -8 21 11 64 29 64 9 0 20 11 25 25 5 14 17 26 27 26
10 1 25 2 34 3 21 1 49 25 49 41 0 7 -7 18 -15 25 -20 16 -20 44 0 36 9 -3 19
3 25 14 6 12 21 20 35 20 14 0 25 6 25 13 0 6 17 35 38 62 21 28 42 59 47 70
8 17 10 14 13 -17 4 -42 22 -52 22 -13 0 14 5 25 10 25 6 0 10 8 10 18 0 10 9
24 20 32 11 8 20 22 20 32 0 24 9 23 38 -4 l25 -23 -7 37 c-6 32 -2 41 34 83
22 25 40 54 40 63 0 9 7 30 15 46 9 16 14 35 11 42 -6 17 27 45 50 43 43 -4
55 1 49 20 -4 13 0 20 15 24 12 3 24 15 27 26 3 11 16 27 30 36 20 13 22 19
12 31 -10 12 -9 18 5 32 16 16 18 16 36 -5 10 -13 21 -23 25 -23 4 0 2 7 -5
15 -10 12 -10 19 -2 27 7 7 12 24 12 39 0 35 15 45 45 29 31 -16 49 1 58 52 4
28 2 38 -10 43 -14 5 -13 8 5 21 12 8 22 24 22 35 0 10 5 19 10 19 6 0 10 -7
10 -15 0 -8 7 -15 16 -15 15 0 14 10 -3 58 -4 8 0 10 11 6 13 -5 16 0 16 24 0
34 41 71 82 73 16 1 18 3 6 6 -29 7 -21 28 17 43 25 10 36 21 40 42 4 16 12
27 17 26 6 -2 34 20 62 50 53 56 67 100 40 123 -8 6 -14 20 -14 30 0 15 8 19
39 19 22 0 41 5 44 13 2 6 8 8 13 4 5 -4 2 -12 -6 -17 -12 -7 -12 -13 -1 -34
8 -14 18 -23 24 -19 5 3 4 9 -4 14 -19 11 5 59 30 59 31 0 53 45 56 119 2 38
37 75 64 66 20 -6 48 10 33 19 -13 8 14 66 31 66 18 0 37 49 37 93 0 30 4 40
19 44 11 3 21 13 24 24 3 11 14 19 25 19 11 0 22 6 25 13 2 7 8 8 13 3 5 -5 4
-11 -3 -13 -17 -6 -16 -31 0 -48 12 -11 13 -5 11 36 -2 42 0 49 17 49 10 0 19
-7 19 -15 0 -8 4 -15 9 -15 12 0 21 63 11 74 -10 10 21 75 36 76 6 0 19 9 29
20 10 12 25 18 32 16 7 -3 24 0 38 6 18 8 22 15 15 23 -8 9 -1 21 25 43 19 17
30 34 25 37 -15 9 -2 25 19 25 24 0 46 26 31 35 -16 10 -1 25 26 25 18 0 25 5
23 18 -6 58 1 70 49 94 36 18 46 29 45 45 -3 25 60 83 90 83 12 0 17 6 15 18
-1 9 5 28 15 42 9 13 17 35 17 47 0 12 9 27 19 33 40 21 44 14 39 -66 -5 -72
-4 -76 18 -86 24 -11 32 -28 14 -28 -5 0 -10 -7 -10 -15 0 -18 -20 -57 -35
-67 -7 -5 -6 -14 3 -28 17 -27 15 -37 -8 -62 -13 -14 -16 -25 -10 -33 6 -7 5
-16 -2 -23 -9 -9 -9 -12 0 -12 15 0 16 -52 1 -67 -8 -8 -5 -14 10 -22 27 -15
28 -62 1 -86 -17 -15 -19 -30 -19 -126 1 -62 5 -112 11 -115 7 -4 6 -9 -1 -14
-7 -3 -13 -23 -15 -44 -2 -20 -6 -39 -10 -43 -10 -10 -7 -42 6 -63 10 -15 9
-24 -2 -44 -7 -14 -13 -53 -13 -86 1 -33 -3 -63 -8 -66 -13 -8 -11 -42 4 -47
9 -3 9 -9 -1 -27 -10 -16 -11 -25 -3 -33 14 -14 14 -64 1 -72 -5 -3 -10 -32
-10 -64 0 -45 4 -62 20 -76 18 -17 19 -20 5 -35 -10 -12 -14 -27 -10 -43 4
-14 2 -28 -4 -31 -6 -4 -11 -39 -11 -81 0 -41 -4 -76 -9 -80 -11 -6 -9 -115 3
-133 5 -8 4 -18 -3 -25 -6 -6 -11 -32 -11 -57 0 -25 -5 -51 -11 -57 -8 -8 -8
-13 0 -17 14 -9 15 -73 1 -81 -6 -4 -5 -13 2 -25 10 -15 10 -22 0 -32 -18 -18
-15 -36 8 -43 19 -6 19 -7 1 -38 -20 -37 -30 -221 -11 -232 13 -8 13 -72 0
-80 -5 -3 -10 -25 -10 -49 0 -23 -3 -46 -7 -49 -12 -13 -15 -118 -2 -133 9
-11 9 -17 0 -28 -9 -11 -9 -19 0 -34 8 -12 9 -26 4 -38 -12 -27 -14 -147 -3
-161 6 -7 6 -19 -1 -31 -5 -10 -11 -77 -12 -148 -1 -71 -7 -135 -12 -141 -5
-7 -6 -27 -3 -45 4 -18 9 -48 13 -66 3 -18 9 -35 14 -38 12 -7 11 -74 -1 -74
-5 0 -10 -7 -10 -15 0 -9 -9 -26 -20 -37 -13 -15 -17 -25 -10 -32 13 -13 13
-93 0 -101 -5 -3 -10 -17 -10 -30 0 -13 5 -27 10 -30 6 -3 10 -17 10 -30 0
-13 -4 -27 -10 -30 -5 -3 -10 -16 -10 -29 0 -12 -3 -26 -7 -30 -12 -11 -14
-84 -3 -91 14 -9 12 -129 -2 -160 -10 -22 -8 -28 11 -49 14 -15 19 -26 12 -31
-14 -8 -15 -205 -1 -205 6 0 10 -13 10 -29 0 -17 5 -33 10 -36 6 -3 10 -31 10
-61 0 -56 6 -63 40 -42 16 10 23 9 45 -12 22 -20 28 -22 35 -10 5 8 12 11 16
7 4 -3 2 -13 -4 -20 -9 -11 -6 -19 13 -37 20 -19 32 -22 69 -18 25 3 48 3 51
0 6 -6 19 -9 67 -17 47 -7 68 -24 68 -53 0 -21 9 -31 37 -45 36 -18 37 -18 52
1 20 25 89 64 101 57 4 -3 6 4 3 15 -7 27 30 27 64 0 30 -23 65 -27 57 -6 -3
8 -1 17 5 21 6 3 11 16 11 28 0 12 14 36 30 54 24 25 30 41 30 75 0 42 1 44
53 67 69 32 87 49 87 81 0 14 5 31 12 38 9 9 8 15 -6 25 -16 12 -16 14 -2 26
9 8 16 22 16 32 0 10 4 20 10 24 5 3 1 20 -10 41 -29 50 -26 85 10 119 34 32
38 45 14 45 -9 0 -14 6 -11 13 2 6 0 20 -5 30 -7 14 -5 24 11 41 25 26 26 36
7 36 -8 0 -22 10 -31 22 -16 24 -12 31 35 58 12 7 12 11 1 24 -11 13 -11 19 0
32 11 14 11 18 -2 28 -18 14 -17 112 1 156 7 16 9 37 6 46 -4 10 1 25 11 36
15 17 15 20 1 34 -11 11 -14 28 -10 60 3 28 0 50 -8 59 -11 13 -9 20 11 41 20
21 21 28 11 44 -7 11 -12 31 -12 44 0 14 -4 28 -10 31 -5 3 -10 21 -10 40 0
19 -5 37 -11 41 -6 3 3 14 23 26 18 11 34 22 36 23 2 2 -3 19 -12 38 -12 30
-12 38 0 55 8 11 11 27 8 35 -3 9 0 25 6 37 9 18 8 25 -6 41 -16 18 -16 20 -1
37 21 23 21 32 1 32 -11 0 -14 6 -8 23 3 12 9 27 13 32 4 6 6 46 6 90 -1 44 2
109 7 144 7 52 6 67 -7 81 -21 24 -19 43 10 70 16 15 23 30 19 40 -4 8 -8 63
-10 122 -2 80 1 108 11 111 9 4 11 17 5 49 -5 24 -5 47 0 51 4 5 6 26 3 47 -3
22 -1 40 6 44 14 9 15 83 1 91 -13 8 -5 102 11 121 9 11 9 18 -3 32 -28 32
-29 41 -8 62 17 17 19 24 9 36 -9 11 -8 18 6 34 18 20 18 22 -4 60 -20 36 -21
41 -6 46 9 4 14 13 11 21 -4 8 -3 20 1 26 15 24 11 43 -14 69 l-27 28 27 28
c27 28 34 52 20 66 -13 12 -13 79 -2 129 14 60 18 149 7 163 -4 6 -4 24 1 40
4 16 7 49 6 74 -1 25 3 51 8 58 6 8 5 17 -3 27 -11 13 -11 20 0 40 11 20 11
35 2 73 -6 26 -9 67 -6 89 3 24 0 44 -6 48 -8 5 -6 13 6 26 22 25 28 164 7
181 -16 13 -17 70 -1 86 6 6 13 43 14 82 2 54 -1 70 -12 70 -19 0 -17 10 6 40
25 32 25 46 0 72 -11 12 -20 29 -20 38 0 9 9 25 20 35 24 21 26 53 5 61 -10 4
-13 13 -9 26 3 10 0 25 -6 33 -10 12 -10 19 1 31 10 12 13 42 11 105 -1 54 2
90 9 94 6 5 4 12 -8 20 -13 10 -15 16 -6 27 12 14 8 53 -8 74 -11 14 -20 105
-11 118 12 21 1 170 -14 182 -18 15 -18 23 3 46 17 19 16 20 -4 36 -15 12 -21
28 -21 57 0 24 -8 55 -21 77 -18 29 -21 44 -15 75 5 21 7 43 5 48 -2 6 -4 17
-5 26 -1 9 -15 28 -31 41 -18 16 -25 29 -20 37 14 24 14 91 0 91 -21 0 -28 19
-14 36 9 11 8 18 -6 34 -9 10 -14 24 -10 30 10 16 -14 40 -39 40 -12 0 -35 14
-51 30 -16 17 -37 30 -47 30 -10 0 -36 16 -58 36 -30 27 -40 44 -40 66 0 17
-13 50 -30 74 -16 24 -27 51 -24 59 4 9 0 15 -8 15 -8 0 -23 9 -33 20 -16 18
-20 19 -27 5 -8 -13 -13 -13 -45 0 -41 17 -79 19 -88 5 -10 -16 -52 -11 -92
11 -29 16 -41 19 -55 10 -23 -15 -28 -14 -28 4 0 22 -13 18 -40 -10z m-3180
-585 c0 -5 -9 -10 -20 -10 -11 0 -20 5 -20 10 0 6 9 10 20 10 11 0 20 -4 20
-10z m2450 -136 c0 -8 -4 -14 -10 -14 -5 0 -10 9 -10 21 0 11 5 17 10 14 6 -3
10 -13 10 -21z m-650 -234 c0 -5 -4 -10 -10 -10 -5 0 -10 5 -10 10 0 6 5 10
10 10 6 0 10 -4 10 -10z m-2535 -670 c3 -5 1 -10 -4 -10 -6 0 -11 5 -11 10 0
6 2 10 4 10 3 0 8 -4 11 -10z m-1775 -60 c0 -5 -7 -10 -16 -10 -8 0 -12 5 -9
10 3 6 10 10 16 10 5 0 9 -4 9 -10z m740 -264 c0 -3 -4 -8 -10 -11 -5 -3 -10
-1 -10 4 0 6 5 11 10 11 6 0 10 -2 10 -4z m-490 -46 c0 -5 -4 -10 -10 -10 -5
0 -10 5 -10 10 0 6 5 10 10 10 6 0 10 -4 10 -10z m3710 -1870 c0 -5 -4 -10
-10 -10 -5 0 -10 5 -10 10 0 6 5 10 10 10 6 0 10 -4 10 -10z m-350 -430 c0 -5
-4 -10 -10 -10 -5 0 -10 5 -10 10 0 6 5 10 10 10 6 0 10 -4 10 -10z m2855
-200 c3 -5 1 -10 -4 -10 -6 0 -11 5 -11 10 0 6 2 10 4 10 3 0 8 -4 11 -10z
m-3645 -834 c0 -3 -4 -8 -10 -11 -5 -3 -10 -1 -10 4 0 6 5 11 10 11 6 0 10 -2
10 -4z m-875 -1046 c-3 -5 -11 -10 -16 -10 -6 0 -7 5 -4 10 3 6 11 10 16 10 6
0 7 -4 4 -10z m3575 -105 c10 -12 9 -16 -5 -21 -19 -8 -40 9 -31 25 10 15 21
14 36 -4z m370 -251 c0 -8 -4 -12 -10 -9 -5 3 -10 10 -10 16 0 5 5 9 10 9 6 0
10 -7 10 -16z m-4530 -389 c-7 -8 -17 -15 -22 -15 -6 0 -5 7 2 15 7 8 17 15
22 15 6 0 5 -7 -2 -15z m-190 -260 c0 -8 -4 -15 -10 -15 -5 0 -10 7 -10 15 0
8 5 15 10 15 6 0 10 -7 10 -15z m-940 -1129 c0 -3 -4 -8 -10 -11 -5 -3 -10 -1
-10 4 0 6 5 11 10 11 6 0 10 -2 10 -4z m-790 -1027 c0 -5 -7 -9 -15 -9 -15 0
-20 12 -9 23 8 8 24 -1 24 -14z m-640 -629 c0 -5 -2 -10 -4 -10 -3 0 -8 5 -11
10 -3 6 -1 10 4 10 6 0 11 -4 11 -10z"/>
<path d="M11720 18720 c0 -5 5 -10 11 -10 5 0 7 5 4 10 -3 6 -8 10 -11 10 -2
0 -4 -4 -4 -10z"/>
<path d="M10375 18390 c3 -5 8 -10 11 -10 2 0 4 5 4 10 0 6 -5 10 -11 10 -5 0
-7 -4 -4 -10z"/>
<path d="M10421 18384 c0 -11 3 -14 6 -6 3 7 2 16 -1 19 -3 4 -6 -2 -5 -13z"/>
<path d="M9361 18094 c0 -11 3 -14 6 -6 3 7 2 16 -1 19 -3 4 -6 -2 -5 -13z"/>
<path d="M8872 17950 c0 -14 2 -19 5 -12 2 6 2 18 0 25 -3 6 -5 1 -5 -13z"/>
<path d="M9322 17563 c-22 -22 -98 -29 -129 -12 -19 10 -26 9 -41 -4 -23 -21
-36 -21 -52 -2 -17 20 -66 19 -74 -2 -6 -15 -8 -14 -20 2 -9 13 -15 15 -20 7
-4 -7 -20 -12 -35 -12 -16 0 -40 -9 -54 -20 l-26 -20 -6 20 c-7 21 -49 28 -60
10 -3 -5 -24 -10 -46 -10 -24 0 -39 -5 -39 -12 0 -9 -3 -9 -12 0 -6 6 -18 8
-27 3 -36 -19 -80 -20 -96 -4 -12 12 -19 13 -28 4 -6 -6 -20 -11 -32 -11 -12
0 -26 -5 -32 -11 -13 -13 -47 -4 -38 10 3 5 1 12 -4 15 -5 3 -11 -3 -14 -15
-5 -18 -8 -19 -26 -7 -16 10 -23 10 -33 0 -17 -17 -48 -15 -69 4 -18 16 -59
12 -59 -7 0 -5 -17 1 -37 12 -37 21 -37 21 -53 2 -21 -26 -100 -36 -136 -17
-31 16 -90 18 -99 4 -8 -13 -92 -13 -100 0 -5 8 -11 8 -19 1 -7 -6 -16 -8 -19
-4 -13 12 -72 11 -91 -3 -27 -18 -42 -18 -26 1 10 12 10 15 -3 15 -9 0 -19 -5
-22 -11 -4 -6 -13 -8 -21 -5 -8 3 -14 1 -14 -4 0 -15 -26 -12 -40 5 -12 14
-15 14 -31 -1 -10 -9 -25 -13 -37 -9 -11 3 -23 1 -27 -5 -11 -18 -67 -11 -86
11 l-18 21 -31 -22 c-24 -17 -34 -19 -44 -10 -10 7 -16 8 -21 0 -3 -5 -13 -10
-21 -10 -11 0 -13 6 -8 22 5 18 1 17 -27 -10 -19 -18 -39 -32 -45 -32 -14 0
-44 33 -44 48 0 7 -9 12 -20 12 -11 0 -20 -6 -20 -13 0 -9 -12 -11 -41 -9 -23
3 -52 -1 -65 -8 -21 -12 -26 -11 -44 10 l-20 23 -24 -22 c-18 -17 -25 -19 -29
-9 -4 10 -7 11 -18 1 -21 -21 -59 -16 -59 7 0 11 -4 20 -10 20 -5 0 -10 -6
-10 -14 0 -21 -50 -24 -84 -4 -22 13 -33 14 -47 5 -13 -8 -22 -7 -35 4 -13 11
-18 11 -21 2 -3 -7 -15 -13 -27 -13 -12 0 -28 -6 -34 -12 -10 -10 -17 -10 -32
0 -24 15 -66 16 -75 2 -3 -5 -17 -10 -31 -10 -13 0 -24 5 -24 10 0 14 -73 13
-87 -1 -8 -8 -15 -6 -25 10 -15 25 -40 27 -58 6 -9 -11 -22 -14 -41 -10 -15 3
-30 1 -34 -4 -8 -14 -45 -14 -45 0 0 7 -18 10 -47 8 -27 -1 -56 1 -66 5 -11 5
-26 2 -42 -8 -27 -18 -105 -22 -105 -6 0 15 -52 11 -74 -5 -25 -19 -44 -19
-80 0 -33 17 -82 20 -91 5 -5 -8 -11 -8 -20 0 -9 8 -15 8 -20 0 -3 -5 -15 -10
-25 -10 -10 0 -21 -6 -24 -12 -3 -7 -3 -3 0 10 5 19 1 22 -22 22 -15 0 -35 -9
-44 -20 -12 -14 -21 -17 -25 -10 -4 6 -16 8 -28 4 -19 -6 -20 -5 -8 10 18 22
0 21 -49 -3 -22 -11 -40 -16 -40 -12 0 4 -11 14 -25 21 -22 12 -27 11 -46 -6
-19 -17 -21 -17 -30 -1 -8 14 -13 15 -29 5 -15 -10 -22 -10 -32 0 -9 9 -17 7
-34 -9 -14 -13 -24 -17 -29 -10 -8 14 -52 14 -60 1 -3 -5 -17 -10 -30 -10 -13
0 -27 5 -30 10 -8 13 -52 13 -60 0 -7 -12 -105 -10 -105 2 0 9 -72 4 -88 -6
-6 -3 -13 -2 -17 4 -8 13 -52 13 -60 0 -3 -5 -24 -10 -45 -10 -21 0 -41 -6
-44 -12 -3 -7 -3 -3 0 10 4 15 1 22 -10 22 -8 0 -18 -4 -21 -10 -8 -13 -92
-13 -100 0 -5 8 -11 7 -21 -1 -8 -7 -35 -12 -59 -11 -25 0 -48 -4 -51 -10 -4
-6 -9 -6 -14 2 -6 10 -14 7 -31 -9 -22 -20 -23 -21 -43 -2 -22 19 -83 22 -119
6 -11 -4 -23 -3 -29 3 -7 7 -22 3 -50 -11 -37 -20 -41 -20 -52 -5 -12 17 -30
13 -98 -23 -24 -12 -68 -11 -68 1 0 6 -9 10 -19 10 -11 0 -21 6 -24 13 -3 10
-9 10 -26 0 -25 -16 -51 -17 -51 -3 0 16 -26 12 -65 -10 -21 -12 -54 -20 -80
-20 -25 0 -54 -6 -65 -12 -16 -10 -24 -10 -40 0 -24 15 -66 16 -75 2 -3 -5
-24 -10 -45 -10 -21 0 -40 -5 -42 -10 -2 -6 -32 -11 -68 -12 -42 0 -71 -6 -83
-16 -16 -14 -19 -14 -30 2 -12 16 -14 16 -31 -3 -14 -15 -22 -18 -32 -10 -8 7
-14 7 -19 -1 -5 -8 -11 -8 -19 -1 -9 8 -18 6 -31 -8 -14 -17 -20 -18 -37 -8
-16 10 -22 9 -32 -5 -7 -10 -31 -20 -55 -24 -23 -4 -44 -11 -47 -15 -3 -5 -15
-9 -28 -9 -13 0 -31 -9 -41 -20 -10 -11 -26 -22 -35 -25 -10 -3 -20 -14 -23
-25 -3 -11 -16 -24 -29 -29 -13 -5 -29 -24 -38 -45 -12 -32 -17 -36 -39 -31
-75 19 -102 15 -113 -16 -6 -15 -53 -29 -103 -30 -27 0 -85 -38 -85 -55 0 -8
-4 -14 -10 -14 -5 0 -10 -13 -10 -30 0 -16 -4 -30 -10 -30 -5 0 -10 -7 -10
-16 0 -8 -7 -22 -15 -30 -9 -10 -12 -25 -8 -44 6 -32 -15 -88 -42 -110 -9 -7
-15 -29 -15 -54 0 -23 -5 -47 -12 -54 -9 -9 -9 -12 0 -12 15 0 16 -56 1 -65
-7 -5 -2 -16 12 -31 20 -21 21 -27 9 -49 -7 -14 -17 -25 -22 -25 -4 0 -8 -9
-8 -20 0 -11 -5 -20 -12 -20 -9 0 -9 -3 0 -12 16 -16 15 -50 -1 -82 -8 -15
-13 -47 -11 -78 2 -29 -2 -63 -8 -75 -8 -17 -8 -26 1 -37 8 -10 9 -16 1 -21
-13 -8 -13 -72 0 -80 5 -3 1 -20 -10 -39 -18 -34 -18 -34 1 -52 13 -12 16 -21
9 -28 -5 -5 -10 -25 -10 -42 0 -18 -4 -35 -9 -39 -5 -3 -10 -58 -10 -122 -1
-64 -5 -121 -10 -126 -6 -6 -5 -16 2 -27 8 -14 8 -22 -2 -33 -8 -10 -9 -17 -1
-22 13 -8 13 -52 0 -60 -17 -10 -11 -37 9 -42 19 -5 19 -5 0 -39 -14 -26 -17
-40 -9 -54 13 -24 13 -70 0 -70 -6 0 -10 -32 -10 -76 0 -41 -5 -84 -10 -94 -8
-14 -7 -25 2 -40 10 -15 10 -22 0 -32 -15 -15 -16 -70 -1 -85 8 -8 8 -13 0
-17 -14 -9 -15 -86 -1 -86 6 0 10 -11 10 -24 0 -14 -4 -28 -10 -31 -14 -8 -13
-58 2 -73 8 -8 8 -15 1 -24 -6 -7 -13 -26 -15 -43 -3 -16 -9 -38 -13 -47 -5
-13 -3 -18 9 -18 26 0 29 -24 7 -63 -13 -23 -16 -39 -10 -43 7 -4 6 -10 -1
-19 -8 -10 -8 -19 1 -34 11 -16 10 -25 -1 -46 -11 -21 -12 -30 -2 -45 20 -32
15 -70 -10 -79 -14 -5 -17 -10 -10 -15 15 -9 16 -148 1 -163 -8 -8 -7 -17 2
-32 10 -15 11 -23 2 -32 -8 -8 -7 -19 7 -41 18 -29 17 -31 -3 -69 l-21 -39 21
-22 21 -21 -20 -35 c-17 -31 -18 -41 -8 -80 8 -31 8 -48 1 -55 -15 -15 -14
-80 1 -95 9 -9 9 -12 -1 -12 -10 0 -12 -9 -8 -30 4 -16 2 -32 -3 -35 -6 -4 -8
-10 -5 -14 10 -16 7 -153 -3 -163 -7 -7 -7 -16 1 -28 8 -14 8 -22 -2 -33 -8
-10 -9 -17 -1 -22 5 -3 10 -19 10 -35 0 -15 6 -30 13 -33 9 -3 6 -15 -11 -46
-23 -44 -29 -105 -12 -116 13 -8 13 -72 0 -80 -13 -8 -13 -48 1 -62 8 -8 8
-13 0 -17 -16 -11 -13 -63 5 -92 15 -23 15 -26 0 -43 -14 -15 -15 -24 -7 -40
8 -14 8 -22 0 -27 -7 -4 -9 -25 -7 -55 3 -30 0 -56 -7 -66 -10 -14 -9 -20 9
-34 20 -17 20 -18 2 -38 -10 -11 -16 -27 -13 -36 4 -8 2 -15 -3 -15 -14 0 -12
-54 2 -68 10 -10 10 -17 0 -32 -7 -12 -8 -21 -2 -25 13 -8 13 -52 0 -60 -5 -3
-10 -17 -10 -31 0 -19 6 -26 30 -30 35 -7 38 -23 10 -49 -11 -10 -20 -28 -20
-40 0 -12 -3 -25 -7 -29 -13 -12 -13 -70 -1 -94 9 -18 9 -28 0 -42 -17 -28
-15 -54 8 -83 25 -31 25 -36 1 -61 -24 -26 -33 -174 -13 -199 10 -12 9 -22 -8
-51 -22 -39 -27 -120 -9 -132 6 -3 8 -17 5 -30 -4 -13 -1 -33 6 -43 10 -16 9
-23 -5 -39 -22 -24 -21 -34 4 -55 20 -18 20 -19 3 -38 -22 -24 -33 -162 -14
-184 8 -10 8 -18 -1 -33 -17 -27 -3 -71 26 -82 28 -11 33 -41 10 -60 -35 -29
-61 -149 -35 -165 15 -9 12 -31 -10 -77 -24 -49 -25 -68 -6 -68 21 0 30 -20
17 -33 -6 -6 -11 -21 -11 -33 0 -13 -4 -26 -10 -29 -16 -10 -12 -45 5 -45 19
0 19 -14 -1 -57 -13 -25 -14 -37 -5 -46 14 -14 14 -100 -1 -115 -8 -8 -8 -15
0 -25 7 -8 9 -17 6 -20 -13 -13 -15 -102 -3 -124 9 -17 9 -26 0 -37 -10 -11
-9 -19 0 -34 11 -17 9 -28 -8 -64 -22 -46 -24 -98 -4 -122 10 -12 9 -21 -3
-48 -20 -44 -23 -78 -8 -104 8 -16 8 -25 -3 -41 -8 -12 -10 -24 -5 -34 5 -7 7
-24 3 -37 -4 -16 2 -31 18 -48 17 -19 20 -27 11 -36 -7 -7 -12 -22 -12 -34 0
-12 -7 -27 -15 -34 -8 -7 -12 -17 -8 -23 11 -18 11 -71 1 -84 -7 -9 -7 -18 1
-27 9 -11 10 -20 1 -35 -6 -11 -11 -51 -12 -88 -1 -38 -6 -74 -11 -81 -7 -9
-3 -20 12 -36 22 -23 22 -25 6 -56 -23 -44 -21 -144 4 -174 12 -14 11 -19 -4
-36 -17 -19 -17 -21 0 -40 17 -18 17 -25 6 -55 -7 -19 -10 -44 -6 -55 3 -10 0
-30 -7 -42 -7 -13 -11 -27 -9 -33 2 -5 6 -36 8 -68 3 -46 1 -63 -13 -78 -16
-18 -16 -20 -1 -37 17 -18 18 -76 2 -115 -4 -10 -2 -24 5 -32 10 -12 10 -18 0
-30 -9 -11 -12 -47 -10 -118 3 -135 3 -126 -3 -178 -5 -42 -3 -50 24 -75 25
-24 29 -35 29 -84 0 -44 -4 -61 -20 -75 -12 -11 -20 -31 -20 -51 0 -18 -8 -49
-17 -68 -14 -30 -15 -41 -4 -76 8 -28 9 -45 2 -54 -6 -7 -6 -17 -1 -26 5 -8 7
-25 3 -38 -3 -12 0 -29 7 -37 10 -13 9 -19 -5 -35 -15 -17 -16 -24 -7 -46 8
-17 9 -31 2 -44 -14 -26 -2 -50 26 -50 27 0 31 -12 9 -30 -8 -7 -15 -16 -15
-20 0 -4 -7 -25 -16 -46 -24 -56 -25 -95 -3 -123 25 -31 24 -44 -5 -78 -18
-22 -22 -33 -15 -46 6 -9 7 -21 4 -27 -3 -5 0 -18 7 -29 10 -16 9 -26 -5 -55
-12 -27 -14 -42 -7 -61 5 -14 7 -31 4 -39 -3 -8 -1 -17 5 -21 16 -9 14 -37 -5
-74 -13 -26 -14 -38 -6 -57 8 -17 8 -25 0 -30 -13 -8 -2 -95 13 -105 9 -5 9
-15 0 -39 -16 -46 -14 -80 4 -80 8 0 15 -2 15 -5 0 -9 -24 -49 -44 -72 -15
-18 -17 -25 -7 -37 7 -9 21 -18 32 -21 17 -6 19 -14 15 -83 -2 -42 -6 -84 -10
-93 -5 -11 0 -22 14 -32 18 -12 23 -29 27 -80 5 -53 9 -66 24 -70 12 -3 19
-14 19 -29 0 -16 9 -27 30 -36 18 -9 30 -21 30 -33 0 -16 3 -17 20 -9 11 5 29
14 40 20 25 13 60 13 60 0 0 -5 9 -10 19 -10 11 0 22 -6 24 -12 4 -10 8 -10
15 1 8 11 13 10 30 -4 11 -10 34 -19 52 -20 17 -2 42 -13 56 -26 22 -20 28
-22 46 -10 17 10 19 10 16 -1 -3 -7 -18 -20 -34 -28 l-29 -15 33 -3 c18 -2 40
2 48 9 21 17 67 -26 58 -55 -7 -21 -6 -21 15 -2 11 11 21 25 21 31 0 24 29 39
53 27 12 -5 30 -13 39 -16 12 -3 16 -11 11 -23 -5 -15 -3 -16 8 -5 7 6 25 12
40 12 15 0 32 7 39 15 15 18 30 19 30 3 0 -12 89 -58 110 -58 5 0 8 -12 7 -26
-1 -15 4 -29 11 -31 6 -3 12 3 12 12 0 13 6 16 21 12 15 -4 19 -2 15 8 -7 19
31 30 49 15 12 -10 15 -9 15 4 0 9 5 16 10 16 17 0 24 -31 12 -51 -20 -31 -14
-44 11 -22 35 32 46 35 40 13 -4 -17 -1 -20 22 -18 17 2 30 10 33 20 4 18 32
26 32 9 0 -15 62 -42 74 -32 6 4 26 11 44 14 24 5 32 3 32 -8 0 -17 16 -20 25
-5 9 15 83 12 92 -3 4 -8 16 -16 25 -20 10 -3 18 -15 18 -26 0 -11 5 -23 10
-26 14 -9 13 48 -2 63 -15 15 -6 15 26 1 20 -9 29 -9 41 1 21 17 46 -3 27 -22
-20 -20 -14 -36 13 -34 27 1 32 15 13 34 -9 9 -9 12 1 12 8 0 24 -12 37 -27
l24 -28 28 34 c18 22 33 32 41 27 9 -6 9 -11 0 -22 -9 -11 -8 -15 5 -20 23 -9
82 4 96 21 8 9 21 13 31 10 13 -4 19 -1 19 9 0 9 5 16 10 16 6 0 10 -7 10 -15
0 -8 6 -15 13 -15 8 0 22 -9 32 -20 28 -31 71 -50 84 -37 6 6 23 11 39 12 21
0 26 4 24 20 -3 16 -1 17 11 6 9 -7 18 -8 21 -2 7 10 66 -8 66 -21 0 -4 9 -8
20 -8 15 0 20 -7 20 -25 0 -14 5 -25 10 -25 6 0 10 6 10 13 0 17 48 63 57 54
3 -4 0 -18 -7 -32 -10 -18 -11 -28 -3 -36 14 -14 33 -3 33 17 0 11 6 13 20 9
14 -4 20 -2 20 9 0 11 10 15 40 13 40 -1 51 -10 28 -21 -7 -3 -4 -4 8 -3 11 1
28 -4 36 -11 19 -15 68 3 68 25 0 22 57 16 63 -7 3 -11 13 -20 22 -20 12 0 15
-5 10 -21 l-7 -22 23 22 c12 11 31 21 40 21 10 0 20 6 23 13 3 6 3 2 0 -10
l-5 -22 41 20 c22 11 40 24 40 29 0 6 9 10 20 10 11 0 20 5 20 12 0 6 3 9 6 5
3 -3 -1 -20 -10 -38 -9 -18 -14 -35 -11 -37 7 -7 54 17 82 42 19 16 25 17 38
6 8 -7 15 -17 15 -23 0 -18 53 -67 72 -67 10 0 37 18 59 39 45 42 75 45 65 6
-4 -14 0 -28 9 -35 12 -10 15 -9 15 4 0 9 11 21 25 26 14 5 25 16 25 25 0 8 5
15 10 15 6 0 10 -4 10 -10 0 -5 7 -10 15 -10 8 0 15 -4 15 -10 0 -5 -7 -10
-15 -10 -25 0 -17 -14 15 -29 25 -10 34 -11 46 0 13 10 16 9 21 -10 l6 -22 28
27 c22 21 26 31 18 41 -17 20 -1 16 22 -6 15 -14 19 -26 14 -43 l-7 -23 24 23
c13 12 34 22 46 22 11 0 24 5 27 10 3 6 22 10 41 10 35 0 84 -33 84 -57 0 -7
5 -13 10 -13 6 0 10 6 10 14 0 9 12 16 28 18 20 2 26 8 24 22 -3 17 -1 18 11
7 12 -9 21 -10 36 -1 24 12 28 -2 6 -20 -8 -7 -15 -22 -15 -33 0 -19 3 -18 33
11 18 18 43 32 54 32 12 0 25 5 29 11 4 7 15 1 29 -17 22 -28 24 -28 42 -11
26 23 33 22 33 -8 0 -14 5 -25 10 -25 16 0 12 40 -6 57 -13 14 -17 14 -24 2
-5 -7 -12 -10 -16 -7 -3 4 1 14 10 23 15 15 17 15 34 -1 16 -16 17 -16 20 -1
4 19 32 23 32 5 0 -6 10 -22 22 -35 18 -19 20 -26 9 -33 -9 -5 -11 -15 -6 -26
5 -13 9 -15 12 -6 3 6 17 12 32 12 15 0 33 -6 40 -12 10 -11 12 -9 11 7 -4 37
0 45 20 45 11 0 20 5 20 10 0 17 36 11 54 -9 22 -25 49 -16 42 13 -4 15 1 24
19 32 21 10 25 9 31 -8 3 -11 1 -25 -5 -31 -16 -16 -14 -42 4 -57 12 -10 22
-9 50 4 19 9 35 24 35 32 0 23 29 29 45 8 14 -18 16 -18 29 -1 7 9 20 17 29
17 9 0 19 5 22 10 10 17 67 42 74 33 3 -4 19 -15 34 -23 23 -11 32 -12 48 -2
10 7 19 10 19 6 0 -12 -29 -34 -46 -34 -16 0 -16 -1 1 -20 18 -20 18 -20 38 4
l20 25 18 -24 19 -23 40 19 c49 24 60 24 60 -1 0 -26 18 -25 46 1 l22 20 20
-25 c25 -32 32 -33 32 -3 0 30 74 68 93 47 9 -10 9 -13 0 -17 -15 -6 -17 -49
-3 -58 6 -3 10 2 10 12 0 11 15 25 36 36 41 20 54 15 36 -14 -16 -25 -6 -44
14 -25 8 8 14 20 14 27 0 18 32 38 60 39 15 0 31 5 37 11 14 14 33 3 33 -18 0
-13 5 -12 24 6 16 15 26 19 31 11 5 -8 11 -7 22 2 14 11 15 10 9 -10 -6 -16
-3 -22 9 -22 8 0 18 -7 21 -15 4 -8 10 -12 16 -9 5 3 7 12 4 20 -7 19 14 30
26 13 7 -11 11 -11 15 -1 6 14 43 16 43 2 0 -5 -8 -10 -19 -10 -21 0 -48 -27
-37 -37 3 -4 20 3 36 15 32 24 70 28 88 10 9 -9 17 -7 35 10 13 12 32 22 43
22 11 0 25 5 30 10 14 14 64 -11 64 -32 0 -9 4 -20 10 -23 6 -3 10 1 10 9 0 9
5 16 11 16 6 0 8 9 4 21 -6 19 -4 21 19 15 19 -5 26 -3 26 9 0 21 21 19 27 -3
2 -10 18 -24 34 -31 28 -12 32 -11 54 9 19 18 27 20 43 11 14 -7 23 -8 27 -1
10 17 25 11 25 -10 0 -26 18 -25 47 1 18 18 25 20 38 9 8 -7 15 -18 15 -24 1
-14 35 -56 47 -56 4 0 13 11 20 25 12 26 8 29 -29 26 -10 -1 -18 3 -18 9 0 6
17 10 43 9 23 -1 50 1 60 5 12 6 17 4 17 -8 0 -9 -5 -16 -11 -16 -5 0 -7 -4
-4 -10 4 -6 15 -2 27 9 13 13 34 20 61 19 37 0 46 5 79 42 36 41 38 42 68 29
16 -8 30 -18 30 -23 0 -5 11 1 25 14 20 19 27 21 40 10 15 -12 11 -35 -5 -25
-5 3 -11 1 -14 -4 -4 -5 -2 -12 4 -16 13 -8 13 -65 0 -65 -5 0 -10 -4 -10 -10
0 -21 19 -9 32 20 15 34 28 34 44 1 18 -34 31 -45 39 -31 4 7 1 16 -6 21 -7 4
-10 12 -5 16 5 4 11 2 13 -4 6 -17 54 -16 88 1 15 8 34 12 41 9 9 -3 14 2 14
16 0 14 6 21 18 21 10 0 23 5 30 12 9 9 12 9 12 0 0 -7 -4 -12 -8 -12 -7 0
-42 -63 -42 -75 0 -3 7 -5 15 -5 8 0 15 9 15 20 0 13 7 20 20 20 11 0 20 5 20
10 0 13 77 13 85 0 3 -5 1 -10 -4 -10 -6 0 -11 -5 -11 -12 0 -6 10 -2 23 10
24 22 77 30 77 12 0 -5 -9 -10 -20 -10 -16 0 -20 -6 -19 -32 0 -28 2 -30 9
-13 4 12 15 27 25 35 13 11 18 11 25 1 4 -8 13 -11 19 -7 6 4 20 2 31 -4 24
-13 61 6 53 27 -3 9 3 13 20 13 14 0 29 5 32 10 9 15 45 12 45 -3 0 -20 37
-51 45 -38 4 8 12 8 25 1 24 -13 30 -13 30 0 0 6 -9 10 -20 10 -11 0 -20 5
-20 10 0 6 9 10 20 10 11 0 20 -4 20 -10 0 -5 7 -10 16 -10 10 0 14 -6 11 -15
-4 -8 -2 -17 3 -20 6 -4 10 3 10 14 0 11 5 23 11 27 8 5 8 9 -1 14 -7 4 -9 13
-5 19 5 9 13 8 31 -4 23 -15 25 -15 34 7 7 18 9 19 9 5 1 -12 7 -17 19 -15 9
1 23 -1 30 -6 9 -5 15 -1 19 13 3 12 11 20 17 18 13 -4 9 -50 -5 -55 -5 -2 -9
-8 -9 -13 0 -5 11 -2 24 7 16 9 23 21 19 31 -5 13 -3 13 16 2 11 -8 21 -22 21
-31 0 -10 4 -18 9 -18 5 0 11 -10 13 -23 3 -21 4 -20 18 8 9 17 25 31 38 33
22 3 31 -13 11 -20 -6 -2 -9 -13 -6 -23 5 -20 5 -20 12 0 3 12 19 27 36 34 17
8 29 20 29 32 0 13 7 19 21 19 14 0 19 -5 16 -13 -4 -10 2 -13 19 -9 25 5 31
-7 13 -25 -8 -8 -8 -17 1 -32 14 -26 30 -18 30 15 0 13 3 24 8 24 14 0 32 53
22 65 -6 7 -2 15 11 23 11 7 19 8 19 2 0 -5 -5 -10 -11 -10 -5 0 -7 -5 -4 -10
3 -6 17 -10 31 -10 16 0 27 -7 33 -22 5 -14 10 -17 15 -10 10 17 75 15 92 -2
8 -8 14 -24 14 -36 0 -15 5 -20 15 -16 8 3 19 -2 24 -12 8 -15 11 -14 20 9 7
19 19 28 40 31 17 2 29 2 26 0 -8 -8 26 -42 42 -42 21 0 15 17 -9 25 -20 7
-19 9 12 12 19 3 39 9 45 14 14 14 28 11 22 -5 -3 -8 1 -13 11 -12 9 0 19 -10
23 -24 5 -17 7 -19 8 -7 1 13 6 17 20 12 11 -3 26 1 36 12 16 15 19 15 29 2 6
-9 17 -14 24 -11 8 2 16 -6 19 -18 5 -20 8 -18 25 19 13 28 25 41 38 41 22 0
27 -16 8 -23 -10 -4 -10 -6 -1 -6 6 -1 15 3 18 9 3 5 13 10 22 10 9 0 22 8 30
18 10 12 16 14 19 5 6 -15 50 -18 58 -4 3 5 16 11 29 13 19 4 23 1 20 -12 -5
-18 21 -44 53 -54 17 -5 23 -2 27 15 4 13 10 18 17 14 7 -4 16 -1 21 6 4 7 11
10 15 7 3 -4 -1 -14 -10 -23 -19 -20 -20 -29 -3 -43 10 -9 17 -6 27 8 8 11 23
20 33 20 14 0 17 5 13 23 -3 12 -3 16 0 10 3 -7 15 -13 26 -13 15 0 18 5 13
20 -4 13 -2 20 7 20 23 -1 51 -29 53 -52 2 -29 21 -34 35 -9 6 12 21 21 35 21
13 0 26 6 29 13 3 6 3 2 0 -10 -4 -16 -1 -23 10 -23 8 0 18 5 21 10 3 6 15 10
26 10 10 0 19 5 19 10 0 6 5 10 12 10 9 0 9 -3 0 -12 -18 -18 -15 -68 4 -68
11 0 14 6 9 20 -5 17 -2 20 20 20 18 0 29 6 32 20 5 20 43 29 43 11 0 -17 43
-24 54 -10 12 16 66 22 66 8 0 -5 -3 -9 -8 -9 -16 0 -34 -42 -23 -53 8 -8 11
-5 11 11 0 15 6 22 20 22 11 0 20 5 20 11 0 6 9 8 20 4 16 -5 20 -2 20 19 0
32 15 34 24 3 l6 -22 23 27 22 26 26 -29 c15 -16 23 -32 18 -35 -5 -3 -9 -11
-9 -18 0 -16 63 -31 68 -16 2 6 10 17 18 24 8 8 14 23 14 32 0 14 3 15 12 6 9
-9 9 -15 0 -24 -7 -7 -12 -18 -12 -25 0 -15 25 -7 59 19 25 19 61 24 61 9 0
-5 -5 -11 -11 -13 -6 -2 -9 -13 -6 -23 4 -18 5 -18 12 4 7 20 13 23 46 18 29
-4 39 -2 39 9 0 8 9 14 19 14 11 0 23 4 26 10 9 15 33 -11 28 -30 -3 -9 3 -22
11 -29 14 -11 16 -11 16 5 0 20 40 44 72 44 11 0 18 -7 18 -20 0 -25 12 -26
33 -2 26 29 21 43 -10 36 -27 -7 -27 -7 -9 11 14 15 22 16 36 7 14 -9 22 -7
36 9 18 20 18 20 36 -3 10 -13 18 -36 18 -51 0 -17 4 -26 10 -22 6 4 8 11 4
16 -3 6 2 19 12 30 20 22 12 38 -11 19 -18 -15 -20 -4 -2 14 16 16 59 15 76
-2 11 -11 12 -15 2 -22 -9 -5 -10 -10 -2 -14 14 -9 31 1 31 19 0 9 14 13 45
13 34 -1 45 -5 41 -15 -3 -7 -1 -13 4 -13 6 0 10 8 10 18 0 10 5 23 12 30 6 6
8 15 4 19 -4 4 -11 1 -15 -6 -6 -9 -11 -10 -15 -2 -4 6 -3 11 2 11 6 0 20 22
33 50 13 27 32 52 42 56 10 3 17 15 17 30 0 13 5 24 10 24 6 0 10 -9 10 -20 0
-27 6 -25 35 8 21 24 26 25 44 14 32 -19 28 11 -4 32 -21 14 -24 20 -15 36 6
11 18 20 26 20 10 0 13 6 10 18 -4 12 3 27 19 42 26 25 32 49 15 66 -7 7 -2
15 15 24 26 14 33 30 14 30 -8 0 -10 17 -7 51 3 28 2 45 -3 37 -6 -10 -11 -10
-20 -1 -6 6 -18 9 -26 6 -22 -9 1 33 26 46 29 16 53 60 57 108 4 38 1 48 -25
74 -16 16 -35 29 -41 29 -7 0 -24 9 -39 19 -26 18 -27 24 -23 79 4 54 2 60
-17 65 -18 4 -21 13 -21 60 0 31 5 59 10 62 7 4 5 14 -4 26 -16 23 -11 49 16
96 12 20 15 34 8 38 -5 3 -10 25 -10 49 0 23 -5 47 -11 53 -8 8 -5 14 10 22
27 15 29 68 4 87 -17 13 -17 13 0 14 12 0 17 8 17 29 0 17 5 33 11 36 7 5 2
16 -12 31 l-23 24 22 40 c13 24 17 42 11 46 -11 6 -7 110 4 121 4 3 7 25 7 48
0 22 5 46 12 53 9 9 9 15 0 24 -15 15 -16 100 0 116 9 9 6 17 -12 37 -18 19
-20 27 -11 38 6 8 9 22 5 31 -4 10 0 18 10 22 12 4 16 19 16 54 0 27 -5 52
-10 55 -7 4 -7 13 0 24 6 12 5 22 -2 29 -6 6 -7 18 -3 29 5 10 9 40 11 66 1
26 7 53 12 60 11 15 9 54 -6 91 -9 20 -9 32 -2 41 6 7 12 45 15 84 2 39 7 76
10 81 3 5 -1 20 -9 31 -13 19 -13 26 -1 56 13 31 13 38 0 56 -13 18 -13 23 1
38 13 15 14 24 5 50 -15 44 -14 69 4 69 11 0 15 12 16 45 0 25 2 68 2 96 2 40
-2 54 -20 71 -28 26 -28 33 -3 58 24 24 27 95 5 126 -13 19 -12 27 6 75 10 30
19 74 19 99 0 25 0 79 1 120 1 41 -4 88 -11 105 -9 25 -8 36 6 65 10 19 16 40
14 45 -6 22 -6 91 2 106 5 11 1 22 -12 34 -25 22 -27 50 -4 41 14 -5 16 -1 11
23 -4 17 -2 33 3 36 5 3 5 16 -2 31 -9 19 -9 30 0 45 10 15 10 23 0 38 -9 15
-9 25 -1 43 19 37 22 76 7 82 -17 7 -18 38 -1 54 16 17 16 112 0 112 -10 0
-10 6 -1 28 6 15 10 37 10 49 -1 12 3 25 8 28 16 10 11 32 -15 63 -22 26 -23
31 -10 50 13 18 16 45 15 151 0 13 -5 30 -11 37 -9 11 -8 18 1 29 10 12 10 18
-1 31 -11 13 -10 17 4 25 21 12 23 49 2 49 -24 0 -19 57 5 70 21 11 27 45 9
55 -6 5 -8 35 -4 85 3 51 2 81 -5 85 -8 5 -6 15 5 32 10 14 14 32 9 41 -11 28
-13 95 -2 115 6 13 6 23 -2 33 -7 7 -10 28 -8 46 3 20 -1 42 -10 55 -13 20
-13 26 0 46 16 23 13 83 -3 93 -16 9 -10 44 13 74 16 23 19 32 10 43 -7 8 -12
43 -12 78 -2 128 -5 184 -13 197 -5 7 -2 26 7 44 15 29 15 33 0 50 -15 16 -16
20 -2 36 19 20 17 80 -2 92 -11 7 -11 11 0 25 10 12 14 44 13 108 -1 51 3 100
9 110 8 15 5 20 -11 24 -24 6 -26 21 -10 57 9 19 9 29 0 39 -6 8 -9 21 -5 30
3 8 1 31 -4 51 -8 27 -7 38 4 47 18 15 18 43 -2 81 -10 20 -12 34 -6 40 6 6 8
16 5 24 -2 7 3 29 12 48 16 34 16 38 0 72 -11 24 -14 39 -7 46 6 6 7 22 1 41
-5 17 -5 35 -1 41 12 18 1 297 -13 330 -5 12 -2 31 10 53 18 33 18 34 -4 64
-21 28 -21 32 -7 48 18 19 21 47 7 55 -10 7 -3 44 12 64 6 7 7 32 2 60 -13 86
-14 147 -3 175 7 18 7 31 0 40 -12 15 -13 85 -1 92 10 7 1 64 -13 82 -8 10 -2
56 11 78 7 13 1 66 -10 87 -6 12 -5 24 3 38 9 15 10 27 2 48 -8 22 -8 35 1 52
7 14 9 37 5 60 -4 21 -6 62 -4 92 2 34 -3 61 -12 76 -17 27 -11 74 12 93 11 9
14 28 13 61 -2 27 2 53 9 60 7 7 12 26 12 42 0 20 10 41 32 63 28 29 31 36 20
51 -31 44 -36 62 -20 78 11 11 14 28 10 61 -4 40 -3 45 12 40 29 -11 17 17
-24 54 -34 31 -40 43 -40 78 0 22 -4 41 -10 41 -5 0 -25 14 -43 30 -28 24 -44
30 -80 30 -53 0 -95 19 -111 52 -6 13 -23 25 -36 26 -14 2 -30 8 -37 14 -7 5
-26 7 -43 3 -23 -5 -37 -2 -52 11 -19 18 -20 18 -47 -14 -20 -26 -35 -34 -64
-35 -20 -1 -37 -7 -37 -13 0 -6 -7 -18 -16 -25 -9 -7 -20 -23 -25 -36 -5 -13
-15 -23 -24 -23 -8 0 -15 -6 -15 -13 0 -8 -9 -22 -20 -32 -11 -10 -18 -26 -15
-35 3 -10 -7 -27 -25 -45 -32 -30 -38 -53 -18 -73 9 -9 7 -17 -10 -35 -32 -34
-27 -87 7 -87 25 0 32 -10 21 -31 -7 -12 -7 -20 0 -24 6 -4 8 -15 5 -25 -3
-10 3 -40 14 -68 15 -38 20 -78 22 -166 1 -64 5 -119 9 -121 4 -3 1 -23 -7
-46 -9 -28 -11 -51 -5 -68 4 -14 7 -78 5 -141 -2 -71 1 -129 8 -153 10 -29 10
-43 0 -64 -15 -32 -25 -239 -12 -247 14 -9 11 -83 -4 -127 -10 -29 -12 -46 -5
-59 6 -10 6 -21 2 -24 -9 -5 -9 -82 0 -91 3 -3 1 -24 -4 -45 -8 -30 -7 -44 2
-55 13 -16 5 -111 -10 -120 -5 -3 -4 -20 1 -38 9 -34 7 -91 -5 -119 -4 -9 -2
-26 4 -38 9 -16 9 -25 1 -33 -14 -14 -14 -130 -1 -176 6 -23 6 -39 -1 -47 -5
-7 -11 -77 -12 -161 -2 -144 -1 -148 21 -158 28 -12 30 -55 4 -79 -25 -22 -47
-90 -37 -113 13 -29 15 -86 3 -100 -6 -7 -7 -20 -2 -30 12 -29 15 -73 4 -73
-6 0 -10 -25 -8 -61 2 -46 7 -64 21 -74 17 -12 17 -14 -1 -47 -15 -25 -19 -48
-16 -84 2 -27 5 -58 6 -69 1 -11 -2 -40 -5 -65 -8 -58 -8 -175 -1 -222 3 -21
3 -46 -2 -55 -11 -25 -12 -67 -2 -74 4 -3 3 -20 -2 -39 -8 -27 -6 -37 6 -51
14 -16 14 -20 -1 -48 -9 -18 -13 -36 -10 -42 4 -5 1 -16 -5 -24 -10 -12 -10
-18 0 -30 7 -8 8 -20 4 -27 -13 -20 -15 -130 -3 -145 8 -9 8 -25 0 -57 -9 -35
-8 -53 4 -86 13 -36 13 -51 2 -106 -9 -41 -10 -67 -4 -73 7 -7 6 -16 -3 -26
-10 -12 -10 -21 -2 -38 11 -22 11 -114 0 -133 -4 -5 -5 -51 -4 -103 2 -77 5
-96 20 -107 18 -13 18 -15 -3 -54 -23 -45 -30 -157 -10 -177 8 -8 8 -13 0 -17
-19 -12 -13 -57 9 -63 20 -5 28 -23 10 -23 -5 0 -10 -8 -10 -18 0 -10 -5 -23
-12 -30 -9 -9 -9 -18 0 -37 8 -17 8 -33 2 -51 -16 -41 -12 -86 10 -109 20 -21
20 -21 0 -63 -23 -48 -25 -65 -8 -92 10 -15 10 -27 1 -50 -6 -16 -7 -32 -3
-35 11 -7 11 -163 0 -170 -4 -3 -8 -23 -8 -46 -1 -33 3 -42 19 -46 23 -6 24
-21 5 -58 -15 -29 -13 -98 3 -103 14 -5 14 -35 1 -48 -5 -5 -11 -44 -13 -87
-3 -60 -1 -77 9 -77 16 0 18 -12 5 -26 -5 -5 -11 -37 -13 -71 -3 -49 -1 -63
10 -63 11 0 12 -9 5 -42 -4 -24 -7 -74 -5 -113 1 -38 3 -83 3 -100 0 -16 5
-42 10 -57 8 -18 7 -32 0 -47 -16 -29 -23 -119 -10 -142 7 -15 7 -24 -2 -35
-9 -11 -9 -17 1 -29 6 -8 11 -34 9 -57 -4 -66 11 -148 27 -148 18 0 18 -19 0
-39 -18 -20 -24 -167 -9 -196 8 -14 8 -26 2 -38 -15 -26 -16 -144 -2 -158 7
-7 9 -19 3 -34 -5 -14 -5 -26 2 -33 7 -7 6 -16 -1 -30 -6 -10 -7 -23 -3 -26 4
-4 10 -69 14 -144 10 -180 10 -190 3 -238 -4 -26 -3 -44 4 -48 6 -4 11 -17 11
-30 0 -12 5 -27 10 -32 7 -7 5 -23 -6 -49 -12 -29 -13 -44 -5 -62 13 -27 -1
-70 -24 -80 -10 -3 -27 5 -45 22 -30 29 -60 29 -60 0 0 -15 -21 -21 -34 -8 -4
4 -25 8 -47 9 -22 1 -46 8 -55 14 -12 10 -18 9 -34 -5 -15 -14 -23 -15 -34 -6
-10 8 -21 9 -42 1 -22 -9 -29 -8 -36 5 -12 21 -31 19 -53 -5 -12 -14 -22 -17
-30 -10 -7 6 -15 6 -22 -1 -8 -8 -13 -8 -17 0 -9 14 -69 14 -83 0 -7 -7 -19
-8 -30 -4 -10 5 -26 7 -35 6 -9 -1 -18 5 -20 14 -3 15 -6 14 -30 -5 -24 -19
-28 -19 -28 -5 0 11 -5 15 -14 12 -7 -3 -18 -1 -23 4 -6 6 -20 4 -39 -6 -32
-16 -54 -19 -54 -7 0 11 -69 2 -76 -9 -10 -16 -33 -9 -39 12 -6 19 -8 20 -26
4 -10 -10 -25 -15 -33 -12 -9 4 -16 -2 -19 -15 -7 -26 -27 -14 -27 17 l0 25
-37 -21 c-21 -12 -42 -25 -48 -30 -15 -15 -41 -10 -60 11 -11 13 -25 18 -37
14 -12 -3 -18 0 -18 10 0 18 -35 22 -45 6 -3 -5 -17 -10 -30 -10 -13 0 -27 -4
-30 -10 -8 -13 -48 -13 -61 0 -7 7 -16 4 -28 -9 -14 -16 -21 -17 -42 -7 -13 6
-27 19 -30 30 -4 13 -9 15 -17 7 -7 -7 -14 -7 -23 0 -8 7 -14 7 -19 -1 -3 -5
-15 -10 -26 -10 -10 0 -28 -5 -39 -12 -16 -10 -23 -9 -44 12 l-26 23 -19 -21
c-24 -28 -68 -28 -97 -1 -19 18 -25 19 -45 7 -13 -7 -34 -22 -47 -32 -17 -15
-25 -17 -34 -8 -7 7 -24 12 -39 12 -17 0 -28 6 -31 18 -7 25 -52 21 -81 -6
-28 -26 -35 -27 -58 -6 -17 15 -20 15 -43 0 -32 -20 -46 -20 -46 0 0 14 -7 16
-40 11 -33 -4 -40 -2 -40 11 -1 15 -2 15 -14 0 -16 -22 -66 -24 -66 -3 0 20
-20 18 -50 -5 -32 -25 -43 -25 -65 0 -18 20 -19 20 -39 1 -12 -10 -31 -22 -43
-25 -18 -6 -24 -2 -29 18 l-6 25 -34 -20 c-45 -25 -82 -24 -111 2 -18 18 -25
20 -38 9 -11 -9 -19 -10 -28 -1 -10 8 -17 7 -25 -1 -9 -9 -18 -9 -36 0 -16 7
-28 8 -31 2 -4 -6 -30 -10 -60 -10 -30 0 -57 -5 -61 -11 -4 -8 -11 -4 -19 10
-10 19 -13 20 -23 8 -9 -11 -29 -13 -85 -9 -39 2 -80 9 -89 13 -10 6 -19 5
-23 -1 -5 -8 -11 -7 -21 1 -12 10 -19 8 -37 -10 -31 -29 -97 -30 -104 -1 -6
24 -16 25 -33 5 -16 -19 -31 -19 -24 0 7 17 -21 21 -31 5 -3 -5 -12 -7 -20 -4
-8 3 -28 -1 -44 -9 -20 -10 -33 -11 -40 -4 -7 7 -21 5 -44 -7 -38 -18 -73 -23
-48 -7 12 8 12 12 2 25 -11 13 -16 13 -47 -5 -47 -26 -94 -25 -101 1 -6 23
-19 26 -26 8 -4 -10 -8 -10 -14 -1 -10 14 -85 -4 -126 -31 -27 -18 -28 -18
-50 0 -12 10 -28 25 -34 33 -10 11 -18 12 -35 4 -13 -7 -47 -14 -76 -18 -29
-3 -65 -11 -79 -18 -20 -9 -27 -9 -30 0 -3 7 -10 10 -18 7 -7 -3 -18 4 -24 15
-13 24 -59 24 -108 -1 -32 -16 -33 -16 -33 3 0 25 -32 25 -55 -1 -23 -25 -41
-25 -48 0 -5 21 -51 29 -62 10 -3 -5 -21 -10 -40 -10 -19 0 -37 -4 -40 -10 -3
-6 -17 -10 -31 -10 -21 0 -24 4 -19 20 8 27 -19 27 -47 0 -12 -11 -28 -20 -35
-20 -7 0 -13 -5 -13 -11 0 -5 -4 -7 -10 -4 -5 3 -10 17 -10 31 0 24 -23 34
-35 14 -4 -6 -12 -7 -18 -3 -22 14 -82 11 -100 -5 -9 -8 -20 -12 -24 -9 -3 4
-1 7 5 7 7 0 12 5 12 10 0 19 -87 11 -129 -12 l-41 -22 -24 23 c-18 17 -37 23
-86 24 -41 2 -64 -2 -67 -10 -4 -9 -9 -9 -23 -1 -14 9 -25 9 -43 1 -18 -8 -28
-8 -35 -1 -8 8 -16 8 -27 -2 -12 -10 -18 -10 -30 0 -10 8 -19 9 -28 3 -22 -18
-98 -23 -104 -8 -6 17 -163 16 -184 -2 -26 -20 -44 -20 -68 -2 -29 23 -59 24
-82 3 -17 -15 -19 -15 -34 0 -20 20 -17 20 -61 -4 -28 -17 -39 -18 -50 -9 -11
9 -18 9 -26 1 -20 -20 -55 -14 -61 10 -5 18 -8 19 -22 8 -20 -17 -139 -18
-158 -1 -10 8 -17 7 -25 -1 -7 -7 -41 -11 -84 -10 -40 0 -78 -4 -85 -10 -8 -6
-92 -11 -225 -12 -117 0 -219 -5 -227 -10 -7 -5 -43 -9 -80 -10 -36 0 -71 -5
-78 -9 -19 -12 -160 -12 -175 0 -9 7 -21 5 -43 -8 -50 -31 -55 -32 -74 -15
-15 13 -34 17 -83 15 -34 -2 -71 -8 -82 -14 -14 -7 -20 -7 -23 3 -7 19 -23 14
-23 -8 0 -29 -55 -28 -63 1 l-6 21 -23 -22 -23 -21 -3 20 c-4 26 -2 26 -57 -5
-46 -25 -80 -25 -98 0 -5 6 -6 2 -3 -9 5 -17 1 -20 -17 -20 -12 1 -37 8 -54
17 -29 15 -33 14 -52 -3 -12 -11 -22 -15 -26 -9 -8 13 -65 13 -65 0 0 -5 -8
-10 -18 -10 -10 0 -23 -5 -30 -12 -9 -9 -12 -9 -12 0 0 7 -9 12 -19 12 -11 0
-21 6 -23 12 -3 9 -9 8 -22 -5 -21 -20 -33 -22 -38 -5 -3 9 -11 8 -30 -4 -16
-11 -29 -13 -35 -7 -6 6 -20 4 -38 -5 -26 -14 -32 -14 -52 -1 -31 20 -57 19
-78 -5 -14 -16 -21 -17 -32 -8 -11 9 -23 6 -55 -12 -30 -17 -42 -19 -48 -10
-5 8 -25 10 -61 7 -30 -3 -54 -6 -54 -7 0 -8 -81 -7 -90 0 -8 7 -18 3 -30 -9
-14 -16 -21 -18 -35 -9 -14 9 -22 9 -33 0 -17 -14 -27 -6 -27 23 0 11 -5 26
-12 33 -9 9 -7 12 11 12 22 0 23 3 19 60 -2 33 -1 60 3 60 11 0 49 69 49 89 0
10 -11 30 -25 45 -14 15 -25 31 -25 36 0 4 -3 15 -6 24 -4 10 -1 16 8 16 20 0
48 32 48 54 0 10 -9 20 -20 23 -23 6 -27 31 -5 39 21 8 19 30 -5 54 -20 20
-20 20 0 59 l21 39 -22 37 -22 37 22 64 c20 59 21 66 6 101 -14 33 -14 38 0
45 19 11 20 47 0 54 -8 4 -15 11 -15 17 0 6 -8 19 -17 30 -17 18 -17 19 0 32
9 6 17 17 17 22 0 6 7 16 15 23 8 6 14 24 14 38 0 15 0 46 1 70 1 24 -3 49 -8
55 -12 17 -14 65 -2 72 16 10 12 42 -6 49 -10 4 -14 12 -10 22 4 9 1 23 -5 30
-9 10 -9 17 0 28 13 16 13 136 -1 153 -6 8 -1 17 16 28 33 22 33 45 1 75 -24
22 -24 24 -7 43 12 15 14 21 5 24 -20 7 -15 37 7 51 17 10 20 23 20 80 0 39
-6 79 -15 95 -11 22 -12 33 -3 52 9 20 8 28 -6 44 -17 18 -17 22 -2 42 14 21
14 24 -1 41 -14 16 -14 18 1 24 20 8 20 22 0 62 -10 21 -12 37 -6 49 15 29 21
78 12 93 -5 8 -3 27 6 48 16 39 9 108 -13 134 -14 15 -13 19 2 34 10 11 14 25
11 40 -3 12 -2 25 3 28 17 11 10 77 -11 98 -18 18 -18 21 -3 45 16 24 16 26
-4 44 -26 24 -27 44 -3 61 30 21 33 34 17 72 -17 39 -13 56 11 56 20 0 18 12
-10 53 -28 42 -30 97 -4 123 19 20 9 53 -30 95 -19 22 -22 31 -13 47 6 11 18
23 28 26 14 6 15 9 4 15 -11 7 -10 21 8 77 26 84 26 86 -4 122 -14 17 -32 46
-40 65 -14 34 -14 36 10 55 14 11 25 27 25 35 0 8 6 17 13 20 15 5 -9 37 -29
37 -14 0 -9 59 7 92 5 9 6 24 3 32 -4 9 -2 29 4 44 6 15 13 42 16 60 5 28 3
35 -15 39 -20 5 -19 7 6 34 27 27 27 49 0 49 -9 0 -12 6 -9 15 4 8 1 22 -6 31
-10 11 -10 18 -2 26 6 6 9 23 6 38 -4 17 0 31 10 39 21 18 20 28 -4 34 -17 4
-20 10 -14 34 4 15 12 37 17 48 18 33 14 88 -7 106 -18 15 -18 18 -3 79 12 47
14 67 5 77 -8 10 -6 18 7 33 9 10 14 23 11 29 -4 6 -8 51 -10 100 -2 62 -8 96
-20 112 -15 22 -15 25 17 57 l32 33 -23 19 c-16 13 -22 26 -17 39 3 11 1 23
-6 27 -8 5 -5 12 11 24 21 15 22 21 13 46 -22 58 -23 91 -3 109 15 14 17 22 9
37 -6 10 -7 32 -4 49 4 18 1 40 -9 59 -8 17 -13 39 -10 48 3 9 8 24 11 32 15
45 9 83 -18 115 -37 42 -37 74 1 110 23 22 27 32 19 46 -5 11 -7 19 -3 19 4 0
0 8 -8 18 -21 22 -27 114 -10 135 7 8 14 31 14 49 0 18 5 39 11 46 7 8 5 12
-7 12 -11 0 -16 7 -14 18 1 9 -1 22 -5 29 -4 6 -3 14 2 18 6 3 8 12 4 21 -3 8
4 22 15 33 19 16 20 19 6 33 -14 14 -14 18 1 41 9 15 12 28 6 31 -5 3 -8 27
-6 52 1 26 -3 58 -12 75 -9 18 -12 40 -8 60 6 26 2 36 -25 64 -31 32 -31 33
-16 63 9 17 27 43 41 58 20 21 22 30 14 46 -6 11 -8 26 -5 33 3 8 1 17 -4 20
-16 10 -11 45 5 45 20 0 19 16 -1 24 -11 4 -14 13 -10 31 5 19 2 25 -9 25 -19
0 -12 34 11 61 17 18 18 45 4 54 -6 4 -8 15 -5 24 3 10 -1 24 -10 31 -20 17
-19 21 11 53 l25 27 -20 26 c-16 20 -18 30 -9 48 7 16 7 29 0 43 -6 11 -7 25
-2 33 5 8 7 18 4 22 -3 4 0 26 7 47 8 28 9 44 2 53 -6 7 -9 30 -8 50 2 24 -2
41 -12 50 -8 7 -19 24 -25 37 -8 22 -5 29 18 47 21 18 27 31 29 69 1 39 -2 49
-17 53 -22 5 -22 11 -3 38 13 19 12 23 -4 40 -16 17 -16 21 -3 42 16 24 24
110 12 127 -18 25 -18 62 -1 101 19 42 19 42 -5 84 -29 52 -30 60 -3 94 17 22
20 32 11 49 -19 39 -23 78 -11 94 15 18 19 64 7 80 -6 7 -5 20 1 32 16 29 14
61 -4 61 -8 0 -15 4 -15 9 0 5 7 14 15 21 20 17 20 90 1 90 -21 0 -30 20 -17
33 6 6 11 28 11 48 0 21 4 40 9 43 5 3 3 22 -4 43 -8 23 -11 66 -8 112 2 47 0
83 -8 97 -7 13 -8 30 -4 41 25 56 7 145 -35 180 -13 11 -10 17 18 41 30 25 32
29 18 41 -20 17 -20 35 -2 51 19 15 14 73 -8 95 -18 18 -13 35 10 35 13 0 13
3 0 22 -20 28 -20 47 -1 68 13 15 13 20 -1 48 -14 29 -14 35 0 64 15 30 15 33
-6 55 -20 21 -20 25 -6 39 13 14 13 19 -5 56 -18 35 -18 42 -6 52 17 13 23 72
8 81 -7 5 -6 11 2 21 9 11 8 15 -3 19 -8 3 -14 20 -15 41 -1 19 -8 45 -17 59
-21 31 -20 44 4 75 21 27 26 65 10 75 -5 3 -10 25 -10 49 0 23 -5 47 -11 53
-8 8 -8 13 0 17 13 8 15 112 2 120 -5 3 -12 22 -16 42 -5 30 -2 41 16 60 27
29 40 30 63 5 10 -11 25 -16 40 -14 19 4 26 -1 33 -24 9 -25 11 -26 16 -8 4
11 18 25 32 31 21 10 26 9 41 -13 13 -21 14 -27 3 -34 -7 -4 -10 -12 -5 -16 5
-4 11 -2 13 5 3 6 13 12 24 12 10 0 19 7 19 15 0 8 5 15 10 15 6 0 10 -7 10
-15 0 -8 5 -15 10 -15 6 0 10 -9 10 -20 0 -28 13 -25 48 10 48 47 102 32 88
-25 -5 -18 -2 -25 8 -25 8 0 18 5 21 10 3 6 17 10 30 10 13 0 27 5 30 10 5 8
11 8 20 0 10 -8 15 -8 20 0 4 7 18 9 30 6 13 -3 27 -2 30 4 9 15 25 12 25 -4
0 -20 32 -45 37 -28 3 6 13 12 23 12 10 0 20 5 22 12 8 22 38 -1 38 -29 0 -29
16 -21 22 11 4 27 28 32 35 8 3 -14 12 -19 32 -17 15 1 33 5 40 10 7 4 17 3
23 -3 6 -6 6 -12 -1 -16 -18 -11 -12 -36 8 -36 10 0 21 9 24 20 10 38 57 24
85 -25 9 -16 11 -16 12 -4 0 36 68 66 86 38 5 -8 9 -7 15 4 9 15 59 15 149 1
19 -3 51 -6 70 -6 19 -1 29 -3 23 -5 -20 -7 -15 -19 12 -31 33 -15 35 -15 35
3 0 14 29 35 49 35 19 0 12 -32 -9 -37 -11 -3 -17 -9 -14 -14 3 -5 9 -7 13 -4
5 2 23 0 41 -5 34 -10 59 2 122 59 28 24 32 24 83 -8 17 -10 35 -15 40 -11 6
4 22 10 37 14 21 5 31 0 53 -25 14 -17 29 -29 32 -25 4 3 1 12 -5 18 -9 9 -5
16 16 30 37 25 40 24 59 -22 11 -25 24 -40 35 -40 10 0 18 4 18 10 0 5 16 17
36 25 45 19 50 19 35 1 -10 -11 -8 -15 6 -19 10 -3 28 -8 41 -12 18 -5 22 -2
22 14 0 12 -5 21 -11 21 -5 0 -7 5 -4 10 5 8 11 7 20 0 8 -7 23 -9 34 -5 16 5
23 -2 37 -31 14 -29 20 -34 28 -23 15 19 52 39 72 39 14 0 15 -2 3 -16 -12
-15 -11 -16 11 -9 14 4 34 16 46 26 29 27 34 24 34 -16 0 -19 4 -35 8 -35 12
0 52 44 52 57 0 6 7 14 16 17 25 10 64 7 64 -5 0 -6 9 -8 20 -4 14 5 20 2 20
-10 0 -12 6 -15 23 -11 12 3 16 3 10 0 -15 -7 -18 -44 -4 -44 6 0 12 4 16 9 5
9 62 41 72 41 2 0 1 -10 -3 -22 l-6 -21 27 21 c32 25 65 31 46 9 -8 -11 -6
-18 8 -31 18 -16 20 -16 41 13 22 32 42 41 39 19 -3 -24 1 -38 11 -38 6 0 10
12 10 26 0 24 2 26 32 20 18 -3 42 -15 53 -26 25 -24 35 -25 35 -5 0 9 13 18
32 22 31 6 31 6 8 15 -20 7 -22 11 -10 18 9 5 19 5 27 -2 9 -7 17 -7 28 2 13
10 19 10 35 -5 10 -9 20 -26 22 -37 4 -28 51 -33 74 -7 16 18 18 18 30 1 8
-10 13 -12 14 -5 0 8 14 12 40 11 33 -1 39 -4 35 -18 -12 -39 39 -32 71 9 6 8
20 12 32 9 15 -4 19 -2 15 8 -3 8 1 14 10 14 22 0 31 -18 17 -35 -7 -9 -8 -15
0 -20 16 -10 30 4 30 31 0 18 5 24 22 24 17 0 19 -3 10 -12 -16 -16 -15 -38 2
-38 7 0 19 -7 26 -15 18 -22 27 -19 43 14 11 21 12 32 4 40 -8 8 -8 11 1 11 7
0 12 -4 12 -10 0 -5 10 -10 22 -10 17 0 19 -3 10 -12 -15 -15 -16 -38 -2 -38
6 0 10 7 10 15 0 10 10 15 34 15 19 0 38 5 41 11 4 6 14 7 24 4 46 -20 81 -22
101 -8 20 14 20 13 14 -11 -8 -35 15 -27 37 13 15 26 51 42 99 45 8 1 21 5 28
9 18 12 62 0 62 -18 0 -10 9 -12 35 -8 32 5 35 4 35 -19 0 -21 5 -25 30 -25
18 0 30 6 30 14 0 19 37 16 44 -4 6 -14 10 -12 26 14 25 41 40 50 55 30 7 -10
16 -13 25 -7 8 5 21 5 31 -1 31 -16 49 -11 49 15 0 21 4 24 26 22 14 -2 29 -7
32 -13 4 -6 17 -14 30 -17 16 -6 21 -13 17 -26 -5 -16 -1 -17 42 -9 26 5 50
14 54 21 5 8 12 6 25 -7 17 -17 17 -17 -4 -11 -26 9 -31 -14 -7 -34 13 -10 19
-10 34 4 17 16 19 16 24 -5 6 -22 27 -18 27 7 0 8 5 14 10 14 6 0 10 -6 10
-14 0 -23 20 -29 39 -12 13 12 20 13 29 4 9 -9 12 -6 12 15 0 36 25 35 44 0
l15 -28 1 27 c0 28 14 45 24 29 3 -5 33 -8 65 -7 45 1 57 -1 50 -10 -12 -15 3
-26 24 -18 8 3 18 1 22 -5 4 -8 12 -8 26 -1 10 6 19 8 19 4 0 -3 7 -1 15 6 11
9 21 9 46 -4 38 -19 39 -19 39 -6 0 6 9 20 19 31 l19 20 21 -22 21 -23 0 27
c0 30 26 38 36 12 4 -10 13 -13 27 -9 16 5 19 3 14 -11 -5 -11 -3 -15 5 -13 7
3 14 14 16 26 3 17 10 22 30 21 15 0 21 -3 15 -6 -20 -8 -15 -33 6 -33 11 0
23 -5 27 -11 3 -6 15 -9 25 -6 10 3 22 1 25 -4 8 -13 44 9 44 26 0 8 5 15 10
15 6 0 10 -6 10 -14 0 -22 19 -30 36 -15 11 9 18 8 33 -5 16 -15 21 -15 47 -1
16 8 39 15 51 15 12 0 25 5 28 10 10 17 25 11 25 -10 0 -11 -5 -20 -12 -20 -8
0 -7 -6 4 -16 15 -15 19 -15 49 0 29 14 34 15 49 1 15 -13 20 -13 48 1 41 20
66 15 70 -14 5 -34 22 -26 22 11 1 29 2 30 14 15 16 -22 32 -23 43 -4 12 21
74 29 95 13 14 -11 16 -20 8 -47 -5 -19 -8 -36 -5 -38 6 -7 25 8 25 21 0 7 17
17 37 24 32 10 42 8 80 -10 23 -12 41 -27 38 -34 -4 -13 14 -22 33 -16 6 3 12
11 12 19 0 9 11 14 35 14 19 0 44 5 54 12 14 9 23 8 41 -5 12 -8 30 -13 39
-10 46 15 81 35 81 47 0 17 25 27 45 20 17 -7 21 -64 5 -64 -13 0 -13 -27 1
-35 6 -4 21 3 34 15 19 18 30 21 69 15 39 -6 46 -5 46 9 0 9 5 16 10 16 6 0
10 -5 10 -11 0 -7 12 -23 27 -37 l27 -25 22 27 c13 14 26 26 30 26 4 0 19 10
32 23 17 14 23 17 20 6 -3 -8 4 -25 18 -38 l25 -24 25 24 c13 13 22 29 20 36
-3 7 1 13 9 13 8 0 15 -4 15 -10 0 -5 9 -10 21 -10 15 0 19 -5 15 -15 -3 -8
-2 -15 3 -15 10 0 24 38 22 57 -2 12 17 19 66 25 17 2 20 7 14 17 -8 12 -12
13 -26 1 -11 -9 -19 -10 -26 -3 -8 8 -4 15 12 23 13 7 32 20 43 29 10 9 26 16
35 17 9 1 26 2 39 3 17 1 22 7 22 30 0 17 5 33 10 36 6 4 10 -5 10 -19 0 -31
25 -35 40 -7 8 15 7 22 -4 28 -12 7 -8 16 23 48 20 22 40 48 44 57 3 10 12 15
20 12 8 -3 17 2 20 10 4 9 15 16 25 16 11 0 27 10 36 23 11 15 18 18 22 10 4
-10 9 -10 20 1 18 19 18 27 -1 20 -14 -6 -19 5 -16 34 1 8 -2 19 -7 25 -16 20
-2 75 23 91 22 15 23 17 9 43 -9 16 -28 46 -44 68 -16 22 -25 44 -21 50 10 14
-12 72 -26 68 -17 -6 -26 16 -13 32 6 7 10 29 8 47 -2 28 -7 34 -30 36 -20 2
-28 9 -28 23 0 15 -7 19 -38 19 -21 0 -42 4 -48 10 -5 5 -28 11 -49 12 -49 4
-65 18 -65 58 0 23 -5 33 -19 37 -11 3 -21 13 -24 24 -4 14 -11 17 -24 13 -15
-6 -16 -4 -5 7 13 14 17 59 4 59 -4 0 -13 -5 -20 -12 -8 -8 -12 -8 -12 -1 0
12 -98 15 -105 3 -7 -11 -48 0 -60 15 -8 10 -52 12 -175 11 -91 -2 -173 -6
-183 -11 -11 -4 -28 -2 -43 6 -19 10 -30 10 -43 2 -9 -6 -36 -14 -59 -18 -35
-6 -42 -4 -42 9 0 22 -55 21 -78 -1z m948 -978 c0 -8 -7 -15 -15 -15 -9 0 -12
6 -9 15 4 8 10 15 15 15 5 0 9 -7 9 -15z m-4432 -77 c18 -18 15 -28 -8 -28
-13 0 -20 7 -20 20 0 23 10 26 28 8z m1252 2 c0 -5 -2 -10 -4 -10 -2 0 -12 -3
-22 -7 -16 -6 -17 -5 -4 10 17 19 30 22 30 7z m-830 -21 c0 -11 -12 -11 -35
-3 -12 5 -14 9 -4 14 14 9 39 2 39 -11z m1790 7 c0 -3 -4 -8 -10 -11 -5 -3
-10 -1 -10 4 0 6 5 11 10 11 6 0 10 -2 10 -4z m1182 -68 c-9 -9 -15 -9 -24 0
-9 9 -7 12 12 12 19 0 21 -3 12 -12z m-7232 -10952 c0 -3 -4 -8 -10 -11 -5 -3
-10 -1 -10 4 0 6 5 11 10 11 6 0 10 -2 10 -4z m357 -218 c-3 -8 -6 -5 -6 6 -1
11 2 17 5 13 3 -3 4 -12 1 -19z m10218 -48 c3 -5 1 -10 -4 -10 -6 0 -11 5 -11
10 0 6 2 10 4 10 3 0 8 -4 11 -10z m-8710 -178 c-4 -4 -10 -1 -12 6 -3 6 -13
12 -24 12 -21 0 -26 16 -6 23 15 5 52 -31 42 -41z m8455 8 c0 -5 -4 -10 -9
-10 -5 0 -17 -3 -27 -7 -16 -6 -17 -5 -4 10 17 18 40 22 40 7z m-7570 -20 c0
-5 -2 -10 -4 -10 -3 0 -8 5 -11 10 -3 6 -1 10 4 10 6 0 11 -4 11 -10z m610
-25 c0 -8 -4 -15 -10 -15 -5 0 -10 7 -10 15 0 8 5 15 10 15 6 0 10 -7 10 -15z
m1770 -15 c0 -5 -7 -10 -15 -10 -8 0 -15 5 -15 10 0 6 7 10 15 10 8 0 15 -4
15 -10z m1430 -14 c0 -3 -4 -8 -10 -11 -5 -3 -10 -1 -10 4 0 6 5 11 10 11 6 0
10 -2 10 -4z m2203 -10 c6 -15 -1 -26 -15 -26 -4 0 -8 9 -8 20 0 23 15 27 23
6z m-4633 -16 c0 -5 -5 -10 -11 -10 -5 0 -7 5 -4 10 3 6 8 10 11 10 2 0 4 -4
4 -10z m2900 0 c0 -5 -4 -10 -10 -10 -5 0 -10 5 -10 10 0 6 5 10 10 10 6 0 10
-4 10 -10z m200 0 c0 -5 -4 -10 -10 -10 -5 0 -10 5 -10 10 0 6 5 10 10 10 6 0
10 -4 10 -10z m1140 -10 c0 -11 -3 -20 -8 -20 -4 0 -13 9 -20 20 -11 18 -10
20 8 20 13 0 20 -7 20 -20z m1390 10 c0 -5 -4 -10 -10 -10 -5 0 -10 5 -10 10
0 6 5 10 10 10 6 0 10 -4 10 -10z"/>
<path d="M4120 16520 c0 -5 5 -10 11 -10 5 0 7 5 4 10 -3 6 -8 10 -11 10 -2 0
-4 -4 -4 -10z"/>
<path d="M4650 16520 c0 -5 5 -10 11 -10 5 0 7 5 4 10 -3 6 -8 10 -11 10 -2 0
-4 -4 -4 -10z"/>
<path d="M4000 16504 c0 -14 3 -14 15 -4 8 7 15 14 15 16 0 2 -7 4 -15 4 -8 0
-15 -7 -15 -16z"/>
<path d="M4080 16506 c0 -9 5 -16 10 -16 6 0 10 4 10 9 0 6 -4 13 -10 16 -5 3
-10 -1 -10 -9z"/>
<path d="M10215 16510 c3 -5 8 -10 11 -10 2 0 4 5 4 10 0 6 -5 10 -11 10 -5 0
-7 -4 -4 -10z"/>
<path d="M6998 16473 c7 -3 16 -2 19 1 4 3 -2 6 -13 5 -11 0 -14 -3 -6 -6z"/>
<path d="M6970 16445 c0 -8 5 -15 10 -15 6 0 10 7 10 15 0 8 -4 15 -10 15 -5
0 -10 -7 -10 -15z"/>
<path d="M8130 16451 c0 -6 5 -13 10 -16 6 -3 10 1 10 9 0 9 -4 16 -10 16 -5
0 -10 -4 -10 -9z"/>
<path d="M8216 16452 c-3 -6 2 -18 11 -28 12 -12 18 -13 21 -4 6 16 -24 45
-32 32z"/>
<path d="M8660 16405 c0 -8 5 -15 10 -15 6 0 10 7 10 15 0 8 -4 15 -10 15 -5
0 -10 -7 -10 -15z"/>
<path d="M9400 16371 c0 -5 7 -11 15 -15 9 -3 15 0 15 9 0 8 -7 15 -15 15 -8
0 -15 -4 -15 -9z"/>
<path d="M9911 16364 c0 -11 3 -14 6 -6 3 7 2 16 -1 19 -3 4 -6 -2 -5 -13z"/>
<path d="M11880 15549 c0 -10 24 -39 33 -39 3 0 0 11 -6 25 -12 25 -27 33 -27
14z"/>
<path d="M10990 14400 c0 -5 7 -10 16 -10 8 0 12 5 9 10 -3 6 -10 10 -16 10
-5 0 -9 -4 -9 -10z"/>
<path d="M10135 13320 c-3 -5 1 -10 10 -10 9 0 13 5 10 10 -3 6 -8 10 -10 10
-2 0 -7 -4 -10 -10z"/>
<path d="M8868 11763 c-23 -6 -23 -30 -1 -51 15 -15 16 -15 11 -1 -4 9 0 26 8
38 15 21 13 22 -18 14z"/>
<path d="M8580 11340 c0 -5 5 -10 10 -10 6 0 10 5 10 10 0 6 -4 10 -10 10 -5
0 -10 -4 -10 -10z"/>
<path d="M8480 11240 c0 -5 5 -10 11 -10 5 0 7 5 4 10 -3 6 -8 10 -11 10 -2 0
-4 -4 -4 -10z"/>
<path d="M7750 10360 c1 -8 7 -24 15 -34 19 -25 19 -16 0 20 -8 16 -15 22 -15
14z"/>
<path d="M7440 10040 c0 -5 7 -10 16 -10 8 0 12 5 9 10 -3 6 -10 10 -16 10 -5
0 -9 -4 -9 -10z"/>
<path d="M12621 5134 c0 -11 3 -14 6 -6 3 7 2 16 -1 19 -3 4 -6 -2 -5 -13z"/>
<path d="M2980 5096 c0 -9 5 -16 10 -16 6 0 10 4 10 9 0 6 -4 13 -10 16 -5 3
-10 -1 -10 -9z"/>
<path d="M3250 5074 c14 -10 28 -22 32 -28 4 -6 10 -7 15 -3 13 14 -13 42 -43
45 l-29 3 25 -17z"/>
<path d="M4770 4970 c0 -5 5 -10 10 -10 6 0 10 5 10 10 0 6 -4 10 -10 10 -5 0
-10 -4 -10 -10z"/>
<path d="M6453 4956 c-6 -8 -9 -17 -6 -20 7 -7 33 13 33 25 0 13 -13 10 -27
-5z"/>
<path d="M5405 4940 c3 -5 17 -10 31 -10 13 0 24 5 24 10 0 6 -14 10 -31 10
-17 0 -28 -4 -24 -10z"/>
<path d="M8290 4940 c0 -5 -8 -10 -17 -10 -13 0 -14 -3 -6 -11 9 -9 16 -8 27
4 18 18 20 27 6 27 -5 0 -10 -4 -10 -10z"/>
<path d="M9952 4925 c0 -16 2 -22 5 -12 2 9 2 23 0 30 -3 6 -5 -1 -5 -18z"/>
<path d="M7200 4913 c0 -22 16 -33 38 -25 6 2 12 13 12 24 0 16 -3 18 -13 9
-10 -8 -17 -7 -25 1 -9 9 -12 7 -12 -9z"/>
<path d="M7770 4924 c0 -3 6 -12 14 -20 19 -18 56 -18 56 0 0 9 -7 12 -19 9
-10 -3 -22 0 -25 6 -7 11 -26 15 -26 5z"/>
<path d="M10602 4918 c6 -18 28 -21 28 -4 0 9 -7 16 -16 16 -9 0 -14 -5 -12
-12z"/>
<path d="M11290 4916 c0 -8 5 -18 10 -21 6 -3 10 3 10 14 0 12 -4 21 -10 21
-5 0 -10 -6 -10 -14z"/>
<path d="M11462 4890 c0 -14 2 -19 5 -12 2 6 2 18 0 25 -3 6 -5 1 -5 -13z"/>
<path d="M11925 4900 c3 -5 8 -10 11 -10 2 0 4 5 4 10 0 6 -5 10 -11 10 -5 0
-7 -4 -4 -10z"/>
<path d="M10150 4890 c0 -5 5 -10 10 -10 6 0 10 5 10 10 0 6 -4 10 -10 10 -5
0 -10 -4 -10 -10z"/>
</g>
</svg>
