<?xml version="1.0" standalone="no"?>
<!DOCTYPE svg PUBLIC "-//W3C//DTD SVG 20010904//EN"
 "http://www.w3.org/TR/2001/REC-SVG-20010904/DTD/svg10.dtd">
<svg version="1.0" xmlns="http://www.w3.org/2000/svg"
 width="500.000000pt" height="350.000000pt" viewBox="0 0 500.000000 350.000000"
 preserveAspectRatio="xMidYMid meet">

<g transform="translate(0.000000,350.000000) scale(0.100000,-0.100000)"
fill="#000000" stroke="none">
<path d="M2890 3075 c0 -8 -4 -15 -9 -15 -4 0 -7 -26 -5 -57 5 -102 5 -307 0
-332 -16 -74 38 -97 67 -29 10 21 15 43 12 49 -4 5 -2 9 3 9 5 0 9 6 10 13 15
129 18 178 18 260 -1 108 -6 117 -63 117 -23 0 -33 -5 -33 -15z"/>
<path d="M2256 3040 c-17 -18 -18 -31 -12 -192 8 -210 13 -248 36 -248 20 0
31 45 36 148 4 59 7 127 8 152 2 25 6 63 11 84 7 34 5 41 -16 57 -30 23 -39
23 -63 -1z"/>
<path d="M3470 2988 c-25 -41 -38 -108 -45 -223 -3 -49 -7 -113 -10 -140 -5
-59 4 -80 32 -71 27 9 57 93 77 216 2 14 9 45 16 70 7 25 14 54 16 65 2 11 6
33 10 48 4 21 1 34 -15 48 -30 28 -58 24 -81 -13z"/>
<path d="M2590 2950 c-8 -20 -10 -57 -6 -119 7 -105 12 -121 36 -121 38 0 40
177 3 238 l-20 33 -13 -31z"/>
<path d="M4188 2973 c-23 -6 -47 -45 -52 -85 -10 -71 -18 -117 -42 -222 -13
-60 -24 -117 -24 -126 0 -26 26 -32 48 -12 26 23 74 107 65 115 -3 4 -1 7 6 7
7 0 9 5 6 10 -3 6 -1 10 6 10 7 0 10 3 6 6 -3 3 -2 16 3 28 9 24 21 87 24 121
1 11 7 30 14 42 15 27 15 55 0 88 -11 24 -23 28 -60 18z"/>
<path d="M1666 2918 c-18 -28 -15 -65 19 -240 9 -46 18 -93 20 -105 6 -26 36
-24 46 3 7 19 3 184 -6 283 -7 75 -48 106 -79 59z"/>
<path d="M1120 2895 c-14 -17 -8 -114 15 -245 22 -131 33 -167 50 -174 30 -11
30 10 6 296 -5 58 -11 111 -15 116 -10 17 -45 21 -56 7z"/>
<path d="M2049 2889 c0 -2 -3 -13 -6 -24 -11 -43 -3 -180 12 -194 8 -8 18 -12
22 -8 14 14 7 175 -8 193 -8 9 -12 19 -11 21 2 3 1 7 -2 11 -3 3 -6 3 -7 1z"/>
<path d="M3226 2821 c-27 -60 -33 -105 -17 -130 8 -12 12 -12 25 -2 9 7 14 16
11 20 -2 4 2 25 10 47 16 44 19 110 6 118 -5 3 -20 -21 -35 -53z"/>
<path d="M3851 2779 c-17 -44 -31 -89 -31 -99 0 -27 11 -50 24 -50 19 0 59
102 61 155 4 102 -14 100 -54 -6z"/>
<path d="M450 2827 c-15 -8 -27 -24 -31 -45 -7 -33 2 -49 66 -116 11 -12 19
-24 17 -28 -1 -5 2 -8 8 -8 6 0 10 -7 10 -16 0 -8 4 -13 8 -10 4 2 18 -11 32
-30 42 -63 110 -82 110 -31 0 37 -29 113 -54 140 -12 13 -21 28 -19 34 2 5 -7
21 -20 34 -13 13 -26 31 -30 40 -4 12 -60 51 -71 49 -1 0 -12 -6 -26 -13z"/>
<path d="M1483 2699 c6 -108 19 -151 40 -130 5 5 9 37 8 71 -1 102 -18 170
-43 170 -7 0 -9 -34 -5 -111z"/>
<path d="M897 2675 c-9 -50 2 -129 20 -142 23 -18 35 -3 38 49 5 70 -46 152
-58 93z"/>
<path d="M4480 2667 c-52 -47 -121 -138 -118 -154 11 -62 129 21 160 112 23
70 7 86 -42 42z"/>
<path d="M4834 2592 c-35 -12 -105 -79 -156 -152 -10 -14 -36 -51 -58 -82 -44
-63 -47 -70 -25 -88 22 -19 55 -5 108 45 26 25 53 45 59 45 6 0 8 3 5 6 -4 4
16 29 43 56 28 27 50 52 50 56 0 3 12 18 26 33 24 25 25 29 12 55 -14 30 -30
36 -64 26z"/>
<path d="M426 2491 c-4 -5 -3 -11 2 -13 11 -5 72 -103 72 -116 0 -6 10 -16 21
-23 41 -22 48 24 15 94 -24 50 -93 86 -110 58z"/>
<path d="M4280 2271 c-6 -12 -8 -40 -5 -63 3 -24 7 -59 10 -78 5 -49 13 -99
20 -119 2 -9 7 -36 10 -61 3 -25 7 -61 10 -80 9 -68 16 -125 21 -170 6 -62 7
-325 0 -381 -4 -40 -2 -50 18 -68 16 -15 26 -19 31 -12 3 6 10 9 13 7 4 -2 19
4 32 14 l25 19 -1 188 c-1 184 -8 276 -27 388 -5 26 -17 111 -22 150 -19 157
-48 242 -93 268 -30 18 -31 18 -42 -2z"/>
<path d="M1218 2263 c-38 -44 -84 -192 -94 -303 -4 -52 -15 -164 -20 -200 -1
-14 -3 -63 -3 -109 -1 -87 -8 -103 -16 -35 -3 22 -9 59 -15 84 -5 25 -12 63
-14 85 -2 22 -9 78 -15 125 -20 163 -22 185 -22 238 0 47 -3 54 -25 63 -34 12
-32 14 -53 -33 -27 -60 -56 -165 -67 -238 -2 -19 -6 -42 -9 -50 -11 -38 -27
-220 -28 -322 0 -66 -11 -68 -22 -6 -10 51 -7 42 -28 103 -9 28 -19 66 -21 85
-5 35 -73 322 -83 350 -4 8 -8 24 -10 35 -9 50 -26 75 -51 75 -24 0 -24 -1
-18 -52 7 -51 45 -272 67 -388 14 -70 60 -270 67 -290 3 -8 6 -19 6 -25 1 -5
9 -44 18 -85 10 -41 23 -101 29 -133 12 -63 25 -75 79 -73 33 1 35 3 35 34 -1
17 2 32 5 32 7 0 9 35 14 280 5 235 14 371 25 383 5 5 11 -11 14 -35 3 -24 8
-54 10 -68 6 -29 15 -107 22 -203 4 -38 8 -83 11 -100 3 -18 7 -48 9 -67 16
-125 49 -240 71 -240 26 0 74 35 75 55 0 11 2 32 4 48 2 15 7 82 10 150 8 148
13 212 19 252 3 17 6 68 7 115 1 96 15 230 32 305 3 11 11 47 18 81 17 83 2
117 -33 77z"/>
<path d="M3037 2255 c-64 -33 -109 -120 -110 -210 0 -85 34 -225 55 -225 5 0
8 -9 8 -20 0 -11 4 -20 10 -20 5 0 13 -12 16 -27 4 -16 11 -34 17 -41 19 -24
27 -144 15 -222 -4 -27 -12 -39 -39 -52 -19 -10 -43 -18 -54 -18 -25 0 -36 -8
-58 -42 -29 -47 -23 -62 36 -81 55 -18 104 -20 113 -6 3 5 14 9 25 9 10 0 19
5 19 10 0 6 5 10 10 10 16 0 51 39 57 63 36 151 29 254 -22 362 -21 44 -39 82
-40 85 -1 3 -13 31 -28 62 -15 31 -33 87 -41 124 -13 61 -13 72 2 108 14 36
55 85 71 86 3 0 15 7 25 15 16 12 17 17 6 30 -16 19 -57 19 -93 0z"/>
<path d="M144 2232 c-23 -3 -34 -27 -34 -75 0 -16 4 -26 10 -22 6 3 10 1 10
-5 0 -7 7 -10 15 -6 8 3 22 -2 30 -11 9 -8 19 -13 22 -10 3 4 14 2 23 -3 10
-5 37 -12 60 -15 24 -3 49 -10 57 -16 10 -9 13 -8 13 2 0 9 3 10 8 4 17 -23
92 4 92 34 0 31 -112 91 -171 91 -17 0 -56 17 -69 30 -6 6 -35 7 -66 2z"/>
<path d="M3416 2181 c-6 -10 -1 -55 14 -134 6 -26 13 -71 16 -100 3 -29 7 -68
10 -87 3 -19 7 -55 10 -79 2 -24 8 -69 14 -100 5 -31 10 -132 11 -224 1 -159
3 -170 24 -194 l22 -26 26 19 c21 15 27 28 28 64 1 25 3 59 4 75 2 17 3 51 4
78 1 59 16 62 24 5 3 -24 8 -52 11 -63 2 -11 5 -23 5 -27 1 -6 30 -24 66 -41
8 -3 40 47 37 57 -2 6 -3 28 -3 50 0 23 -5 56 -11 75 -6 18 -11 52 -13 75 -8
139 -28 185 -82 189 -20 2 -32 -6 -49 -30 -22 -33 -22 -33 -28 -9 -3 13 -8 52
-11 87 -3 35 -7 87 -10 114 -2 28 -6 57 -8 65 -27 90 -44 138 -57 153 -16 18
-45 23 -54 8z"/>
<path d="M1935 2130 c-4 -12 -4 -56 0 -98 15 -193 18 -289 15 -567 -1 -99 1
-187 5 -196 8 -20 53 -42 67 -33 7 4 8 2 4 -4 -15 -25 14 -10 31 16 14 20 18
42 16 86 -1 33 -4 65 -7 71 -7 18 10 39 27 32 8 -3 18 -21 22 -39 14 -66 37
-121 61 -147 13 -14 24 -29 24 -34 0 -4 5 -5 10 -2 6 3 10 0 10 -8 0 -23 35
-9 59 24 19 26 20 33 10 76 -6 27 -18 58 -25 70 -8 12 -14 31 -14 43 0 11 -4
20 -10 20 -5 0 -10 7 -10 15 0 8 -14 28 -31 46 -28 29 -43 36 -78 38 -18 1
-10 41 22 112 26 56 21 89 -14 89 -18 0 -59 -40 -59 -58 0 -22 -20 -12 -21 11
-3 93 -13 176 -33 277 -24 117 -47 180 -66 180 -5 0 -12 -9 -15 -20z"/>
<path d="M4779 1901 c-61 -20 -89 -42 -89 -72 0 -16 56 -33 65 -20 2 4 18 7
37 6 18 0 36 5 40 10 5 6 8 5 8 -3 0 -8 5 -9 18 -3 9 5 36 17 60 26 23 10 42
22 42 26 0 26 -127 47 -181 30z"/>
<path d="M365 1823 c-62 -16 -145 -69 -145 -95 0 -16 82 -8 108 10 18 12 42
18 72 17 65 -2 83 33 30 60 -30 16 -32 16 -65 8z"/>
<path d="M3314 1752 c-12 -9 -37 -44 -55 -76 -29 -53 -33 -69 -34 -135 0 -81
16 -131 54 -165 11 -10 19 -22 16 -26 -2 -3 20 -14 50 -24 49 -15 57 -15 83
-2 16 8 32 23 36 32 9 22 -34 73 -62 73 -77 2 -105 133 -51 242 34 67 33 66
15 85 -19 18 -26 17 -52 -4z"/>
<path d="M2582 1723 c-4 -10 -8 -52 -7 -94 l2 -76 -46 -13 c-54 -16 -91 -38
-91 -54 1 -6 9 -21 20 -34 18 -21 21 -22 59 -8 l41 14 -4 -42 c-2 -22 -7 -55
-11 -72 -9 -40 26 -79 56 -63 11 5 19 16 19 23 0 7 12 26 26 42 76 85 127 133
135 128 5 -3 9 0 9 5 0 6 6 11 14 11 23 0 26 38 4 65 -13 17 -26 24 -37 20
-27 -11 -111 -23 -115 -16 -2 3 -7 39 -10 80 -4 41 -12 81 -18 88 -15 18 -36
16 -46 -4z"/>
<path d="M3845 1728 c-54 -30 -77 -90 -70 -185 9 -111 104 -219 155 -175 8 7
27 21 42 32 18 14 30 35 36 63 l8 42 17 -30 c26 -48 51 -72 88 -88 31 -13 40
-12 79 3 39 15 46 22 53 56 16 72 -12 167 -65 224 -10 10 -18 25 -18 33 0 57
-108 42 -141 -20 -15 -28 -26 -29 -33 -5 -12 38 -43 59 -87 60 -24 1 -53 -4
-64 -10z m310 -200 c4 -27 4 -48 1 -48 -17 0 -46 69 -46 110 l0 45 19 -30 c11
-16 22 -51 26 -77z m-266 68 c6 -13 6 -40 1 -62 -5 -21 -7 -42 -4 -46 3 -4 1
-8 -5 -8 -12 0 -35 39 -27 47 2 3 1 15 -3 27 -9 24 3 66 19 66 6 0 15 -11 19
-24z"/>
<path d="M1685 1665 c-17 -9 -43 -34 -57 -56 -24 -37 -27 -49 -23 -113 2 -40
11 -92 19 -116 9 -25 16 -55 16 -67 0 -12 5 -25 10 -28 6 -3 10 -16 10 -27 0
-25 27 -47 57 -48 35 0 39 31 19 150 -3 19 -8 53 -10 75 -3 22 -10 53 -15 68
-16 42 -13 65 10 78 17 9 25 7 45 -12 13 -12 24 -27 24 -33 1 -21 44 -44 68
-35 27 10 28 33 3 92 -32 74 -108 105 -176 72z"/>
<path d="M1339 1647 c-20 -15 -46 -65 -56 -108 -11 -50 -9 -169 3 -177 6 -4
15 -18 19 -32 15 -49 92 -88 138 -70 81 31 136 215 91 303 -39 74 -147 121
-195 84z m76 -121 c8 -16 15 -41 15 -56 0 -50 -13 -120 -22 -120 -23 0 -48 67
-48 131 0 36 3 68 6 71 12 13 36 0 49 -26z"/>
<path d="M4776 1523 c-4 -4 -24 -6 -46 -5 -46 3 -75 -10 -91 -39 -9 -17 -7
-24 10 -40 22 -21 61 -38 101 -45 33 -6 69 -13 100 -20 39 -9 61 -6 79 10 10
9 22 16 28 16 6 0 14 12 17 26 5 19 1 33 -13 48 -12 12 -21 28 -21 34 0 7 -8
12 -17 13 -10 0 -46 2 -79 4 -34 2 -65 1 -68 -2z"/>
<path d="M313 1462 c-98 -27 -127 -67 -79 -109 26 -23 89 -24 154 -2 20 7 41
13 45 14 5 0 15 8 22 18 7 10 16 18 19 18 23 -3 27 3 24 37 l-3 37 -60 2 c-33
1 -88 -6 -122 -15z"/>
<path d="M445 1122 c-27 -20 -68 -54 -90 -76 -38 -37 -39 -40 -19 -48 24 -11
109 24 118 48 3 8 12 14 21 14 8 0 15 4 15 9 0 6 14 18 30 28 20 12 30 24 28
37 -5 33 -48 28 -103 -12z"/>
<path d="M4563 1073 c-29 -11 -7 -61 29 -67 34 -6 65 -20 86 -39 12 -11 22
-17 22 -13 0 4 12 -1 28 -12 29 -20 83 -23 90 -3 13 40 -40 94 -118 119 -42
13 -120 22 -137 15z"/>
<path d="M4332 931 c-25 -15 -24 -59 2 -98 14 -20 26 -44 26 -51 0 -7 11 -28
25 -46 14 -18 25 -40 25 -48 0 -9 7 -18 15 -22 8 -3 12 -11 10 -18 -5 -13 12
-37 52 -69 37 -30 43 -30 77 -4 31 24 34 29 25 53 -22 62 -85 158 -139 212
-14 14 -34 36 -45 50 -26 31 -59 50 -73 41z"/>
<path d="M458 855 c-38 -25 -68 -49 -68 -55 0 -5 -7 -10 -16 -10 -8 0 -43 -29
-78 -65 -59 -61 -63 -70 -57 -116 1 -3 7 -6 14 -6 6 0 19 -4 28 -7 10 -5 29 5
55 28 21 20 42 36 45 36 3 0 23 16 45 35 21 19 42 35 47 35 4 0 7 7 7 16 0 8
5 12 10 9 6 -3 10 1 10 9 0 9 4 16 9 16 15 0 80 86 73 97 -18 30 -57 23 -124
-22z"/>
<path d="M4035 841 c-16 -50 61 -198 118 -227 24 -13 28 -13 33 1 10 26 -6 86
-39 145 -50 87 -51 88 -79 95 -21 5 -27 3 -33 -14z"/>
<path d="M3663 797 c-6 -13 -9 -36 -7 -52 3 -17 7 -59 9 -95 10 -129 36 -212
75 -240 27 -19 28 -19 48 -1 18 15 21 27 18 72 -3 30 -9 79 -16 109 -6 30 -12
64 -14 75 -2 11 -11 46 -20 78 -13 45 -23 60 -42 67 -36 14 -39 13 -51 -13z"/>
<path d="M785 788 c-66 -38 -166 -188 -124 -188 12 0 96 83 114 111 6 9 19 28
29 43 22 31 11 51 -19 34z"/>
<path d="M3241 772 c-5 -10 -9 -65 -9 -120 2 -87 5 -105 22 -124 l20 -21 8 29
c11 36 16 244 6 244 -3 0 -13 3 -21 6 -9 3 -20 -2 -26 -14z"/>
<path d="M2844 770 c-17 -7 -23 -20 -28 -57 -4 -36 -1 -228 4 -228 0 0 2 -39
4 -87 2 -48 7 -92 10 -97 8 -13 76 -32 88 -25 4 3 8 14 8 25 0 10 5 19 11 19
14 0 7 98 -21 270 -6 36 -11 84 -11 108 -1 23 -5 42 -9 42 -4 0 -10 9 -13 20
-6 22 -11 23 -43 10z"/>
<path d="M2486 710 c-2 -3 -4 -30 -5 -61 -3 -74 15 -138 46 -166 46 -43 53
-13 27 114 -9 43 -18 88 -20 100 -3 15 -11 21 -25 20 -11 -1 -22 -4 -23 -7z"/>
<path d="M977 618 c-80 -113 -175 -263 -182 -286 -5 -19 -1 -25 27 -36 32 -14
58 -7 58 16 0 5 9 18 20 30 11 12 20 28 20 35 0 7 4 13 8 13 5 0 15 12 23 28
7 15 21 38 31 51 10 13 18 33 18 44 0 11 3 17 6 14 7 -7 60 97 66 128 2 15 -3
21 -24 23 -22 3 -33 -6 -71 -60z"/>
<path d="M2170 659 c-15 -27 -20 -448 -6 -457 21 -13 72 -28 84 -24 7 2 12 14
12 27 0 13 5 27 10 30 6 4 7 11 4 17 -4 6 -6 41 -4 77 4 93 4 97 -4 181 -10
105 -27 153 -60 161 -20 6 -29 3 -36 -12z"/>
<path d="M1924 656 c-16 -12 -19 -27 -19 -102 0 -57 4 -89 12 -91 14 -5 20 15
28 82 3 28 8 67 11 88 6 40 -1 45 -32 23z"/>
<path d="M1255 623 c-23 -57 -24 -183 -1 -183 16 0 36 71 42 148 4 46 2 52
-15 52 -10 0 -22 -8 -26 -17z"/>
<path d="M1576 617 c-17 -17 -26 -37 -25 -54 0 -16 -2 -96 -5 -179 l-6 -150
29 -22 c17 -12 35 -22 40 -22 20 0 50 52 49 84 -1 18 2 38 6 44 3 6 2 13 -4
17 -6 4 -7 12 -3 18 9 15 12 47 3 47 -3 0 -6 26 -6 58 -1 116 -4 131 -28 158
l-23 28 -27 -27z"/>
</g>
</svg>
